<svg xmlns="http://www.w3.org/2000/svg" viewBox="0 0 408.24 104.47"><defs><style>.cls-1{fill:#666;}.cls-2{fill:#2398ad;}</style></defs><title>Asset 21</title><g id="Layer_2" data-name="Layer 2"><g id="Layer_1-2" data-name="Layer 1"><path class="cls-1" d="M63.72,104.07l6.41-18.76h3.26l6.41,18.76H77.15l-1.62-4.88H67.88l-1.6,4.88Zm4.92-7.15h6.1l-3-9.14Z"/><path class="cls-1" d="M109.44,98.94a5,5,0,0,1-1.72,4.08,7.74,7.74,0,0,1-5,1.45,9,9,0,0,1-4.23-.9,6.86,6.86,0,0,1-2.77-2.78l2-1.35a5.26,5.26,0,0,0,4.91,2.8,5.2,5.2,0,0,0,3.14-.83,2.69,2.69,0,0,0,1.15-2.28,2.58,2.58,0,0,0-.37-1.4,3.14,3.14,0,0,0-1-1,5.94,5.94,0,0,0-1.37-.62c-.52-.16-1-.31-1.62-.45-.92-.23-1.78-.46-2.57-.7a8.05,8.05,0,0,1-2.07-.93,4.16,4.16,0,0,1-1.37-1.46,4.53,4.53,0,0,1-.51-2.28,5.07,5.07,0,0,1,1.61-4,7,7,0,0,1,4.81-1.46,7.6,7.6,0,0,1,4.06.94,7.12,7.12,0,0,1,2.4,2.42l-2,1.41a5.56,5.56,0,0,0-1.78-1.88,4.9,4.9,0,0,0-2.69-.67,4.46,4.46,0,0,0-2.85.81,2.62,2.62,0,0,0-1,2.16,2.29,2.29,0,0,0,.31,1.21,2.46,2.46,0,0,0,.87.82,6.16,6.16,0,0,0,1.42.57c.56.16,1.21.33,1.93.5s1.66.47,2.43.72a7.37,7.37,0,0,1,2,1,4.39,4.39,0,0,1,1.36,1.57A5.23,5.23,0,0,1,109.44,98.94Z"/><path class="cls-1" d="M140,98.94a5,5,0,0,1-1.73,4.08,7.72,7.72,0,0,1-5,1.45,9,9,0,0,1-4.23-.9,6.86,6.86,0,0,1-2.77-2.78l2-1.35a5.25,5.25,0,0,0,4.91,2.8,5.19,5.19,0,0,0,3.13-.83,2.67,2.67,0,0,0,1.15-2.28,2.5,2.5,0,0,0-.37-1.4,3.14,3.14,0,0,0-1-1,5.75,5.75,0,0,0-1.37-.62c-.51-.16-1.05-.31-1.61-.45-.92-.23-1.78-.46-2.58-.7a8,8,0,0,1-2.06-.93,4.1,4.1,0,0,1-1.38-1.46,4.64,4.64,0,0,1-.5-2.28,5.07,5.07,0,0,1,1.6-4A7,7,0,0,1,133,84.92a7.64,7.64,0,0,1,4.07.94,7.21,7.21,0,0,1,2.4,2.42l-2,1.41a5.47,5.47,0,0,0-1.78-1.88,4.9,4.9,0,0,0-2.69-.67,4.48,4.48,0,0,0-2.85.81,2.64,2.64,0,0,0-1,2.16,2.29,2.29,0,0,0,.3,1.21,2.58,2.58,0,0,0,.88.82,6.26,6.26,0,0,0,1.41.57c.57.16,1.21.33,1.93.5s1.66.47,2.43.72a7.23,7.23,0,0,1,2,1,4.42,4.42,0,0,1,1.37,1.57A5.35,5.35,0,0,1,140,98.94Z"/><path class="cls-1" d="M172.28,94.69c0,3.37-.64,5.85-1.91,7.42a6.94,6.94,0,0,1-5.73,2.36q-3.87,0-5.75-2.4T157,94.69q0-4.93,1.86-7.35t5.77-2.42c2.58,0,4.49.79,5.75,2.37S172.28,91.34,172.28,94.69Zm-2.63,0q0-3.89-1.18-5.72a4.92,4.92,0,0,0-7.66,0,10.89,10.89,0,0,0-1.17,5.72q0,3.93,1.19,5.74a4.92,4.92,0,0,0,7.62,0Q169.65,98.64,169.65,94.69Z"/><path class="cls-1" d="M204.62,100.79A8.48,8.48,0,0,1,202.8,103a6.66,6.66,0,0,1-2.17,1.12,10,10,0,0,1-2.9.38q-4.22,0-6.21-2.44c-1.33-1.62-2-4.06-2-7.34s.66-5.7,2-7.33,3.37-2.44,6.13-2.44a9.72,9.72,0,0,1,2.92.41,6.68,6.68,0,0,1,2.18,1.11,7.14,7.14,0,0,1,1.62,2l-2.06,1.36a6.13,6.13,0,0,0-1.21-1.53,4.59,4.59,0,0,0-1.46-.82,5.78,5.78,0,0,0-2-.31A4.73,4.73,0,0,0,193.48,89a9.89,9.89,0,0,0-1.32,5.67,10.1,10.1,0,0,0,1.3,5.65,4.72,4.72,0,0,0,4.19,1.9,5.2,5.2,0,0,0,4.9-2.8Z"/><path class="cls-1" d="M228.61,104.07h-7.67v-2.16h2.59V87.44h-2.59V85.31h7.67v2.13H226v14.47h2.59Z"/><path class="cls-1" d="M244.57,104.07,251,85.31h3.26l6.41,18.76H258l-1.62-4.88h-7.65l-1.6,4.88Zm4.92-7.15h6.1l-3.05-9.14Z"/><path class="cls-1" d="M282.27,87.58v16.49h-2.5V87.58h-6.22V85.31h14.94v2.27Z"/><path class="cls-1" d="M305.4,104.07V85.31h11.46v2.27h-9v5.47h7.66v2.28H307.9v6.47h9v2.27Z"/><path class="cls-1" d="M347.51,98.94a5,5,0,0,1-1.72,4.08,7.75,7.75,0,0,1-5.06,1.45,8.91,8.91,0,0,1-4.22-.9,6.8,6.8,0,0,1-2.77-2.78l2-1.35a5.26,5.26,0,0,0,4.91,2.8,5.2,5.2,0,0,0,3.14-.83A2.68,2.68,0,0,0,345,99.13a2.58,2.58,0,0,0-.36-1.4,3.38,3.38,0,0,0-1-1,5.94,5.94,0,0,0-1.37-.62q-.78-.24-1.62-.45c-.92-.23-1.78-.46-2.57-.7a7.9,7.9,0,0,1-2.07-.93,4.28,4.28,0,0,1-1.38-1.46,4.64,4.64,0,0,1-.5-2.28,5.07,5.07,0,0,1,1.61-4,7,7,0,0,1,4.81-1.46,7.63,7.63,0,0,1,4.06.94,7.21,7.21,0,0,1,2.4,2.42l-2,1.41a5.56,5.56,0,0,0-1.78-1.88,4.9,4.9,0,0,0-2.69-.67,4.48,4.48,0,0,0-2.85.81,2.62,2.62,0,0,0-1,2.16,2.2,2.2,0,0,0,.31,1.21,2.46,2.46,0,0,0,.87.82,6.16,6.16,0,0,0,1.42.57c.56.16,1.21.33,1.93.5s1.66.47,2.43.72a7.37,7.37,0,0,1,2,1A4.39,4.39,0,0,1,347,96.48,5.23,5.23,0,0,1,347.51,98.94Z"/><path class="cls-2" d="M77.42,42A19.4,19.4,0,0,1,58,61.42H0V45.27H57.11a3.25,3.25,0,0,0,0-6.49H0V0H47A19.4,19.4,0,0,1,66.4,19.39a18.2,18.2,0,0,1-.64,4.86A19.36,19.36,0,0,1,77.42,42ZM49.29,19.39a3.23,3.23,0,0,0-3.21-3.21H16.87v6.45H46.08A3.23,3.23,0,0,0,49.29,19.39Z"/><path class="cls-2" d="M164.22.17V61.56H147.31V39H118.4V61.42H101.53V0H118.4V22.43h28.91V.17Z"/><path class="cls-2" d="M205.18,0V61.42H188.3V0Z"/><path class="cls-2" d="M306.72,30.71A30.7,30.7,0,0,1,276,61.42H229.32V45.58H275a14.88,14.88,0,0,0,0-29.75H246.2v23H229.29V0H276A30.7,30.7,0,0,1,306.72,30.71Z"/><path class="cls-2" d="M408.24,15.84H362.58a14.88,14.88,0,1,0,0,29.75h45.66V61.42H357.17a26.35,26.35,0,0,1-26.35-26.35V26.36A26.35,26.35,0,0,1,357.17,0h51.07ZM355.77,39.43V23.09H381V39.43Z"/></g></g></svg>