<svg xmlns="http://www.w3.org/2000/svg" viewBox="0 0 342.27 104.74"><defs><style>.cls-1{fill:#298269;}.cls-2{fill:#fbb03b;}.cls-3{fill:#3dc49f;}.cls-4{fill:#999;}</style></defs><title>Asset 17</title><g id="Layer_2" data-name="Layer 2"><g id="Layer_1-2" data-name="Layer 1"><rect class="cls-1" x="0.26" y="35.49" width="69.26" height="69.26"/><rect class="cls-2" x="11.2" y="56.56" width="9.8" height="48.18"/><rect class="cls-2" x="29.99" y="33.01" width="9.8" height="71.74"/><rect class="cls-2" x="48.77" y="9.45" width="9.8" height="95.29"/><polygon class="cls-3" points="69.94 104.74 0 104.74 19.32 71.34 86.72 71.34 69.94 104.74"/><polygon class="cls-2" points="15.98 57.1 9.1 57.1 12.54 51.14 15.98 45.19 19.42 51.14 22.86 57.1 15.98 57.1"/><polygon class="cls-2" points="34.64 34.01 27.77 34.01 31.2 28.06 34.64 22.1 38.08 28.06 41.52 34.01 34.64 34.01"/><polygon class="cls-2" points="53.8 11.91 46.92 11.91 50.36 5.96 53.8 0 57.24 5.96 60.67 11.91 53.8 11.91"/><path class="cls-1" d="M141.8,75.92h-12V74.53a1.15,1.15,0,0,0,.91-.39.86.86,0,0,0,.17-.74,2.55,2.55,0,0,0-.42-.92,8.34,8.34,0,0,0-.72-.94l-22.46-23.3V72.31a2.5,2.5,0,0,0,.3,1.45,3.26,3.26,0,0,0,1.53.77v1.39H97.58V74.53a2.47,2.47,0,0,0,1.58-.75,2.68,2.68,0,0,0,.31-1.47V39.36a2.38,2.38,0,0,0-.36-1.52,3,3,0,0,0-1.53-.7V35.76H111v1.38a1.08,1.08,0,0,0-1,1.17,1.91,1.91,0,0,0,.28,1,3.53,3.53,0,0,0,.67.77l21.35,22.53V39.36A2.83,2.83,0,0,0,132,38a3.47,3.47,0,0,0-1.64-.84V35.76H141.8v1.38a2.91,2.91,0,0,0-1.56.84,2.7,2.7,0,0,0-.27,1.38v33a2.39,2.39,0,0,0,.36,1.5,2.7,2.7,0,0,0,1.47.72Z"/><path class="cls-1" d="M157.11,46.69V72.31a2.41,2.41,0,0,0,.36,1.53,2.78,2.78,0,0,0,1.41.69v1.39H147.23V74.53a3,3,0,0,0,1.42-.66,2.27,2.27,0,0,0,.36-1.5V50.29a2.44,2.44,0,0,0-.34-1.52,2.72,2.72,0,0,0-1.44-.7V46.69Zm-8.49-6.88a4.44,4.44,0,1,1,1.3,3.08A4.2,4.2,0,0,1,148.62,39.81Z"/><path class="cls-1" d="M174,73.78a4.32,4.32,0,0,0,1.55.75v1.39H163.76V74.53a2.91,2.91,0,0,0,1.5-.66,2.43,2.43,0,0,0,.33-1.5V50.29a2.5,2.5,0,0,0-.36-1.55,2.51,2.51,0,0,0-1.47-.67V46.69h9.82v3.43a8.8,8.8,0,0,1,1.72-2,7.7,7.7,0,0,1,2.16-1.36,7.17,7.17,0,0,1,2.28-.58,15.88,15.88,0,0,1,2.44-.08,12.42,12.42,0,0,1,4.16.83A11.3,11.3,0,0,1,189.89,49L185.67,58l-1.33-.61.34-.72a4.4,4.4,0,0,0-.17-1.61,2.89,2.89,0,0,0-1.11-1.42,4.77,4.77,0,0,0-1.72-.72,6.61,6.61,0,0,0-1.94-.11,4.91,4.91,0,0,0-1.78.47,5.77,5.77,0,0,0-2.1,1.67,9.12,9.12,0,0,0-1.34,2.33,13,13,0,0,0-.72,2.66,16.22,16.22,0,0,0-.22,2.61v9.81A2,2,0,0,0,174,73.78Z"/><path class="cls-1" d="M206.64,72.43,196.55,50.85A6.4,6.4,0,0,0,195.3,49a3,3,0,0,0-1.86-1V46.69h12.43v1.38a2,2,0,0,0-1.42.78,1.41,1.41,0,0,0-.08,1.5l6.77,15.36,7-15.36a2.57,2.57,0,0,0,.28-1.45c-.08-.36-.5-.64-1.28-.83V46.69h11.76v1.38a3.49,3.49,0,0,0-1.88,1,5.28,5.28,0,0,0-1.28,1.77l-10.1,21.64a1.77,1.77,0,0,0-.13,1.33c.13.44.54.7,1.24.77v1.39H205.53V74.53c.82-.11,1.25-.39,1.31-.83A2.31,2.31,0,0,0,206.64,72.43Z"/><path class="cls-1" d="M265.22,75.92h-9.65V73.37a11.12,11.12,0,0,1-4,2.3,16.06,16.06,0,0,1-5.52.92,17.42,17.42,0,0,1-6.1-1.06,14.41,14.41,0,0,1-4.91-3,13.9,13.9,0,0,1-3.27-4.83,16.53,16.53,0,0,1-1.19-6.46,15.24,15.24,0,0,1,1.3-6.44A14.18,14.18,0,0,1,235.43,50a15.64,15.64,0,0,1,5.08-3,17.51,17.51,0,0,1,6-1,14.91,14.91,0,0,1,5.32.89,14.57,14.57,0,0,1,3.94,2.16V46.69h9.43v1.38a2.93,2.93,0,0,0-1.47.7,2.36,2.36,0,0,0-.36,1.52V72.37a2.27,2.27,0,0,0,.36,1.5,3.05,3.05,0,0,0,1.47.66Zm-9.65-13.65v-2.1a7.6,7.6,0,0,0-.72-3.33,8.27,8.27,0,0,0-4.47-4.19,8.11,8.11,0,0,0-3-.58,9.06,9.06,0,0,0-3.74.63,8.39,8.39,0,0,0-4.75,4.83,10.08,10.08,0,0,0-.66,3.69,10.51,10.51,0,0,0,.63,3.69,8.81,8.81,0,0,0,1.81,2.94,8,8,0,0,0,2.83,1.94,8.89,8.89,0,0,0,3.71.64,8.47,8.47,0,0,0,3.05-.58,8.92,8.92,0,0,0,2.69-1.64,7.87,7.87,0,0,0,1.92-2.55A7.74,7.74,0,0,0,255.57,62.27Z"/><path class="cls-1" d="M282,74.53v1.39H270.49V74.53a3,3,0,0,0,1.42-.66,2.27,2.27,0,0,0,.36-1.5V50.29a2.36,2.36,0,0,0-.36-1.52,2.91,2.91,0,0,0-1.42-.7V46.69h9.77v2.6a12.57,12.57,0,0,1,4.27-2.35,14.29,14.29,0,0,1,4.49-.81,17.15,17.15,0,0,1,5.77.86,9.86,9.86,0,0,1,3.83,2.36,9.21,9.21,0,0,1,2.11,3.52,14.16,14.16,0,0,1,.66,4.41v15a2.27,2.27,0,0,0,.39,1.53,3,3,0,0,0,1.44.69v1.39H291.63V74.53a3,3,0,0,0,1.41-.66,2.27,2.27,0,0,0,.36-1.5V58.06a5.89,5.89,0,0,0-1.52-4.38,6.16,6.16,0,0,0-4.58-1.45,7.09,7.09,0,0,0-2.72.53,6.72,6.72,0,0,0-2.22,1.47,7.41,7.41,0,0,0-1.52,2.27,7.11,7.11,0,0,0-.58,2.89V72.31a2.35,2.35,0,0,0,.36,1.53A2.78,2.78,0,0,0,282,74.53Z"/><path class="cls-1" d="M342.27,75.92h-9.65V73.37a11.12,11.12,0,0,1-4,2.3,16.06,16.06,0,0,1-5.52.92,17.42,17.42,0,0,1-6.1-1.06,14.41,14.41,0,0,1-4.91-3,14,14,0,0,1-3.27-4.83,16.53,16.53,0,0,1-1.19-6.46,15.24,15.24,0,0,1,1.3-6.44A14.18,14.18,0,0,1,312.48,50a15.64,15.64,0,0,1,5.08-3,17.51,17.51,0,0,1,6-1,14.87,14.87,0,0,1,5.32.89,14.57,14.57,0,0,1,3.94,2.16V46.69h9.43v1.38a2.93,2.93,0,0,0-1.47.7,2.36,2.36,0,0,0-.36,1.52V72.37a2.27,2.27,0,0,0,.36,1.5,3.05,3.05,0,0,0,1.47.66Zm-9.65-13.65v-2.1a7.6,7.6,0,0,0-.72-3.33,8.27,8.27,0,0,0-4.47-4.19,8.07,8.07,0,0,0-3-.58,9.06,9.06,0,0,0-3.74.63,8.39,8.39,0,0,0-4.75,4.83,10.08,10.08,0,0,0-.66,3.69,10.29,10.29,0,0,0,.64,3.69,8.63,8.63,0,0,0,1.8,2.94,8.07,8.07,0,0,0,2.83,1.94,8.92,8.92,0,0,0,3.71.64,8.56,8.56,0,0,0,3.06-.58A9.17,9.17,0,0,0,330,68.21a8,8,0,0,0,1.91-2.55A7.74,7.74,0,0,0,332.62,62.27Z"/><path class="cls-4" d="M130.16,90H136v1.14h-4.66v3.64H136V95.9h-4.66v5.7h-1.16Z"/><path class="cls-4" d="M138.2,89.48a.85.85,0,0,1,.64.27.88.88,0,0,1,.27.65.89.89,0,0,1-.27.64.84.84,0,0,1-.64.26.86.86,0,0,1-.64-.26.92.92,0,0,1,.64-1.56ZM137.65,93h1.11v8.58h-1.11Z"/><path class="cls-4" d="M141.05,93h1.11v1.54a4.77,4.77,0,0,1,1.46-1.33,3.67,3.67,0,0,1,1.76-.43,3,3,0,0,1,1.7.49,2.9,2.9,0,0,1,1.11,1.31,7.19,7.19,0,0,1,.35,2.58v4.42h-1.1V97.51a10,10,0,0,0-.13-2,2.22,2.22,0,0,0-.73-1.29,2.29,2.29,0,0,0-1.42-.43,2.7,2.7,0,0,0-1.8.67,3.11,3.11,0,0,0-1.05,1.64,11.89,11.89,0,0,0-.15,2.33v3.15h-1.11Z"/><path class="cls-4" d="M159.46,93v8.58h-1.09v-1.47a4.78,4.78,0,0,1-1.56,1.27,4.37,4.37,0,0,1-5-.9,4.42,4.42,0,0,1-1.29-3.21,4.35,4.35,0,0,1,1.3-3.18A4.27,4.27,0,0,1,155,92.8a4,4,0,0,1,1.91.45,4.34,4.34,0,0,1,1.5,1.35V93Zm-4.41.84a3.3,3.3,0,0,0-3,1.73,3.42,3.42,0,0,0-.46,1.73,3.53,3.53,0,0,0,.47,1.74,3.28,3.28,0,0,0,1.25,1.28,3.23,3.23,0,0,0,1.68.47,3.52,3.52,0,0,0,1.72-.46A3.31,3.31,0,0,0,158,99.11a3.56,3.56,0,0,0,.43-1.76,3.4,3.4,0,0,0-1-2.49A3.27,3.27,0,0,0,155.05,93.86Z"/><path class="cls-4" d="M162,93h1.1v1.54a4.69,4.69,0,0,1,1.47-1.33,3.63,3.63,0,0,1,1.75-.43,3,3,0,0,1,1.71.49,2.88,2.88,0,0,1,1.1,1.31,7,7,0,0,1,.35,2.58v4.42h-1.1V97.51a10.31,10.31,0,0,0-.12-2,2.23,2.23,0,0,0-.74-1.29,2.27,2.27,0,0,0-1.42-.43,2.7,2.7,0,0,0-1.8.67,3.16,3.16,0,0,0-1,1.64,10.93,10.93,0,0,0-.16,2.33v3.15H162Z"/><path class="cls-4" d="M180.13,94.8l-.87.54a3.68,3.68,0,0,0-3.1-1.5,3.55,3.55,0,0,0-2.6,1,3.3,3.3,0,0,0-1,2.45,3.45,3.45,0,0,0,.48,1.76,3.32,3.32,0,0,0,1.31,1.29,3.94,3.94,0,0,0,4.95-1l.87.57a4.12,4.12,0,0,1-1.65,1.44,5.28,5.28,0,0,1-2.36.51,4.69,4.69,0,0,1-3.38-1.29,4.22,4.22,0,0,1-1.34-3.15,4.52,4.52,0,0,1,.63-2.32,4.43,4.43,0,0,1,1.72-1.66,5.33,5.33,0,0,1,4.1-.34,4.5,4.5,0,0,1,1.35.68A3.55,3.55,0,0,1,180.13,94.8Z"/><path class="cls-4" d="M189.49,98.75l.93.49a5,5,0,0,1-1.06,1.45,4.34,4.34,0,0,1-1.35.85,4.77,4.77,0,0,1-1.7.28,4.13,4.13,0,0,1-3.29-1.37,4.66,4.66,0,0,1-1.18-3.12,4.57,4.57,0,0,1,1-2.91,4.11,4.11,0,0,1,3.41-1.62,4.22,4.22,0,0,1,3.5,1.66,4.65,4.65,0,0,1,.95,2.94H183a3.53,3.53,0,0,0,1,2.45,3.05,3.05,0,0,0,2.28,1,3.71,3.71,0,0,0,1.28-.23,3.43,3.43,0,0,0,1.06-.61A5.5,5.5,0,0,0,189.49,98.75Zm0-2.31a3.7,3.7,0,0,0-.65-1.41,3,3,0,0,0-1.12-.85,3.35,3.35,0,0,0-1.46-.33,3.12,3.12,0,0,0-2.17.82,3.59,3.59,0,0,0-1,1.77Z"/><path class="cls-4" d="M206.2,97.31l.78.83a16.24,16.24,0,0,1-1.43,1.16q.47.44,1.23,1.2c.4.4.75.76,1,1.1H206.2L204.66,100a10.49,10.49,0,0,1-2.36,1.52,5.15,5.15,0,0,1-1.92.35,3,3,0,0,1-2.15-.77,2.53,2.53,0,0,1-.81-1.92,3.28,3.28,0,0,1,.54-1.74,10,10,0,0,1,2.24-2.2,10.6,10.6,0,0,1-1.23-1.7,2.41,2.41,0,0,1-.27-1,1.8,1.8,0,0,1,.67-1.43,2.84,2.84,0,0,1,1.93-.67,2.91,2.91,0,0,1,1.32.3,2.15,2.15,0,0,1,.92.78,1.92,1.92,0,0,1,.31,1.05,2.31,2.31,0,0,1-.41,1.24,8,8,0,0,1-1.62,1.68l1.76,1.85,1.16,1.17C205.36,98,205.84,97.63,206.2,97.31ZM201,96.13A9.24,9.24,0,0,0,199,97.9a2.16,2.16,0,0,0-.46,1.22,1.53,1.53,0,0,0,.56,1.18,2,2,0,0,0,1.37.51,3,3,0,0,0,1.21-.26,9.64,9.64,0,0,0,2.14-1.36L202,97.3C201.71,97,201.35,96.58,201,96.13Zm.15-1.53a6.11,6.11,0,0,0,1.27-1.29,1.51,1.51,0,0,0,.3-.8.84.84,0,0,0-.39-.69,1.67,1.67,0,0,0-1-.29,1.6,1.6,0,0,0-1,.3.87.87,0,0,0-.39.71,1.24,1.24,0,0,0,.16.59A10.33,10.33,0,0,0,201.11,94.6Z"/><path class="cls-4" d="M224.93,92.15l-.92.7a5,5,0,0,0-1.81-1.49,5.35,5.35,0,0,0-2.34-.51,5.2,5.2,0,0,0-2.57.66,4.84,4.84,0,0,0-1.83,1.79,4.92,4.92,0,0,0-.65,2.53,4.76,4.76,0,0,0,1.45,3.55,5.09,5.09,0,0,0,3.68,1.42A5.16,5.16,0,0,0,224,98.89l.92.69a5.78,5.78,0,0,1-2.17,1.71,6.81,6.81,0,0,1-2.9.6,6,6,0,0,1-4.8-2,6.16,6.16,0,0,1-1.48-4.14,5.76,5.76,0,0,1,1.79-4.29,6.15,6.15,0,0,1,4.48-1.74,6.54,6.54,0,0,1,2.93.65A5.71,5.71,0,0,1,224.93,92.15Z"/><path class="cls-4" d="M231.14,92.8a4.25,4.25,0,0,1,3.29,1.43,4.63,4.63,0,0,1-.07,6.25,4.55,4.55,0,0,1-6.45,0,4.51,4.51,0,0,1-1.25-3.15,4.44,4.44,0,0,1,1.18-3.09A4.26,4.26,0,0,1,231.14,92.8Zm0,1.08a3.19,3.19,0,0,0-2.37,1,3.37,3.37,0,0,0-1,2.46,3.46,3.46,0,0,0,.45,1.73,3.26,3.26,0,0,0,1.22,1.25,3.52,3.52,0,0,0,3.37,0A3.19,3.19,0,0,0,234,99.09a3.46,3.46,0,0,0,.45-1.73,3.37,3.37,0,0,0-1-2.46A3.18,3.18,0,0,0,231.14,93.88Z"/><path class="cls-4" d="M237.66,93h1.1v1.54a4.69,4.69,0,0,1,1.47-1.33A3.63,3.63,0,0,1,242,92.8a3,3,0,0,1,1.71.49,2.88,2.88,0,0,1,1.1,1.31,6.93,6.93,0,0,1,.36,2.58v4.42H244V97.51a10.31,10.31,0,0,0-.12-2,2.18,2.18,0,0,0-.74-1.29,2.25,2.25,0,0,0-1.42-.43,2.66,2.66,0,0,0-1.79.67,3.11,3.11,0,0,0-1.05,1.64,11.66,11.66,0,0,0-.16,2.33v3.15h-1.1Z"/><path class="cls-4" d="M251.83,94l-.71.73a2.57,2.57,0,0,0-1.73-.86,1.32,1.32,0,0,0-.92.35,1.11,1.11,0,0,0-.39.83,1.24,1.24,0,0,0,.32.8,4.38,4.38,0,0,0,1.33.91A4.75,4.75,0,0,1,251.4,98a2.25,2.25,0,0,1,.44,1.35,2.42,2.42,0,0,1-.75,1.79,2.51,2.51,0,0,1-1.85.73,3.24,3.24,0,0,1-2.54-1.21l.7-.79a2.38,2.38,0,0,0,1.79,1,1.63,1.63,0,0,0,1.13-.42,1.33,1.33,0,0,0,.47-1,1.27,1.27,0,0,0-.31-.85,4.92,4.92,0,0,0-1.39-.91,4.41,4.41,0,0,1-1.58-1.19,2.22,2.22,0,0,1-.42-1.33,2.16,2.16,0,0,1,.67-1.63,2.3,2.3,0,0,1,1.68-.64A3.47,3.47,0,0,1,251.83,94Z"/><path class="cls-4" d="M253.64,93h1.11v4a8.33,8.33,0,0,0,.16,2,2.27,2.27,0,0,0,.9,1.24,2.73,2.73,0,0,0,1.59.46,2.67,2.67,0,0,0,1.57-.45,2.21,2.21,0,0,0,.89-1.17A8.19,8.19,0,0,0,260,97V93h1.13v4.21a6.62,6.62,0,0,1-.42,2.68,3.12,3.12,0,0,1-1.24,1.4,4.56,4.56,0,0,1-4.19,0,3.14,3.14,0,0,1-1.25-1.42,6.82,6.82,0,0,1-.42-2.74Z"/><path class="cls-4" d="M263.45,89.7h1.1v11.9h-1.1Z"/><path class="cls-4" d="M267.81,89.83h1.1V93h1.76v1h-1.76v7.63h-1.1V94H266.3V93h1.51Z"/><path class="cls-4" d="M280.88,93v8.58h-1.09v-1.47a5,5,0,0,1-1.56,1.27,4.29,4.29,0,0,1-1.89.42,4.18,4.18,0,0,1-3.11-1.32,4.42,4.42,0,0,1-1.29-3.21,4.35,4.35,0,0,1,1.3-3.18,4.27,4.27,0,0,1,3.13-1.31,4,4,0,0,1,1.91.45,4.37,4.37,0,0,1,1.51,1.35V93Zm-4.42.84a3.35,3.35,0,0,0-1.7.45,3.32,3.32,0,0,0-1.24,1.28,3.42,3.42,0,0,0-.46,1.73,3.51,3.51,0,0,0,.46,1.74,3.34,3.34,0,0,0,1.25,1.28,3.23,3.23,0,0,0,1.68.47,3.49,3.49,0,0,0,1.72-.46,3.24,3.24,0,0,0,1.25-1.24,3.56,3.56,0,0,0,.44-1.76,3.44,3.44,0,0,0-1-2.49A3.29,3.29,0,0,0,276.46,93.86Z"/><path class="cls-4" d="M283.36,93h1.11v1.54a4.77,4.77,0,0,1,1.46-1.33,3.64,3.64,0,0,1,1.76-.43,3,3,0,0,1,1.7.49,2.82,2.82,0,0,1,1.1,1.31,6.93,6.93,0,0,1,.36,2.58v4.42h-1.11V97.51a10.31,10.31,0,0,0-.12-2,2.22,2.22,0,0,0-.73-1.29,2.29,2.29,0,0,0-1.42-.43,2.7,2.7,0,0,0-1.8.67,3.11,3.11,0,0,0-1.05,1.64,11.89,11.89,0,0,0-.15,2.33v3.15h-1.11Z"/><path class="cls-4" d="M301.55,94.8l-.88.54a3.66,3.66,0,0,0-3.09-1.5,3.56,3.56,0,0,0-2.61,1,3.3,3.3,0,0,0-1,2.45,3.52,3.52,0,0,0,1.79,3,3.85,3.85,0,0,0,1.86.46,3.79,3.79,0,0,0,3.09-1.51l.88.57a4.12,4.12,0,0,1-1.65,1.44,5.32,5.32,0,0,1-2.37.51,4.66,4.66,0,0,1-3.37-1.29,4.19,4.19,0,0,1-1.35-3.15,4.52,4.52,0,0,1,.63-2.32,4.39,4.39,0,0,1,1.73-1.66,5.3,5.3,0,0,1,4.09-.34,4.5,4.5,0,0,1,1.35.68A3.58,3.58,0,0,1,301.55,94.8Z"/><path class="cls-4" d="M302.75,93h1.17l2.95,6.61L309.73,93h1.18l-5.12,11.72h-1.17l1.65-3.79Z"/></g></g></svg>