<svg xmlns="http://www.w3.org/2000/svg" xmlns:xlink="http://www.w3.org/1999/xlink" viewBox="0 0 267.15 103.27"><defs><style>.cls-1{fill:none;}.cls-2{fill:#0071bc;}.cls-3{fill:#00a99d;}.cls-4{clip-path:url(#clip-path);}.cls-5{fill:#0098a6;}.cls-6{fill:#0097a7;}.cls-7{fill:#0096a7;}.cls-8{fill:#0095a8;}.cls-9{fill:#0094a9;}.cls-10{fill:#0093a9;}.cls-11{fill:#0092aa;}.cls-12{fill:#0091aa;}.cls-13{fill:#0090ab;}.cls-14{fill:#008fac;}.cls-15{fill:#008eac;}.cls-16{fill:#008cad;}.cls-17{fill:#008bad;}.cls-18{fill:#009da4;}.cls-19{fill:#009ca4;}.cls-20{fill:#009aa5;}.cls-21{fill:#0099a6;}.cls-22{fill:#008aae;}.cls-23{fill:#0089af;}.cls-24{fill:#0088af;}.cls-25{fill:#0087b0;}.cls-26{fill:#0086b0;}.cls-27{fill:#0085b1;}.cls-28{fill:#0084b1;}.cls-29{fill:#0083b2;}.cls-30{fill:#0082b3;}.cls-31{fill:#0081b3;}.cls-32{fill:#0080b4;}.cls-33{clip-path:url(#clip-path-2);}.cls-34{fill:#007fb4;}.cls-35{fill:#007eb5;}.cls-36{fill:#007db5;}.cls-37{fill:#007cb6;}.cls-38{fill:#007bb6;}.cls-39{fill:#00a2a1;}.cls-40{fill:#00a1a1;}.cls-41{fill:#00a0a2;}.cls-42{fill:#009fa3;}.cls-43{fill:#009ea3;}.cls-44{clip-path:url(#clip-path-3);}.cls-45{clip-path:url(#clip-path-4);}.cls-46{clip-path:url(#clip-path-5);}.cls-47{clip-path:url(#clip-path-6);}</style><clipPath id="clip-path"><path class="cls-1" d="M124.2,39.24V33c0-1.72-.7-2.58-2.09-2.58-1.92,0-2.87,1.3-2.87,3.9a7.12,7.12,0,0,1-.5,3.13,4.1,4.1,0,0,1-2.26,1.6,10.57,10.57,0,0,1-3.75.66q-4.1,0-4.1-4.39a8,8,0,0,1,3.56-6.73,15.38,15.38,0,0,1,9.3-2.61,20.83,20.83,0,0,1,6.79,1,9.66,9.66,0,0,1,4.81,3.47,8.92,8.92,0,0,1,1.81,5.38V65.29c0,.15.37.47,1,1a1.66,1.66,0,0,1,.64,1.42,3.5,3.5,0,0,1-.35,1.82,3.33,3.33,0,0,1-1.73,1,10.78,10.78,0,0,1-3.43.46,8.69,8.69,0,0,1-4.19-.92,6.14,6.14,0,0,1-2.61-3.6,17.57,17.57,0,0,1-4.54,3.71,8.42,8.42,0,0,1-3.58.81,7.26,7.26,0,0,1-6.33-3.21q-2.25-3.19-2.25-10.48c0-4.85.7-8.21,2.1-10.09s4.13-3.61,8.19-5.2Q121.65,40.47,124.2,39.24Zm0,4.19c-2.43,1.08-3.88,2.28-4.35,3.62s-.71,4.36-.71,9.06q0,5.19.58,6.55a2,2,0,0,0,2,1.37q2.48,0,2.48-4.12Z"/></clipPath><clipPath id="clip-path-2"><path class="cls-1" d="M137.06,78.44V75.63a1.23,1.23,0,0,1,.15-.71,1.75,1.75,0,0,1,.85-.38,3.55,3.55,0,0,0,2.55-2,7.21,7.21,0,0,0,.58-2.42V33.22a2.82,2.82,0,0,0-1.07-2.58,2.45,2.45,0,0,1-.75-.68,2.21,2.21,0,0,1-.12-.9v-1.9c.05-.48.36-.71.94-.71H150.6c.84,0,1.25.44,1.25,1.32V63.48a17.16,17.16,0,0,1-1.8,8.12,12.24,12.24,0,0,1-5,5.18A15.85,15.85,0,0,1,137.06,78.44Zm10.6-61.15A7.28,7.28,0,0,1,151,18a2.16,2.16,0,0,1,1.42,1.94c0,1.14-.77,2.15-2.3,3A10.11,10.11,0,0,1,145,24.29q-4.85,0-4.84-3c0-1.07.78-2,2.32-2.8A11.21,11.21,0,0,1,147.66,17.29Z"/></clipPath><clipPath id="clip-path-3"><path class="cls-1" d="M173,39.24V33q0-2.58-2.1-2.58-2.86,0-2.87,3.9a7.15,7.15,0,0,1-.49,3.13,4.1,4.1,0,0,1-2.26,1.6,10.58,10.58,0,0,1-3.76.66c-2.72,0-4.09-1.46-4.09-4.39A8,8,0,0,1,161,28.61a15.38,15.38,0,0,1,9.3-2.61,20.87,20.87,0,0,1,6.79,1,9.7,9.7,0,0,1,4.81,3.47,9,9,0,0,1,1.81,5.38V65.29c0,.15.36.47,1,1a1.66,1.66,0,0,1,.64,1.42,3.5,3.5,0,0,1-.35,1.82,3.33,3.33,0,0,1-1.73,1,10.82,10.82,0,0,1-3.43.46,8.66,8.66,0,0,1-4.19-.92,6.14,6.14,0,0,1-2.61-3.6,17.58,17.58,0,0,1-4.55,3.71,8.37,8.37,0,0,1-3.57.81,7.26,7.26,0,0,1-6.33-3.21q-2.25-3.19-2.25-10.48t2.1-10.09q2.08-2.82,8.18-5.2Q170.45,40.47,173,39.24Zm0,4.19c-2.43,1.08-3.88,2.28-4.35,3.62s-.71,4.36-.71,9.06q0,5.19.58,6.55a2,2,0,0,0,2,1.37Q173,64,173,59.91Z"/></clipPath><clipPath id="clip-path-4"><path class="cls-1" d="M200.36,30.83Q204.2,26,209.13,26a6.28,6.28,0,0,1,5.15,2.17,8.32,8.32,0,0,1,1.78,5.46V64.51a1.78,1.78,0,0,0,.81,1.58c.49.3.74,1.08.74,2.32a3.47,3.47,0,0,1-.25,1.77c-.16.2-.49.29-1,.29h-9.06a5.33,5.33,0,0,1-1.93-4.28V35.54c0-1.68-.69-2.52-2.06-2.52a4.58,4.58,0,0,0-2.94,1.42V64.51a2,2,0,0,0,1.13,1.81,1.49,1.49,0,0,1,.68,1.42v1.64c0,.73-.53,1.09-1.58,1.09H189.15a1.58,1.58,0,0,1-1.07-.24,2,2,0,0,1-.22-1.21V67.83a1.47,1.47,0,0,1,.58-1.32,3,3,0,0,0,1-1,6.24,6.24,0,0,0,.22-2.13V31.83a1.7,1.7,0,0,0-1.09-1.64,1.06,1.06,0,0,1-.62-1v-1.7c0-.67.3-1,.91-1h10.5c.46,0,.73.06.84.19a1.36,1.36,0,0,1,.16.81Z"/></clipPath><clipPath id="clip-path-5"><path class="cls-1" d="M221.89,30.86h-1.25a1.17,1.17,0,0,1-.7-.13c-.09-.08-.14-.32-.14-.71V27.7a1.6,1.6,0,0,1,.14-.83,1.39,1.39,0,0,1,.86-.29A9,9,0,0,0,225.47,24a8.8,8.8,0,0,0,2.81-4.77,2.08,2.08,0,0,1,.4-1.11,1.59,1.59,0,0,1,1-.21h2.1c.55,0,.83.37.83,1.12v7.42h2c.75,0,1.13.35,1.13,1.06v2.32c0,.69-.38,1-1.13,1h-2V64.25a2.53,2.53,0,0,0,1.52,2.45,1.91,1.91,0,0,1,1,.87,5.34,5.34,0,0,1,.22,1.87,2.05,2.05,0,0,1-.11.94,1.86,1.86,0,0,1-.79.09H224.21c-1.54-1.37-2.32-3.44-2.32-6.22Z"/></clipPath><clipPath id="clip-path-6"><path class="cls-1" d="M254.83,39.24V33c0-1.72-.69-2.58-2.09-2.58q-2.87,0-2.87,3.9a7.12,7.12,0,0,1-.5,3.13,4,4,0,0,1-2.26,1.6,10.57,10.57,0,0,1-3.75.66q-4.1,0-4.09-4.39a8,8,0,0,1,3.56-6.73,15.34,15.34,0,0,1,9.3-2.61,20.81,20.81,0,0,1,6.78,1,9.68,9.68,0,0,1,4.82,3.47,8.91,8.91,0,0,1,1.8,5.38V65.29a3.8,3.8,0,0,0,1,1,1.67,1.67,0,0,1,.65,1.42,3.38,3.38,0,0,1-.36,1.82,3.33,3.33,0,0,1-1.72,1,10.89,10.89,0,0,1-3.44.46,8.69,8.69,0,0,1-4.19-.92,6.22,6.22,0,0,1-2.61-3.6,17.57,17.57,0,0,1-4.54,3.71,8.38,8.38,0,0,1-3.58.81,7.28,7.28,0,0,1-6.33-3.21q-2.24-3.19-2.24-10.48t2.09-10.09q2.1-2.82,8.19-5.2Q252.29,40.47,254.83,39.24Zm0,4.19c-2.42,1.08-3.87,2.28-4.35,3.62s-.71,4.36-.71,9.06c0,3.46.2,5.64.58,6.55a2,2,0,0,0,2,1.37c1.66,0,2.48-1.37,2.48-4.12Z"/></clipPath></defs><title>Asset 19</title><g id="Layer_2" data-name="Layer 2"><g id="Layer_1-2" data-name="Layer 1"><path class="cls-2" d="M94.6,103.27H0V0H94.6ZM.79,102.49h93V.79H.79Z"/><polygon class="cls-2" points="20.98 64.2 26.23 69.83 0.48 102.88 20.98 64.2"/><polygon class="cls-2" points="94.12 102.88 79.14 102.88 47.3 42.8 32.89 61.29 25.13 56.37 47.3 14.54 94.12 102.88"/><polygon class="cls-3" points="60.55 102.88 94.12 102.88 12.85 51.64 60.55 102.88"/><polygon class="cls-3" points="60.55 102.88 94.12 102.88 12.85 51.64 60.55 102.88"/><g class="cls-4"><rect class="cls-5" x="119.14" y="62.86" width="5.06" height="1.16"/><rect class="cls-6" x="119.14" y="61.22" width="5.06" height="1.64"/><rect class="cls-7" x="119.14" y="59.58" width="5.06" height="1.64"/><rect class="cls-8" x="119.14" y="57.93" width="5.06" height="1.64"/><rect class="cls-9" x="119.14" y="56.29" width="5.06" height="1.64"/><rect class="cls-10" x="119.14" y="54.64" width="5.06" height="1.64"/><rect class="cls-11" x="119.14" y="53" width="5.06" height="1.64"/><rect class="cls-12" x="119.14" y="51.35" width="5.06" height="1.64"/><rect class="cls-13" x="119.14" y="49.71" width="5.06" height="1.64"/><rect class="cls-14" x="119.14" y="48.06" width="5.06" height="1.64"/><rect class="cls-15" x="119.14" y="46.42" width="5.06" height="1.64"/><rect class="cls-16" x="119.14" y="44.77" width="5.06" height="1.64"/><rect class="cls-17" x="119.14" y="43.43" width="5.06" height="1.34"/><rect class="cls-18" x="107.5" y="69.44" width="29.01" height="1.48"/><rect class="cls-19" x="107.5" y="67.8" width="29.01" height="1.64"/><rect class="cls-20" x="107.5" y="66.15" width="29.01" height="1.64"/><rect class="cls-21" x="107.5" y="64.51" width="29.01" height="1.64"/><rect class="cls-5" x="107.5" y="62.86" width="29.01" height="1.64"/><rect class="cls-6" x="107.5" y="61.22" width="29.01" height="1.64"/><rect class="cls-7" x="107.5" y="59.58" width="29.01" height="1.64"/><rect class="cls-8" x="107.5" y="57.93" width="29.01" height="1.64"/><rect class="cls-9" x="107.5" y="56.29" width="29.01" height="1.64"/><rect class="cls-10" x="107.5" y="54.64" width="29.01" height="1.64"/><rect class="cls-11" x="107.5" y="53" width="29.01" height="1.64"/><rect class="cls-12" x="107.5" y="51.35" width="29.01" height="1.64"/><rect class="cls-13" x="107.5" y="49.71" width="29.01" height="1.64"/><rect class="cls-14" x="107.5" y="48.06" width="29.01" height="1.64"/><rect class="cls-15" x="107.5" y="46.42" width="29.01" height="1.64"/><rect class="cls-16" x="107.5" y="44.77" width="29.01" height="1.64"/><rect class="cls-17" x="107.5" y="43.13" width="29.01" height="1.64"/><rect class="cls-22" x="107.5" y="41.48" width="29.01" height="1.64"/><rect class="cls-23" x="107.5" y="39.84" width="29.01" height="1.64"/><rect class="cls-24" x="107.5" y="38.19" width="29.01" height="1.64"/><rect class="cls-25" x="107.5" y="36.55" width="29.01" height="1.64"/><rect class="cls-26" x="107.5" y="34.9" width="29.01" height="1.64"/><rect class="cls-27" x="107.5" y="33.26" width="29.01" height="1.64"/><rect class="cls-28" x="107.5" y="31.61" width="29.01" height="1.64"/><rect class="cls-29" x="107.5" y="29.97" width="29.01" height="1.64"/><rect class="cls-30" x="107.5" y="28.32" width="29.01" height="1.64"/><rect class="cls-31" x="107.5" y="26.68" width="29.01" height="1.64"/><rect class="cls-32" x="107.5" y="26" width="29.01" height="0.68"/></g><g class="cls-33"><rect class="cls-34" x="140.12" y="23.39" width="12.25" height="0.9"/><rect class="cls-35" x="140.12" y="21.75" width="12.25" height="1.64"/><rect class="cls-36" x="140.12" y="20.1" width="12.25" height="1.64"/><rect class="cls-37" x="140.12" y="18.46" width="12.25" height="1.64"/><rect class="cls-38" x="140.12" y="17.29" width="12.25" height="1.16"/><rect class="cls-39" x="137.06" y="77.67" width="14.79" height="0.83"/><rect class="cls-40" x="137.06" y="76.02" width="14.79" height="1.64"/><rect class="cls-41" x="137.06" y="74.38" width="14.79" height="1.64"/><rect class="cls-42" x="137.06" y="72.73" width="14.79" height="1.64"/><rect class="cls-43" x="137.06" y="71.09" width="14.79" height="1.64"/><rect class="cls-18" x="137.06" y="69.44" width="14.79" height="1.64"/><rect class="cls-19" x="137.06" y="67.8" width="14.79" height="1.64"/><rect class="cls-20" x="137.06" y="66.15" width="14.79" height="1.64"/><rect class="cls-21" x="137.06" y="64.51" width="14.79" height="1.64"/><rect class="cls-5" x="137.06" y="62.86" width="14.79" height="1.64"/><rect class="cls-6" x="137.06" y="61.22" width="14.79" height="1.64"/><rect class="cls-7" x="137.06" y="59.58" width="14.79" height="1.64"/><rect class="cls-8" x="137.06" y="57.93" width="14.79" height="1.64"/><rect class="cls-9" x="137.06" y="56.29" width="14.79" height="1.64"/><rect class="cls-10" x="137.06" y="54.64" width="14.79" height="1.64"/><rect class="cls-11" x="137.06" y="53" width="14.79" height="1.64"/><rect class="cls-12" x="137.06" y="51.35" width="14.79" height="1.64"/><rect class="cls-13" x="137.06" y="49.71" width="14.79" height="1.64"/><rect class="cls-14" x="137.06" y="48.06" width="14.79" height="1.64"/><rect class="cls-15" x="137.06" y="46.42" width="14.79" height="1.64"/><rect class="cls-16" x="137.06" y="44.77" width="14.79" height="1.64"/><rect class="cls-17" x="137.06" y="43.13" width="14.79" height="1.64"/><rect class="cls-22" x="137.06" y="41.48" width="14.79" height="1.64"/><rect class="cls-23" x="137.06" y="39.84" width="14.79" height="1.64"/><rect class="cls-24" x="137.06" y="38.19" width="14.79" height="1.64"/><rect class="cls-25" x="137.06" y="36.55" width="14.79" height="1.64"/><rect class="cls-26" x="137.06" y="34.9" width="14.79" height="1.64"/><rect class="cls-27" x="137.06" y="33.26" width="14.79" height="1.64"/><rect class="cls-28" x="137.06" y="31.61" width="14.79" height="1.64"/><rect class="cls-29" x="137.06" y="29.97" width="14.79" height="1.64"/><rect class="cls-30" x="137.06" y="28.32" width="14.79" height="1.64"/><rect class="cls-31" x="137.06" y="26.68" width="14.79" height="1.64"/><rect class="cls-32" x="137.06" y="26.45" width="14.79" height="0.23"/></g><g class="cls-44"><rect class="cls-5" x="167.94" y="62.86" width="5.06" height="1.16"/><rect class="cls-6" x="167.94" y="61.22" width="5.06" height="1.64"/><rect class="cls-7" x="167.94" y="59.58" width="5.06" height="1.64"/><rect class="cls-8" x="167.94" y="57.93" width="5.06" height="1.64"/><rect class="cls-9" x="167.94" y="56.29" width="5.06" height="1.64"/><rect class="cls-10" x="167.94" y="54.64" width="5.06" height="1.64"/><rect class="cls-11" x="167.94" y="53" width="5.06" height="1.64"/><rect class="cls-12" x="167.94" y="51.35" width="5.06" height="1.64"/><rect class="cls-13" x="167.94" y="49.71" width="5.06" height="1.64"/><rect class="cls-14" x="167.94" y="48.06" width="5.06" height="1.64"/><rect class="cls-15" x="167.94" y="46.42" width="5.06" height="1.64"/><rect class="cls-16" x="167.94" y="44.77" width="5.06" height="1.64"/><rect class="cls-17" x="167.94" y="43.43" width="5.06" height="1.34"/><rect class="cls-18" x="156.3" y="69.44" width="29.01" height="1.48"/><rect class="cls-19" x="156.3" y="67.8" width="29.01" height="1.64"/><rect class="cls-20" x="156.3" y="66.15" width="29.01" height="1.64"/><rect class="cls-21" x="156.3" y="64.51" width="29.01" height="1.64"/><rect class="cls-5" x="156.3" y="62.86" width="29.01" height="1.64"/><rect class="cls-6" x="156.3" y="61.22" width="29.01" height="1.64"/><rect class="cls-7" x="156.3" y="59.58" width="29.01" height="1.64"/><rect class="cls-8" x="156.3" y="57.93" width="29.01" height="1.64"/><rect class="cls-9" x="156.3" y="56.29" width="29.01" height="1.64"/><rect class="cls-10" x="156.3" y="54.64" width="29.01" height="1.64"/><rect class="cls-11" x="156.3" y="53" width="29.01" height="1.64"/><rect class="cls-12" x="156.3" y="51.35" width="29.01" height="1.64"/><rect class="cls-13" x="156.3" y="49.71" width="29.01" height="1.64"/><rect class="cls-14" x="156.3" y="48.06" width="29.01" height="1.64"/><rect class="cls-15" x="156.3" y="46.42" width="29.01" height="1.64"/><rect class="cls-16" x="156.3" y="44.77" width="29.01" height="1.64"/><rect class="cls-17" x="156.3" y="43.13" width="29.01" height="1.64"/><rect class="cls-22" x="156.3" y="41.48" width="29.01" height="1.64"/><rect class="cls-23" x="156.3" y="39.84" width="29.01" height="1.64"/><rect class="cls-24" x="156.3" y="38.19" width="29.01" height="1.64"/><rect class="cls-25" x="156.3" y="36.55" width="29.01" height="1.64"/><rect class="cls-26" x="156.3" y="34.9" width="29.01" height="1.64"/><rect class="cls-27" x="156.3" y="33.26" width="29.01" height="1.64"/><rect class="cls-28" x="156.3" y="31.61" width="29.01" height="1.64"/><rect class="cls-29" x="156.3" y="29.97" width="29.01" height="1.64"/><rect class="cls-30" x="156.3" y="28.32" width="29.01" height="1.64"/><rect class="cls-31" x="156.3" y="26.68" width="29.01" height="1.64"/><rect class="cls-32" x="156.3" y="26" width="29.01" height="0.68"/></g><g class="cls-45"><rect class="cls-18" x="187.86" y="69.44" width="29.75" height="1.03"/><rect class="cls-19" x="187.86" y="67.8" width="29.75" height="1.64"/><rect class="cls-20" x="187.86" y="66.15" width="29.75" height="1.64"/><rect class="cls-21" x="187.86" y="64.51" width="29.75" height="1.64"/><rect class="cls-5" x="187.86" y="62.86" width="29.75" height="1.64"/><rect class="cls-6" x="187.86" y="61.22" width="29.75" height="1.64"/><rect class="cls-7" x="187.86" y="59.58" width="29.75" height="1.64"/><rect class="cls-8" x="187.86" y="57.93" width="29.75" height="1.64"/><rect class="cls-9" x="187.86" y="56.29" width="29.75" height="1.64"/><rect class="cls-10" x="187.86" y="54.64" width="29.75" height="1.64"/><rect class="cls-11" x="187.86" y="53" width="29.75" height="1.64"/><rect class="cls-12" x="187.86" y="51.35" width="29.75" height="1.64"/><rect class="cls-13" x="187.86" y="49.71" width="29.75" height="1.64"/><rect class="cls-14" x="187.86" y="48.06" width="29.75" height="1.64"/><rect class="cls-15" x="187.86" y="46.42" width="29.75" height="1.64"/><rect class="cls-16" x="187.86" y="44.77" width="29.75" height="1.64"/><rect class="cls-17" x="187.86" y="43.13" width="29.75" height="1.64"/><rect class="cls-22" x="187.86" y="41.48" width="29.75" height="1.64"/><rect class="cls-23" x="187.86" y="39.84" width="29.75" height="1.64"/><rect class="cls-24" x="187.86" y="38.19" width="29.75" height="1.64"/><rect class="cls-25" x="187.86" y="36.55" width="29.75" height="1.64"/><rect class="cls-26" x="187.86" y="34.9" width="29.75" height="1.64"/><rect class="cls-27" x="187.86" y="33.26" width="29.75" height="1.64"/><rect class="cls-28" x="187.86" y="31.61" width="29.75" height="1.64"/><rect class="cls-29" x="187.86" y="29.97" width="29.75" height="1.64"/><rect class="cls-30" x="187.86" y="28.32" width="29.75" height="1.64"/><rect class="cls-31" x="187.86" y="26.68" width="29.75" height="1.64"/><rect class="cls-32" x="187.86" y="26" width="29.75" height="0.68"/></g><g class="cls-46"><rect class="cls-18" x="219.8" y="69.44" width="15.92" height="1.03"/><rect class="cls-19" x="219.8" y="67.8" width="15.92" height="1.64"/><rect class="cls-20" x="219.8" y="66.15" width="15.92" height="1.64"/><rect class="cls-21" x="219.8" y="64.51" width="15.92" height="1.64"/><rect class="cls-5" x="219.8" y="62.86" width="15.92" height="1.64"/><rect class="cls-6" x="219.8" y="61.22" width="15.92" height="1.64"/><rect class="cls-7" x="219.8" y="59.58" width="15.92" height="1.64"/><rect class="cls-8" x="219.8" y="57.93" width="15.92" height="1.64"/><rect class="cls-9" x="219.8" y="56.29" width="15.92" height="1.64"/><rect class="cls-10" x="219.8" y="54.64" width="15.92" height="1.64"/><rect class="cls-11" x="219.8" y="53" width="15.92" height="1.64"/><rect class="cls-12" x="219.8" y="51.35" width="15.92" height="1.64"/><rect class="cls-13" x="219.8" y="49.71" width="15.92" height="1.64"/><rect class="cls-14" x="219.8" y="48.06" width="15.92" height="1.64"/><rect class="cls-15" x="219.8" y="46.42" width="15.92" height="1.64"/><rect class="cls-16" x="219.8" y="44.77" width="15.92" height="1.64"/><rect class="cls-17" x="219.8" y="43.13" width="15.92" height="1.64"/><rect class="cls-22" x="219.8" y="41.48" width="15.92" height="1.64"/><rect class="cls-23" x="219.8" y="39.84" width="15.92" height="1.64"/><rect class="cls-24" x="219.8" y="38.19" width="15.92" height="1.64"/><rect class="cls-25" x="219.8" y="36.55" width="15.92" height="1.64"/><rect class="cls-26" x="219.8" y="34.9" width="15.92" height="1.64"/><rect class="cls-27" x="219.8" y="33.26" width="15.92" height="1.64"/><rect class="cls-28" x="219.8" y="31.61" width="15.92" height="1.64"/><rect class="cls-29" x="219.8" y="29.97" width="15.92" height="1.64"/><rect class="cls-30" x="219.8" y="28.32" width="15.92" height="1.64"/><rect class="cls-31" x="219.8" y="26.68" width="15.92" height="1.64"/><rect class="cls-32" x="219.8" y="25.04" width="15.92" height="1.64"/><rect class="cls-34" x="219.8" y="23.39" width="15.92" height="1.64"/><rect class="cls-35" x="219.8" y="21.75" width="15.92" height="1.64"/><rect class="cls-36" x="219.8" y="20.1" width="15.92" height="1.64"/><rect class="cls-37" x="219.8" y="18.46" width="15.92" height="1.64"/><rect class="cls-38" x="219.8" y="17.91" width="15.92" height="0.55"/></g><g class="cls-47"><rect class="cls-5" x="249.77" y="62.86" width="5.06" height="1.16"/><rect class="cls-6" x="249.77" y="61.22" width="5.06" height="1.64"/><rect class="cls-7" x="249.77" y="59.58" width="5.06" height="1.64"/><rect class="cls-8" x="249.77" y="57.93" width="5.06" height="1.64"/><rect class="cls-9" x="249.77" y="56.29" width="5.06" height="1.64"/><rect class="cls-10" x="249.77" y="54.64" width="5.06" height="1.64"/><rect class="cls-11" x="249.77" y="53" width="5.06" height="1.64"/><rect class="cls-12" x="249.77" y="51.35" width="5.06" height="1.64"/><rect class="cls-13" x="249.77" y="49.71" width="5.06" height="1.64"/><rect class="cls-14" x="249.77" y="48.06" width="5.06" height="1.64"/><rect class="cls-15" x="249.77" y="46.42" width="5.06" height="1.64"/><rect class="cls-16" x="249.77" y="44.77" width="5.06" height="1.64"/><rect class="cls-17" x="249.77" y="43.43" width="5.06" height="1.34"/><rect class="cls-18" x="238.14" y="69.44" width="29.01" height="1.48"/><rect class="cls-19" x="238.14" y="67.8" width="29.01" height="1.64"/><rect class="cls-20" x="238.14" y="66.15" width="29.01" height="1.64"/><rect class="cls-21" x="238.14" y="64.51" width="29.01" height="1.64"/><rect class="cls-5" x="238.14" y="62.86" width="29.01" height="1.64"/><rect class="cls-6" x="238.14" y="61.22" width="29.01" height="1.64"/><rect class="cls-7" x="238.14" y="59.58" width="29.01" height="1.64"/><rect class="cls-8" x="238.14" y="57.93" width="29.01" height="1.64"/><rect class="cls-9" x="238.14" y="56.29" width="29.01" height="1.64"/><rect class="cls-10" x="238.14" y="54.64" width="29.01" height="1.64"/><rect class="cls-11" x="238.14" y="53" width="29.01" height="1.64"/><rect class="cls-12" x="238.14" y="51.35" width="29.01" height="1.64"/><rect class="cls-13" x="238.14" y="49.71" width="29.01" height="1.64"/><rect class="cls-14" x="238.14" y="48.06" width="29.01" height="1.64"/><rect class="cls-15" x="238.14" y="46.42" width="29.01" height="1.64"/><rect class="cls-16" x="238.14" y="44.77" width="29.01" height="1.64"/><rect class="cls-17" x="238.14" y="43.13" width="29.01" height="1.64"/><rect class="cls-22" x="238.14" y="41.48" width="29.01" height="1.64"/><rect class="cls-23" x="238.14" y="39.84" width="29.01" height="1.64"/><rect class="cls-24" x="238.14" y="38.19" width="29.01" height="1.64"/><rect class="cls-25" x="238.14" y="36.55" width="29.01" height="1.64"/><rect class="cls-26" x="238.14" y="34.9" width="29.01" height="1.64"/><rect class="cls-27" x="238.14" y="33.26" width="29.01" height="1.64"/><rect class="cls-28" x="238.14" y="31.61" width="29.01" height="1.64"/><rect class="cls-29" x="238.14" y="29.97" width="29.01" height="1.64"/><rect class="cls-30" x="238.14" y="28.32" width="29.01" height="1.64"/><rect class="cls-31" x="238.14" y="26.68" width="29.01" height="1.64"/><rect class="cls-32" x="238.14" y="26" width="29.01" height="0.68"/></g><path class="cls-2" d="M121.18,86.31h6.41v2.18h-2.11v9.43h-2.24V88.49h-2.06Z"/><path class="cls-2" d="M132.65,86.31h2.24l4.47,11.61h-2.3l-.91-2.39h-4.73l-.95,2.39h-2.3Zm1.14,3.08-1.56,4h3.11Z"/><path class="cls-2" d="M140.32,86.31h2.48L145.24,90l2.45-3.73h2.48l-3.68,5.63,3.91,6h-2.48l-2.67-4.08-2.68,4.08h-2.5l3.93-6Z"/><path class="cls-2" d="M167.44,88.47l-.91.7a5,5,0,0,0-1.82-1.5,5.33,5.33,0,0,0-2.33-.51,5.22,5.22,0,0,0-2.58.67A4.7,4.7,0,0,0,158,89.62a4.92,4.92,0,0,0-.65,2.53,4.76,4.76,0,0,0,1.45,3.55,5.09,5.09,0,0,0,3.68,1.42,5.19,5.19,0,0,0,4.08-1.91l.91.69a5.83,5.83,0,0,1-2.16,1.71,6.87,6.87,0,0,1-2.9.6,6,6,0,0,1-4.81-2,6.11,6.11,0,0,1-1.48-4.14,5.76,5.76,0,0,1,1.79-4.29A6.17,6.17,0,0,1,162.36,86a6.6,6.6,0,0,1,2.94.64A5.61,5.61,0,0,1,167.44,88.47Z"/><path class="cls-2" d="M173.66,89.11A4.25,4.25,0,0,1,177,90.55a4.63,4.63,0,0,1-.07,6.25,4.55,4.55,0,0,1-6.45,0,4.59,4.59,0,0,1-.07-6.24A4.24,4.24,0,0,1,173.66,89.11Zm0,1.08a3.19,3.19,0,0,0-2.37,1,3.41,3.41,0,0,0-1,2.47,3.37,3.37,0,0,0,.46,1.73A3.19,3.19,0,0,0,172,96.66a3.52,3.52,0,0,0,3.37,0,3.26,3.26,0,0,0,1.22-1.25,3.46,3.46,0,0,0,.45-1.73,3.41,3.41,0,0,0-1-2.47A3.19,3.19,0,0,0,173.65,90.19Z"/><path class="cls-2" d="M180.18,89.33h1.1v1.54a4.53,4.53,0,0,1,1.47-1.32,3.64,3.64,0,0,1,1.75-.44,3.06,3.06,0,0,1,1.71.49,2.89,2.89,0,0,1,1.1,1.32,6.86,6.86,0,0,1,.36,2.58v4.42h-1.11V93.83a10.51,10.51,0,0,0-.12-2,2,2,0,0,0-2.16-1.71,2.72,2.72,0,0,0-1.79.66,3.14,3.14,0,0,0-1.05,1.65,10.93,10.93,0,0,0-.16,2.33v3.15h-1.1Z"/><path class="cls-2" d="M194.35,90.27l-.71.74a2.51,2.51,0,0,0-1.73-.86,1.34,1.34,0,0,0-.92.35,1.09,1.09,0,0,0-.38.83,1.22,1.22,0,0,0,.31.8,4.52,4.52,0,0,0,1.33.91,4.9,4.9,0,0,1,1.68,1.23,2.24,2.24,0,0,1,.43,1.35,2.41,2.41,0,0,1-.74,1.79,2.55,2.55,0,0,1-1.86.73,3.2,3.2,0,0,1-1.42-.32,3.16,3.16,0,0,1-1.12-.89l.7-.79a2.38,2.38,0,0,0,1.79,1,1.66,1.66,0,0,0,1.14-.42,1.33,1.33,0,0,0,.46-1,1.27,1.27,0,0,0-.31-.84,5,5,0,0,0-1.39-.92A4.5,4.5,0,0,1,190,92.72a2.22,2.22,0,0,1-.42-1.33,2.15,2.15,0,0,1,.67-1.63,2.33,2.33,0,0,1,1.69-.65A3.5,3.5,0,0,1,194.35,90.27Z"/><path class="cls-2" d="M196.17,89.33h1.11v4a9.11,9.11,0,0,0,.15,2,2.23,2.23,0,0,0,.91,1.24,2.71,2.71,0,0,0,1.59.46,2.67,2.67,0,0,0,1.57-.45,2.21,2.21,0,0,0,.89-1.17,8.23,8.23,0,0,0,.17-2.11v-4h1.13v4.22a6.62,6.62,0,0,1-.42,2.68,3,3,0,0,1-1.25,1.4,3.91,3.91,0,0,1-2.08.51,4,4,0,0,1-2.1-.51,3,3,0,0,1-1.25-1.42,6.82,6.82,0,0,1-.42-2.74Z"/><path class="cls-2" d="M206,86h1.1v11.9H206Z"/><path class="cls-2" d="M210.34,86.14h1.11v3.19h1.75v1h-1.75v7.63h-1.11V90.29h-1.51v-1h1.51Z"/><path class="cls-2" d="M223.41,89.33v8.59h-1.09V96.45a4.85,4.85,0,0,1-1.55,1.27,4.3,4.3,0,0,1-1.9.42,4.2,4.2,0,0,1-3.11-1.32,4.43,4.43,0,0,1-1.29-3.22,4.35,4.35,0,0,1,1.3-3.17,4.26,4.26,0,0,1,3.14-1.32,4,4,0,0,1,1.91.45,4.34,4.34,0,0,1,1.5,1.35V89.33Zm-4.41.85a3.36,3.36,0,0,0-1.71.45,3.32,3.32,0,0,0-1.24,1.28,3.42,3.42,0,0,0-.46,1.73,3.55,3.55,0,0,0,.47,1.74,3.28,3.28,0,0,0,1.25,1.28,3.23,3.23,0,0,0,1.68.47,3.52,3.52,0,0,0,1.72-.46A3.24,3.24,0,0,0,222,95.43a3.56,3.56,0,0,0,.44-1.76,3.41,3.41,0,0,0-1-2.49A3.23,3.23,0,0,0,219,90.18Z"/><path class="cls-2" d="M225.9,89.33H227v1.54a4.61,4.61,0,0,1,1.46-1.32,3.65,3.65,0,0,1,1.76-.44,3.11,3.11,0,0,1,1.71.49,3,3,0,0,1,1.1,1.32,7.12,7.12,0,0,1,.35,2.58v4.42h-1.1V93.83a9.47,9.47,0,0,0-.13-2,2.17,2.17,0,0,0-.73-1.28,2.22,2.22,0,0,0-1.42-.43,2.74,2.74,0,0,0-1.8.66,3.14,3.14,0,0,0-1.05,1.65,11.89,11.89,0,0,0-.15,2.33v3.15H225.9Z"/><path class="cls-2" d="M244.1,91.12l-.88.54a3.69,3.69,0,0,0-3.1-1.51,3.63,3.63,0,0,0-2.61,1,3.31,3.31,0,0,0-1,2.46,3.45,3.45,0,0,0,.48,1.76,3.36,3.36,0,0,0,1.3,1.29,3.89,3.89,0,0,0,1.87.46,3.79,3.79,0,0,0,3.09-1.51l.88.57a4.15,4.15,0,0,1-1.66,1.44,5.28,5.28,0,0,1-2.36.51,4.67,4.67,0,0,1-3.38-1.29,4.18,4.18,0,0,1-1.34-3.15,4.52,4.52,0,0,1,.63-2.32,4.39,4.39,0,0,1,1.72-1.67,5,5,0,0,1,2.45-.6,5.37,5.37,0,0,1,1.65.26,4.74,4.74,0,0,1,1.35.68A3.76,3.76,0,0,1,244.1,91.12Z"/><path class="cls-2" d="M245.3,89.33h1.16l3,6.62,2.86-6.62h1.18l-5.12,11.73h-1.17l1.65-3.79Z"/></g></g></svg>