<svg xmlns="http://www.w3.org/2000/svg" xmlns:xlink="http://www.w3.org/1999/xlink" viewBox="0 0 440.24 99.03"><defs><style>.cls-1{fill:none;}.cls-2{clip-path:url(#clip-path);}.cls-3{fill:#f78f1e;}.cls-4{fill:#f78d1e;}.cls-5{fill:#f68c1e;}.cls-6{fill:#f68b1e;}.cls-7{fill:#f68a1e;}.cls-8{fill:#f6891f;}.cls-9{fill:#f6881f;}.cls-10{fill:#f6871f;}.cls-11{clip-path:url(#clip-path-2);}.cls-12{fill:#f6841f;}.cls-13{fill:#f6831f;}.cls-14{fill:#f6821f;}.cls-15{fill:#f6811f;}.cls-16{fill:#f5801f;}.cls-17{fill:#f57f1f;}.cls-18{fill:#f57e1f;}.cls-19{fill:#f57d1f;}.cls-20{fill:#f57c1f;}.cls-21{fill:#f57b1f;}.cls-22{clip-path:url(#clip-path-3);}.cls-23{fill:#f5781f;}.cls-24{fill:#f5771f;}.cls-25{fill:#f5761f;}.cls-26{fill:#f47520;}.cls-27{fill:#f47420;}.cls-28{fill:#f47320;}.cls-29{fill:#f47220;}.cls-30{fill:#f47120;}.cls-31{fill:#f47020;}.cls-32{fill:#f46f20;}.cls-33{fill:#f46e20;}.cls-34{clip-path:url(#clip-path-4);}.cls-35{fill:#f36620;}.cls-36{fill:#f36520;}.cls-37{fill:#f36420;}.cls-38{fill:#f46b20;}.cls-39{fill:#f46a20;}.cls-40{fill:#f36920;}.cls-41{fill:#f36820;}.cls-42{fill:#f36720;}.cls-43{fill:#f36320;}.cls-44{fill:#f36220;}.cls-45{fill:#f36121;}.cls-46{fill:#f36021;}.cls-47{clip-path:url(#clip-path-5);}.cls-48{fill:#f35d21;}.cls-49{fill:#f25c21;}.cls-50{fill:#f25b21;}.cls-51{fill:#f25a21;}.cls-52{fill:#f25921;}.cls-53{fill:#f25821;}.cls-54{clip-path:url(#clip-path-6);}.cls-55{fill:#f25621;}.cls-56{fill:#f25521;}.cls-57{fill:#f25421;}.cls-58{fill:#f25321;}.cls-59{fill:#f25221;}.cls-60{fill:#f15121;}.cls-61{fill:#f15021;}.cls-62{fill:#f14f21;}.cls-63{clip-path:url(#clip-path-7);}.cls-64{fill:#f14d22;}.cls-65{fill:#f14c22;}.cls-66{fill:#f14b22;}.cls-67{fill:#f14a22;}.cls-68{fill:#f14922;}.cls-69{fill:#f14822;}.cls-70{fill:#f14722;}.cls-71{fill:#f14622;}.cls-72{fill:#f04522;}.cls-73{fill:#f04422;}.cls-74{fill:#c1272d;}</style><clipPath id="clip-path"><path class="cls-1" d="M12.9,56.11H.44V38.35H12.9q2.24,7.24,8.4,7.24c3,0,4.46-1.19,4.46-3.58a3.81,3.81,0,0,0-1.55-3.11,36.38,36.38,0,0,0-7-3.74,65.9,65.9,0,0,1-9.95-5.29,17.3,17.3,0,0,1-5.1-5.62A15,15,0,0,1,0,16.41Q0,8.68,5,4.34A18,18,0,0,1,17.28,0,18.88,18.88,0,0,1,29.63,4.14V.72H42.17V16.49H29.78Q27.52,10,21.74,10q-4.06,0-4.06,3.46a2.9,2.9,0,0,0,1.15,2.51A62.38,62.38,0,0,0,26,19.79,112.44,112.44,0,0,1,37,25.72a14.88,14.88,0,0,1,2.85,2.57,18.8,18.8,0,0,1,2.41,3.41,16.94,16.94,0,0,1,2.19,8.44,15.52,15.52,0,0,1-5.18,11.79,18.26,18.26,0,0,1-13.06,4.89A21.9,21.9,0,0,1,12.9,52.48Z"/></clipPath><clipPath id="clip-path-2"><path class="cls-1" d="M62.51,14H58.25V.72H86.6V14H84V32.65q0,6.69,1.28,9.12c.85,1.59,2.37,2.39,4.58,2.39a4.32,4.32,0,0,0,4-2Q95,40.13,95,34V14H92.25V.72h20.83V14H108.7V34.05q0,7.68-2.23,12.58a16.17,16.17,0,0,1-7.41,7.6A26.79,26.79,0,0,1,86.32,57a36.15,36.15,0,0,1-10.79-1.47A16.94,16.94,0,0,1,68,51.13a18,18,0,0,1-4.1-7.05q-1.35-4-1.35-12.34Z"/></clipPath><clipPath id="clip-path-3"><path class="cls-1" d="M148.87,56.11H126.13V42.85H131V14h-4.86V.72h26.24l20.15,29V14H168V.72h22.34V14h-4.81V56.82H167.31L144,23.33V42.85h4.9Z"/></clipPath><clipPath id="clip-path-4"><path class="cls-1" d="M235,56.11h-30.1V42.85h4.5V14h-4.5V.72H235c2.71,0,5.22,0,7.53.14s4.29.22,5.93.39,3.16.41,4.54.7a16.78,16.78,0,0,1,9.44,5.38,14.69,14.69,0,0,1,3.66,10,14.23,14.23,0,0,1-2.23,7.81A13.26,13.26,0,0,1,258,30.18l7.65,12.67h4V56.11h-20L237.58,33.49h-6.81v9.36H235Zm-4.18-43.25V23.41h2.39a48.26,48.26,0,0,0,6.37-.27,5.12,5.12,0,0,0,3-1.6,4.57,4.57,0,0,0,1.23-3.38,4.73,4.73,0,0,0-1.23-3.43,5.25,5.25,0,0,0-3.15-1.59,53.73,53.73,0,0,0-6.69-.28Z"/></clipPath><clipPath id="clip-path-5"><path class="cls-1" d="M313.51,56.11H281.93V42.85H287V14h-5.1V.72h31.58V14h-5.06V42.85h5.06Z"/></clipPath><clipPath id="clip-path-6"><path class="cls-1" d="M340.74,56.11H328.28V38.35h12.46q2.24,7.24,8.4,7.24,4.46,0,4.46-3.58a3.84,3.84,0,0,0-1.55-3.11A37,37,0,0,0,345,35.16a65.9,65.9,0,0,1-9.95-5.29,17.19,17.19,0,0,1-5.1-5.62,15,15,0,0,1-2.11-7.84q0-7.73,5-12.07A18,18,0,0,1,345.12,0a18.84,18.84,0,0,1,12.34,4.14V.72H370V16.49H357.62q-2.26-6.54-8-6.53-4.06,0-4.06,3.46a2.9,2.9,0,0,0,1.15,2.51,62.38,62.38,0,0,0,7.21,3.86,112.44,112.44,0,0,1,10.91,5.93,14.88,14.88,0,0,1,2.85,2.57,18.8,18.8,0,0,1,2.41,3.41,16.94,16.94,0,0,1,2.19,8.44,15.52,15.52,0,0,1-5.18,11.79A18.26,18.26,0,0,1,354,56.82a21.9,21.9,0,0,1-13.26-4.34Z"/></clipPath><clipPath id="clip-path-7"><path class="cls-1" d="M440.24,56.11H387.4V42.85h4.3V14h-4.38V.72h52.92V18.44H425.71V14H413.13V22.5h10.95V33.77H413.13v9.08h12.58V38.39h14.53Z"/></clipPath></defs><title>Asset 20</title><g id="Layer_2" data-name="Layer 2"><g id="Layer_1-2" data-name="Layer 1"><g class="cls-2"><polygon class="cls-3" points="3.54 0 2.58 56.82 0 56.82 0 0 3.54 0"/><polygon class="cls-4" points="9.83 0 8.87 56.82 2.58 56.82 3.54 0 9.83 0"/><polygon class="cls-5" points="16.13 0 15.16 56.82 8.87 56.82 9.83 0 16.13 0"/><polygon class="cls-6" points="22.42 0 21.45 56.82 15.16 56.82 16.13 0 22.42 0"/><polygon class="cls-7" points="28.71 0 27.75 56.82 21.45 56.82 22.42 0 28.71 0"/><polygon class="cls-8" points="35.01 0 34.04 56.82 27.75 56.82 28.71 0 35.01 0"/><polygon class="cls-9" points="41.3 0 40.33 56.82 34.04 56.82 35.01 0 41.3 0"/><polygon class="cls-10" points="40.33 56.82 41.3 0 44.4 0 44.4 56.82 40.33 56.82"/></g><g class="cls-11"><polygon class="cls-12" points="60.17 0.72 59.21 56.98 58.25 56.98 58.25 0.72 60.17 0.72"/><polygon class="cls-13" points="66.46 0.72 65.5 56.98 59.21 56.98 60.17 0.72 66.46 0.72"/><polygon class="cls-14" points="72.75 0.72 71.8 56.98 65.5 56.98 66.46 0.72 72.75 0.72"/><polygon class="cls-15" points="79.05 0.72 78.09 56.98 71.8 56.98 72.75 0.72 79.05 0.72"/><polygon class="cls-16" points="85.34 0.72 84.38 56.98 78.09 56.98 79.05 0.72 85.34 0.72"/><polygon class="cls-17" points="91.63 0.72 90.67 56.98 84.38 56.98 85.34 0.72 91.63 0.72"/><polygon class="cls-18" points="97.92 0.72 96.97 56.98 90.67 56.98 91.63 0.72 97.92 0.72"/><polygon class="cls-19" points="104.22 0.72 103.26 56.98 96.97 56.98 97.92 0.72 104.22 0.72"/><polygon class="cls-20" points="110.51 0.72 109.55 56.98 103.26 56.98 104.22 0.72 110.51 0.72"/><polygon class="cls-21" points="109.55 56.98 110.51 0.72 113.08 0.72 113.08 56.98 109.55 56.98"/></g><g class="cls-22"><polygon class="cls-23" points="129.39 0.72 128.44 56.82 126.13 56.82 126.13 0.72 129.39 0.72"/><polygon class="cls-24" points="135.68 0.72 134.73 56.82 128.44 56.82 129.39 0.72 135.68 0.72"/><polygon class="cls-25" points="141.98 0.72 141.02 56.82 134.73 56.82 135.68 0.72 141.98 0.72"/><polygon class="cls-26" points="148.27 0.72 147.31 56.82 141.02 56.82 141.98 0.72 148.27 0.72"/><polygon class="cls-27" points="154.56 0.72 153.61 56.82 147.31 56.82 148.27 0.72 154.56 0.72"/><polygon class="cls-28" points="160.85 0.72 159.9 56.82 153.61 56.82 154.56 0.72 160.85 0.72"/><polygon class="cls-29" points="167.15 0.72 166.19 56.82 159.9 56.82 160.85 0.72 167.15 0.72"/><polygon class="cls-30" points="173.44 0.72 172.49 56.82 166.19 56.82 167.15 0.72 173.44 0.72"/><polygon class="cls-31" points="179.73 0.72 178.78 56.82 172.49 56.82 173.44 0.72 179.73 0.72"/><polygon class="cls-32" points="186.03 0.72 185.07 56.82 178.78 56.82 179.73 0.72 186.03 0.72"/><polygon class="cls-33" points="185.07 56.82 186.03 0.72 190.36 0.72 190.36 56.82 185.07 56.82"/></g><g class="cls-34"><polygon class="cls-35" points="236.17 12.86 235.99 23.41 230.77 23.41 230.77 12.86 236.17 12.86"/><polygon class="cls-36" points="242.46 12.86 242.28 23.41 235.99 23.41 236.17 12.86 242.46 12.86"/><polygon class="cls-37" points="242.28 23.41 242.46 12.86 243.79 12.86 243.79 23.41 242.28 23.41"/><polygon class="cls-38" points="204.91 0.72 204.85 4.04 204.85 0.72 204.91 0.72"/><polygon class="cls-39" points="211.2 0.72 210.26 56.11 204.85 56.11 204.85 4.04 204.91 0.72 211.2 0.72"/><polygon class="cls-40" points="217.49 0.72 216.55 56.11 210.26 56.11 211.2 0.72 217.49 0.72"/><polygon class="cls-41" points="223.79 0.72 222.84 56.11 216.55 56.11 217.49 0.72 223.79 0.72"/><polygon class="cls-42" points="230.08 0.72 229.14 56.11 222.84 56.11 223.79 0.72 230.08 0.72"/><polygon class="cls-35" points="236.37 0.72 235.43 56.11 229.14 56.11 230.08 0.72 236.37 0.72"/><polygon class="cls-36" points="242.66 0.72 241.72 56.11 235.43 56.11 236.37 0.72 242.66 0.72"/><polygon class="cls-37" points="248.96 0.72 248.02 56.11 241.72 56.11 242.66 0.72 248.96 0.72"/><polygon class="cls-43" points="255.25 0.72 254.31 56.11 248.02 56.11 248.96 0.72 255.25 0.72"/><polygon class="cls-44" points="261.54 0.72 260.6 56.11 254.31 56.11 255.25 0.72 261.54 0.72"/><polygon class="cls-45" points="267.84 0.72 266.9 56.11 260.6 56.11 261.54 0.72 267.84 0.72"/><polygon class="cls-46" points="266.9 56.11 267.84 0.72 269.6 0.72 269.6 56.11 266.9 56.11"/></g><g class="cls-47"><polygon class="cls-48" points="286.72 0.72 285.77 56.11 281.93 56.11 281.93 0.72 286.72 0.72"/><polygon class="cls-49" points="293.01 0.72 292.07 56.11 285.77 56.11 286.72 0.72 293.01 0.72"/><polygon class="cls-50" points="299.3 0.72 298.36 56.11 292.07 56.11 293.01 0.72 299.3 0.72"/><polygon class="cls-51" points="305.6 0.72 304.65 56.11 298.36 56.11 299.3 0.72 305.6 0.72"/><polygon class="cls-52" points="311.89 0.72 310.95 56.11 304.65 56.11 305.6 0.72 311.89 0.72"/><polygon class="cls-53" points="310.95 56.11 311.89 0.72 313.51 0.72 313.51 56.11 310.95 56.11"/></g><g class="cls-54"><polygon class="cls-55" points="330.78 0 329.81 56.82 327.84 56.82 327.84 0 330.78 0"/><polygon class="cls-56" points="337.07 0 336.11 56.82 329.81 56.82 330.78 0 337.07 0"/><polygon class="cls-57" points="343.37 0 342.4 56.82 336.11 56.82 337.07 0 343.37 0"/><polygon class="cls-58" points="349.66 0 348.69 56.82 342.4 56.82 343.37 0 349.66 0"/><polygon class="cls-59" points="355.95 0 354.99 56.82 348.69 56.82 349.66 0 355.95 0"/><polygon class="cls-60" points="362.25 0 361.28 56.82 354.99 56.82 355.95 0 362.25 0"/><polygon class="cls-61" points="368.54 0 367.57 56.82 361.28 56.82 362.25 0 368.54 0"/><polygon class="cls-62" points="367.57 56.82 368.54 0 372.24 0 372.24 56.82 367.57 56.82"/></g><g class="cls-63"><polygon class="cls-64" points="387.41 0.72 387.32 5.66 387.32 0.72 387.41 0.72"/><polygon class="cls-65" points="393.7 0.72 392.76 56.11 387.32 56.11 387.32 5.66 387.41 0.72 393.7 0.72"/><polygon class="cls-66" points="399.99 0.72 399.05 56.11 392.76 56.11 393.7 0.72 399.99 0.72"/><polygon class="cls-67" points="406.29 0.72 405.34 56.11 399.05 56.11 399.99 0.72 406.29 0.72"/><polygon class="cls-68" points="412.58 0.72 411.64 56.11 405.34 56.11 406.29 0.72 412.58 0.72"/><polygon class="cls-69" points="418.87 0.72 417.93 56.11 411.64 56.11 412.58 0.72 418.87 0.72"/><polygon class="cls-70" points="425.16 0.72 424.22 56.11 417.93 56.11 418.87 0.72 425.16 0.72"/><polygon class="cls-71" points="431.46 0.72 430.52 56.11 424.22 56.11 425.16 0.72 431.46 0.72"/><polygon class="cls-72" points="437.75 0.72 436.81 56.11 430.52 56.11 431.46 0.72 437.75 0.72"/><polygon class="cls-73" points="436.81 56.11 437.75 0.72 440.24 0.72 440.24 56.11 436.81 56.11"/></g><path class="cls-74" d="M11.72,81.43V98.86H6.87V81.43Z"/><path class="cls-74" d="M33,98.86H28.11l-6.4-9.72v9.72H16.86V81.46h4.85l6.4,9.84V81.46H33Z"/><path class="cls-74" d="M42,81.43,46,94l3.91-12.55H55l-6,17.43H42.83l-6-17.43Z"/><path class="cls-74" d="M63.75,85.3v2.88h5.63v3.66H63.75V95h6.37v3.87H58.9V81.43H70.12V85.3Z"/><path class="cls-74" d="M87.05,96.47a5,5,0,0,1-2.16,1.87,7.85,7.85,0,0,1-3.42.69,8.15,8.15,0,0,1-5-1.45,5.34,5.34,0,0,1-2.13-4.14H79.5a2,2,0,0,0,.56,1.36,1.77,1.77,0,0,0,1.21.44,1.44,1.44,0,0,0,1-.32,1.15,1.15,0,0,0,.36-.91,1.36,1.36,0,0,0-.71-1.22,12.24,12.24,0,0,0-2.27-1,21.39,21.39,0,0,1-2.72-1.1,5.26,5.26,0,0,1-1.84-1.63,5.19,5.19,0,0,1,.06-5.57,5.26,5.26,0,0,1,2.29-1.78,8.59,8.59,0,0,1,3.3-.6,7.44,7.44,0,0,1,4.78,1.42,5.23,5.23,0,0,1,2,4H82.28a2,2,0,0,0-.51-1.2A1.43,1.43,0,0,0,80.7,85a1.22,1.22,0,0,0-.88.3,1.11,1.11,0,0,0-.32.88,1.29,1.29,0,0,0,.7,1.16,12.29,12.29,0,0,0,2.2.93,22.37,22.37,0,0,1,2.73,1.16A5.42,5.42,0,0,1,87,91a4.63,4.63,0,0,1,.79,2.81A4.9,4.9,0,0,1,87.05,96.47Z"/><path class="cls-74" d="M105.48,81.43V85.3h-4.7V98.86H96V85.3H91.31V81.43Z"/><path class="cls-74" d="M129.8,81.51V98.86H125V89l-3.22,9.85h-4.16L114.39,89v9.85h-4.84V81.51h5.93l4.28,11.27,4.16-11.27Z"/><path class="cls-74" d="M139.79,85.3v2.88h5.64v3.66h-5.64V95h6.38v3.87H134.94V81.43h11.23V85.3Z"/><path class="cls-74" d="M166.94,98.86h-4.85l-6.4-9.72v9.72h-4.85V81.46h4.85l6.4,9.84V81.46h4.85Z"/><path class="cls-74" d="M185.2,81.43V85.3h-4.7V98.86h-4.83V85.3H171V81.43Z"/><path class="cls-74" d="M207.23,98.86,205.72,97a3.84,3.84,0,0,1-.44.49,4.52,4.52,0,0,1-1.66,1.16,5.71,5.71,0,0,1-2.25.42,6.27,6.27,0,0,1-3.13-.73,4.85,4.85,0,0,1-2-2,5.77,5.77,0,0,1-.66-2.76,5.4,5.4,0,0,1,1-3.39,4.49,4.49,0,0,1,2.69-1.73l-.29-.52a5.45,5.45,0,0,1-.6-2.39,3.89,3.89,0,0,1,.62-2.09,4.35,4.35,0,0,1,1.81-1.59,6.31,6.31,0,0,1,2.87-.6q4.19,0,5.31,3.32a7.19,7.19,0,0,1,.35,2.68h-4.51a5.1,5.1,0,0,0-.07-1c-.05-.68-.38-1-1-1a.88.88,0,0,0-.62.22.78.78,0,0,0-.24.59,1.28,1.28,0,0,0,.14.59,6.87,6.87,0,0,0,.5.79l8.42,11.4Zm-4.64-4.27a1.48,1.48,0,0,0,.45-1.12,1.4,1.4,0,0,0-.49-1.12,1.76,1.76,0,0,0-1.21-.43,1.63,1.63,0,0,0-1.15.4,1.44,1.44,0,0,0-.45,1.12,1.5,1.5,0,0,0,.47,1.15,1.86,1.86,0,0,0,2.38,0Z"/><path class="cls-74" d="M233.9,96h-6.17l-1,2.91h-5.1l6.38-17.35h5.58L240,98.86h-5.12Zm-1.2-3.64-1.87-5.66-1.9,5.66Z"/><path class="cls-74" d="M255.92,82.08a7.39,7.39,0,0,1,2.87,2.34,9,9,0,0,1,1.5,3.51h-5.1a3.36,3.36,0,0,0-1.3-1.61,3.61,3.61,0,0,0-2-.58,3.21,3.21,0,0,0-2.59,1.19,5.7,5.7,0,0,0,0,6.39,3.2,3.2,0,0,0,2.59,1.21,3.55,3.55,0,0,0,2-.6,3.43,3.43,0,0,0,1.3-1.62h5.1a8.09,8.09,0,0,1-2.8,4.86A8.44,8.44,0,0,1,251.92,99a8.84,8.84,0,0,1-4.52-1.12,7.5,7.5,0,0,1-3-3.14,10.6,10.6,0,0,1,0-9.2,7.5,7.5,0,0,1,3-3.14,8.84,8.84,0,0,1,4.52-1.12A9.35,9.35,0,0,1,255.92,82.08Z"/><path class="cls-74" d="M277,82.08a7.39,7.39,0,0,1,2.87,2.34,8.67,8.67,0,0,1,1.5,3.51h-5.1a3.36,3.36,0,0,0-1.3-1.61,3.61,3.61,0,0,0-2-.58,3.21,3.21,0,0,0-2.59,1.19,5.7,5.7,0,0,0,0,6.39,3.2,3.2,0,0,0,2.59,1.21,3.55,3.55,0,0,0,2-.6,3.43,3.43,0,0,0,1.3-1.62h5.1a8.09,8.09,0,0,1-2.8,4.86A8.44,8.44,0,0,1,273,99a8.84,8.84,0,0,1-4.52-1.12,7.56,7.56,0,0,1-3-3.14,10.6,10.6,0,0,1,0-9.2,7.56,7.56,0,0,1,3-3.14A8.84,8.84,0,0,1,273,81.26,9.32,9.32,0,0,1,277,82.08Z"/><path class="cls-74" d="M298.84,82.31a8.35,8.35,0,0,1,3.2,3.18,9.61,9.61,0,0,1,0,9.21,8.41,8.41,0,0,1-3.22,3.18,9.26,9.26,0,0,1-8.94,0,8.43,8.43,0,0,1-3.23-3.18,9.58,9.58,0,0,1,0-9.21,8.43,8.43,0,0,1,3.23-3.18,9.32,9.32,0,0,1,9,0Zm-7.4,4.52a5.54,5.54,0,0,0,0,6.49,4.07,4.07,0,0,0,5.79,0,5.52,5.52,0,0,0,0-6.49,3.66,3.66,0,0,0-2.89-1.19A3.72,3.72,0,0,0,291.44,86.83Z"/><path class="cls-74" d="M312.56,81.43v9.94a3.54,3.54,0,0,0,.65,2.28,2.43,2.43,0,0,0,2,.8,2.47,2.47,0,0,0,2-.81,3.45,3.45,0,0,0,.68-2.27V81.43h4.82v9.94a8.17,8.17,0,0,1-1,4.19A6.4,6.4,0,0,1,319,98.15a8.38,8.38,0,0,1-3.89.88,8.24,8.24,0,0,1-3.82-.86,6.13,6.13,0,0,1-2.6-2.59,8.76,8.76,0,0,1-.93-4.21V81.43Z"/><path class="cls-74" d="M343.82,98.86H339l-6.4-9.72v9.72h-4.85V81.46h4.85L339,91.3V81.46h4.85Z"/><path class="cls-74" d="M362.08,81.43V85.3h-4.7V98.86h-4.83V85.3H347.9V81.43Z"/><path class="cls-74" d="M371,81.43V98.86h-4.85V81.43Z"/><path class="cls-74" d="M392.22,98.86h-4.84L381,89.14v9.72h-4.85V81.46H381l6.4,9.84V81.46h4.84Z"/><path class="cls-74" d="M411.1,82.91a6.55,6.55,0,0,1,2.58,4.38h-5.09a2.81,2.81,0,0,0-1.16-1.13,4,4,0,0,0-4.61.77,4.66,4.66,0,0,0-1.05,3.19,4.8,4.8,0,0,0,1.12,3.43,4.35,4.35,0,0,0,3.29,1.17,3.82,3.82,0,0,0,3.64-2.34H405V88.94h8.83v4.8a9.06,9.06,0,0,1-3,3.7A8.36,8.36,0,0,1,405.66,99,9.31,9.31,0,0,1,401,97.86,7.59,7.59,0,0,1,398,94.72a10.4,10.4,0,0,1,0-9.19,7.64,7.64,0,0,1,3-3.13,9.24,9.24,0,0,1,4.62-1.12A8.86,8.86,0,0,1,411.1,82.91Z"/><path class="cls-74" d="M430.72,96.47a5.13,5.13,0,0,1-2.17,1.87,7.78,7.78,0,0,1-3.42.69,8.1,8.1,0,0,1-5-1.45A5.28,5.28,0,0,1,418,93.44h5.14a2,2,0,0,0,.57,1.36,1.74,1.74,0,0,0,1.2.44,1.46,1.46,0,0,0,1-.32,1.15,1.15,0,0,0,.36-.91,1.35,1.35,0,0,0-.72-1.22,12.08,12.08,0,0,0-2.26-1,20.8,20.8,0,0,1-2.72-1.1,5.29,5.29,0,0,1-1.85-1.63,5.25,5.25,0,0,1,.06-5.57,5.31,5.31,0,0,1,2.29-1.78,8.59,8.59,0,0,1,3.3-.6,7.47,7.47,0,0,1,4.79,1.42,5.22,5.22,0,0,1,1.95,4h-5.19a1.91,1.91,0,0,0-.5-1.2,1.45,1.45,0,0,0-1.07-.4,1.24,1.24,0,0,0-.89.3,1.14,1.14,0,0,0-.32.88,1.29,1.29,0,0,0,.7,1.16,12.29,12.29,0,0,0,2.2.93,23.3,23.3,0,0,1,2.74,1.16A5.51,5.51,0,0,1,430.67,91a4.7,4.7,0,0,1,.78,2.81A4.89,4.89,0,0,1,430.72,96.47Z"/></g></g></svg>