<svg xmlns="http://www.w3.org/2000/svg" viewBox="0 0 544.5 114"><defs><style>.cls-1{fill:#11a565;}.cls-2{fill:#2b3990;}</style></defs><title>Asset 23</title><g id="Layer_2" data-name="Layer 2"><g id="Layer_1-2" data-name="Layer 1"><g id="Layer_1-2-2" data-name="Layer 1-2"><path class="cls-1" d="M238.26,27H227.88c-1.42-2.58-4.06-3.95-7.58-3.95-6,0-10,4.28-10,11,0,7.14,4.06,11.31,10.82,11.31a9.23,9.23,0,0,0,9.29-6.8H218.49V31.6h20.45v8.74a18.89,18.89,0,0,1-18.59,13.29c-11.52,0-19.6-8.09-19.6-19.61s8-19.66,19.52-19.66C229.56,14.36,236.23,19.08,238.26,27Z"/><path class="cls-1" d="M249.46,14.8h9.4V37.86c0,4.56,2.24,7.2,6.69,7.2s6.81-2.64,6.81-7.2V14.8h9.4v23c0,10.65-7.44,15.93-16.37,15.93s-15.93-5.28-15.93-15.93Z"/><path class="cls-1" d="M309.59,14.8c9.44,0,14.17,5.43,14.17,12.13,0,4.84-2.63,9.4-8.57,11.16l8.9,15.26h-10.6l-8-14.56h-2.25V53.35h-9.39V14.8ZM309,22.59h-5.82v9.56H309c3.52,0,5.16-1.86,5.16-4.83S312.56,22.59,309,22.59Z"/><path class="cls-1" d="M335,14.8h9.4V37.86c0,4.56,2.25,7.2,6.69,7.2s6.78-2.64,6.78-7.2V14.8h9.38v23c0,10.65-7.43,15.93-16.35,15.93S335,48.46,335,37.81Z"/><path class="cls-1" d="M420.09,22.31H405.87V30.1h12.57v7.25H405.85v8.46h14.24v7.54H396.45V14.8h23.64Z"/><path class="cls-1" d="M447.41,41.54l-6.88,11.81H429.85l12.35-19.6L429.57,14.8h11l7.75,11.64,6.81-11.64h10.65L453.45,34.24l12.74,19.11H455.27Z"/><path class="cls-1" d="M476.41,14.8h9.39V53.35h-9.39Z"/><path class="cls-1" d="M498.09,14.8h11.1L520,41.49,530.69,14.8h11V53.35h-9.37V30.23l-8.62,23.12h-7.58l-8.71-23.17V53.35h-9.36Z"/><path class="cls-2" d="M219.26,82.62h-7.58v5h6.73V90.8h-6.72v5.29h7.58v3.25H207.68v-20h11.58Z"/><path class="cls-2" d="M259.73,79.36v20h-4l-9.06-13.69V99.34h-4v-20h4l9.06,13.73V79.36Z"/><path class="cls-2" d="M282.38,79.39H297v3.23H291.7V99.35h-4V82.62h-5.31Z"/><path class="cls-2" d="M331.28,82.62h-7.57v5h6.72V90.8h-6.72v5.29h7.57v3.25H319.71v-20h11.58Z"/><path class="cls-2" d="M362.18,79.39c4.79,0,7.2,2.79,7.2,6.11a5.78,5.78,0,0,1-4.55,5.76l4.77,8.08H365l-4.35-7.77h-1.86v7.77h-4v-20ZM362,82.72h-3.35v5.85H362c2.23,0,3.23-1.17,3.23-3S364.26,82.72,362,82.72Z"/><path class="cls-2" d="M400.12,91.69h-3.34v7.65h-4v-20h7.35c4.81,0,7.21,2.71,7.21,6.18C407.33,88.6,405.27,91.69,400.12,91.69ZM400,88.45c2.27,0,3.26-1.11,3.26-2.88s-1-2.92-3.26-2.92h-3.17v5.8Z"/><path class="cls-2" d="M437.42,79.39c4.8,0,7.2,2.79,7.2,6.11a5.78,5.78,0,0,1-4.54,5.76l4.77,8.08H440.2l-4.41-7.77h-1.85v7.77h-4v-20Zm-.15,3.33h-3.34v5.85h3.34c2.23,0,3.24-1.17,3.24-3S439.5,82.72,437.27,82.72Z"/><path class="cls-2" d="M468,79.39h4v20h-4Z"/><path class="cls-2" d="M502.63,99.55c-4.15,0-7.35-2.18-7.44-6h4.29a2.79,2.79,0,0,0,2.9,2.67h.13c1.86,0,3-1,3-2.43,0-4.32-10.3-1.72-10.27-9,0-3.6,2.92-5.78,7-5.78s6.89,2.09,7.15,5.7H505a2.63,2.63,0,0,0-2.86-2.38c-1.58-.06-2.79.71-2.79,2.34,0,4,10.23,1.78,10.23,8.81C509.69,96.71,507.17,99.55,502.63,99.55Z"/><path class="cls-2" d="M544.5,82.62h-7.59v5h6.72V90.8h-6.72v5.29h7.59v3.25H532.92v-20H544.5Z"/><path class="cls-2" d="M159.73,51.49V44.73l-40.27.08a66.74,66.74,0,0,1,.92,6.75Z"/><path class="cls-2" d="M120.44,61.34l39.28-.07V54.51l-39.17.07c0,.79,0,1.57,0,2.37C120.59,58.43,120.53,59.89,120.44,61.34Z"/><path class="cls-2" d="M159.71,71V64.26l-39.54.06A66.84,66.84,0,0,1,119,71.09Z"/><path class="cls-2" d="M159.72,8.73V2l-68.78.1v.61A65.11,65.11,0,0,1,99,8.81Z"/><path class="cls-2" d="M159.72,18.5V11.74l-57.54.08a66.19,66.19,0,0,1,5.76,6.75Z"/><path class="cls-2" d="M159.72,28.24V21.49l-49.7.07a64.53,64.53,0,0,1,3.89,6.75Z"/><path class="cls-2" d="M159.72,92.32V85.56l-45.83.07a63,63,0,0,1-3.9,6.76Z"/><path class="cls-2" d="M159.72,102.09V95.34l-51.84.07a64.43,64.43,0,0,1-5.79,6.77Z"/><path class="cls-2" d="M91,111.94l68.78-.1v-6.75l-60.8.08a63.38,63.38,0,0,1-8,6.06Z"/><path class="cls-1" d="M57,113.91A57,57,0,1,1,97.22,16.73l-4.77,4.78A50.17,50.17,0,1,0,106.13,67.1l6.62,1.36A57,57,0,0,1,57,114Z"/><path class="cls-1" d="M57,104.09A47.18,47.18,0,1,1,90.31,23.6L85.5,28.37A40.4,40.4,0,1,0,96.14,66.92l6.5,1.66A47.09,47.09,0,0,1,57,104.09Z"/><path class="cls-1" d="M57,94.35A37.4,37.4,0,1,1,83.39,30.51l-4.77,4.81a30.67,30.67,0,1,0,7.43,31.36l6.42,2.13A37.35,37.35,0,0,1,57,94.35Z"/><path class="cls-1" d="M107,51.58h6.78a57.33,57.33,0,0,0-1-6.76H106l-47.67.09v6.76Z"/><path class="cls-1" d="M114,54.59h-6.77l-49,.09v6.75L107,61.34h6.79c.14-1.64.22-3.3.22-5C114,55.78,114,55.19,114,54.59Z"/><path class="cls-1" d="M58.23,64.43v6.75L105,71.11h7.06a59.91,59.91,0,0,0,1.36-6.76H106.6Z"/></g></g></g></svg>