<svg xmlns="http://www.w3.org/2000/svg" viewBox="0 0 256.24 107.41"><defs><style>.cls-1{fill:#141764;}.cls-2{fill:#787a9e;}</style></defs><title>Asset 22</title><g id="Layer_2" data-name="Layer 2"><g id="Layer_1-2" data-name="Layer 1"><path class="cls-1" d="M17.65,32.09A15.55,15.55,0,0,0,33.19,47.64H80.92V64.19H27.54A27.54,27.54,0,0,1,0,36.65V27.54A27.54,27.54,0,0,1,27.54,0H80.92V16.55H33.19A15.54,15.54,0,0,0,17.65,32.09Z"/><path class="cls-1" d="M168.58.16V46.91a17.44,17.44,0,0,1-17.43,17.44H87.66V47.21h59.07a4.2,4.2,0,0,0,4.21-4.2V.16Z"/><path class="cls-1" d="M193.17,20.44a3.38,3.38,0,0,0,3.39,3.39H236a20.23,20.23,0,0,1,20,16.88,18,18,0,0,1,.3,3.39A20.27,20.27,0,0,1,236,64.37H175.32V47.49H235a3.39,3.39,0,0,0,0-6.78H195.59a20.24,20.24,0,0,1-20-16.88,18,18,0,0,1-.3-3.39A20.28,20.28,0,0,1,195.59.17h60.65V17.05H196.56A3.38,3.38,0,0,0,193.17,20.44Z"/><path class="cls-2" d="M23.44,98.77l2.26.4a11.36,11.36,0,0,1-2.46,5.11,2.78,2.78,0,0,0,1.93,1,6.4,6.4,0,0,0,.84-.08v1.93a6.48,6.48,0,0,1-1.44.19,4.31,4.31,0,0,1-3.15-1.47,7.62,7.62,0,0,1-4.67,1.55,5.86,5.86,0,0,1-4.07-1.29A4.06,4.06,0,0,1,11.25,103c0-2,1.33-3.42,4-4.43a6.13,6.13,0,0,1-1.6-3.45,2.85,2.85,0,0,1,1.2-2.26,4.78,4.78,0,0,1,3.11-1,4.51,4.51,0,0,1,3,.93,2.91,2.91,0,0,1,1.09,2.32q0,2.36-3.33,3.9l3.12,3.68A9.67,9.67,0,0,0,23.44,98.77Zm-7,1.19c-1.5.74-2.26,1.71-2.26,2.92A2.48,2.48,0,0,0,15,104.8a3.05,3.05,0,0,0,2.16.75,4.23,4.23,0,0,0,3-1.17Zm1.12-2.29c1.41-.68,2.12-1.53,2.12-2.56A1.48,1.48,0,0,0,19.19,94,1.66,1.66,0,0,0,18,93.56a1.79,1.79,0,0,0-1.21.41,1.33,1.33,0,0,0-.49,1.09A4.58,4.58,0,0,0,17.52,97.67Z"/><path class="cls-2" d="M70.36,102.1l2.78.32q-.86,5-6,5a5.9,5.9,0,0,1-5-2.09,8.89,8.89,0,0,1-1.63-5.61A8.7,8.7,0,0,1,62.3,93.9a6.17,6.17,0,0,1,5-2c3.36,0,5.32,1.71,5.9,5.12l-2.81.34c-.3-2.27-1.33-3.41-3.07-3.41-2.34,0-3.5,2-3.5,5.92,0,3.67,1.16,5.51,3.5,5.51a2.55,2.55,0,0,0,2.09-.84A5.37,5.37,0,0,0,70.36,102.1Z"/><path class="cls-2" d="M101.87,99.64c0,2.56-.55,4.5-1.67,5.81a6,6,0,0,1-4.86,2,6.1,6.1,0,0,1-4.89-2c-1.14-1.3-1.7-3.24-1.7-5.81a8.7,8.7,0,0,1,1.68-5.79,7,7,0,0,1,9.76,0A8.71,8.71,0,0,1,101.87,99.64Zm-3.17,0A9.76,9.76,0,0,0,98,95.44a2.71,2.71,0,0,0-2.65-1.53,2.67,2.67,0,0,0-2.63,1.54,9.72,9.72,0,0,0-.75,4.2,9.9,9.9,0,0,0,.73,4.17,2.71,2.71,0,0,0,2.69,1.56,2.67,2.67,0,0,0,2.6-1.51A9.5,9.5,0,0,0,98.7,99.65Z"/><path class="cls-2" d="M118.4,92.15h4.48L126.53,103l3.74-10.81h4.29v15h-2.83V94.35l-4.34,12.79h-2.2l-4.26-12.8v12.8H118.4Z"/><path class="cls-2" d="M151.77,92.15h4.53a15.32,15.32,0,0,1,3.52.34A4.16,4.16,0,0,1,162.09,94a4.26,4.26,0,0,1,.92,2.76,4.31,4.31,0,0,1-.75,2.55,4.19,4.19,0,0,1-2,1.54,12,12,0,0,1-3.89.47H154.8v5.85h-3Zm3,1.93V99.3h1.5a4.6,4.6,0,0,0,2.77-.61,2.39,2.39,0,0,0,.77-2,2.63,2.63,0,0,0-.51-1.68,2.14,2.14,0,0,0-1.11-.79,9.74,9.74,0,0,0-1.92-.14Z"/><path class="cls-2" d="M181.74,92.15h3.39l4.9,15H187l-1.15-3.76h-5.35l-1.14,3.76h-2.88Zm3.49,9.28-2.1-6.86-2.07,6.86Z"/><path class="cls-2" d="M205.46,92.15H209L215,103V92.15h2.53v15h-2.83l-6.74-12v12h-2.53Z"/><path class="cls-2" d="M232,92.15h3.28l3.36,6.25,3.41-6.25H245l-5.07,8.65v6.34h-3V100.8Z"/></g></g></svg>