<svg xmlns="http://www.w3.org/2000/svg" viewBox="0 0 388.99 114"><defs><style>.cls-1{fill:#0071bc;}.cls-2{fill:#c1272d;}.cls-3{fill:#fbb03b;}.cls-4{fill:#22b573;}.cls-5{fill:#fff;}.cls-6{fill:#4d4d4d;}</style></defs><title>Asset 18</title><g id="Layer_2" data-name="Layer 2"><g id="Layer_1-2" data-name="Layer 1"><rect class="cls-1" x="7.78" y="38.49" width="37.54" height="37.54" transform="translate(-32.71 35.54) rotate(-45)"/><rect class="cls-2" x="38.49" y="7.78" width="37.54" height="37.54" transform="translate(-2 48.26) rotate(-45)"/><rect class="cls-3" x="37.97" y="68.68" width="37.54" height="37.54" transform="translate(-45.22 65.74) rotate(-45)"/><rect class="cls-4" x="68.68" y="37.97" width="37.54" height="37.54" transform="translate(-14.51 78.46) rotate(-45)"/><path class="cls-5" d="M56.13,16.34l0,20.41a1.11,1.11,0,0,0,2.21,0l0-20.41a1.11,1.11,0,0,0-2.21,0Z"/><path class="cls-5" d="M67.47,25.42l-20.41,0a1.1,1.1,0,0,0,0,2.2l20.41,0a1.11,1.11,0,0,0,0-2.21Z"/><path class="cls-5" d="M33,49.25,18.57,63.71a1.1,1.1,0,0,0,1.56,1.56l14.4-14.46A1.1,1.1,0,0,0,33,49.25Z"/><path class="cls-5" d="M34.56,63.68,20.1,49.28a1.1,1.1,0,0,0-1.56,1.56L33,65.24a1.1,1.1,0,0,0,1.56-1.56Z"/><path class="cls-5" d="M63.16,79.44,48.76,93.9a1.1,1.1,0,0,0,1.56,1.56L64.72,81a1.1,1.1,0,0,0-1.56-1.56Z"/><circle class="cls-5" cx="52.84" cy="83.35" r="2.21"/><circle class="cls-5" cx="61.3" cy="91.82" r="2.21"/><path class="cls-5" d="M94,55.61l-13,0a1.11,1.11,0,0,0,0,2.21l13,0a1.11,1.11,0,0,0,0-2.21Z"/><path class="cls-6" d="M164,37.08c1.28,0,1.92.23,1.92.68a1.87,1.87,0,0,1-.68,1.19L149.51,56.43l14.77,18.79a4.46,4.46,0,0,1,.31.54.85.85,0,0,1,.08.37c0,.3-.25.51-.65.62a7.63,7.63,0,0,1-1.89.17h-.4a10.85,10.85,0,0,1-1.95-.14,1.89,1.89,0,0,1-1.1-.6L144.42,58h-.23l-1.87,17.72c-.11.82-.9,1.24-2.37,1.24h-.46a2.94,2.94,0,0,1-1.69-.34,1.07,1.07,0,0,1-.46-.9l3.91-37.35c.07-.83.87-1.25,2.37-1.25h.46a3,3,0,0,1,1.69.34,1.07,1.07,0,0,1,.46.91l-1.81,17.31h.22l15.68-17.77a2.44,2.44,0,0,1,1.3-.62,9.43,9.43,0,0,1,1.81-.17Z"/><path class="cls-6" d="M187.48,37.2a23,23,0,0,1,3.71.33A12.32,12.32,0,0,1,195,38.86,7.89,7.89,0,0,1,198,41.72a9.49,9.49,0,0,1,1.13,4.93,14.53,14.53,0,0,1-1.08,6,10.52,10.52,0,0,1-2.77,3.85,13.11,13.11,0,0,1-3.56,2.21,15.91,15.91,0,0,1-3.48,1,17.2,17.2,0,0,1-2.52.25H176.9l-1.64,15.74c-.12.82-.91,1.24-2.38,1.24h-.45a3,3,0,0,1-1.7-.34,1.08,1.08,0,0,1-.45-.9l3.84-36.79A1.68,1.68,0,0,1,176,37.2Zm-.62,4.3h-8l-1.47,14.14h8.83a9.15,9.15,0,0,0,2.12-.31A7.42,7.42,0,0,0,193,51.6a9,9,0,0,0,.87-4.28,5.28,5.28,0,0,0-1.1-3.62A5.76,5.76,0,0,0,190,42,11.3,11.3,0,0,0,186.86,41.5Z"/><path class="cls-6" d="M217.58,37.08a4.88,4.88,0,0,1,1.28.14,1.27,1.27,0,0,1,.68.43,1.16,1.16,0,0,1,.19.68l-2.82,26.88a14.61,14.61,0,0,1-3.6,8.65q-3,3.28-9.25,3.29a16.67,16.67,0,0,1-2.35-.17,5.79,5.79,0,0,1-1.89-.57,1.2,1.2,0,0,1-.74-1.08,14.65,14.65,0,0,1,.11-2,2.93,2.93,0,0,1,.31-1c.14-.21.28-.31.43-.31a4.62,4.62,0,0,1,1.22.25,9,9,0,0,0,2.51.26c2.64,0,4.61-.57,5.89-1.7a8.08,8.08,0,0,0,2.32-5.38l2.88-27.1c.08-.83.87-1.25,2.38-1.25Z"/><path class="cls-6" d="M239.43,36.85a19.73,19.73,0,0,1,4.38.49,13.34,13.34,0,0,1,3.51,1.24c.92.51,1.39,1.05,1.39,1.61a2.92,2.92,0,0,1-.37,1.19,5.91,5.91,0,0,1-.91,1.33q-.54.6-.93.6a.91.91,0,0,1-.37-.09c-.13-.06-.33-.16-.59-.31a23.28,23.28,0,0,0-2.32-1.1,9.58,9.58,0,0,0-3.79-.65,10.61,10.61,0,0,0-4,.73,6.85,6.85,0,0,0-3,2.21,5.81,5.81,0,0,0-1.14,3.68,5.61,5.61,0,0,0,.94,3.34,7.85,7.85,0,0,0,2.4,2.17A32.47,32.47,0,0,0,237.84,55c1.21.53,2.4,1.1,3.57,1.7a19.81,19.81,0,0,1,3.25,2.09A8.88,8.88,0,0,1,247,61.67a9.16,9.16,0,0,1,.87,4.16,11,11,0,0,1-.84,4.24,10.06,10.06,0,0,1-2.61,3.62A12.72,12.72,0,0,1,240,76.21a19.67,19.67,0,0,1-6.42.94,25.82,25.82,0,0,1-3.17-.2,12.65,12.65,0,0,1-2.94-.71,5.5,5.5,0,0,1-2.18-1.39,3.12,3.12,0,0,1-.82-2.23,9,9,0,0,1,.08-1,3.72,3.72,0,0,1,.34-1.13c.17-.34.39-.51.65-.51a1.3,1.3,0,0,1,.68.25l.79.49a15.49,15.49,0,0,0,3.43,1.52,13.26,13.26,0,0,0,4.1.62,10.36,10.36,0,0,0,4.33-.84,7,7,0,0,0,2.86-2.32,5.82,5.82,0,0,0,1-3.4,5.05,5.05,0,0,0-1.07-3.34A8.84,8.84,0,0,0,239,60.79c-1.07-.56-2.14-1.09-3.2-1.58s-2.08-1-3.19-1.56a16.35,16.35,0,0,1-3.12-2.12,9.67,9.67,0,0,1-2.34-3.06,9.41,9.41,0,0,1-.91-4.3,10.55,10.55,0,0,1,1-4.69,10.36,10.36,0,0,1,2.83-3.57,13.21,13.21,0,0,1,4.19-2.26A16.12,16.12,0,0,1,239.43,36.85Z"/><path class="cls-6" d="M282,36.85c.49,0,1.08,0,1.78.09a6.87,6.87,0,0,1,1.87.4,1.07,1.07,0,0,1,.82,1,3.54,3.54,0,0,1-.25,1.11,6.22,6.22,0,0,1-.6,1.24c-.22.36-.45.54-.68.54a4.88,4.88,0,0,1-1.07-.17,10.32,10.32,0,0,0-2.21-.17,9,9,0,0,0-3.93.74,5.81,5.81,0,0,0-2.27,1.83,6.69,6.69,0,0,0-1,2.21,8.42,8.42,0,0,0-.26,1.78,6.57,6.57,0,0,0,.68,2.8,5.84,5.84,0,0,0,2.21,2.44,7.39,7.39,0,0,0,4.07,1h6.62l.68-5.94c.11-.83.89-1.25,2.32-1.25H291a3.34,3.34,0,0,1,1.67.31,1,1,0,0,1,.48.94l-.62,5.94h4.81a.89.89,0,0,1,.7.22,1.37,1.37,0,0,1,.2.85,6.74,6.74,0,0,1-.2.85,4.09,4.09,0,0,1-.73,1.44,1.89,1.89,0,0,1-1.62.71h-3.62c-.15,1.47-.28,2.78-.39,3.91s-.24,2.27-.37,3.42-.24,2.17-.31,3.06-.12,1.44-.12,1.67a3.16,3.16,0,0,0,.83,2.6,3,3,0,0,0,1.89.62,5.11,5.11,0,0,0,1.78-.2,2.18,2.18,0,0,1,.77-.19c.26,0,.39.16.39.51s0,.67,0,1.13a2.29,2.29,0,0,1-.14.9,2.36,2.36,0,0,1-1.24,1.36,5.58,5.58,0,0,1-2.72.57,11.3,11.3,0,0,1-2.88-.43,4.23,4.23,0,0,1-2.55-2,20.48,20.48,0,0,1-3.85,1.61,17.88,17.88,0,0,1-5.49.77,15.33,15.33,0,0,1-4-.54,11.16,11.16,0,0,1-3.7-1.76,9.12,9.12,0,0,1-2.75-3.17,10,10,0,0,1-1-4.78,12.82,12.82,0,0,1,1.3-6,11.93,11.93,0,0,1,3.22-4,10.94,10.94,0,0,1,3.79-2l.06-.23A8.34,8.34,0,0,1,270.92,52a7.27,7.27,0,0,1-1.45-4.58,9.65,9.65,0,0,1,1.73-5.86A10.52,10.52,0,0,1,275.76,38,16.29,16.29,0,0,1,282,36.85Zm-1.53,20.94a13.83,13.83,0,0,0-4.72.77,6.61,6.61,0,0,0-3.37,2.63,9.3,9.3,0,0,0-1.24,5.2,6.33,6.33,0,0,0,1.18,4.08,6.24,6.24,0,0,0,2.92,2,10.79,10.79,0,0,0,3.31.56,13.07,13.07,0,0,0,4.1-.65A18.52,18.52,0,0,0,286.05,71q0-.51.12-2c.07-1,.18-2.13.31-3.4s.26-2.49.4-3.67.27-2.56.42-4.11Z"/><path class="cls-6" d="M336.25,36.85a23.33,23.33,0,0,1,3.9.32,18.83,18.83,0,0,1,3.31.82,8.71,8.71,0,0,1,2.29,1.13c.57.41.85.81.85,1.19a2.32,2.32,0,0,1-.25.9,7.62,7.62,0,0,1-.62,1.11,8.4,8.4,0,0,1-.74.93,1,1,0,0,1-.65.4,4,4,0,0,1-1.42-.63A16,16,0,0,0,340,41.78a14.45,14.45,0,0,0-4.58-.62,13.73,13.73,0,0,0-8.72,2.57,14.49,14.49,0,0,0-4.75,7,31.18,31.18,0,0,0-1.47,9.93q0,6.29,2.89,9.25c1.92,2,4.84,3,8.77,3a18.76,18.76,0,0,0,5.32-.67A22.2,22.2,0,0,0,341,70.81a5.79,5.79,0,0,1,1.58-.68.77.77,0,0,1,.23.08c.11.06.17.24.17.54,0,.11,0,.53-.11,1.25a17.09,17.09,0,0,1-.29,1.86,2.29,2.29,0,0,1-1.24,1.42,11.43,11.43,0,0,1-2.69,1,23.29,23.29,0,0,1-3.45.62,33.61,33.61,0,0,1-3.54.2q-8.25,0-12.28-3.88t-4-12a39.34,39.34,0,0,1,1-9.19,23.05,23.05,0,0,1,3.43-7.84,16.33,16.33,0,0,1,6.39-5.43A22.58,22.58,0,0,1,336.25,36.85Z"/><path class="cls-6" d="M365.73,46.87q5.55,0,8.46,3.14t2.91,9.14q0,8.77-3.9,13.38t-10.7,4.62c-3.84,0-6.76-1-8.74-3.12s-3-5.09-3-9a26.48,26.48,0,0,1,.85-6.76,17.65,17.65,0,0,1,2.63-5.8,13,13,0,0,1,4.61-4.05A14.47,14.47,0,0,1,365.73,46.87ZM365.11,51a7.83,7.83,0,0,0-7.05,3.76q-2.4,3.76-2.4,10.1,0,8.26,7.13,8.26a8,8,0,0,0,7-3.54q2.43-3.52,2.43-10.27Q372.18,51,365.11,51Z"/><path class="cls-6" d="M386.84,70.7a3.07,3.07,0,0,1,1.69.33,1.1,1.1,0,0,1,.46.91l-.4,3.74c-.11.82-.91,1.24-2.38,1.24h-1a3,3,0,0,1-1.7-.34,1.08,1.08,0,0,1-.45-.9l.4-3.74c.07-.83.86-1.24,2.37-1.24Z"/></g></g></svg>