<svg xmlns="http://www.w3.org/2000/svg" viewBox="0 0 144.2 114"><defs><style>.cls-1{fill:#fbb03b;}.cls-2{fill:#2e3192;}</style></defs><title>Asset 24</title><g id="Layer_2" data-name="Layer 2"><g id="Layer_1-2" data-name="Layer 1"><path class="cls-1" d="M51,.14c2.62,0,6.11,0,10.1,0C58.05-.11,54.69.05,51,.14Z"/><path class="cls-1" d="M144.2,65a26.5,26.5,0,0,1-1.65,9.39A22.16,22.16,0,0,1,138,82a21.35,21.35,0,0,1-6.5,4.6,31.61,31.61,0,0,1-8.22,2.63c-2.27.34-6.43.6-12.45.78s-12.4.27-19.14.27l-3.26,0V90L80.54,72.26H102c.8,0,1.56,0,2.26,0a25.68,25.68,0,0,0,5.11-.55,11.84,11.84,0,0,0,4.4-1.91,8.05,8.05,0,0,0,2.4-3.22,11.25,11.25,0,0,0,.89-4.54,9.37,9.37,0,0,0-.72-3.8,7.05,7.05,0,0,0-2.17-2.76,9.07,9.07,0,0,0-3.55-1.61,15.19,15.19,0,0,0-2-.31c-1.23-.12-2.77-.18-4.6-.18H88.39l5.23-17.81h6.61a61.91,61.91,0,0,0,6.55-.23c.5-.06,1-.13,1.49-.23a20.25,20.25,0,0,0,2.29-.59,7.7,7.7,0,0,0,3.19-2,7.91,7.91,0,0,0,1.9-3.09,10.74,10.74,0,0,0,.56-3.42,8.3,8.3,0,0,0-1.14-4.34,6.92,6.92,0,0,0-3.72-2.82,24.78,24.78,0,0,0-7.81-.92H85.62a26.28,26.28,0,0,1,.75,6.37,29.27,29.27,0,0,1-1.12,8.25,24,24,0,0,1-3.51,7.22,23.12,23.12,0,0,1-6,5.85,53.46,53.46,0,0,1-10.21,5L68.9,59q1.44,3.48,3.09,7.09l8.8,19.25q.58,1.24,2.1,4.92-10.83-.12-14.58-.13-4.71,0-15.49.13Q51.77,86.85,49,77.58c-.75-2.59-1.38-4.58-1.91-6q-1.58-4.66-4.67-13.07l-6.77-18.6a38,38,0,0,0,7,.66,25,25,0,0,0,8.7-1.44,11.67,11.67,0,0,0,5.92-4.47,11.38,11.38,0,0,0,2-6.37,8.42,8.42,0,0,0-1.51-5A9,9,0,0,0,53,20.17a35.16,35.16,0,0,0-10-1.05c-1.54,0-3.12,0-4.76.09s-3.56.13-5.75.17Q31.6,32.85,31,52.22t-.84,38q-11-.12-14.27-.13-3.83,0-13.75.13,1.25-11.55,2-20.82T5.32,48q.52-12.23.79-25.78c.18-9-5-16.63-5-22C6.62.33,16.27.2,19.64.2s7.77.19,12.81,0c4.86-.2,9.61,0,14.23,0h.48c1.32,0,2.6,0,3.85-.06h0c2.62,0,6.11,0,10.1,0,18.52,0,47.8.09,51.08.09A104.08,104.08,0,0,1,123.9.65a29.56,29.56,0,0,1,8,2.11A19.45,19.45,0,0,1,137.7,6.5a18.79,18.79,0,0,1,4,6.31,24.58,24.58,0,0,1,1.64,9,26.67,26.67,0,0,1-1,7.16A21.72,21.72,0,0,1,139.7,35a19.09,19.09,0,0,1-3.91,4.44,21.48,21.48,0,0,1-4.24,2.76,37.06,37.06,0,0,1-5.55,2,33.76,33.76,0,0,1,5.59,1.35A19.23,19.23,0,0,1,136.08,48a18.17,18.17,0,0,1,4.31,4.31,18.89,18.89,0,0,1,2.85,5.88A24.09,24.09,0,0,1,144.2,65Z"/><path class="cls-1" d="M46.68.19h.48c1.32,0,2.6,0,3.85-.06C49,.15,47.51.17,46.68.19Z"/><path class="cls-2" d="M10.34,110.93c-.07.33-.15.8-.25,1.4s-.16,1.07-.2,1.4a22.65,22.65,0,0,1-3.27.27A9.3,9.3,0,0,1,4,113.65a6.53,6.53,0,0,1-2.19-1.13,4.48,4.48,0,0,1-1.42-1.87A6.28,6.28,0,0,1,0,108.26a6.45,6.45,0,0,1,.58-2.79,5.46,5.46,0,0,1,1.66-2.06,6.76,6.76,0,0,1,2.37-1.18,9.89,9.89,0,0,1,2.67-.36,18.62,18.62,0,0,1,3.14.33v.72c0,.31,0,.66.05,1l.06,1q-1-.24-1.62-.33a9.68,9.68,0,0,0-1.15-.08,4.57,4.57,0,0,0-2.08.46,3.54,3.54,0,0,0-1.45,1.34,3.66,3.66,0,0,0-.53,2A3.05,3.05,0,0,0,4.15,110,3.13,3.13,0,0,0,5.35,111a4.21,4.21,0,0,0,1.87.38,10.85,10.85,0,0,0,1.33-.1A16.85,16.85,0,0,0,10.34,110.93Z"/><path class="cls-2" d="M19,101.87a9.62,9.62,0,0,1,2.64.37,6.09,6.09,0,0,1,2.22,1.18,5.38,5.38,0,0,1,1.42,1.86,5.94,5.94,0,0,1,.47,2.42,6.68,6.68,0,0,1-.52,2.64,5.61,5.61,0,0,1-1.49,2,6.13,6.13,0,0,1-2.33,1.23,10.34,10.34,0,0,1-5.59,0,6.05,6.05,0,0,1-2.31-1.23,5,5,0,0,1-1.39-1.9,6.35,6.35,0,0,1-.41-2.32,6.17,6.17,0,0,1,.87-3.29,5.81,5.81,0,0,1,2.58-2.21A9,9,0,0,1,19,101.87Zm-.15,2.58a3.37,3.37,0,0,0-1.78.48,3.22,3.22,0,0,0-1.23,1.35,4.11,4.11,0,0,0-.42,1.84,3.53,3.53,0,0,0,.39,1.66A2.8,2.8,0,0,0,17,111a3.56,3.56,0,0,0,1.69.42,3.39,3.39,0,0,0,1.74-.47,3.14,3.14,0,0,0,1.21-1.34,4.16,4.16,0,0,0,.41-1.8,3.84,3.84,0,0,0-.38-1.69,2.79,2.79,0,0,0-1.13-1.2A3.28,3.28,0,0,0,18.89,104.45Z"/><path class="cls-2" d="M27.16,113.78l.18-1.8.33-6.09.09-2.46v-1.34c.89,0,1.67,0,2.35,0,.49,0,1.17,0,2,0l3.66,6.65.5,1c.06-1,.13-2.31.2-4s.1-2.92.1-3.59c.7,0,1.26,0,1.68,0l1.68,0-.21,2.56-.38,7.08,0,2-2.09,0-2.22,0-.66-1.22-1.44-2.44c-.47-.8-.91-1.56-1.3-2.29-.27-.47-.54-1-.82-1.53l-.18,4.06-.09,3.42-1.61,0Z"/><path class="cls-2" d="M41.44,113.6c-.07-1.22-.16-2.19-.26-2.92a9.45,9.45,0,0,0,1.71.59,5.68,5.68,0,0,0,1.32.17,2.66,2.66,0,0,0,1.19-.22.69.69,0,0,0,.44-.64.86.86,0,0,0,0-.28,1.17,1.17,0,0,0-.17-.3,2.19,2.19,0,0,0-.34-.36l-1.61-1.41c-.38-.32-.64-.55-.79-.69a5.4,5.4,0,0,1-.71-.81,3,3,0,0,1-.37-.77,3.2,3.2,0,0,1-.11-.83,3,3,0,0,1,.18-1,3.22,3.22,0,0,1,.55-.94,3.18,3.18,0,0,1,1-.75,4.15,4.15,0,0,1,1.3-.43,8.36,8.36,0,0,1,1.43-.12,16,16,0,0,1,3.15.34q0,.58.06,1.08c0,.33.08.9.16,1.72a8.26,8.26,0,0,0-1.44-.44,6.21,6.21,0,0,0-1.12-.12,2.22,2.22,0,0,0-1.11.25.72.72,0,0,0-.44.61,1,1,0,0,0,.07.34,1.61,1.61,0,0,0,.26.38,4.74,4.74,0,0,0,.5.48c.2.17.52.43,1,.77l.62.49c.18.15.38.33.59.54a7.44,7.44,0,0,1,.55.62,3.83,3.83,0,0,1,.35.57,2.5,2.5,0,0,1,.19.52,2.47,2.47,0,0,1,.06.56,3.15,3.15,0,0,1-1.42,2.61,4.33,4.33,0,0,1-1.48.63,7.87,7.87,0,0,1-1.71.18A19.26,19.26,0,0,1,41.44,113.6Z"/><path class="cls-2" d="M51.75,102.09c.89,0,1.51,0,1.88,0s1.06,0,1.82,0l-.25,3.64c-.05.69-.09,1.33-.12,1.93s0,1,0,1.24a5.55,5.55,0,0,0,.1,1.09,1.68,1.68,0,0,0,.34.74,1.54,1.54,0,0,0,.69.45,2.58,2.58,0,0,0,.92.16,2.76,2.76,0,0,0,.77-.11,1.7,1.7,0,0,0,.5-.26,1.46,1.46,0,0,0,.34-.36A2.31,2.31,0,0,0,59,110a4,4,0,0,0,.21-.89c.05-.38.12-1.23.2-2.55.08-1.13.13-2.16.17-3.1a8.45,8.45,0,0,1,.1-1.37h3.77l-.42,6.08v.28a13.61,13.61,0,0,1-.22,2.52,3.41,3.41,0,0,1-.61,1.27,4,4,0,0,1-1.25,1,6.23,6.23,0,0,1-1.87.61A12.44,12.44,0,0,1,57,114a12.28,12.28,0,0,1-1.85-.14,7.52,7.52,0,0,1-1.49-.39,5.34,5.34,0,0,1-1.14-.62,2.45,2.45,0,0,1-1.06-1.47,3.79,3.79,0,0,1-.16-1.14c0-.13,0-.34,0-.62s0-.67.08-1.19l.11-1.37c0-.36.06-.89.09-1.58Z"/><path class="cls-2" d="M64.77,113.78c.14-1.35.25-2.45.31-3.3q.18-2.33.27-4.62c.06-1.54.09-2.79.09-3.77.78,0,1.46,0,2.06,0,.41,0,1,0,1.75,0l-.21,3.1L68.78,110l0,1.19,1.92,0c1.5,0,2.63,0,3.41-.06l-.19,2.59-4.29,0Z"/><path class="cls-2" d="M77.73,113.78q.42-4.17.51-9.16l-3.64.09,0-.95c0-.5,0-1.06,0-1.67,1.62,0,3.51,0,5.67,0h5.27l0,.84c0,.45,0,.82,0,1.12s0,.51,0,.66c-1.22-.06-2.22-.09-3-.09h-.59c-.09,1-.16,1.94-.2,2.79-.07,1.23-.11,2.42-.15,3.57s0,2.09,0,2.8l-1.81,0Z"/><path class="cls-2" d="M84.72,113.78l.71-1.23,4.43-8.34.47-.93c.14-.28.33-.67.57-1.19,1,0,1.74,0,2.2,0,.81,0,1.55,0,2.24,0l1.25,3.57,2.54,6.87.49,1.25-1.8,0-2.11,0c-.25-.94-.62-2-1.09-3.32H90.31c-.49,1-1,2.11-1.54,3.32l-2,0ZM91.35,108H94c-.66-2-1-3.12-1.09-3.33-.37.84-.69,1.53-1,2.06Z"/><path class="cls-2" d="M100.53,113.78l.17-1.8.33-6.09.1-2.46v-1.34c.88,0,1.67,0,2.35,0,.48,0,1.17,0,2,0l3.65,6.65.5,1c.07-1,.13-2.31.2-4s.1-2.92.1-3.59c.7,0,1.26,0,1.69,0l1.67,0-.2,2.56-.39,7.08,0,2-2.08,0-2.23,0c-.29-.56-.51-1-.66-1.22l-1.43-2.44c-.48-.8-.91-1.56-1.31-2.29-.26-.47-.53-1-.81-1.53l-.19,4.06-.08,3.42-1.62,0Z"/><path class="cls-2" d="M125,110.93c-.06.33-.15.8-.24,1.4s-.17,1.07-.2,1.4a22.65,22.65,0,0,1-3.27.27,9.3,9.3,0,0,1-2.58-.35,6.35,6.35,0,0,1-2.19-1.13,4.5,4.5,0,0,1-1.43-1.87,6.48,6.48,0,0,1-.42-2.39,6.59,6.59,0,0,1,.57-2.79,5.55,5.55,0,0,1,1.66-2.06,6.89,6.89,0,0,1,2.38-1.18,9.89,9.89,0,0,1,2.67-.36,18.52,18.52,0,0,1,3.13.33l0,.72c0,.31,0,.66,0,1l.06,1q-1-.24-1.62-.33a9.83,9.83,0,0,0-1.15-.08,4.54,4.54,0,0,0-2.08.46,3.56,3.56,0,0,0-1.46,1.34,3.76,3.76,0,0,0-.53,2,3.06,3.06,0,0,0,.45,1.68A3,3,0,0,0,120,111a4.18,4.18,0,0,0,1.87.38,10.7,10.7,0,0,0,1.32-.1A15.88,15.88,0,0,0,125,110.93Z"/><path class="cls-2" d="M129.13,113.78c.06-.46.13-1.25.21-2.36s.12-1.88.12-2.34l-3.92-7c.86,0,1.57,0,2.13,0s1.17,0,1.92,0c.23.58.54,1.26.93,2s.71,1.49.95,2.11c.66-1.15,1.19-2.06,1.59-2.7s.68-1.14.85-1.46c.73,0,1.42,0,2.09,0,.36,0,1,0,1.93,0l-3.76,5.54c-.74,1.11-1.12,1.69-1.12,1.74v.26l-.06,1.3c0,.86-.08,1.81-.1,2.85l-1.86,0Z"/></g></g></svg>