<svg xmlns="http://www.w3.org/2000/svg" xmlns:xlink="http://www.w3.org/1999/xlink" viewBox="0 0 2903.26 1780.18"><defs><style>.cls-1{fill:none;}.cls-2,.cls-3{fill:#8dc2ce;}.cls-25,.cls-3{opacity:0.5;}.cls-25,.cls-4{fill:#fff;}.cls-5{fill:#303c60;}.cls-6{fill:#4476bd;}.cls-7{fill:#3e6bab;}.cls-8{fill:#f09959;}.cls-9{fill:#1bb1dc;}.cls-10{fill:#1586a0;}.cls-11{fill:#e38540;}.cls-12{fill:#f5dc95;}.cls-13{fill:#a8ceff;}.cls-14{fill:#93bbf0;}.cls-15{fill:#75a1de;}.cls-16{fill:#2e5b9a;}.cls-17{fill:#6791c9;}.cls-18{fill:#f37168;}.cls-19{fill:#d54a41;}.cls-20{fill:#f2e5de;}.cls-21{fill:#a86b48;}.cls-22{fill:#7a4e34;}.cls-23{fill:#74b570;}.cls-24{fill:#9cd499;}.cls-26{fill:#94bdf2;}.cls-27{fill:#f39892;}.cls-28{clip-path:url(#clip-path);}.cls-29{fill:#e7f3fe;}.cls-30{fill:#ffb8b3;}.cls-31{fill:#fae8b6;}</style><clipPath id="clip-path"><path class="cls-1" d="M132.83,155.19A121.35,121.35,0,1,0,254.18,276.54,121.35,121.35,0,0,0,132.83,155.19Zm0,185.63a64.28,64.28,0,1,1,64.28-64.28A64.28,64.28,0,0,1,132.83,340.82Z"/></clipPath></defs><title>Asset 1</title><g id="Layer_2" data-name="Layer 2"><g id="sales"><path class="cls-2" d="M2789.54,1665.65c-220.2-10.76-969.27,7.47-1197.09,14.58s-492.26-9.38-629.62-33.63-931.38,2.06-895.35,67.26,353.77,29.17,714.09,55.37,1170.69-3.28,1353.48,0,350.41-6.55,586-19.65S2917.18,1671.89,2789.54,1665.65Z"/><path class="cls-3" d="M2312,230.55a213.27,213.27,0,0,0,1.33-23.7c0-4.23-.14-8.42-.38-12.59l-39.16-12.67a172.11,172.11,0,0,0-13.87-46.92l26-32a211.63,211.63,0,0,0-20.57-29.9l-39.17,12.78a174.06,174.06,0,0,0-38.77-29.8l2.23-41.15a209.51,209.51,0,0,0-34.19-12.12L2131.2,35.89a174.14,174.14,0,0,0-48.89-1.28L2059.92,0a209.54,209.54,0,0,0-34.79,10.28l.05,41.21a173.72,173.72,0,0,0-40.3,27.72l-38.43-14.83a211.84,211.84,0,0,0-22.13,28.77l24.25,33.29a172.15,172.15,0,0,0-16.35,46.12l-39.77,10.58a213.25,213.25,0,0,0-1.33,23.7c0,4.23.14,8.42.38,12.59l39.16,12.67A172.17,172.17,0,0,0,1944.54,279l-26,32a211.62,211.62,0,0,0,20.57,29.9l39.17-12.78a174,174,0,0,0,38.77,29.8l-2.23,41.15A209.52,209.52,0,0,0,2049,411.19l24.19-33.38a174.11,174.11,0,0,0,48.89,1.28l22.39,34.61a209.48,209.48,0,0,0,34.79-10.28l-.05-41.21a173.72,173.72,0,0,0,40.3-27.72L2258,349.32a212,212,0,0,0,22.13-28.77l-24.25-33.29a172.16,172.16,0,0,0,16.35-46.12Zm-208.19,59.08A82.8,82.8,0,1,1,2185,208.43,82.8,82.8,0,0,1,2103.79,289.63Z"/><path class="cls-4" d="M2215.14,302.45a4.27,4.27,0,0,1-3.28-7,138.9,138.9,0,0,0,24.47-133.79,4.27,4.27,0,0,1,8.07-2.78,147.43,147.43,0,0,1-26,142A4.26,4.26,0,0,1,2215.14,302.45Z"/><path class="cls-4" d="M2203.16,107a4.25,4.25,0,0,1-2.92-1.16,137.87,137.87,0,0,0-47.74-29.41,4.27,4.27,0,1,1,2.91-8,146.34,146.34,0,0,1,50.68,31.22,4.27,4.27,0,0,1-2.93,7.37Z"/><path class="cls-4" d="M2070.1,72.53a4.27,4.27,0,0,1-1-8.4,147.77,147.77,0,0,1,36.14-4.47,4.27,4.27,0,1,1,0,8.53,139.2,139.2,0,0,0-34,4.21A4.28,4.28,0,0,1,2070.1,72.53Z"/><rect class="cls-3" x="655.23" y="0.6" width="1319.32" height="792.45"/><rect class="cls-4" x="692.59" y="30.28" width="1241.22" height="727.49"/><path class="cls-5" d="M1777.92,395.91c59.15-56.31,160.25-55,158.11,30.71s4.95,93.8,29.29,138.77c84.46,156.06-100.67,146.88-177.88,152s-70.81-140.34-57.16-221S1760.61,412.39,1777.92,395.91Z"/><path class="cls-6" d="M1805.49,887.51c-19,159.25-53.42,277-57.26,352.48S1729,1612.75,1729,1612.75s42.23-3,46.07-9.35,79.34-174,75.5-277.68S1926,1064.47,1926,1064.47l-19.1-154.63Z"/><path class="cls-7" d="M1823.7,956.84,1794,969.25c-8.06,50.5-17,95.9-24.86,136.17,47.2,30.51,71.57,132.17,82,194.31,5.32-69.54,38.13-153.57,58.49-200Z"/><path class="cls-6" d="M1960.65,871.45s63.92,81.53,61.91,174c-3.05,140.81-18.41,181,8.31,328.65,10.43,57.66-23,246.29-23,246.29s-28.59,2.24-43.95-5.4c1.28-13.86-18.48-239.32-57-343-18.63-50.19-44.82-190.75-58.9-271.37s-16.64-97.25-11.52-97.25S1960.65,871.45,1960.65,871.45Z"/><path class="cls-8" d="M1596.49,645s2.84-42.19-1.71-55.22S1551,565.4,1551,565.4s-1.71,60.29,2.28,67.68,27.3,28.44,27.3,28.44Z"/><path class="cls-9" d="M1817.16,614.28C1727.3,711,1698,751.69,1691.15,751.69,1669.82,714,1599,634.42,1599,634.42l-30.21,19.42s69.8,182.38,114.16,184.26,134.53-62.89,135.68-70.33S1817.16,614.28,1817.16,614.28Z"/><path class="cls-10" d="M1723.44,828.64c44-17.9,94.32-55.33,95.17-60.87,1.14-7.44-1.46-153.48-1.46-153.48-19.59,21.08-36.69,39.78-51.53,56.14C1749.53,730.37,1750.58,795.64,1723.44,828.64Z"/><path class="cls-9" d="M1908.45,550.61s86,43.1,104.75,119.39-36.77,170.55-43.59,220.85-163.79,59.15-163.79,5.31c0-51.62-39.33-161.19-37.11-189.1,5.21-65.49,100.94-145.71,100.94-145.71Z"/><path class="cls-8" d="M1883.46,451.77l36.92,113.83S1881,596,1813.5,669.19c2.62-48.69,43.41-101.77,43.41-101.77L1829,459.93Z"/><path class="cls-11" d="M1900.68,504.87l-17.22-53.09L1829,459.93l27.92,107.49s-2.73,4.34-6.74,11.18C1876.47,559.08,1892.61,534.78,1900.68,504.87Z"/><path class="cls-8" d="M1863.12,477.47c-10,36.22-48.51,56.17-75.91,48.64s-33.26-39.68-23.3-75.9,40.24-59.49,67.63-52S1873.08,441.24,1863.12,477.47Z"/><path class="cls-9" d="M1799,845.12c12,75.74-32.43,237.8-32.43,237.8s26.47,6,105.81-1.67,114.32-86.86,126.26-89.07,18.08,73.69,24,79.69,6.79-95.85-8.61-135.89c-27.3-71-22-101.08-11.75-144.08C2020.34,715.44,1799,845.12,1799,845.12Z"/><path class="cls-6" d="M1731,1575.47c7.14,29-7,52.06-25.84,68.85-15.36,13.65-62.56,19.45-60.29,26.28s58,9,76.78,6.14,23.89-11.94,47.25-11.93c15.31,0,18.16-12.45,11.33-27.84s-9.21-23.9-3-37.7S1731,1575.47,1731,1575.47Z"/><path class="cls-6" d="M2009.49,1575.47c-1.14,30.14-4.64,52.6,2.76,66.57,28.56,23.89,52.29,51,43.23,52.89-43.23,8.93-59.72-17-84.18-24.34-30-9,2.84-46.75-8.92-95.12-6.54-26.89,45.32-20.45,45.32-20.45Z"/><path class="cls-10" d="M2020.4,960.69a142,142,0,0,0-6.45-24.71c-27.3-71-22-101.08-11.75-144.08a33.76,33.76,0,0,0,1-9c2.3-7.67,4.45-15.44,6.33-23.26L2000.3,676l-66.81-79.34c-50.07,73.37-16.28,164.65-23.79,215s-91.41,114.51-91.41,114.51L1821,944a45.35,45.35,0,0,0,51,38.11c34.58-4.8,79.94-14.44,100.12-33.17C1991.68,930.85,2009,944.87,2020.4,960.69Z"/><path class="cls-8" d="M1837.91,923.3s-37,10.36-41.46,12.68-6.88,14.56-6.88,14.56-21.2,18.41-13.08,24.93,22.62,23,41.8,15.34c11.77-4.71,20.89-48,28.61-48.3S1837.91,923.3,1837.91,923.3Z"/><path class="cls-9" d="M1942.8,587c39.64,1.12,75.58,72.51,88.1,134.45s25.71,150,25.71,150-65.69,51.85-130.6,67c-56.62,13.22-85.53,18.39-85.53,18.39L1829,924.51l135.48-79.58s-49.82-93.84-54.77-164.65S1912.67,586.16,1942.8,587Z"/><rect class="cls-12" x="1467.99" y="560.48" width="100.78" height="64" transform="translate(-86.89 310.29) rotate(-11.35)"/><path class="cls-8" d="M1572.72,639.9c1.36-26-11.5-61.35-18.89-61.3s2.27,23.2-1.71,38.55C1550,625.47,1572.72,639.9,1572.72,639.9Z"/><path class="cls-5" d="M1771.17,409.56c2.2,71.09,85.23,65.64,108,61.26s-27.7,150,15.64,158.89c31.82,6.54,24.65-43.24,60-39.91,15.64,1.47,31.36,25.65,31.36,25.65s-2.35-14.89-14.3-25.65-43.26-76.73-51.49-123.94-64-77.74-80.46-78.68S1783,405,1783,405Z"/><path class="cls-5" d="M1894.06,645.8a16.38,16.38,0,0,1-3.42-.37c-13.87-3-20.6-17.53-21.17-45.87-.49-24.3,3.53-55.48,7.78-88.49,1.72-13.34,3.49-27.13,5-40.48a2.08,2.08,0,0,1,4.13.45c-1.47,13.39-3.25,27.21-5,40.56-8.23,63.87-16,124.2,10.13,129.76a11.69,11.69,0,0,0,2.43.26c15,0,28.52-29.25,36.4-57.73a2.08,2.08,0,1,1,4,1.11C1929.14,603.81,1915.15,645.8,1894.06,645.8Z"/><path class="cls-5" d="M1888.51,662.33a16.39,16.39,0,0,1-12.28-5.46c-28.31-29.92-.32-180.06.89-186.43a2.08,2.08,0,1,1,4.08.77c-.29,1.54-28.81,154.41-2,182.8a12.4,12.4,0,0,0,11.3,4c14.7-1.94,23.19-21.89,30.67-39.48,7.26-17.07,14.09-33.19,26.26-32.77a2.08,2.08,0,1,1-.15,4.15h-.3c-9.12,0-15.38,14.7-22,30.24-7.92,18.62-16.9,39.72-34,42A19.72,19.72,0,0,1,1888.51,662.33Z"/><ellipse class="cls-8" cx="1872.35" cy="476.8" rx="17.28" ry="12.51" transform="translate(347.84 1663.78) rotate(-52.19)"/><path class="cls-5" d="M1237,747.74c20.27,40.54,3.49,87.22-36.38,103.71-40.13,16.6-84,7.17-104.29-33.37s-5.22-89.15,33.63-108.57S1216.77,707.2,1237,747.74Z"/><path class="cls-5" d="M1127.76,856.32c-4.48,0-13.29-1.58-24.51-11.53-9.2-8.16-15.8-20.68-18.6-35.24-3.53-18.38-1.23-39.51,6.83-62.8a2.08,2.08,0,0,1,3.93,1.36c-7.82,22.6-10.06,43-6.67,60.66,2.62,13.67,8.76,25.35,17.27,32.91,14.22,12.62,23.75,10.32,23.85,10.29a2.08,2.08,0,0,1,1.11,4A12.62,12.62,0,0,1,1127.76,856.32Z"/><path class="cls-13" d="M1189.76,905.48c23.07,5.17,52.2,69.28,66.47,110.36,14.39,41.43,38.78,92.82,54.74,108.79s120.9,53,120.9,53-259.26.5-253.95,0S1189.76,905.48,1189.76,905.48Z"/><path class="cls-14" d="M1327.39,1157c-14.19-2-65.39,4.56-43.6-4.56s18.76-20.78,18.76-20.78-30.92,25.85-36.5,3.25c-4.81-19.49-6.65-88.32-24.9-157.3-15.08-34.2-34.81-68.42-51.4-72.14,0,0-.58,24.29-1.54,58.34,6.37,75.36,17.17,186.08,19.91,214,34.36.05,91.87,0,140-.06l32-1.53S1341.59,1159,1327.39,1157Z"/><path class="cls-13" d="M1104.93,891.28s-73.39,41-90.5,49.73,47.93,264.7,62.39,275.67,141.81,1.89,156.31-11.93-11.12-56.24,1.42-141.17-38.27-158.25-44.8-158.09-49.13-14.21-49.13-14.21Z"/><path class="cls-14" d="M1076.83,1216.68c14.46,11,105.59,11.22,144.38-.85,4.38-1.36,24.26-9.28,24.72-16.73-4.68-.88-23.27,1.35-30.81-.38-26.23-6-40.68-38.53-40.68-38.53s-14.45-5.2-46.76-18.88-19-55.13-19.77-73.38S1076,990,1017.41,944.75l-5.37,2.41C1007.86,988.75,1063.44,1206.53,1076.83,1216.68Z"/><path class="cls-15" d="M1581.05,1015.84H1404.33l-80.49,171.28H1518.5l72.86-155A11.39,11.39,0,0,0,1581.05,1015.84Z"/><path class="cls-7" d="M1334.38,1189.55H1228a11.94,11.94,0,0,1,0-23.89h98.72L1393.5,1022a11.94,11.94,0,1,1,21.66,10.07l-70,150.56A11.94,11.94,0,0,1,1334.38,1189.55Z"/><path class="cls-8" d="M1150,1153c46.13,8.62,57.47,19.21,82.62,23.26,28.51,4.59,25.12,10.89,3.94,10.89s-74.38.82-92.64-3.23S1150,1153,1150,1153Z"/><path class="cls-13" d="M1008.67,945.81c-35.36,113-85.48,241.31-77.49,241.31s211,8.21,219,1.37,5.7-33.07,4.56-36.49-115.42-23.7-115.42-23.7,15-29.33,20.75-86.64S1015.37,924.37,1008.67,945.81Z"/><path class="cls-8" d="M1131.81,793.05l-28.48,104.07s48.12,75.12,61.35,68.44-7.4-61.06-7.4-68.44,20.63-83.64,20.63-83.64Z"/><path class="cls-11" d="M1158.28,902.43a27.76,27.76,0,0,1-1-5.3c0-7.39,20.63-83.64,20.63-83.64l-46.11-20.44-9.42,34.44C1130.62,863.07,1145.47,886.76,1158.28,902.43Z"/><path class="cls-8" d="M1238.38,791.33c5.42,30.18,1.85,70.26-24.95,80.45s-59.08-9.31-72.1-43.55-1.85-70.26,24.95-80.45S1231.89,755.27,1238.38,791.33Z"/><ellipse class="cls-8" cx="1133.59" cy="813.33" rx="14.95" ry="20.28" transform="matrix(0.94, -0.34, 0.34, 0.94, -207.13, 427.31)"/><path class="cls-5" d="M1238.69,753.42c-9.12,70.82-95.17,61.69-95.17,61.69s-17.75-23.33-25.73-11.09,11.08-71.8,60.45-74.45C1194.46,728.7,1238.69,753.42,1238.69,753.42Z"/><ellipse class="cls-5" cx="1104.64" cy="723.47" rx="46.6" ry="43.72"/><polygon class="cls-16" points="1011.82 1701.7 1022.47 1701.7 1091.28 1382.88 1067.84 1382.88 1011.82 1701.7"/><polygon class="cls-16" points="1343.12 1701.7 1332.46 1701.7 1252.38 1371.61 1275.83 1371.61 1343.12 1701.7"/><path class="cls-16" d="M1133.4,1394.82c-42.69,0-69.73-7.67-87-24.48-21.39-20.84-25.82-53.12-25.88-95.18-.05-33.1-.84-54.66-2.63-72.09a11.94,11.94,0,0,1,23.76-2.45c1.88,18.27,2.71,40.55,2.76,74.5.06,42.63,5.47,65.26,18.67,78.11,13.53,13.18,38,18.62,79.32,17.59,39.9-1,67.37-6.57,89.44-11.05,29-5.9,50-10.16,74.87,1.72a11.94,11.94,0,0,1-10.3,21.55c-17.65-8.43-32.63-5.39-59.81.13-23,4.67-51.6,10.49-93.6,11.52Q1138.07,1394.82,1133.4,1394.82Z"/><path class="cls-16" d="M1036.42,1188.49l65.34,2.72-17.4,180.41s-48.71-31.09-47.95-64.55S1036.42,1188.49,1036.42,1188.49Z"/><path class="cls-8" d="M1359,1205.3c55.25-8.38,74-5.74,107.84,57.19s78.83,176.24,104.71,190.87c39,22,51.89,76.07,67.9,73.64s26.31,4.65,8.89,19.12-45.54,26.8-55.16,24.23-17.08-44.12-42.19-57.61-17.57-24.58-15.92-36.51-73.32-66.88-129.83-135.22c-34.53-41.76-52.31-69.32-54.95-94.3S1359,1205.3,1359,1205.3Z"/><path class="cls-11" d="M1496,1433.49c-12.83-32.55-25.7-86.28-37.8-135.54-17.21-70.05-35.24-86.68-46.67-94.16-13.81-3.46-30.18-1.88-52.51,1.51,0,0-11.35,16.44-8.71,41.42s20.42,52.54,54.95,94.3c29.76,36,64.62,68.24,90.74,92.48Z"/><path class="cls-16" d="M1375.81,1260.69s-14.7,110.92-28.39,122.2c-9.79,8.06-16.73,8.6-23.57-24.48s10.65-156.55,10.65-156.55Z"/><polygon class="cls-8" points="1364.09 1320.71 1228.04 1343.57 1304.85 1233.43 1363.31 1221.53 1398.36 1229.59 1364.09 1320.71"/><path class="cls-16" d="M1535,1476.23c-4.41,17.78-3.88,30.92,3.78,37.5s36.62,55.51,36.62,55.51l9-1.37-20.89-44.77Z"/><path class="cls-16" d="M1593.16,1570.35c9.62,2.57,37.74-9.76,55.16-24.23s7.11-21.55-8.89-19.12a6.92,6.92,0,0,1-2.68-.13c-8,17.86-34.28,31.25-42.77,12.39-8.41-18.69-44.43-55.9-58.94-63.86a3.32,3.32,0,0,1,0,.83c-1.65,11.93-9.2,23,15.92,36.51S1583.55,1567.78,1593.16,1570.35Z"/><path class="cls-11" d="M1081.28,1209.74c-48.27,86.63-15.3,141.68,43.37,147.29s151.29-5.1,205.28-50,98.3-92.3,92.11-99.38S1081.28,1209.74,1081.28,1209.74Z"/><path class="cls-8" d="M1355,1274.37c9.89-29.66,21.28-52.41,43.34-52.82,23.19-.43,37.46,11.64,38.46,49.58,1.18,45.19,2.77,194.84.68,261.39-1.58,50.37,13.1,66.5,11.86,119-.93,39.55,41.23,19.57,24.94,40.08-11.2,14.1-44.54,9.49-65,6.89-18.25-2.32,9.45-57-15.81-71.63-21.67-12.55-22.1-32.92-8.41-48.33s1.52-61-7.6-93-23.28-66.49-32.57-142C1342.24,1322,1349,1292.49,1355,1274.37Z"/><path class="cls-16" d="M1459.88,1675.48c-7,2.13-15.6,4.48-23.1,4.73-15.21.51-19.77-16.22-20.78-38.95-.89-19.84-15.3-51.09-30.08-63.76-.27.36-.55.71-.85,1-13.69,15.42-13.26,35.79,8.41,48.33,25.26,14.62-2.44,69.31,15.81,71.63,20.48,2.6,53.82,7.22,65-6.89C1484.89,1678.29,1471.76,1677.23,1459.88,1675.48Z"/><path class="cls-16" d="M1388.49,1572.9s-22.18,23.16-20.15,32.79,8.87,34,10,52.72,2.16,40.29,2.16,40.29,8,0,8.62-2.27,5.07-76.24,5.07-76.24Z"/><path class="cls-15" d="M1058,1201.85s-28.63,121.51,7.54,155.19,186.39,3.38,221.77,1.37c24-1.37,47.14,27.87,47.14,27.87s-16.73-67.79-5.32-122.54S1359,1205.3,1359,1205.3l-24.49-3.45Z"/><path class="cls-13" d="M1051.55,1170.08c12.24,26-13.18,70.84-4.27,83.77s59.92,1.81,93.34-25.09,96.69-32.82,96.69-32.82Z"/><path class="cls-16" d="M1103.33,1391.47c101.13,3.8,207.59,2,207.59-13.06s-4.56-25.72-82.88-19.63-131.55,14.45-155.12,9.13S1103.33,1391.47,1103.33,1391.47Z"/><rect class="cls-16" x="745.89" y="1187.12" width="1446.93" height="27.53" rx="12.91" ry="12.91"/><path class="cls-8" d="M2371.13,818.14c9.8,34.54-14.13,70.14-40.49,77.61s-45.17-16-55-50.53,3.63-68.6,30-76.08S2361.34,783.6,2371.13,818.14Z"/><path class="cls-8" d="M2223.34,1487.46S2290.9,1592.39,2300,1597s31.93,5.7,23.38,22.81-12,84.4-20,87.82-76.42,11.4-66.15,0,16.58-5.7,21.76-26.23,12.46-59.31,2.76-67.29-69-79.84-69-79.84Z"/><path class="cls-8" d="M1883.32,1532.53S1801.2,1667.87,1786,1680s-65.39,30.42-24.33,33.46,60.83-13.69,86.68-21.29,57.79-12.17,45.62-31.94-7.11-62.93,19.11-90.3S1883.32,1532.53,1883.32,1532.53Z"/><path class="cls-17" d="M2302.4,1218.67s-203.29-5.32-283.89,60.83c-47.14,71.48-161.19,282.37-170.06,305.61,6.08,6.08,40.3,17.06,55.51,15.54,44.86-53.49,104.16-99.74,127.74-141.7,29.06-51.71,38-77.56,85.16-82.12s153.6-19.77,185.53-19.77S2302.4,1218.67,2302.4,1218.67Z"/><polygon class="cls-16" points="2479.68 1713.86 2469.02 1713.86 2392.61 1395.05 2416.05 1395.05 2479.68 1713.86"/><polygon class="cls-16" points="2160.46 1713.86 2171.12 1713.86 2258.8 1383.78 2235.36 1383.78 2160.46 1713.86"/><path class="cls-15" d="M2418.22,1204.74,2300,1225.14S2143,1226.59,2071.17,1240c-65.32,12.17-74.94,86.38,0,188.58,42.57,58.05,78.57,104.36,152.18,156.57,18.72-13.75,25.89-18.95,31.06-52-5.33-7.3-19.12-53-23.4-62-40.71-85.11-95.06-116.06-95.81-124.43,9.12-14.83,241.69,77.29,287.93,23.1C2467.27,1318.06,2418.22,1204.74,2418.22,1204.74Z"/><path class="cls-18" d="M2423.13,937.17c-31.13-4.37-62.83,1.55-92.48,23-25.91,26.41-55.23,70-53.43,141.81,2.28,91.24-14.12,97.1,3,122.19,71.35,29.47,193.39,156.06,164.65,20.34-20.81-98.27,45.64-171.53-8-280.54C2432.52,955.11,2427.07,946.51,2423.13,937.17Z"/><path class="cls-19" d="M2277.19,1136.32c-1.39,47.57-8.1,61.58-3,76.49,29.09,3,82.3,14.61,95.6,33.23,15.21,21.29,30.41,24.33,23.32,8.62s-25.85-38,3-114.56,42.58-128.25,14.19-181.48Z"/><path class="cls-8" d="M2423.13,937.17c-19.17-45.38-23.88-96.36-23.88-96.36l-50.18,14.83s28.51,63.87,1.14,86.68a261.67,261.67,0,0,0-19.56,17.87C2360.29,938.71,2392,932.8,2423.13,937.17Z"/><path class="cls-11" d="M2400.76,852.89c-3-2.64-6.69-5.95-10.6-9.4l-40.93,12.09-.09.22c1,2.26,11.41,26.59,12.79,50,12.2-7.4,25.55-19.47,40.82-40.55C2401.93,860.58,2401.27,856.41,2400.76,852.89Z"/><path class="cls-8" d="M2387.84,951.44c-51.69,18.08-46,72.53-93.52,152.83-24.62,41.56-47.48,40.94-47.48,40.94a1101.37,1101.37,0,0,1-127.57-8.08c-43.73-5.35-46.51,7.67-16.09,18.54,61.34,21.93,125,45.54,176.32,39.83s139.11-136.65,143.63-170.74C2429.38,977.63,2413.87,942.34,2387.84,951.44Z"/><path class="cls-16" d="M2361.24,1407q-4.81,0-9.86-.12c-42-1-70.62-6.85-93.6-11.52-27.18-5.53-42.16-8.57-59.81-.13a11.94,11.94,0,1,1-10.3-21.55c24.87-11.88,45.84-7.62,74.87-1.72,22.07,4.49,49.53,10.07,89.44,11.05,44.93,1.11,72.42-5.63,86.46-21.2,12.54-13.91,16.24-37.09,11.62-73-1.56-12.15-3.12-22.25-4.5-31.16-3.87-25-6.42-41.52-3.27-67,2.94-23.74,10.82-55.41,29.06-116.86a11.94,11.94,0,1,1,22.9,6.8c-34.13,114.94-32.39,126.16-25.09,173.4,1.4,9.05,3,19.31,4.59,31.77,5.57,43.3,0,72.53-17.58,92C2438.08,1397.85,2408.57,1407,2361.24,1407Z"/><path class="cls-19" d="M1888.9,1646.6c-54.49,26.65-83.82,41.92-101.29,40.47-4.12-.34-7.54-.76-10.41-1.21-19.43,11.49-50.45,25.06-15.55,27.64,41.06,3,60.83-13.69,86.68-21.29s57.79-12.17,45.62-31.94A41.6,41.6,0,0,1,1888.9,1646.6Z"/><path class="cls-19" d="M2306,1599.18c-1.33,43.14-7.26,85.89-33.65,94a44.34,44.34,0,0,1-19,1.7c-4.15,5.13-9.21,5.19-16,12.74-10.27,11.4,58.17,3.42,66.15,0s11.41-70.71,20-87.82C2330.43,1605.71,2316.29,1602.43,2306,1599.18Z"/><path class="cls-15" d="M2096.08,1189.55H1923a11.94,11.94,0,0,1-10.83-6.91l-70-150.56a11.94,11.94,0,1,1,21.66-10.07l66.74,143.65h165.49a11.94,11.94,0,0,1,0,23.89Z"/><path class="cls-8" d="M2132.29,1138.64c-35-.51-69.67-21.36-86.9-18.31s-73.5,42.07-66.41,43.6,51.71-21.6,53.23-22,11.15,16,35,22,.17-17.86,74,4.45C2189.23,1182.94,2132.29,1138.64,2132.29,1138.64Z"/><path class="cls-20" d="M2418,895.76l5.15,41.41s-45.26,2.69-67.79,15.37-55.76,49.29-55.76,49.29l27.16-46.75,3.91-29.91Z"/><path class="cls-20" d="M2398.72,946.45c-33.62-6.3-49.17,23.83-71,73s-59,108.89-66.41,116.59-124.7,0-124.7,0-3.55,34,0,38,23.83,3.55,23.83,3.55,8.11,6.48,15.71,11.6,72,14.76,101.89,13.24,57.28-4.06,61.34-8.62,85.67-130.28,90.74-175.4S2415.87,949.66,2398.72,946.45Z"/><path class="cls-5" d="M2299.58,739.62c-63.58,3-53.61,98.69-53.61,98.69s16.51,5.1,51.11-.6c-2.66-10.27-1.52-36.5-1.52-36.5s4,21.29,9.12,34.22c7.31,3.35,15.59.38,29.66-3,7.22,30.39,27.64,43.24,41.61,47.63,15.44,4.86,31.79,10.65,50,1.52s8.21-102.4-1.48-121.15c-14.55-28.16-38.72-53.35-80.54-40C2323,727,2299.58,739.62,2299.58,739.62Z"/><path class="cls-5" d="M2410.15,853.23l26,38s-28.81,72,55,104.6c65.62,25.54,57.89,70.54,28.24,115.8s17.74,84.78,17.74,84.78,7.23-50.14,71-59.6c86.94-12.9,111.55-129.62,46.62-188-53.73-48.3-70.08-8.3-106.45-51.64s-105-14.07-105-14.07l-25.17-36.7Z"/><path class="cls-5" d="M2684.62,1066.13a2.08,2.08,0,0,1-1.82-3.08c21.91-40,4-88.56-5-101.7-.95-1.39-1.85-2.79-2.8-4.28-8.84-13.8-19.84-31-78.48-41.52-14-2.53-25.44-10.89-37.5-19.75-25-18.36-53.37-39.18-115-10.83a2.08,2.08,0,1,1-1.74-3.78c63.82-29.37,93.22-7.79,119.16,11.25,11.66,8.56,22.68,16.65,35.78,19,60.42,10.88,72,28.9,81.24,43.37.94,1.46,1.82,2.84,2.74,4.18,5.42,7.92,12.11,24.32,14.85,43.12,2.38,16.3,2.63,40.45-9.67,62.93A2.08,2.08,0,0,1,2684.62,1066.13Z"/><path class="cls-5" d="M2396.26,891.9a91.23,91.23,0,0,1-13.47-1.08c-22.16-3.32-51.9-15.92-54.23-86.74a2.08,2.08,0,0,1,2-2.15,2,2,0,0,1,2.15,2c1,29.31,6.79,51,17.3,64.49,8,10.26,18.61,16.07,33.39,18.28,20.69,3.1,34.41-.74,40.79-11.41a2.08,2.08,0,1,1,3.57,2.13C2422,887.05,2411.45,891.9,2396.26,891.9Z"/><path class="cls-10" d="M411.9,942.15c-73.8,42.2-176.45,217.61-154.78,246.24s138-46.65,138-46.65Z"/><path class="cls-5" d="M549.77,738.72C521.59,738,532,717,499.64,725.38c-17,4.4-4.46,11.41-26.59,9.12s-33-4.56-35.81,9.89-4.14,19-14.78,21.29-15.45,21.29,0,34.22,7.94,18.25,4.52,28.89,8.24,11.41,14.58,21.29-5.83,11.76,3.29,20.32,21.92,7.81,21.92,7.81l38.41-73.65Z"/><path class="cls-16" d="M1123.9,1622.74s41.06,1.14,73-11.41,53.6-31.93,47.9-9.12-31.93,61.94-54.75,65.76-30.79,28.9-43.34,28.9-30.79-28.9-62.73-43.35C1054.88,1640.35,1123.9,1622.74,1123.9,1622.74Z"/><path class="cls-16" d="M800.34,1618.89a157.92,157.92,0,0,0,47.32,40.38c31,17.11,66.85,25.35,44.64,33.08s-54.67,13.75-86.33,4.56c-22.21-6.45-48.25-7.8-55.13-18.29s8.1-36.84,1.87-76.23C747.72,1570.83,800.34,1618.89,800.34,1618.89Z"/><path class="cls-7" d="M608.07,1236.13s237.85,89.06,257,114,269.18,251.69,269.18,268.42-42.58,47.14-42.58,47.14S877.25,1534.1,824,1467.19,640.89,1368,571.82,1361.82,608.07,1236.13,608.07,1236.13Z"/><path class="cls-6" d="M617.19,1236.13s162.72-6.08,197.7,0,111.7,6,61.52,147.64c-39.33,111-52.32,251.55-52.32,251.55l-78.21,19.21s3.1-252.72,40.42-320c-27.18,4.48-77.06,13.22-146.19,33-128.25,36.68-198.57,18.31-198.57,18.31l-19.09-66.91Z"/><polygon class="cls-21" points="481.31 816 441.55 933.48 491.78 966.55 520.24 865.04 481.31 816"/><path class="cls-22" d="M496.27,950.53l24-85.49-38.94-49-14.54,43C471.78,897.78,483.91,929.88,496.27,950.53Z"/><path class="cls-21" d="M582.73,835.89c1.29,35.73-16.26,66.65-44.16,69.4s-53.35-23.86-56.86-59.44,16.26-66.65,44.16-69.4S580.69,779.51,582.73,835.89Z"/><path class="cls-9" d="M422.45,930.05c-122,82.42-46.14,215.61-19.34,312.94,22.83,82.9,22.08,133,25.5,133s87.36-12.55,135.26-55.89a734,734,0,0,0,80.29-85.32s-61.37-10.93-81.43-90.32c-10.18-40.31-5.55-62.19-28.77-126.06S422.45,930.05,422.45,930.05Z"/><path class="cls-9" d="M422.45,930.05l13.07-32s41.44,27.37,58,40.3,26.74,16,26.74,16,6,45.85,2.1,41.69C473.42,943.61,422.45,930.05,422.45,930.05Z"/><polygon class="cls-16" points="368.36 1713.86 379.02 1713.86 455.43 1395.05 431.99 1395.05 368.36 1713.86"/><polygon class="cls-16" points="687.58 1713.86 676.92 1713.86 589.24 1383.78 612.68 1383.78 687.58 1713.86"/><path class="cls-16" d="M487.07,1407c-42.69,0-69.73-7.67-87-24.48-21.39-20.84-25.82-53.12-25.88-95.18-.13-88.42-5-106.71-29.92-160.7a11.94,11.94,0,0,1,21.69-10c26.31,57.08,32,78.06,32.11,170.67.06,42.63,5.47,65.26,18.67,78.11,13.53,13.18,38,18.62,79.32,17.59,39.9-1,67.37-6.57,89.44-11.05,29-5.9,50-10.16,74.87,1.72a11.94,11.94,0,1,1-10.3,21.55c-17.65-8.43-32.63-5.39-59.81.13-23,4.67-51.6,10.49-93.6,11.52Q491.74,1407,487.07,1407Z"/><path class="cls-7" d="M1014.41,1188.17H841.3a11.94,11.94,0,0,1,0-23.89h165.49l66.74-143.65a11.94,11.94,0,1,1,21.66,10.07l-70,150.56A11.94,11.94,0,0,1,1014.41,1188.17Z"/><path class="cls-10" d="M427,1050.06s30.42,92.77,68.05,131.17,113.39,51.3,137.1,49.79c-18.91-7.6-54.91-29.23-69.39-86.55-10.18-40.31-5.55-62.19-28.77-126.06-17.23-47.41-70.32-73.12-96.55-83.22,32.73,23.51,73.65,62.22,86.22,91.68C537.61,1059.56,427,1050.06,427,1050.06Z"/><path class="cls-21" d="M846.77,1131.47s52.46-24,58.17-21.67,63.87,37.4,63.87,43.22-51.32-21.69-51.32-21.69,5.7,15.2,2.28,22.5-42.87,7.29-78.46,5S846.77,1131.47,846.77,1131.47Z"/><path class="cls-9" d="M428.65,978.39c-48.36,99.12,117.53,199.61,216,208.54S860,1163.65,860,1163.65l-13.18-32.18s-197.18-25.73-202.17-29.34S446.36,942.09,428.65,978.39Z"/><ellipse class="cls-21" cx="476.07" cy="825.22" rx="16.54" ry="22.84" transform="translate(-262.22 223.09) rotate(-20.82)"/><path class="cls-5" d="M582.79,743.88c13.36-5.58,28.41-11.55,23.76,11.15-2,9.89,0,7.1,3.55,16.22s-8.94,16.29-13,21.36,5.9,10.58-2.21,16.66-18.8-2.25-26.36,0c-22.56,6.73-19.77-11-32.44-14.7s-18.88-3.12-21.29,5,8.87,34.8-.76,32.27-11.8,19-14.39,31.18-9.2-8.4-8.77-22.31c.66-21.34-4.64-30.31-12.51-36.28s-11.21-60.28,26.81-62.3,38.26-5.7,54.48-9.12S576.7,746.42,582.79,743.88Z"/><path class="cls-23" d="M2714.32,1364c24.24,22.13,13.7,44.27-4.22,85.37S2689,1642.25,2689,1642.25l14.76-2.11s-2.11-156,17.92-198.15,28.46-63.24,46.38-49.54S2714.32,1364,2714.32,1364Z"/><path class="cls-24" d="M2701,1335.34c2.95-13.12,20.43-27.31,43.81-39.35-3.48,19.35-14.62,51-3.09,57.47,15.56,8.75,1.52-35.41,7.52-59.69a288.86,288.86,0,0,1,72.68-23.84l-.1.27c-13.7,34.78-31.62,48.48-24.24,53.75,5.55,4,23.63-36.21,47.5-56.81,17.92-1,33.08,1.47,42,8.57,13.86,11,23.17,20.71,9.22,54.13a62.65,62.65,0,0,1-30.27,11c-31.62,3.16-46.38,4.22-24.24,14.76,10.84,5.16,29-.29,43.74-3.61-4.78,8.81-10.65,18.77-17.79,30.12a111.9,111.9,0,0,1-14.81,18.85c-10.19,2-19.08,2-23.78,0-14.76-6.32-52.7-26.35-62.18-17.92-9.28,8.25,70.27,13.48,64.76,34.45-38.56,22.22-82.69,11.65-90.49-8.75C2730.82,1381.27,2692.14,1374.82,2701,1335.34Z"/><path class="cls-23" d="M2780.72,1485.21c-42.16-31.62-85.37-2.11-107.51,31.62s-6.32,109.61-6.32,109.61,8.43,0,8.43-3.16-23.19-89.59,31.62-128.59c34.29-24.4,59-12.65,62.18-1.05s-13.7,32.67-13.7,32.67Z"/><path class="cls-24" d="M2683.75,1420.21c42.16,0,55.86,65.35,44.27,103.29s-27.4,108.56-27.4,108.56l-10.54-10.54s40.05-99.07,30.57-143.34-32.67-51.65-36.89-51.65S2683.75,1420.21,2683.75,1420.21Z"/><path class="cls-23" d="M2719.11,1523.79a30.54,30.54,0,0,1,11.1-9.33,83.28,83.28,0,0,1-2.19,9c-5.28,17.29-11.44,41.36-16.58,62.44l-2.3-13.28c-.26-1.52-.47-3.16-.61-4.9A408.77,408.77,0,0,0,2719.11,1523.79Z"/><path class="cls-24" d="M2730.64,1524.11c80.1-33.73,37.9-80,108.52-49.44,5,2.15,11,7.58,17.11,15.07a52.59,52.59,0,0,1-22.38,1.8c-21.08-3.16-13.7,13.7,21.08,17.92a78.16,78.16,0,0,1,16.3,3.44c16.57,31.83,24,73.7-11,88.26-6.91,2.87-15.45,4.51-25,5.12-10.82-8.6,2.64-58.37-14-51.5-16,6.6,5,42.66,2.14,51.75a231,231,0,0,1-50-7c-6.62-3.71-11.67-8.68-13.23-15.22-5.27-22.13,29.51-35.84,30.57-54.81,1-17.44-12.75,38.37-49.09,46.58C2708.72,1560.71,2693.2,1539.88,2730.64,1524.11Z"/><path class="cls-24" d="M2673.57,1464.48c8.43-17.92-13.7-22.13-12.65-8.43.93,12.14,1,41.65-11.41,49.69-21.47-2.33-50.69-11-72.78-24.17a9,9,0,0,1,.93-5.49c9.49-19,70.62-34.78,51.65-41.11-15.11-5-41.58,24.69-62.92,39.67-12.82-9.72-21.4-21.31-21.4-34.25,0-17.51,21.28-37.33,48.79-46.81,12.38,1.25,23.88,8,41.85,18.2,26.54,15,20.4-9.28-4.69-23.71,21.66,1.12,43.26,10.38,59.19,32.49,0,0-1.51,9.45,8.5,24.07,27.29,39.89-4.2,63.17-41.85,61.66C2658.9,1495.78,2667.74,1476.86,2673.57,1464.48Z"/><path class="cls-23" d="M2778.18,1483.42c20.61,15.93,43.51,34.55,71.62,47.2s22.49,53.87,22.49,53.87,4.22-35.6-19.21-47.78-38.88-26.7-56.68-29.51a257.71,257.71,0,0,1-27.64-5.62s5.62-11.24,2.34-15.46S2778.18,1483.42,2778.18,1483.42Z"/><path class="cls-23" d="M2879.78,1296.38c-75.42,20.14-130.7,68.39-141,80.11s-10.31,15-10.31,15l8,15,3.75-1.87s-6.09-12.65,9.84-29c27.47-28.28,60.9-50.59,83.85-60.43S2879.78,1296.38,2879.78,1296.38Z"/><path class="cls-15" d="M2678,1610.56h16a43.49,43.49,0,0,1,43.49,43.49v59.82a0,0,0,0,1,0,0h-103a0,0,0,0,1,0,0V1654A43.49,43.49,0,0,1,2678,1610.56Z" transform="translate(5372 3324.42) rotate(-180)"/><rect class="cls-4" x="2634.49" y="1622.39" width="103.02" height="7.25"/><rect class="cls-4" x="2634.49" y="1635.61" width="103.02" height="4.27"/><path class="cls-12" d="M1449.49,228A142.49,142.49,0,0,0,1308.86,85.55c-78.19-1-143.09,62-144.33,140.16a142,142,0,0,0,37.69,98.88,64.63,64.63,0,0,1,17.12,43.82v63.87a75.35,75.35,0,0,0,75.13,75.13h25a75.35,75.35,0,0,0,75.13-75.13V368.42A65.31,65.31,0,0,1,1412,324.31,142,142,0,0,0,1449.49,228Z"/><path class="cls-25" d="M1429.58,237.59A122.58,122.58,0,0,0,1308.6,115c-67.27-.86-123.1,53.31-124.17,120.58a122.15,122.15,0,0,0,32.43,85.06,55.61,55.61,0,0,1,14.73,37.7v54.95a64.82,64.82,0,0,0,64.63,64.63h21.55a64.83,64.83,0,0,0,64.63-64.63V358.37a56.19,56.19,0,0,1,15-37.95A122.13,122.13,0,0,0,1429.58,237.59Z"/><path class="cls-26" d="M1328.06,394h-46.92a4.27,4.27,0,0,1-4.25-3.88c-.08-.91-8.84-91.49-49.35-116.86a4.27,4.27,0,0,1,4.53-7.23c39.51,24.74,50.74,101.07,52.9,119.43h38.58a139.78,139.78,0,0,1,3.84-34.2c4.85-21,16.75-52.78,45.89-84.5a4.27,4.27,0,0,1,6.28,5.77c-53.26,58-47.33,116.14-47.27,116.72a4.27,4.27,0,0,1-4.24,4.75Z"/><path class="cls-26" d="M1363.19,279.12c-15.84,0-37.44-11.25-60.19-23.45-29.38,15.65-56.82,29.68-72.17,20.37-7.22-4.37-10.67-12.94-10.55-26.18.11-12.47,3.69-20.87,10.62-25,15.39-9.11,42.88,5.42,72.12,21.12,29.81-15.9,57.88-30.7,73.22-21.37,6.88,4.19,10.29,12.71,10.13,25.32-.17,13.12-3.94,21.95-11.21,26.24A23.15,23.15,0,0,1,1363.19,279.12Zm-51.12-28.28c23.42,12.45,47.93,24.37,58.75,18,4.53-2.67,6.89-9.06,7-19,.12-9.38-1.91-15.41-6-17.93C1361.34,225.55,1335.94,238.18,1312.07,250.84Zm-69.64-20.29a14,14,0,0,0-7.18,1.67c-4.19,2.48-6.36,8.44-6.44,17.71-.09,9.84,2.08,16.17,6.44,18.81,10.52,6.38,35.11-5.48,58.7-17.93C1274.88,240.65,1254.87,230.56,1242.43,230.56Z"/><rect class="cls-26" x="1277.3" y="490.14" width="62.28" height="37.54" rx="18.77" ry="18.77"/><path class="cls-26" d="M1215.21,386.35v45.18a78.91,78.91,0,0,0,78.68,78.68h26.23a78.91,78.91,0,0,0,78.68-78.68V386.35Z"/><rect class="cls-2" x="1208.06" y="378.95" width="200.2" height="21.61" rx="10.81" ry="10.81"/><path class="cls-2" d="M1398.66,416.77l-178.37,22a10.27,10.27,0,0,1-11.42-8.91l-.14-1.13a10.27,10.27,0,0,1,8.91-11.42l178.37-22a10.27,10.27,0,0,1,11.42,8.91l.14,1.13A10.27,10.27,0,0,1,1398.66,416.77Z"/><path class="cls-2" d="M1398.66,448,1220.3,470a10.27,10.27,0,0,1-11.42-8.9l-.14-1.13a10.27,10.27,0,0,1,8.91-11.42l178.37-22a10.27,10.27,0,0,1,11.42,8.91l.14,1.13A10.27,10.27,0,0,1,1398.66,448Z"/><path class="cls-2" d="M1387.66,481.39,1239.1,499.74a9.42,9.42,0,0,1-10.48-8.17l-.35-2.8a9.42,9.42,0,0,1,8.17-10.48L1385,459.94a9.42,9.42,0,0,1,10.48,8.17l.35,2.8A9.42,9.42,0,0,1,1387.66,481.39Z"/><path class="cls-2" d="M2673.86,521.89h95.75c0,52.53-43.22,95.75-95.75,95.75s-95.75-43.22-95.75-95.75,43.22-95.75,95.75-95.75Z"/><path class="cls-27" d="M2785.65,508.48a95.75,95.75,0,0,0-95.75-95.75v95.75Z"/><path class="cls-27" d="M2594.15,508.48a95.75,95.75,0,0,0,95.75,95.75C2637.37,604.24,2594.15,561,2594.15,508.48Z"/><path class="cls-27" d="M2689.9,412.73a95.75,95.75,0,0,0-95.75,95.75C2594.15,456,2637.37,412.73,2689.9,412.73Z"/><path class="cls-27" d="M2689.9,604.24a95.75,95.75,0,0,0,95.75-95.75C2785.65,561,2742.43,604.24,2689.9,604.24Z"/><rect class="cls-2" x="799.88" y="458.56" width="20.91" height="60.51"/><rect class="cls-2" x="1067.92" y="478.24" width="20.91" height="40.82"/><rect class="cls-2" x="888.5" y="377.49" width="20.91" height="141.58"/><rect class="cls-2" x="932.82" y="455.43" width="20.91" height="63.64"/><rect class="cls-2" x="977.13" y="437.42" width="20.91" height="81.65"/><rect class="cls-2" x="844.19" y="418.6" width="20.91" height="100.46"/><rect class="cls-2" x="1021.59" y="395.33" width="20.91" height="123.74"/><g class="cls-28"><path class="cls-9" d="M242.51,343.61,132.83,276.54,113,403.56A128.7,128.7,0,0,0,242.51,343.61Z"/><path class="cls-24" d="M242.62,343.45c.3-.48.68-1.15.67-1.12a128.56,128.56,0,0,0,2.85-126.55c-38.81,20.33-15.7,8-113.3,60.76C242.69,343.72,225.63,333.36,242.62,343.45Z"/><path class="cls-2" d="M12.27,232.12l120.56,44.42,113.1-61.15C193,117.55,50.63,129.29,12.27,232.12Z"/><path class="cls-27" d="M113,403.56l19.84-127L12.27,232.12C-16.4,309,34.49,391.18,113,403.56Z"/><path class="cls-4" d="M4.38,253.14a12.36,12.36,0,0,1,6.09,1.58,122.94,122.94,0,0,1,4.38-17.11l65.46,24.12s0,0,0-.06a11.63,11.63,0,0,1,2.85-8l-6.55-2.42L17.83,229.62a125.93,125.93,0,0,1,18.94-31.84,12.73,12.73,0,0,1-6.54-5.49,134.63,134.63,0,0,0-20.4,34.38l-.07,0-1.48,4-1.5,4,.07,0a131.58,131.58,0,0,0-4.8,18.72A11.86,11.86,0,0,1,4.38,253.14Z"/><path class="cls-29" d="M251.64,217.15l.07,0-2-3.75-.13-.23L247.89,210l-.06,0a131.27,131.27,0,0,0-53-51.4A134.85,134.85,0,0,0,47.52,174.76a13.19,13.19,0,0,1,5.42,6.61,124.57,124.57,0,0,1,71.82-28.66c47.58-3.31,91.38,20,115.32,61l-33.4,18.06c-6.9,3.71-16.54,8.93-32.68,17.66l-40,21.65-1,.56-3.36-2.05-.18,1.17-23.52-8.67a11.76,11.76,0,0,1-3.15,7.93l25.32,9.33L109.45,398.6a124.46,124.46,0,0,1-84-59.87A123.3,123.3,0,0,1,8.53,278a12.21,12.21,0,0,1-4.15.76,12.44,12.44,0,0,1-4.38-.8A131.78,131.78,0,0,0,18.09,343a133,133,0,0,0,90,64v.07l4.2.66,4.22.67v-.07A132.93,132.93,0,0,0,244,349.22l.09.05.84-1.37s1.36-2.23,1.36-2.23l.6-1,.09-.15.07-.12,1.35-2.21-.06,0A133.34,133.34,0,0,0,251.64,217.15ZM117.88,399.93l18.18-116.42,47.32,28.94L220.24,335l16.34,10A123.79,123.79,0,0,1,117.88,399.93Zm123.23-62.34-.81-.48c-4.48-2.65-6.43-3.81-15.36-9.25l-83.56-51.1,69.36-37.51c10.19-5.48,14.36-7.66,24.71-13.07l8.86-4.64A124.79,124.79,0,0,1,241.11,337.59Z"/></g><rect class="cls-2" x="475.48" y="133.92" width="367.61" height="166.13" rx="8.17" ry="8.17"/><rect class="cls-4" x="485.53" y="177.56" width="347.51" height="114.69" rx="6.6" ry="6.6"/><rect class="cls-4" x="490.63" y="146.14" width="14.4" height="12.96" rx="3.66" ry="3.66"/><rect class="cls-4" x="516.82" y="146.14" width="14.4" height="12.96" rx="3.66" ry="3.66"/><rect class="cls-4" x="543" y="146.14" width="14.4" height="12.96" rx="3.66" ry="3.66"/><path class="cls-2" d="M818.9,202.7H635.08a5.5,5.5,0,1,1,0-11H818.9a5.5,5.5,0,1,1,0,11Z"/><path class="cls-2" d="M680.64,287.54H496.83a5.5,5.5,0,1,1,0-11H680.64a5.5,5.5,0,0,1,0,11Z"/><rect class="cls-2" x="693.61" y="276.54" width="22.78" height="11" rx="2.2" ry="2.2"/><rect class="cls-2" x="722.28" y="276.54" width="22.78" height="11" rx="2.2" ry="2.2"/><path class="cls-2" d="M820.67,226.66H516.27a3.73,3.73,0,0,1,0-7.46h304.4a3.73,3.73,0,1,1,0,7.46Z"/><path class="cls-2" d="M820.67,242.76H516.27a3.73,3.73,0,0,1,0-7.46h304.4a3.73,3.73,0,1,1,0,7.46Z"/><path class="cls-30" d="M1739,194.26H1582V102.77h118.05L1739,141.69Z"/><polygon class="cls-27" points="1697.18 102.77 1697.18 151.6 1738.98 151.6 1738.98 142.22 1699.8 103.03 1697.18 102.77"/><polygon class="cls-30" points="1700.06 102.77 1700.06 142.22 1738.98 142.22 1700.06 102.77"/><path class="cls-4" d="M1669.67,137.1h-70a2.77,2.77,0,0,1,0-5.55h70a2.77,2.77,0,0,1,0,5.55Z"/><path class="cls-4" d="M1669.67,151.29h-70a2.77,2.77,0,1,1,0-5.55h70a2.77,2.77,0,1,1,0,5.55Z"/><path class="cls-4" d="M1669.67,166.22h-70a2.77,2.77,0,0,1,0-5.55h70a2.77,2.77,0,0,1,0,5.55Z"/><circle class="cls-7" cx="1655.8" cy="109.8" r="4.69"/><rect class="cls-31" x="953.73" y="96.69" width="99.77" height="120.29" transform="translate(47.98 -187.54) rotate(10.94)"/><path class="cls-2" d="M1043.28,158.3l-51.93-10a2.56,2.56,0,1,1,1-5l51.93,10a2.56,2.56,0,1,1-1,5Z"/><path class="cls-2" d="M1040.77,171.29l-51.93-10a2.56,2.56,0,0,1,1-5l51.93,10a2.56,2.56,0,1,1-1,5Z"/><path class="cls-2" d="M1038.19,184.63l-51.93-10a2.56,2.56,0,0,1,1-5l51.93,10a2.56,2.56,0,1,1-1,5Z"/><circle class="cls-7" cx="1003.93" cy="103.35" r="4.27" transform="translate(712.02 1069.44) rotate(-79.06)"/><path class="cls-2" d="M1811.43,322.27l-151.6-16,10-95L1790,223.94l28.09,34.71Z"/><polygon class="cls-4" points="1787.89 230.72 1675.05 218.84 1666.61 299.01 1806.89 313.79 1811.84 266.84 1784.39 263.95 1787.89 230.72"/><path class="cls-2" d="M1772.6,259.85l-73.1-7.7a3.06,3.06,0,0,1,.64-6.09l73.1,7.7a3.06,3.06,0,1,1-.64,6.09Z"/><path class="cls-2" d="M1770.9,276l-73.1-7.7a3.06,3.06,0,1,1,.64-6.09l73.1,7.7a3.06,3.06,0,1,1-.64,6.09Z"/><path class="cls-2" d="M1769.13,292.78l-73.1-7.7a3.06,3.06,0,0,1,.64-6.09l73.1,7.7a3.06,3.06,0,0,1-.64,6.09Z"/><circle class="cls-7" cx="1726.57" cy="233.22" r="4.69"/><circle class="cls-24" cx="2512.32" cy="159.1" r="52.34"/><path class="cls-4" d="M2507.12,177H2507a2.56,2.56,0,0,1-1.83-.87L2491,160a2.56,2.56,0,0,1,3.84-3.38l12.43,14.13,28.44-27.84a2.56,2.56,0,0,1,3.58,3.66l-30.37,29.72A2.56,2.56,0,0,1,2507.12,177Z"/><rect class="cls-2" x="140.06" y="509.02" width="329.87" height="135.93" rx="16.48" ry="16.48" transform="translate(610 1153.98) rotate(180)"/><path class="cls-2" d="M430.09,624.45v75L343.67,613S428.34,624.45,430.09,624.45Z"/><rect class="cls-4" x="157.13" y="522.5" width="295.75" height="108.98" rx="13.97" ry="13.97" transform="translate(610 1153.98) rotate(180)"/><path class="cls-2" d="M291.82,549.45H425.41a5.86,5.86,0,1,0,0-11.72H291.82a5.86,5.86,0,0,0,0,11.72Z"/><rect class="cls-2" x="176.98" y="565.27" width="254.29" height="6.58" rx="3.29" ry="3.29" transform="translate(608.24 1137.13) rotate(180)"/><rect class="cls-2" x="176.98" y="578.02" width="254.29" height="6.58" rx="3.29" ry="3.29" transform="translate(608.24 1162.63) rotate(-180)"/><rect class="cls-2" x="2379.83" y="524.86" width="27.91" height="25.12" rx="7.09" ry="7.09" transform="translate(4787.56 1074.85) rotate(180)"/><rect class="cls-2" x="2329.08" y="524.86" width="27.91" height="25.12" rx="7.09" ry="7.09" transform="translate(4686.08 1074.85) rotate(180)"/><rect class="cls-2" x="2278.34" y="524.86" width="27.91" height="25.12" rx="7.09" ry="7.09" transform="translate(4584.59 1074.85) rotate(-180)"/></g></g></svg>