<svg xmlns="http://www.w3.org/2000/svg" viewBox="0 0 440.22 323.94"><defs><style>.cls-1,.cls-6{fill:#88d7ff;}.cls-1{opacity:0.25;}.cls-2,.cls-3{fill:none;stroke-miterlimit:10;stroke-width:3.01px;}.cls-2{stroke:#4745ab;}.cls-3{stroke:#ff6584;}.cls-4{fill:#30b7df;}.cls-5{fill:#b8c3f9;}.cls-7{fill:#4745ab;}.cls-8{fill:#fea03c;}.cls-9{fill:#fecc2d;}.cls-10{fill:#ffc1b6;}.cls-11{fill:#21537a;}.cls-12{fill:#f2b7b0;}.cls-13{fill:#2796af;}.cls-14{fill:#162952;}.cls-15{fill:#ffc9b9;}.cls-16{fill:#540f23;}</style></defs><title>ast4</title><g id="Layer_2" data-name="Layer 2"><g id="Layer_1-2" data-name="Layer 1"><ellipse class="cls-1" cx="220.11" cy="301.08" rx="220.11" ry="22.86"/><circle class="cls-2" cx="79.35" cy="64.05" r="17.15"/><circle class="cls-3" cx="60.16" cy="161.19" r="12.56"/><circle class="cls-3" cx="378.01" cy="38.43" r="11.15"/><polygon class="cls-4" points="162.33 0 166.11 7.67 174.59 8.91 168.46 14.88 169.9 23.32 162.33 19.33 154.75 23.32 156.2 14.88 150.07 8.91 158.54 7.67 162.33 0"/><polygon class="cls-4" points="313.29 19.48 317.08 27.16 325.55 28.39 319.42 34.37 320.87 42.8 313.29 38.82 305.72 42.8 307.16 34.37 301.03 28.39 309.5 27.16 313.29 19.48"/><path class="cls-4" d="M363.54,270.75H407.6v13.34a13.35,13.35,0,0,1-13.35,13.35H376.88a13.35,13.35,0,0,1-13.34-13.35Z"/><rect class="cls-5" x="363.54" y="274.34" width="44.06" height="4.53"/><path class="cls-6" d="M385.57,261.3c-23.83.3-44.67-23.06-41.36-34,2.6-8.57,19.13-6.45,22.47-16.62,2.59-7.88-6-13.24-12.08-26.43-8.36-18.16-4.74-35.58,1.51-65.72,4.55-22,7.32-34.49,16.24-37,7.74-2.19,18.25,3.65,22.28,11.52,4.39,8.57-2.23,13.07.57,25.5,2.43,10.83,10,18.72,17.94,27,9.31,9.71,12.71,9.48,13.6,14.35,1.63,9-9.51,12.47-14.55,29.09a46,46,0,0,0-1.32,22.47c2.91,13.88,11.25,15.82,11.14,24C421.86,247.46,403.51,261.08,385.57,261.3Z"/><polygon class="cls-7" points="384.06 270.75 384.06 227.88 372.54 216.74 374.05 215.23 384.06 225.99 384.06 142.52 386.51 142.52 386.51 171.98 396.71 160.08 401.43 160.65 386.98 173.87 386.98 270.75 384.06 270.75"/><ellipse class="cls-8" cx="78.81" cy="283.44" rx="50.74" ry="14.07"/><polygon class="cls-8" points="28.07 279.05 28.07 284.61 31.76 285.37 31.76 284.32 28.07 279.05"/><polygon class="cls-8" points="129.51 278.58 129.55 284.28 125.61 286.2 125.61 284.49 129.51 278.58"/><ellipse class="cls-9" cx="78.81" cy="279.05" rx="50.74" ry="14.07"/><ellipse class="cls-8" cx="78.81" cy="275.64" rx="50.74" ry="14.07"/><polygon class="cls-8" points="28.07 271.25 28.07 276.81 31.76 277.56 31.76 276.52 28.07 271.25"/><polygon class="cls-8" points="129.51 270.78 129.55 276.48 125.61 278.4 125.61 276.69 129.51 270.78"/><ellipse class="cls-9" cx="78.81" cy="271.25" rx="50.74" ry="14.07"/><ellipse class="cls-8" cx="78.81" cy="267.84" rx="50.74" ry="14.07"/><polygon class="cls-8" points="28.07 263.45 28.07 269.01 31.76 269.76 31.76 268.72 28.07 263.45"/><polygon class="cls-8" points="129.51 262.98 129.55 268.68 125.61 270.6 125.61 268.89 129.51 262.98"/><ellipse class="cls-9" cx="78.81" cy="263.45" rx="50.74" ry="14.07"/><ellipse class="cls-8" cx="78.81" cy="260.04" rx="50.74" ry="14.07"/><polygon class="cls-8" points="28.07 255.65 28.07 261.21 31.76 261.96 31.76 260.92 28.07 255.65"/><polygon class="cls-8" points="129.51 255.18 129.55 260.88 125.61 262.8 125.61 261.09 129.51 255.18"/><ellipse class="cls-9" cx="78.81" cy="255.65" rx="50.74" ry="14.07"/><ellipse class="cls-8" cx="78.81" cy="252.24" rx="50.74" ry="14.07"/><polygon class="cls-8" points="28.07 247.85 28.07 253.41 31.76 254.16 31.76 253.12 28.07 247.85"/><polygon class="cls-8" points="129.51 247.38 129.55 253.08 125.61 255 125.61 253.29 129.51 247.38"/><ellipse class="cls-9" cx="78.81" cy="247.85" rx="50.74" ry="14.07"/><ellipse class="cls-8" cx="78.81" cy="244.44" rx="50.74" ry="14.07"/><polygon class="cls-8" points="28.07 240.05 28.07 245.61 31.76 246.36 31.76 245.31 28.07 240.05"/><polygon class="cls-8" points="129.51 239.57 129.55 245.28 125.61 247.2 125.61 245.49 129.51 239.57"/><ellipse class="cls-9" cx="78.81" cy="240.05" rx="50.74" ry="14.07"/><path class="cls-10" d="M284.47,117.17s17.25-5.49,19.34-2.14-15.07,9.54-18.63,8.88l-1.24-6.74"/><rect class="cls-11" x="139.88" y="186.49" width="56.77" height="40.55"/><path class="cls-11" d="M159.18,186.49a9.07,9.07,0,0,1,7-8.29v2.38s-3.88,2.65-4.76,5.91Z"/><path class="cls-12" d="M205.91,65.5s.94,7.6,0,9.36-1.82,9.23-1.82,9.23,10,11.43,11.24,11.43,13.24-3,13.24-3l-7.38-20.1s-.32-13.21,0-15.28-16-1-16-1Z"/><path class="cls-4" d="M179.85,82.94s5.09-13.85,19.35-13.44l33.82.81s9.17,4.4,18.54,25l8.73,14.81,21.94,6.39v8.58H249.72l-14.21-20.65-6.7,185H215l2.72-128.89L204.5,160,189.83,290,178,288.64l8.83-121.29s.92-38.06,3.31-61.46c0,0-11.39,15.43-11,19.1s-2.3,44.81-2.3,44.81L165.46,169l-1-47.8s-1.9-4.08,3.26-12.23"/><path class="cls-13" d="M187.63,152.58c-.16,8.44-.6,14-.6,14l-8.82,121.29L190,289.27l14.67-130,13.17.54-2.71,128.89H229l5.19-136.15Z"/><path class="cls-14" d="M216.87,290.15l-.55.78s-7.06.27-8.42,4.21,21.32,1.63,21.32,1.63l.14-5.84Z"/><path class="cls-14" d="M176.76,290.15l-.55.78s-7.06.27-8.42,4.21,21.33,1.63,21.33,1.63l.13-5.84Z"/><circle class="cls-8" cx="292.56" cy="86.28" r="26.7"/><circle class="cls-9" cx="286.91" cy="86.28" r="26.7"/><path class="cls-8" d="M297.05,75H276.76v5.73h4.17a4.84,4.84,0,0,1,3.81,1.88h-8v5.72h8.05a4.8,4.8,0,0,1-3.88,2h-2.86v4.63l11,10,3.85-4.24-6.67-6.06a10.48,10.48,0,0,0,4.85-6.28h6V82.57h-6a9.8,9.8,0,0,0-.74-1.88h6.75V75Z"/><path class="cls-15" d="M166.22,171s-4.22,15.13,7.46,15.13S176.52,171,176.52,171Z"/><path class="cls-16" d="M194.34,43.14c-.55-1.69-1-3.43-1.41-5.14-1.05-4.17-1-8.57,2-12a24,24,0,0,1,6.64-5A23.74,23.74,0,0,1,212,17.78a60.1,60.1,0,0,0,10.2-1c3.7-.85,7.5-2.33,11.31-1.17A4.62,4.62,0,0,1,236,17.13a4.69,4.69,0,0,1,.72,1.65c.84,3.14,1.83,6.75.15,9.46-1,1.58-2.62,2.23-3.94,3.41-.91.82-1.21-.19-1.07,1.25.1,1-.24,2.63.25,3.46,1.72,2.9.92,5.92.59,9-.16,1.46-1.76,5-3.17,5.94-1.07.72-.89-18.8-2.15-19.34s-24.73.15-25.6-.53c-2.65-2.09-1.5,21.78-3.65,19.14A22.48,22.48,0,0,1,194.34,43.14Z"/><ellipse class="cls-12" cx="229.12" cy="45.85" rx="2.63" ry="4.06"/><ellipse class="cls-12" cx="198.86" cy="45.05" rx="2.39" ry="4.06"/><path class="cls-10" d="M229.35,51.24h0c-2.19,8.45-8.18,14.52-15.24,14.52-7.23,0-13.34-6.36-15.4-15.13,1.38-2,.7-21,3.08-19.17.86.68,24.35,0,25.6.53S228.48,49.63,229.35,51.24Z"/></g></g></svg>