<svg xmlns="http://www.w3.org/2000/svg" xmlns:xlink="http://www.w3.org/1999/xlink" viewBox="0 0 742.2 572.49"><defs><style>.cls-1{isolation:isolate;}.cls-2{fill:url(#linear-gradient);}.cls-3,.cls-4{fill:none;stroke:#109138;stroke-miterlimit:10;stroke-width:4px;}.cls-4{stroke-dasharray:12.24 12.24;}.cls-5{fill:#109138;}.cls-6{fill:#53b0f7;}.cls-7{fill:#1bb1dc;}.cls-8{fill:#00cfff;}.cls-9{fill:#fff;}.cls-10{fill:#231f20;opacity:0.3;mix-blend-mode:overlay;}.cls-11{fill:#eea886;}.cls-12{fill:#c4c6d1;}.cls-13{fill:#ff6584;}.cls-14{fill:#d9c7c1;}.cls-15{fill:#eddad3;}.cls-16{fill:#548ad1;}.cls-17{fill:#609ef0;}.cls-18{fill:#e6a281;}.cls-19{fill:#434343;}.cls-20{fill:#a77860;}</style><linearGradient id="linear-gradient" x1="9.39" y1="286.25" x2="732.81" y2="286.25" gradientUnits="userSpaceOnUse"><stop offset="0" stop-color="#f5f8fd"/><stop offset="0.24" stop-color="#f2f7fd"/><stop offset="0.44" stop-color="#e8f3fc"/><stop offset="0.62" stop-color="#d6edfc"/><stop offset="0.8" stop-color="#bee5fb"/><stop offset="0.96" stop-color="#9fdaf9"/><stop offset="1" stop-color="#98d7f9"/></linearGradient></defs><title>bank</title><g class="cls-1"><g id="Layer_1" data-name="Layer 1"><path class="cls-2" d="M726.93,341.15c-12.52-34.9-32.23-45.52-51-67.9-22.9-27.34-38.34-47.21-32.4-82.37,9.71-57.46,13.87-200.76-138.24-182-54.52,6.71-97.61,48.5-128.95,90.2-26.67,35.49-74.65,38.62-113.26,46.89-47.45,10.17-95.78,25.52-139.67,48C33,240.3,6,306.92,9.71,392.15,10.83,417.9,14.47,458.46,58,505.92c58.71,64.06,144,72.64,246.7,43.22,23.5-6.73,45.72-17.3,68.84-25.25a324.87,324.87,0,0,1,74.3-16.13c59-5.7,120.11,4.61,176.68-13a186.42,186.42,0,0,0,79-49C730.53,417.45,740.15,378,726.93,341.15Z"/><path class="cls-3" d="M536.13,231.95s2.26-.18,6-.7"/><path class="cls-4" d="M554.13,229.11c24.59-5.32,63.76-19.85,46.48-57.23C581,129.54,511.47,92.62,484.29,79.48"/><path class="cls-3" d="M478.76,76.86c-3.48-1.62-5.46-2.48-5.46-2.48"/><polygon class="cls-5" points="457.96 63.31 473.3 46.38 352.39 48.5 451.08 113.32 454.25 81.57 469.07 72.84 395.78 54.85 457.96 63.31"/><rect class="cls-6" x="631.02" y="340.99" width="7.17" height="9.67" rx="1.71" ry="1.71"/><rect class="cls-6" x="611.82" y="349.04" width="7.17" height="9.67" rx="1.71" ry="1.71" transform="translate(-69.98 538.8) rotate(-45)"/><rect class="cls-6" x="603.92" y="368.31" width="7.17" height="9.67" rx="1.71" ry="1.71" transform="translate(234.36 980.65) rotate(-90)"/><rect class="cls-6" x="611.97" y="387.52" width="7.17" height="9.67" rx="1.71" ry="1.71" transform="translate(773.38 1105.05) rotate(-135)"/><rect class="cls-6" x="631.24" y="395.41" width="7.17" height="9.67" rx="1.71" ry="1.71" transform="translate(1269.65 800.49) rotate(-180)"/><rect class="cls-6" x="650.45" y="387.37" width="7.17" height="9.67" rx="1.71" ry="1.71" transform="translate(1393.83 207.06) rotate(135)"/><rect class="cls-6" x="658.34" y="368.09" width="7.17" height="9.67" rx="1.71" ry="1.71" transform="translate(1034.85 -289) rotate(90)"/><rect class="cls-6" x="650.3" y="348.89" width="7.17" height="9.67" rx="1.71" ry="1.71" transform="translate(441.64 -358.76) rotate(45)"/><path class="cls-6" d="M634.83,348.81a24,24,0,1,0,24,24A24,24,0,0,0,634.83,348.81Zm.31,40.86a16.9,16.9,0,1,1,16.9-16.9A16.9,16.9,0,0,1,635.13,389.67Z"/><rect class="cls-6" x="279.34" y="420.66" width="4.39" height="5.92" rx="1.71" ry="1.71"/><rect class="cls-6" x="267.57" y="425.59" width="4.39" height="5.92" rx="1.71" ry="1.71" transform="translate(-224.02 316.27) rotate(-45)"/><rect class="cls-6" x="262.74" y="437.39" width="4.39" height="5.92" rx="1.71" ry="1.71" transform="translate(-175.42 705.29) rotate(-90)"/><rect class="cls-6" x="267.67" y="449.16" width="4.39" height="5.92" rx="1.71" ry="1.71" transform="translate(140.99 962.63) rotate(-135)"/><rect class="cls-6" x="279.47" y="453.99" width="4.39" height="5.92" rx="1.71" ry="1.71" transform="translate(563.33 913.9) rotate(-180)"/><rect class="cls-6" x="291.23" y="449.06" width="4.39" height="5.92" rx="1.71" ry="1.71" transform="translate(820.54 564.17) rotate(135)"/><rect class="cls-6" x="296.07" y="437.26" width="4.39" height="5.92" rx="1.71" ry="1.71" transform="translate(738.48 141.96) rotate(90)"/><rect class="cls-6" x="291.14" y="425.5" width="4.39" height="5.92" rx="1.71" ry="1.71" transform="translate(388.88 -81.93) rotate(45)"/><path class="cls-6" d="M281.66,425.45a14.67,14.67,0,1,0,14.67,14.67A14.67,14.67,0,0,0,281.66,425.45Zm.19,25a10.35,10.35,0,1,1,10.35-10.35A10.35,10.35,0,0,1,281.85,450.48Z"/><polygon class="cls-7" points="468.78 478.87 127.47 478.87 146.99 468.92 449.17 469.01 468.78 478.87"/><rect class="cls-8" x="127.47" y="478.87" width="341.31" height="13.26"/><polygon class="cls-8" points="421.17 306.29 421.17 244.2 297.08 191.58 174.46 244.2 174.46 306.29 421.17 306.29"/><polygon class="cls-7" points="297.05 182.36 168.15 246.66 168.15 255.89 297.08 191.58 427.48 255.38 427.48 246.18 297.05 182.36"/><polygon class="cls-8" points="297.03 178.36 165.81 243.82 165.81 248.17 297.07 182.7 429.82 247.66 429.82 243.33 297.03 178.36"/><polygon class="cls-8" points="174.46 255.17 174.46 259.52 297.07 198.37 421.17 259.09 421.17 254.76 297.03 194.03 174.46 255.17"/><polygon class="cls-8" points="297.03 191.08 165.81 256.54 165.81 260.89 297.07 195.42 429.82 260.37 429.82 256.05 297.03 191.08"/><path class="cls-9" d="M219.23,260.89h21.43q5.36,0,8.23,2.65a8.59,8.59,0,0,1,2.87,6.57,8.29,8.29,0,0,1-2,5.63,9.11,9.11,0,0,1-4,2.48,10.37,10.37,0,0,1,5.87,3.3,9.06,9.06,0,0,1,1.88,5.87,10.1,10.1,0,0,1-1.34,5.18,9.86,9.86,0,0,1-3.66,3.64,12.1,12.1,0,0,1-4.35,1.21,49.88,49.88,0,0,1-5.13.51H219.23Zm11.55,14.53h5a5.72,5.72,0,0,0,3.73-.92,3.36,3.36,0,0,0,1-2.67,3.17,3.17,0,0,0-1-2.53,5.63,5.63,0,0,0-3.65-.91h-5.05Zm0,14.56h5.84q3,0,4.17-1a3.54,3.54,0,0,0,1.21-2.82,3.26,3.26,0,0,0-1.2-2.64q-1.2-1-4.21-1h-5.81Z"/><path class="cls-9" d="M281.35,291.82h-13l-1.81,6.12H254.86l13.92-37h12.49l13.92,37h-12Zm-2.37-8-4.09-13.32-4,13.32Z"/><path class="cls-9" d="M298.9,260.89h10.69l13.95,20.5v-20.5h10.79v37H323.54l-13.87-20.34v20.34H298.9Z"/><path class="cls-9" d="M342,260.89h11.45v14l12-14h15.22l-13.52,14,14.12,23.06h-14.1l-7.81-15.24-5.91,6.19v9H342Z"/><rect class="cls-7" x="162.37" y="314.67" width="271.47" height="148.44"/><polygon class="cls-7" points="451.43 317.44 433.86 316.15 433.86 314.71 162.39 314.63 162.39 316.15 144.81 317.44 162.39 326.74 162.39 335.44 433.86 335.51 433.86 326.74 451.43 317.44"/><polygon class="cls-8" points="435.15 326.06 451.43 317.44 433.86 316.15 433.86 314.71 162.39 314.63 162.39 316.15 144.81 317.44 161.1 326.06 435.15 326.06"/><polygon class="cls-7" points="451.43 460.13 144.81 460.13 162.35 451.19 433.82 451.27 451.43 460.13"/><rect class="cls-8" x="172.28" y="325.69" width="21.44" height="126.62"/><rect class="cls-8" x="189.77" y="325.69" width="1.89" height="126.62"/><rect class="cls-8" x="185.89" y="325.69" width="1.89" height="126.62"/><rect class="cls-7" x="182" y="325.69" width="1.89" height="126.62"/><rect class="cls-7" x="178.11" y="325.69" width="1.89" height="126.62"/><rect class="cls-7" x="174.23" y="325.69" width="1.89" height="126.62"/><rect class="cls-7" x="166.72" y="321.2" width="32.55" height="7.86"/><rect class="cls-7" x="166.72" y="448.27" width="32.55" height="7.86"/><polygon class="cls-10" points="240.7 329.06 240.7 321.2 208.15 321.2 208.15 329.06 213.7 329.06 213.7 448.27 208.15 448.27 208.15 456.13 240.7 456.13 240.7 448.27 235.14 448.27 235.14 329.06 240.7 329.06"/><polygon class="cls-10" points="383.59 329.06 383.59 321.2 351.04 321.2 351.04 329.06 356.59 329.06 356.59 448.27 351.04 448.27 351.04 456.13 383.59 456.13 383.59 448.27 378.03 448.27 378.03 329.06 383.59 329.06"/><polygon class="cls-10" points="416.31 329.06 416.31 321.2 383.75 321.2 383.75 329.06 389.31 329.06 389.31 448.27 383.75 448.27 383.75 456.13 416.31 456.13 416.31 448.27 410.75 448.27 410.75 329.06 416.31 329.06"/><polygon class="cls-10" points="210.08 329.06 210.08 321.2 177.53 321.2 177.53 329.06 183.08 329.06 183.08 448.27 177.53 448.27 177.53 456.13 210.08 456.13 210.08 448.27 204.52 448.27 204.52 329.06 210.08 329.06"/><rect class="cls-8" x="208.3" y="325.69" width="21.44" height="126.62"/><rect class="cls-7" x="225.79" y="325.69" width="1.89" height="126.62"/><rect class="cls-7" x="221.91" y="325.69" width="1.89" height="126.62"/><rect class="cls-7" x="218.02" y="325.69" width="1.89" height="126.62"/><rect class="cls-7" x="214.14" y="325.69" width="1.89" height="126.62"/><rect class="cls-7" x="210.25" y="325.69" width="1.89" height="126.62"/><rect class="cls-7" x="202.74" y="321.2" width="32.55" height="7.86"/><rect class="cls-7" x="202.74" y="448.27" width="32.55" height="7.86"/><rect class="cls-8" x="362.39" y="325.69" width="21.44" height="126.62"/><rect class="cls-7" x="379.89" y="325.69" width="1.89" height="126.62"/><rect class="cls-7" x="376" y="325.69" width="1.89" height="126.62"/><rect class="cls-7" x="372.12" y="325.69" width="1.89" height="126.62"/><rect class="cls-7" x="368.23" y="325.69" width="1.89" height="126.62"/><rect class="cls-7" x="364.34" y="325.69" width="1.89" height="126.62"/><rect class="cls-7" x="356.84" y="321.2" width="32.55" height="7.86"/><rect class="cls-7" x="356.84" y="448.27" width="32.55" height="7.86"/><rect class="cls-8" x="398.42" y="325.69" width="21.44" height="126.62"/><rect class="cls-7" x="415.91" y="325.69" width="1.89" height="126.62"/><rect class="cls-7" x="412.03" y="325.69" width="1.89" height="126.62"/><rect class="cls-7" x="408.14" y="325.69" width="1.89" height="126.62"/><rect class="cls-7" x="404.25" y="325.69" width="1.89" height="126.62"/><rect class="cls-7" x="400.37" y="325.69" width="1.89" height="126.62"/><rect class="cls-7" x="392.86" y="321.2" width="32.55" height="7.86"/><rect class="cls-7" x="392.86" y="448.27" width="32.55" height="7.86"/><rect class="cls-8" x="144.81" y="297.56" width="306.62" height="19.89"/><rect class="cls-8" x="144.81" y="460.14" width="306.62" height="11.91"/><rect class="cls-7" x="144.81" y="301.18" width="306.62" height="12.64"/><rect class="cls-7" x="144.81" y="303.64" width="306.62" height="7.73"/><path class="cls-9" d="M315.08,357.83H303.14a10.85,10.85,0,0,1,4.05,7.38h7.88v3.62h-7.81c-.72,7.38-6.58,12.08-15.84,12.37,5.64,5.86,11.79,13.24,17.87,20.69h-6.94c-5.64-6.8-10.92-13.09-17.72-20.33v-4.49h4c7.81,0,12-3.25,12.51-8.25H284.63v-3.62H300.9c-1-4.2-4.85-6.29-11.14-6.29h-5.14v-4.7h30.46Z"/><path class="cls-9" d="M350,365.14h-8.12a7.37,7.37,0,0,1,2.75,5H350v2.46h-5.31c-.49,5-4.48,8.21-10.77,8.41,3.84,4,8,9,12.15,14.07h-4.72c-3.84-4.62-7.43-8.9-12-13.82v-3H332c5.31,0,8.16-2.21,8.51-5.61H329.28v-2.46h11.07c-.69-2.85-3.29-4.28-7.57-4.28h-3.49v-3.2H350Z"/><path class="cls-9" d="M268.07,365.14H260a7.37,7.37,0,0,1,2.75,5h5.36v2.46h-5.31c-.49,5-4.48,8.21-10.77,8.41,3.84,4,8,9,12.15,14.07h-4.72c-3.84-4.62-7.43-8.9-12-13.82v-3h2.71c5.31,0,8.16-2.21,8.51-5.61H247.36v-2.46h11.07c-.69-2.85-3.29-4.28-7.57-4.28h-3.49v-3.2h20.71Z"/><path class="cls-11" d="M444.63,259.19s-5.5,2.49-6.77.43A20.76,20.76,0,0,0,433,254.8c-1.18-.84-4-4.78-4.92-3.3s4.28,6.71,5.17,8-5.88.53-7.18,1.4-1.36,12.52,3.32,12.5,9.53-3.25,10.36-3.09,6.21-1.05,6.21-1.05Z"/><path class="cls-11" d="M427.15,260.65s-14.3,1.05-15.15,2-.72,1.7.63,1.66,13.86-.6,13.86-.6-16.58,4.21-17.45,4.78c-.51.33-.33,1.9.4,1.95s17.43-3.13,17.43-3.13-15.47,4-16,4.66a1.19,1.19,0,0,0,1.18,1.82c1.17-.21,15.77-3,15.77-3s-11.05,3.62-11.18,4.54c-.08.56,0,1.92,2.83.89s9.75-2.72,9.75-2.72Z"/><path class="cls-12" d="M577,499.05s3.81,2.7,5.92,4.6,5,4,6.74,8.79-1,8.41-5.79,8.69-12.07-3.29-12.78-7.62-6.3-3.79-7-6.84a16.6,16.6,0,0,1,.25-6.81Z"/><path class="cls-11" d="M576.38,495.5l.63,3.55s-2,3.61-12.69.8l.55-3.5Z"/><path class="cls-12" d="M564.33,499.86s2.42.32,4.14.58,5.13-1.92,8.55-1.39L576,503.37S564.57,501.25,564.33,499.86Z"/><path class="cls-12" d="M508.56,499.05s-3.81,2.7-5.92,4.6-5,4-6.74,8.79,1,8.41,5.79,8.69,12.07-3.29,12.78-7.62,6.3-3.79,7-6.84a16.6,16.6,0,0,0-.24-6.81Z"/><path class="cls-11" d="M509.2,495.5l-.63,3.55s2,3.61,12.69.8l-.55-3.5Z"/><path class="cls-13" d="M504.71,302.4s37-7.25,56.14-.4q1.2.43,2.31.93l.13.93c.19,1.41.59,4.34,1.13,8.34l.28,2.1c2.73,20.53,6.81,50.37,7.59,64.93,1,19.1,2.09,21.82,2.09,25.42,0,9.68,3.42,91.22,3.42,91.22s-5.8,3.09-14.75,0c0,0-10.56-80.88-12.39-86.86s-14.81-60.52-17.1-60.78-8.66,57.63-9.14,65.5,0,80.88-2.64,82.18-13.25,1.44-14-1.17c0,0-3.11-74.22-3.11-82s-2.53-68.61-2.31-71.21A230.92,230.92,0,0,1,504.71,302.4Z"/><path class="cls-8" d="M522,197.48s-31.39,6.62-34,15.3-7.27,22.94-13,45.47c-.86,3.39-33.27-1.15-33.27-1.15s-2.7,13.74-2.77,14.18c-.2,1.2,43.78,3.42,47,2.62,4.58-1.15,12.3-31.63,12.3-31.63s4.16,46,4.16,53.15-.47,21.51-.47,21.51,11.63,4.43,34.22,3.26c0,0,36-1.23,29.82-12.12-4.64-8.23-1.8-63.64-1.1-64s13.23,15.26,12,18.26-33.66,13.78-33.66,13.78-.95,3.47,4.09,11.34c0,0,48.45-14.07,48.62-17s-20.15-60.2-26.79-63.2c-9.56-4.32-34.55-11.1-34.55-11.1Z"/><path class="cls-12" d="M521.25,499.86s-2.42.32-4.14.58-5.13-1.92-8.55-1.39l1.05,4.32S521,501.25,521.25,499.86Z"/><polygon class="cls-14" points="540.93 309.51 577.79 298.87 561.67 243.7 524.81 254.34 540.93 309.51"/><polygon class="cls-5" points="544.46 308.49 581.32 297.86 565.2 242.68 528.34 253.32 544.46 308.49"/><polygon class="cls-15" points="543.34 304.92 587.38 292.21 568.12 226.29 524.08 239 543.34 304.92"/><polygon class="cls-16" points="547.55 303.7 591.6 290.99 572.34 225.07 528.3 237.78 547.55 303.7"/><polygon class="cls-17" points="543.86 251.01 568.72 243.83 567.6 239.98 542.74 247.16 543.86 251.01"/><polygon class="cls-17" points="546.49 258.25 571.35 251.08 570.23 247.23 545.37 254.4 546.49 258.25"/><path class="cls-18" d="M533.09,274.52s-3.5-.1-4.57-.25-.36,2.11.88,2.54S533.09,274.52,533.09,274.52Z"/><path class="cls-11" d="M531,291.14a7.19,7.19,0,0,0,2.28.21s1.34-.4,2.31-.63a6.83,6.83,0,0,1,.75-.14,13.19,13.19,0,0,0,4.13-.69c1.73-.67,7.61-3.67,7.61-3.67l-1.68-5.43-1.27-4.3s-9.93-2.63-11.62-2.19a4.43,4.43,0,0,0-.47.15,16.67,16.67,0,0,0-2.91,1.83c-.26.13-2.72,1.6-2.84,2.44a2.77,2.77,0,0,0,.78,2.59,6.63,6.63,0,0,0,.61,3.61,4.12,4.12,0,0,0,1.24,3.44S529.89,290.55,531,291.14Z"/><path class="cls-8" d="M543.16,275.77s-.08,7.28,4.43,12.71c0,0,35.24-12.07,39.47-13.72s-15.4-53.52-15.4-53.52l-14.45,4.89L565,240.72s3.84,8.17,11.83,21.61C576.82,262.33,571.9,266.64,543.16,275.77Z"/><path class="cls-7" d="M544.93,199.08s.35,13.88-14,13.55c-14.89-.34-11.73-14.51-11.73-14.51S530.44,193.24,544.93,199.08Z"/><path class="cls-11" d="M522.47,186.63s1.29,7-.93,11.86c0,0-2.26,11.21,9.29,11.72s11.43-12.1,11.43-12.1-2.37-1.37-.53-11.41S522.47,186.63,522.47,186.63Z"/><path class="cls-11" d="M529.49,145.88s-14.78,2.37-12.53,25.91,15.3,21.61,16.17,21.58,13.1.43,14-28.31C547.17,165.07,547.59,143.81,529.49,145.88Z"/><path class="cls-11" d="M516.73,165.14s-1.62-1.76-2.21,0,2.11,9.45,2.31,10.1c0,0,.3.69.68.31S516.73,165.14,516.73,165.14Z"/><path class="cls-11" d="M546.82,164.84s1.59-1.79,2.21,0-2,9.84-2.12,10.14c0,0-.28.7-.68.32S546.82,164.84,546.82,164.84Z"/><path class="cls-19" d="M516.74,168.75l2.12,2.88s-.06-6.31.28-7.3-.4-4.44-.12-5.15,10.11,1.94,26.22.31c0,0-1.79,5.69-.74,6.09S545,173,545,173l1.74-2s2-11.94,1.77-13.93c-.25-2.65.65-15-22-12.91a13.76,13.76,0,0,0-7.16,2.8c-2.33,1.81-4.73,4.63-4.51,8.5A129,129,0,0,0,516.74,168.75Z"/><path class="cls-20" d="M539.86,190.26s-6.1,7.08-15.78,0c0,0,2.71,5.37,8.41,5.49S539.86,190.26,539.86,190.26Z"/></g></g></svg>