<svg xmlns="http://www.w3.org/2000/svg" viewBox="0 0 60 60"><defs><style>.cls-1{fill:#e1eeff;}.cls-2,.cls-3{fill:#2282ff;}.cls-2{opacity:0.3;}</style></defs><title>bank statement</title><g id="Layer_2" data-name="Layer 2"><g id="Layer_1-2" data-name="Layer 1"><rect class="cls-1" width="60" height="60" rx="30"/><polygon class="cls-2" points="16.14 31.81 26.2 31.81 26.03 13.75 40.97 13.75 46.28 19.09 46.28 42.85 36.26 42.85 36.26 44.52 35.28 45.56 32.53 46.25 23.53 46.25 15.91 46.25 13.91 44.97 13.72 33.66 16.14 31.81"/><g id="surface1"><path class="cls-3" d="M46.76,19.34a.35.35,0,0,0,0-.14.43.43,0,0,0,0-.05A.66.66,0,0,0,46.6,19L41,13.39a.64.64,0,0,0-.16-.11l-.05,0-.14,0H26.09a.56.56,0,0,0-.56.56V30h1.12V14.35H40.06v5a.56.56,0,0,0,.56.56h5V42.3H37.83v1.12h8.38a.56.56,0,0,0,.56-.56V19.38S46.76,19.36,46.76,19.34Zm-5.58-.52V15.14l3.68,3.68Z"/><path class="cls-3" d="M28.88,22.17h6.71a.56.56,0,0,0,.56-.56V17.7a.56.56,0,0,0-.38-.53l-3.36-1.12a.53.53,0,0,0-.35,0l-3.35,1.12a.57.57,0,0,0-.39.53v3.91A.56.56,0,0,0,28.88,22.17Zm.56-2.79h1.12v1.68H29.44Zm3.36,0v1.68H31.68V19.38Zm1.11,1.68V19.38H35v1.68Zm-4.47-3,2.8-.93L35,18.1v.16H29.44Z"/><path class="cls-3" d="M28.32,30h9.51V41.18h5.59a.56.56,0,0,0,.56-.56V25a.56.56,0,0,0-.56-.56H28.88a.56.56,0,0,0-.56.56Zm1.12-1.12V27.76h8.39v1.12Zm9.5-1.12h3.92v1.12H38.94ZM42.86,30v1.12H38.94V30Zm-3.92,6.71h3.92v1.12H38.94Zm0-1.12V34.47h3.92v1.12Zm0-2.24V32.24h3.92v1.11Zm0,6.71V38.94h3.92v1.12Zm3.92-14.53v1.12H38.94V25.53Zm-5,0v1.12H29.44V25.53Z"/><path class="cls-3" d="M37.27,21.06h6.15v1.11H37.27Z"/><path class="cls-3" d="M37.27,18.82h1.67v1.12H37.27Z"/><path class="cls-3" d="M16,46.77H33.91A2.79,2.79,0,0,0,36.71,44V33.91a2.79,2.79,0,0,0-2.8-2.79H16a2.79,2.79,0,0,0-2.79,2.79V44A2.79,2.79,0,0,0,16,46.77ZM14.35,33.91A1.67,1.67,0,0,1,16,32.24H33.91a1.68,1.68,0,0,1,1.68,1.67V44a1.68,1.68,0,0,1-1.68,1.67H16A1.67,1.67,0,0,1,14.35,44Z"/><path class="cls-3" d="M16,37.83h3.36a.56.56,0,0,0,.56-.56V33.91a.56.56,0,0,0-.56-.56H16a.56.56,0,0,0-.55.56v3.36A.56.56,0,0,0,16,37.83Zm.56-3.36h2.24v2.24H16.58Z"/><path class="cls-3" d="M16,38.94h2.24v1.12H16Z"/><path class="cls-3" d="M16,41.18h2.24V42.3H16Z"/><path class="cls-3" d="M26.09,41.18h2.23V42.3H26.09Z"/><path class="cls-3" d="M19.38,38.94h2.23v1.12H19.38Z"/><path class="cls-3" d="M22.73,38.94H25v1.12H22.73Z"/><path class="cls-3" d="M26.09,38.94h2.23v1.12H26.09Z"/><path class="cls-3" d="M29.44,38.94h2.24v1.12H29.44Z"/><path class="cls-3" d="M32.8,33.91h1.11V35H32.8Z"/><path class="cls-3" d="M30.56,33.91h1.12V35H30.56Z"/><path class="cls-3" d="M28.32,33.91h1.12V35H28.32Z"/><path class="cls-3" d="M26.09,33.91H27.2V35H26.09Z"/><path class="cls-3" d="M30,41.18a.56.56,0,0,0-.56.56V44a.56.56,0,0,0,.56.55h3.91a.56.56,0,0,0,.56-.55V41.74a.56.56,0,0,0-.56-.56Zm3.35,2.24H30.56V42.3h2.79Z"/></g></g></g></svg>