<svg id="Layer_1" data-name="Layer 1" xmlns="http://www.w3.org/2000/svg" xmlns:xlink="http://www.w3.org/1999/xlink" viewBox="0 0 1920 1080"><defs><style>.cls-1{fill:#f1f7fd;}.cls-2{fill:#5384c4;}</style></defs><title>create company</title><image width="1920" height="1080" xlink:href="F:%5CUsers%5Cgraphic%5CDesktop%5Css%20tally%5Css1.png"/><rect class="cls-1" x="67.63" y="259.91" width="372.67" height="72.21"/><path class="cls-2" d="M83.4,284.23a8.22,8.22,0,0,1,8.19,5.65h-4a4.4,4.4,0,0,0-4.2-2.5c-3.05,0-5.22,2.23-5.22,5.77s2.17,5.78,5.22,5.78a4.38,4.38,0,0,0,4.2-2.53h4a8.18,8.18,0,0,1-8.19,5.65,8.91,8.91,0,0,1,0-17.82Z"/><path class="cls-2" d="M100.75,302.13A7.15,7.15,0,1,1,108,295,6.92,6.92,0,0,1,100.75,302.13Zm0-3.05c1.85,0,3.62-1.35,3.62-4.1s-1.72-4.1-3.57-4.1-3.53,1.32-3.53,4.1S98.87,299.08,100.75,299.08Z"/><path class="cls-2" d="M129.92,294.25c0-2.2-1.23-3.34-3.08-3.34s-3.1,1.14-3.1,3.34v7.65h-3.49v-7.65c0-2.2-1.23-3.34-3.08-3.34s-3.12,1.14-3.12,3.34v7.65h-3.5V288.06h3.5v1.67a5,5,0,0,1,4.07-1.87A5.28,5.28,0,0,1,123,290.5a5.49,5.49,0,0,1,4.75-2.64c3.33,0,5.68,2.1,5.68,5.92v8.12h-3.5Z"/><path class="cls-2" d="M144.82,287.83c3.55,0,6.32,2.77,6.32,7.1s-2.77,7.2-6.32,7.2a5.67,5.67,0,0,1-4.57-2.2v8.57h-3.5V288.06h3.5v2A5.51,5.51,0,0,1,144.82,287.83Zm-.92,3.08a4.09,4.09,0,0,0,0,8.14,3.78,3.78,0,0,0,3.67-4.12A3.69,3.69,0,0,0,143.9,290.91Z"/><path class="cls-2" d="M159.12,287.83a5.49,5.49,0,0,1,4.58,2.2v-2h3.52V301.9H163.7v-2a5.47,5.47,0,0,1-4.6,2.25c-3.5,0-6.3-2.88-6.3-7.2S155.6,287.83,159.12,287.83Zm.9,3.08a3.69,3.69,0,0,0-3.65,4,3.79,3.79,0,0,0,3.65,4.12,4.09,4.09,0,0,0,0-8.14Z"/><path class="cls-2" d="M180.35,294.25c0-2.22-1.23-3.42-3.08-3.42s-3.12,1.2-3.12,3.42v7.65h-3.5V288.06h3.5v1.72a5.18,5.18,0,0,1,4.17-1.92c3.23,0,5.52,2.1,5.52,5.92v8.12h-3.49Z"/><path class="cls-2" d="M186.8,284.36a2.15,2.15,0,1,1,2.15,2.05A2.05,2.05,0,0,1,186.8,284.36Zm.37,3.7h3.5V301.9h-3.5Z"/><path class="cls-2" d="M200.17,302.13c-4,0-6.95-2.8-6.95-7.15s2.85-7.15,6.95-7.15a6.5,6.5,0,0,1,6.82,6.85,7.67,7.67,0,0,1-.1,1.35H196.77a3.25,3.25,0,0,0,3.33,3.2,2.84,2.84,0,0,0,2.77-1.68h3.77A6.43,6.43,0,0,1,200.17,302.13Zm-3.37-8.45h6.57a3.07,3.07,0,0,0-3.3-3A3.21,3.21,0,0,0,196.8,293.68Z"/><path class="cls-2" d="M214.85,302.13c-3.48,0-5.9-2-6-4.6h3.52a2.3,2.3,0,0,0,2.5,1.85c1.38,0,2.13-.63,2.13-1.43,0-2.47-7.83-.9-7.83-6,0-2.3,2-4.15,5.48-4.15s5.37,1.83,5.57,4.57h-3.35a2.06,2.06,0,0,0-2.32-1.8c-1.3,0-2,.53-2,1.33,0,2.52,7.67.95,7.78,6C220.3,300.33,218.22,302.13,214.85,302.13Z"/></svg>