<svg xmlns="http://www.w3.org/2000/svg" viewBox="0 0 1076.17 630.04"><defs><style>.cls-1,.cls-4{fill:#1bb1dc;}.cls-1{opacity:0.2;}.cls-2{fill:#3b5998;}.cls-3{fill:#1a2e35;}.cls-5{fill:#ff4f5b;}.cls-6{fill:#ffbf9d;}.cls-7{fill:#ff9a6c;}.cls-8{fill:#fff;}.cls-9{fill:#00cfff;}.cls-10{fill:#192534;}.cls-11{fill:#fafafa;}</style></defs><title>Asset 7</title><g id="Layer_2" data-name="Layer 2"><g id="fa5e9963-be56-4fcb-a961-77b5aada95f1"><path class="cls-1" d="M200.66,598.44C235.51,569.92,240,522,235.09,479.58c-.82-7.08-.65-14.62-4.58-20.56s-12.25-9.54-18.44-6c-5.13,2.92-7,9.24-9.53,14.55A42,42,0,0,1,187,484.83c-4.39,2.72-9.93,4.62-14.65,2.53-6.48-2.87-7.9-11.26-8.43-18.32l-3-39.46c-.53-7.06-1.1-14.26-3.87-20.78s-8.19-12.33-15.14-13.65-15,3.25-15.92,10.27c-.36,2.92.48,5.86.52,8.8s-1.08,6.3-3.83,7.35-5.81-.71-8.12-2.59c-8-6.52-13.72-15.28-19.14-24S84.69,377.26,77.36,370,60.26,357.43,50,357.7s-20.68,7.41-22.46,17.54,4.93,19.77,12,27.29A159,159,0,0,0,75.28,431c2.38,1.39,5,2.9,6,5.44,1.94,4.57-2.2,9.62-6.77,11.55-5.19,2.19-11,2.12-16.53,3.23s-11.36,4-13,9.4c-2.34,7.46,4.39,14.51,10.81,19a137.52,137.52,0,0,0,42.34,19.71c5.41,1.47,11.08,2.68,15.62,6s7.62,9.43,5.46,14.61-8.6,7.32-14.19,6.76-10.76-3.1-16.17-4.62c-10.12-2.85-22.75-1.14-28.36,7.76-3.68,5.85-3.42,13.55-.79,19.94s7.33,11.7,12.26,16.54c17.24,16.93,38.59,30,62,35.87s44.71,6.29,66.69-3.75"/><path class="cls-2" d="M203.71,629.91a307.65,307.65,0,0,0-16.46-57.16c-8.1-20.92-18.9-43.11-31-66l-9-16.87c-3-5.53-5.92-11-9.14-16.2A316.32,316.32,0,0,0,117.86,445c-6.89-8.84-13.75-17-20.22-24.55S85,405.92,79.07,399.84a254,254,0,0,0-30-26.62c-3.78-2.86-6.78-5-8.84-6.4l-2.34-1.6c-.53-.35-.82-.51-.82-.51s.24.22.76.6L40.1,367c2,1.47,5,3.65,8.71,6.56a265.46,265.46,0,0,1,29.72,26.81c5.86,6.1,12,13,18.45,20.62s13.26,15.74,20.11,24.58a318,318,0,0,1,20.12,28.7c3.2,5.17,6.12,10.61,9.1,16.16l9,16.87c12.09,22.82,22.9,45,31,65.81A312.06,312.06,0,0,1,203,630"/><path class="cls-2" d="M137.82,473.64a17.07,17.07,0,0,0,.4-3.07c.2-2,.4-4.86.61-8.41.41-7.11.66-16.94.91-27.79s.67-20.66,1.23-27.74c.27-3.54.53-6.41.74-8.38a17.06,17.06,0,0,0,.19-3.09,17.31,17.31,0,0,0-.61,3c-.33,2-.71,4.83-1.07,8.37-.76,7.08-1.3,16.92-1.55,27.78s-.44,20.48-.6,27.78c-.11,3.4-.2,6.23-.27,8.42A17.1,17.1,0,0,0,137.82,473.64Z"/><path class="cls-2" d="M44.53,464.26a3.3,3.3,0,0,0,1,.08h2.74c2.38,0,5.81,0,10.06.11,8.49.18,20.21.85,33.11,2.17s24.51,3.05,32.88,4.55c4.19.72,7.56,1.39,9.89,1.85l2.69.51a3.23,3.23,0,0,0,1,.11,3.3,3.3,0,0,0-.91-.32l-2.65-.71c-2.31-.58-5.66-1.37-9.84-2.19-8.35-1.69-20-3.53-32.91-4.87s-24.69-1.87-33.21-1.86c-4.26,0-7.7.1-10.08.23l-2.74.19A3.25,3.25,0,0,0,44.53,464.26Z"/><path class="cls-2" d="M186.1,571.13a5.68,5.68,0,0,0,.51-1.17l1.28-3.42c1.1-3,2.6-7.31,4.37-12.69,3.56-10.76,8-25.78,12.74-42.41s9.06-31.67,12.43-42.47l4-12.79,1.09-3.48a5.74,5.74,0,0,0,.31-1.24,5.72,5.72,0,0,0-.52,1.17l-1.28,3.42c-1.1,3-2.59,7.31-4.37,12.69-3.56,10.76-8,25.78-12.74,42.41s-9.06,31.66-12.43,42.47l-4,12.79-1.09,3.48A5.69,5.69,0,0,0,186.1,571.13Z"/><path class="cls-2" d="M60.8,542.36a6.26,6.26,0,0,0,1.26.37l3.65.86,13.43,3.07c11.33,2.6,26.95,6.39,44.19,10.62s32.9,7.9,44.28,10.32c5.69,1.21,10.31,2.15,13.51,2.73l3.69.66a6,6,0,0,0,1.3.16,6,6,0,0,0-1.26-.37l-3.65-.86-13.43-3.07c-11.34-2.6-26.95-6.39-44.19-10.62s-32.89-7.9-44.27-10.31c-5.69-1.21-10.31-2.15-13.51-2.73l-3.69-.66A6,6,0,0,0,60.8,542.36Z"/><path class="cls-1" d="M1061.45,368.94s-11.8-11.69-34.85,17.51-33.06,46.7-33.06,46.7-5.74,5.94-9.53.55-7.68-19.29-16.09-18.6c-8.72.71-13.27,9.38-14.39,23.22s-4.69,44.07-5,46.8-2.62,6.27-5.79,3-19.61-31-32.31-22.41-9.49,47.66-9.22,51.93-.87,5.85-3,6.47-6.78-9.23-11.78-16.92S874.27,491.48,867.36,497s-14.22,32.95,3.2,83.25l9.6,22.78,24.58,3.5c53.06,4.27,77.74-9.65,81.4-17.74s-5.92-13-14.62-15.9-19.4-4.95-19.33-7.17,1.31-3.72,5.52-4.53,42.84-7.48,48-21.92-25.84-23.42-29.78-25.67-1-5.37,1.48-6.36,30.94-12,44.05-16.58,20.37-11.12,18.88-19.74c-1.44-8.31-15.87-8.6-22-10.92s-1.85-9.36-1.85-9.36,14.43-14.07,36.94-43.69,7.83-38.26,7.83-38.26"/><path class="cls-2" d="M1040.77,395.06a3.22,3.22,0,0,1-.4.64l-1.29,1.8-5,6.83c-4.4,5.92-10.83,14.43-18.83,24.92-16,21-38.37,49.72-63.22,81.36l-63.52,81.13L869.31,616.4l-5.24,6.68-1.39,1.72a.38.38,0,1,1-.11-.08l1.28-1.8,5-6.83c4.39-5.92,10.83-14.43,18.83-24.92,16-21,38.37-49.72,63.23-81.37l63.51-81.12L1033.63,404l5.24-6.68,1.39-1.72A3.24,3.24,0,0,1,1040.77,395.06Z"/><path class="cls-2" d="M972.59,434.79c.17,0,.56,2.5.93,6.6s.71,9.76.94,16l.44,16c.09,4.1.18,6.63,0,6.65s-.59-2.5-.92-6.6-.6-9.77-.82-16l-.55-16C972.46,437.34,972.41,434.8,972.59,434.79Z"/><ellipse class="cls-2" cx="1003.09" cy="478.78" rx="26.15" ry="0.66" transform="translate(-36.33 85.05) rotate(-4.77)"/><path class="cls-2" d="M935.23,529.54c0-.18,2.6.28,6.71,1.07s9.79,1.86,16.09,2.87,12,1.77,16.18,2.31,6.72.89,6.71,1.08-2.61.15-6.8-.16-10-.91-16.29-1.94-12-2.24-16.08-3.26S935.19,529.71,935.23,529.54Z"/><path class="cls-2" d="M922,488.66c.17-.06,1.09,2.16,2.44,5.79s3.13,8.68,5,14.27,3.53,10.69,4.65,14.4,1.73,6,1.56,6.09-1.09-2.16-2.44-5.79-3.13-8.68-5-14.28-3.53-10.69-4.65-14.4S921.86,488.72,922,488.66Z"/><path class="cls-2" d="M879.68,526.86c.17-.06,1.33,2.79,3.08,7.43s4.06,11.1,6.55,18.25,4.67,13.65,6.19,18.38,2.37,7.68,2.2,7.74-1.33-2.79-3.08-7.43-4.06-11.1-6.55-18.25-4.67-13.65-6.19-18.38S879.51,526.92,879.68,526.86Z"/><path class="cls-2" d="M897.62,577.3c0-.19,3.29.31,8.54,1.13s12.5,1.95,20.53,3,15.32,1.88,20.6,2.45,8.55.95,8.54,1.14-3.31.13-8.62-.21-12.64-1-20.69-2.08-15.3-2.34-20.52-3.39S897.58,577.47,897.62,577.3Z"/><path class="cls-3" d="M1076.17,625.36c0,.38-240.93.7-538.06.7S0,625.74,0,625.36s240.88-.7,538.11-.7S1076.17,625,1076.17,625.36Z"/><path class="cls-4" d="M307.9,466l-76.06-76.39,38.24-70.24c38.24-49,119.19-45.8,119.19-45.8s55.09-5.3,119.38,7.21,59.12,55.06,59.12,55.06l8.61,157.62,9.23,128.34L348.46,626.6,307.9,466"/><path class="cls-4" d="M435.65,619.21l-212.41,2.6c-51,.63-85.09-52.44-63.26-98.58L250.8,354.8l82.73,55.93L277.1,527.84l172,3.07Z"/><path class="cls-4" d="M560.17,310.28,730.63,573.45,631.19,580s-59.39-93.59-58-91.65C575.57,491.81,560.17,310.28,560.17,310.28Z"/><path class="cls-5" d="M301.16,477.33"/><path class="cls-3" d="M329.26,425.84a5.43,5.43,0,0,1,.24-1.35l.9-3.81c.79-3.31,1.93-8.1,3.13-14.05s2.47-13.08,3.34-21.06a111.13,111.13,0,0,0,.09-26,68.36,68.36,0,0,0-8.8-24.23,97.6,97.6,0,0,0-12.65-17,120,120,0,0,0-10.32-10,52.56,52.56,0,0,1-4-3.48,5.39,5.39,0,0,1,1.16.73c.72.53,1.83,1.26,3.15,2.35a100.25,100.25,0,0,1,10.67,9.74,94,94,0,0,1,13,17.05,68.18,68.18,0,0,1,9.06,24.65,108.57,108.57,0,0,1-.19,26.27,212.64,212.64,0,0,1-3.63,21.12c-1.32,6-2.61,10.72-3.55,14-.47,1.64-.86,2.9-1.14,3.75A5.42,5.42,0,0,1,329.26,425.84Z"/><path class="cls-3" d="M322.43,434.92a24.23,24.23,0,0,1-1.46,3.81c-1,2.42-2.54,5.89-4.47,10.16-3.85,8.55-9.33,20.28-15.63,33.12s-12.24,24.36-16.64,32.63c-2.2,4.14-4,7.47-5.31,9.75a24.21,24.21,0,0,1-2.12,3.49,24.23,24.23,0,0,1,1.66-3.72l4.93-9.94,16.29-32.78,16-32.94,4.84-10A24.26,24.26,0,0,1,322.43,434.92Z"/><path class="cls-3" d="M435.65,619.21a1.51,1.51,0,0,1,0-.44l.11-1.29.5-5,2.08-18.9L446,527.31l.6.67-62.74.06-109.77-.19-33.27-.21-9-.12-2.35-.06a3.69,3.69,0,0,1-.8-.07,3.66,3.66,0,0,1,.8-.07l2.35-.06,9-.12,33.27-.21,109.77-.19,62.74.06h.68l-.08.67-8.12,66.19-2.42,18.86-.69,5-.2,1.28A1.5,1.5,0,0,1,435.65,619.21Z"/><path class="cls-3" d="M278.6,529.63c-.18.11-1.63-2-4.24-5.31a82.86,82.86,0,0,0-24.73-20.88c-3.65-2-6-3.09-5.94-3.29s2.56.62,6.37,2.47a68.06,68.06,0,0,1,25,21.14C277.55,527.21,278.73,529.56,278.6,529.63Z"/><path class="cls-3" d="M579.91,546.3a13.81,13.81,0,0,1-.34-2.18l-.71-6.27c-.58-5.45-1.36-13.34-2.2-23.09-1.72-19.51-3.71-46.5-5.48-76.34s-3-56.88-3.71-76.46c-.36-9.79-.59-17.71-.72-23.19l-.11-6.31a13.85,13.85,0,0,1,.05-2.2,13.81,13.81,0,0,1,.21,2.19l.35,6.3,1.13,23.16c.95,19.56,2.33,46.58,4.09,76.42s3.61,56.81,5.1,76.34l1.79,23.12.47,6.29A13.81,13.81,0,0,1,579.91,546.3Z"/><path class="cls-2" d="M390.3,403.1a21.22,21.22,0,0,1,.27-3.44l1.15-9.53,4.37-32.89,1,.6-16.3,11.41-16.58,11.53-1.19.83.22-1.43,5-32.6,1.55-9.4a21,21,0,0,1,.7-3.35,21.09,21.09,0,0,1-.29,3.41L369,347.69l-4.52,32.67-1-.6L380,368.17l16.33-11.36,1.19-.83-.21,1.43-4.84,32.83L391,399.72A21.31,21.31,0,0,1,390.3,403.1Z"/><path class="cls-2" d="M485.09,413.32a21.32,21.32,0,0,1-2.47-2.41l-6.59-7-22.5-24.39,1.09-.37L453,399l-1.73,20.12-.12,1.45-1-1.08-21.88-24.68-6.24-7.2a21,21,0,0,1-2.13-2.68,21.07,21.07,0,0,1,2.44,2.4l6.51,7,22.23,24.36L450,419l1.67-20.13,1.7-19.82.12-1.44,1,1.07,22.16,24.7,6.32,7.22A21.29,21.29,0,0,1,485.09,413.32Z"/><path class="cls-2" d="M532.81,409.94a21.27,21.27,0,0,1-1.71,3l-5.1,8.13L508,449l-.63-1L527,444.63l19.91-3.37,1.43-.24-.81,1.2-18.4,27.37-5.41,7.85a21.06,21.06,0,0,1-2.06,2.74,21.07,21.07,0,0,1,1.71-3l5.11-8,18-27.63.63,1-19.9,3.43-19.62,3.32-1.43.24.8-1.2,18.36-27.64,5.4-7.93A21.3,21.3,0,0,1,532.81,409.94Z"/><path class="cls-2" d="M469.36,458.75a21.24,21.24,0,0,1-1.71,3l-5.1,8.13-18,27.9-.63-1,19.61-3.38,19.91-3.37,1.43-.24-.81,1.2L465.7,518.4l-5.41,7.85a21.07,21.07,0,0,1-2.06,2.74,21.05,21.05,0,0,1,1.71-3l5.11-8,18-27.63.63,1-19.9,3.43-19.62,3.32-1.43.24.8-1.2,18.36-27.64,5.4-7.93A21.32,21.32,0,0,1,469.36,458.75Z"/><path class="cls-2" d="M606.45,409.25a21.3,21.3,0,0,1-1.71,3l-5.1,8.13-18,27.9-.63-1,19.61-3.38,19.91-3.37,1.43-.24-.81,1.2-18.4,27.37-5.41,7.85a21,21,0,0,1-2.06,2.74,21,21,0,0,1,1.71-3l5.11-8,18-27.63.63,1-19.9,3.43-19.62,3.32-1.43.24.8-1.2L599,420l5.4-7.93A21.28,21.28,0,0,1,606.45,409.25Z"/><path class="cls-2" d="M285.41,368.93a21.27,21.27,0,0,1-1.71,3l-5.1,8.13-18,27.9-.63-1,19.61-3.38,19.91-3.37L301,400l-.81,1.2-18.4,27.37-5.41,7.85a21,21,0,0,1-2.06,2.74,21.05,21.05,0,0,1,1.71-3l5.11-8,18-27.63.63,1-19.9,3.43-19.62,3.32-1.43.24.8-1.2,18.36-27.64,5.4-7.93A21.3,21.3,0,0,1,285.41,368.93Z"/><path class="cls-2" d="M185.83,557.28a21.26,21.26,0,0,1,2.32,2.56l6.14,7.37L215.22,593l-1.11.3L217,573.57l3-20,.22-1.44.89,1.14,20.3,26,5.78,7.58a21,21,0,0,1,2,2.81,21.07,21.07,0,0,1-2.29-2.55l-6.06-7.36-20.67-25.7,1.11-.3-2.92,20-2.94,19.68-.21,1.43-.89-1.13-20.57-26-5.86-7.6A21.29,21.29,0,0,1,185.83,557.28Z"/><path class="cls-2" d="M413.27,435.33a21.28,21.28,0,0,1-3.42.44l-9.56.83-33.09,2.47.39-1.08,14.51,13.61,14.69,13.86,1.06,1-1.45.08-32.93,1.81-9.52.41a21,21,0,0,1-3.43,0,21.07,21.07,0,0,1,3.4-.42l9.5-.77,32.9-2.27-.39,1.08-14.73-13.82-14.47-13.66-1.05-1,1.44-.09,33.12-2,9.59-.46A21.28,21.28,0,0,1,413.27,435.33Z"/><path class="cls-2" d="M357.45,562.29a21.22,21.22,0,0,1,2.37,2.51l6.29,7.25,21.43,25.33-1.1.32L388.93,578l2.59-20,.19-1.44.91,1.12,20.8,25.59,5.92,7.47a21.06,21.06,0,0,1,2,2.77,21.06,21.06,0,0,1-2.34-2.51l-6.2-7.24-21.17-25.29,1.1-.32-2.53,20-2.55,19.73-.19,1.43-.92-1.11-21.07-25.63-6-7.48A21.33,21.33,0,0,1,357.45,562.29Z"/><path class="cls-2" d="M257.7,469.18a21.28,21.28,0,0,1-3.42.44l-9.56.83-33.09,2.47.39-1.08,14.51,13.61,14.69,13.86,1.06,1-1.45.08-32.93,1.81-9.52.41a21,21,0,0,1-3.43,0,21.05,21.05,0,0,1,3.4-.42l9.5-.77,32.9-2.27-.39,1.08L225.62,486.4l-14.47-13.66-1.05-1,1.44-.09,33.12-2,9.59-.46A21.32,21.32,0,0,1,257.7,469.18Z"/><path class="cls-2" d="M343.4,559.43a21.29,21.29,0,0,1-3.42.44l-9.56.83-33.09,2.47.39-1.08,14.51,13.61,14.69,13.86,1.06,1-1.45.08-32.93,1.81-9.52.41a21,21,0,0,1-3.43,0,21.07,21.07,0,0,1,3.4-.42l9.5-.77,32.9-2.27-.39,1.08-14.73-13.82L296.85,563l-1.05-1,1.44-.09,33.12-2,9.59-.46A21.28,21.28,0,0,1,343.4,559.43Z"/><path class="cls-2" d="M536.88,329.81a21.32,21.32,0,0,1-3.42.44l-9.56.83-33.09,2.47.39-1.08,14.51,13.61,14.69,13.86,1.06,1L520,361l-32.93,1.81-9.52.41a21.07,21.07,0,0,1-3.43,0,21,21,0,0,1,3.4-.42L487,362l32.9-2.27-.39,1.08L504.8,347l-14.47-13.66-1.05-1,1.44-.09,33.12-2,9.59-.46A21.28,21.28,0,0,1,536.88,329.81Z"/><path class="cls-6" d="M442.77,559.43s42.38-12.21,56.41-15.79c5.47-1.39,28.88,11,45,21.22,0,0,22.27,13.2,20.47,17.27-2,4.48-10.2,3.56-23.29-2.6,0,0,4.57,13.27-4.4,13,0,0,4.45,14.34-4,15.82s-10.38-16.81-17.8-17.8-22.74-2-22.74-2-12.76,21.14-22.65,22.62S437,610,437,610Z"/><ellipse class="cls-7" cx="526.59" cy="569.59" rx="0.66" ry="13.58" transform="matrix(0.53, -0.85, 0.85, 0.53, -236.1, 711.16)"/><ellipse class="cls-7" cx="526.38" cy="576.86" rx="0.66" ry="15.18" transform="translate(-217.98 813.04) rotate(-65.22)"/><ellipse class="cls-7" cx="526.61" cy="591.56" rx="0.66" ry="9.57" transform="translate(-130.97 1032.98) rotate(-82.2)"/><path class="cls-3" d="M387.64,122.26a8.71,8.71,0,0,1-12.27,10.3c-5.74-2.91-6.47-10.83-5.34-17.17s3.28-13.1.63-19c-2-4.49-6.44-7.33-9.87-10.86-6-6.15-9.17-15.12-7.72-23.57s7.8-16.06,16.06-18.37c8.44-2.36,18.83.23,25.12-5.87,4.55-4.43,4.83-11.68,8.35-17,5.47-8.2,17-9.5,26.8-8.17s19.71,4.47,29.28,2.09c8-2,14.55-7.57,22-11,16.23-7.42,37-3.4,49.26,9.55s15.2,33.88,6.93,49.69c-3,5.68-7.44,10.84-13.39,13.24"/><path class="cls-6" d="M436.25,330.32h0a48.56,48.56,0,0,0,48.5-49.23l-.64-46.31s38.9-3.9,41.48-42.44.72-127.47.72-127.47h0A134.24,134.24,0,0,0,390.7,74.47l-6,4.09,2.9,203.89A48.56,48.56,0,0,0,436.25,330.32Z"/><path class="cls-3" d="M516.08,134.68c-6.85-1.35-6.8-10.19.06-11.47a2.56,2.56,0,0,1,.94,0c6.85,1.35,6.8,10.2-.06,11.47A2.57,2.57,0,0,1,516.08,134.68Z"/><path class="cls-3" d="M523.65,122.38c-.64.63-4.27-2.49-9.58-2.8s-9.32,2.22-9.87,1.51c-.27-.32.4-1.49,2.15-2.68a13.11,13.11,0,0,1,15.52,1C523.45,120.85,524,122.1,523.65,122.38Z"/><circle class="cls-3" cx="459" cy="128.29" r="5.61" transform="translate(92.18 432.56) rotate(-55.29)"/><path class="cls-3" d="M465.7,123.91c-.64.64-4.27-2.49-9.58-2.8s-9.32,2.22-9.87,1.5c-.27-.32.4-1.49,2.15-2.68a13.11,13.11,0,0,1,15.52,1C465.5,122.38,466,123.63,465.7,123.91Z"/><path class="cls-3" d="M484.61,168.9c0-.42,3.31-.9,8.69-1.35,1.4-.07,2.51-.33,2.65-1.07.3-.83-.16-2.34-.78-4l-3.61-11c-5-15.69-8.34-28.62-7.55-28.87s5.47,12.26,10.43,28l3.39,11.09c.42,1.63,1.29,3.56.45,5.82a3.64,3.64,0,0,1-2.51,2.09,8.91,8.91,0,0,1-2.39.18C488,169.58,484.62,169.31,484.61,168.9Z"/><path class="cls-8" d="M467,173.82c6.81,3.15,14.92,7.07,25.64,9,0,0-6.74,9.57-17.64,4.9C463.72,182.86,467,173.82,467,173.82Z"/><path class="cls-7" d="M484.2,234.23s-24.48.65-49.5-17c0,0,10.37,28.4,49,27Z"/><path class="cls-3" d="M526.57,74.62s-23.28,11.83-54.15-2.84c-20.26-9.63-43.75-14.06-48.83-9.93s-5.76,24.83-25.53,31.26c0,0,2.13,39.42-13.62,38.32S377.33,69,377.33,69L415.44,49.5l41.84-8.75L497,45.56l30.78,7.79Z"/><path class="cls-6" d="M387.32,118.76c-.64-.32-26.07-9.28-26.67,17.13s26,21.56,26.11,20.81S387.32,118.76,387.32,118.76Z"/><path class="cls-7" d="M378.92,146.51c-.11-.09-.47.31-1.25.65a4.6,4.6,0,0,1-3.44,0c-2.77-1.09-5-5.57-5-10.33a15.18,15.18,0,0,1,1.44-6.56c.85-1.91,2.13-3.24,3.54-3.45a2.34,2.34,0,0,1,2.69,1.32c.34.75.16,1.27.3,1.32s.58-.43.39-1.52a2.94,2.94,0,0,0-1-1.68,3.48,3.48,0,0,0-2.53-.73c-2,.09-3.92,1.93-4.9,4a15.63,15.63,0,0,0-1.76,7.33c0,5.33,2.66,10.37,6.46,11.56a4.93,4.93,0,0,0,4.22-.6C378.85,147.15,379,146.56,378.92,146.51Z"/><path class="cls-3" d="M373.87,36.07c-.15-.31,4.19-1.55,9.16.34s7.46,5.61,7.15,5.74-3-2.85-7.61-4.52S373.91,36.47,373.87,36.07Z"/><path class="cls-3" d="M389.76,20.25c.46,0-.26,5.57.66,12.18s4,11.3,3.69,11.51C394,44,393,43,391.89,41a24.84,24.84,0,0,1-2.77-8.4C388.17,25.71,389.51,20.19,389.76,20.25Z"/><path class="cls-3" d="M498.29,109.69c-.14-.31,1-1.22,3.13-2.1a24.11,24.11,0,0,1,17.68.17c2.12.92,3.24,1.85,3.09,2.16-.32.7-5.41-1.29-11.94-1.3S498.6,110.4,498.29,109.69Z"/><path class="cls-3" d="M439.39,104.14c-.14-.31,1-1.22,3.13-2.1a24.11,24.11,0,0,1,17.68.17c2.12.92,3.24,1.85,3.09,2.16-.32.7-5.41-1.29-11.94-1.3S439.7,104.84,439.39,104.14Z"/><path class="cls-3" d="M493.74,113.85a11.44,11.44,0,0,1,.1,1.56l.13,4.26.14,6.61a25.07,25.07,0,0,0,1.26,8.57,22.94,22.94,0,0,0,5.57,8.8,22.44,22.44,0,0,0,10.41,5.72,21.3,21.3,0,0,0,6.44.56,20.73,20.73,0,0,0,6.59-1.39,22.22,22.22,0,0,0,10.86-8.79,22.63,22.63,0,0,0,3.54-12.89c0-4.51,0-8.86,0-13l.61.61-32.69-.3-9.49-.17-2.57-.07a5.28,5.28,0,0,1-.93-.07,26.65,26.65,0,0,1,3.24-.15l9.35-.17,33.09-.3H540v.61c0,4.15,0,8.51,0,13a23.82,23.82,0,0,1-3.73,13.6,23.4,23.4,0,0,1-11.51,9.28,21.87,21.87,0,0,1-7,1.44,22.38,22.38,0,0,1-6.79-.64,23.4,23.4,0,0,1-10.89-6.12,23.66,23.66,0,0,1-5.68-9.28,25.28,25.28,0,0,1-1.11-8.92l.14-6.78.13-4.2A7.2,7.2,0,0,1,493.74,113.85Z"/><path class="cls-3" d="M432,112.54a11.41,11.41,0,0,1,.1,1.56l.13,4.26.14,6.61a25.07,25.07,0,0,0,1.26,8.57,22.94,22.94,0,0,0,5.57,8.8,22.44,22.44,0,0,0,10.41,5.72,21.29,21.29,0,0,0,6.44.56,20.73,20.73,0,0,0,6.59-1.39,22.22,22.22,0,0,0,10.86-8.79A22.63,22.63,0,0,0,477,125.56c0-4.51,0-8.86,0-13l.61.61-32.69-.3-9.49-.17-2.57-.07a5.32,5.32,0,0,1-.93-.07,26.53,26.53,0,0,1,3.24-.15l9.35-.16,33.09-.3h.61v.61c0,4.15,0,8.51,0,13a23.82,23.82,0,0,1-3.73,13.6,23.39,23.39,0,0,1-11.51,9.28,21.87,21.87,0,0,1-7,1.44,22.38,22.38,0,0,1-6.79-.64,23.4,23.4,0,0,1-10.89-6.12,23.67,23.67,0,0,1-5.68-9.28,25.27,25.27,0,0,1-1.11-8.92l.14-6.78.13-4.2A7.19,7.19,0,0,1,432,112.54Z"/><ellipse class="cls-3" cx="485.6" cy="115.68" rx="8.7" ry="0.66"/><ellipse class="cls-3" cx="407.91" cy="115.95" rx="24.08" ry="0.66" transform="translate(-0.35 1.24) rotate(-0.17)"/><path class="cls-9" d="M892.33,66.75,792.81,31,694.26,66.26c-12.58,5.94-23.62,9.5-23.62,21.22v58.36A220.55,220.55,0,0,0,703.11,262c18.38,29.83,46.85,60.55,90.67,80.08,40.28-13.09,70.35-48,88.74-77.8A220.54,220.54,0,0,0,915,148.12V95.64C915,78.93,906.12,70.77,892.33,66.75Z"/><path class="cls-4" d="M793.78,308.19c-34.67-15.45-57.19-40.27-71.74-63.87a174.49,174.49,0,0,1-25.68-91.89V111.5c0-9.27,5.59-18,16.7-23.14l79.77-29.83,0-27.52L694.26,66.26c-10.34,4.52-23.62,9.5-23.62,21.22v58.36A220.55,220.55,0,0,0,703.11,262c18.38,29.83,46.85,60.55,90.67,80.08Z"/><path class="cls-4" d="M793.78,342.06a120,120,0,0,0,19.55-8.38c16.52-9,30.62-21.36,41.37-32.55,12-12.51,21-26,28.78-38.67A212.3,212.3,0,0,0,915,145.2L915,97c-.06-24-12.37-25.76-22.71-30.28L792.81,31l0,27.52,80.7,30.31c11.11,5.18,16.7,13.87,16.7,23.14v40.94a174.49,174.49,0,0,1-25.68,91.88c-14.54,23.6-36.1,47.95-70.77,63.39Z"/><path class="cls-8" d="M819.21,149.81l.11-7.88a25.84,25.84,0,0,0-51.68,0l-.11,8A14.45,14.45,0,0,0,755.2,164.2v46.45a14.46,14.46,0,0,0,14.46,14.46h48.23a14.46,14.46,0,0,0,14.46-14.46V164.2A14.46,14.46,0,0,0,819.21,149.81Zm-18.84,49.28H787.76l2-9.11a7.68,7.68,0,1,1,8.33-.14C799,193.37,800.37,199.09,800.37,199.09Zm13.27-49.35H773.1l.11-7.81a20.27,20.27,0,0,1,40.54,0Z"/><path class="cls-8" d="M712.48,149.24c-.22,0-.91-3-1.49-8.08a138.46,138.46,0,0,1-.81-19.81c.11-3.88.37-7.56.72-10.9a23.34,23.34,0,0,1,2.22-8.81,10.1,10.1,0,0,1,4.36-4.38c1.35-.63,2.19-.6,2.2-.5.17.22-3.36.91-5.46,5.44a24.25,24.25,0,0,0-1.73,8.4c-.26,3.32-.47,7-.58,10.81-.23,7.67,0,14.63.3,19.66S712.74,149.2,712.48,149.24Z"/><ellipse class="cls-8" cx="713.84" cy="169.27" rx="0.87" ry="5.37" transform="translate(-3.18 14.04) rotate(-1.12)"/><polygon class="cls-10" points="654.28 409.94 570.66 616.72 419.89 616.72 419.89 626.05 868.96 626.05 960.81 409.94 654.28 409.94"/><ellipse class="cls-11" cx="767.87" cy="527.88" rx="19.63" ry="14.81" transform="translate(46.4 1117.6) rotate(-73.77)"/></g></g></svg>