<svg id="Layer_1" data-name="Layer 1" xmlns="http://www.w3.org/2000/svg" viewBox="0 0 743.5 573.5"><defs><style>.cls-1,.cls-15{fill:#00cfff;}.cls-1{opacity:0.1;}.cls-2{fill:#109138;}.cls-3{fill:#206032;}.cls-4{fill:#192534;}.cls-5{fill:#706865;}.cls-6{fill:#b59074;}.cls-7{fill:#f2c7b1;}.cls-8{fill:#515269;}.cls-9{fill:#6a6b8a;}.cls-10{fill:#4c5063;}.cls-11{fill:#a53852;}.cls-12{fill:#eddcc5;}.cls-13{fill:#ff6584;}.cls-14{fill:#403429;}.cls-16{fill:#a77860;}.cls-17{fill:#1bb1dc;}.cls-18{fill:#918783;}.cls-19{fill:#5e5854;}.cls-20{fill:#bfb2ac;}.cls-21{fill:#e2d2ca;}.cls-22,.cls-23{fill:#fff;}.cls-23{font-size:67.95px;font-family:MyriadPro-Regular, Myriad Pro;}</style></defs><title>g_purchase copy</title><path class="cls-1" d="M63.42,513.32C11.61,473-4.67,381.3,20.57,322.41c17.27-40.31,40.65-34.1,71.69-81.82,53.83-82.76,17.25-153.32,59.22-183.12,32.88-23.34,69.34,10,141,21.82,169.57,28,248-111.84,344.42-66.24,66.75,31.59,104.13,134.16,87.27,206.5-16.81,72.14-81.2,86.88-79.48,145.72,2.16,74,105.84,110.54,95.85,135.59-11.65,29.22-147.86-32.58-324.94-26.49C215.49,481.24,134.9,568.93,63.42,513.32Z"/><path class="cls-2" d="M214.52,484.4l-.56,0c0-.21,1.08-20.8.78-45-.27-22.33-1.8-52.4-7.52-68.81l.53-.18c5.74,16.48,7.27,46.61,7.55,69C215.6,463.58,214.53,484.19,214.52,484.4Z"/><path class="cls-2" d="M222.64,484.4c-.07-1.32-6.85-132.69-15.42-172.23l.55-.12c8.58,39.59,15.37,171,15.44,172.32Z"/><path class="cls-2" d="M219.49,488.78c-.06-1.17-5.85-117-1.31-140.39l.55.11C214.2,371.83,220,487.59,220,488.75Z"/><path class="cls-2" d="M219.11,486.23h-.56c0-.65.06-65.46,5.31-95l.55.1C219.17,420.81,219.11,485.58,219.11,486.23Z"/><path class="cls-2" d="M264.62,365.81s-5.79-39.43-20.25-20.73c-10,12.9-16.51,31.12-19.59,41.16a57.67,57.67,0,0,0-2.43,13.54l-.65,11.05C253.08,328.91,264.62,365.81,264.62,365.81Z"/><path class="cls-2" d="M271.93,318.55s5.79-37.71-27.07-20.9c-31.49,16.11-28,64.55-28,64.55,1.89-8.08,5.29-29.67,16.55-43.65C263.24,281.5,271.93,318.55,271.93,318.55Z"/><path class="cls-2" d="M239.19,439.29c-18.74-3.7-19.76,12.37-19.76,12.37v5.89C221,447.41,239.19,439.29,239.19,439.29Z"/><path class="cls-2" d="M193,277.15c-18.32-13.74-28.21,0-28.21,0s35.22,1.71,48.59,79.33C213.36,356.48,211.3,290.89,193,277.15Z"/><path class="cls-2" d="M177.8,332.6s29.38,38.08,35.29,69.19l-.65-7.27S211.28,339.27,177.8,332.6Z"/><path class="cls-2" d="M213.09,401.79l1,11.35A52.73,52.73,0,0,0,213.09,401.79Z"/><path class="cls-2" d="M190.34,415.54s23.17,24.11,24.73,29.17C215.07,444.72,205.77,417,190.34,415.54Z"/><polygon class="cls-2" points="237.75 531.98 246.13 481.34 190.96 481.34 199.34 531.98 237.75 531.98"/><rect class="cls-2" x="185.77" y="467.77" width="65.55" height="13.57"/><path class="cls-3" d="M246.13,481.34H191L199.34,532h9.43s-9.23-39.3,35.56-39.7Z"/><rect class="cls-4" x="314.42" y="341.14" width="76.15" height="6.98" transform="translate(702.38 691.91) rotate(-179.57)"/><rect class="cls-4" x="271.57" y="308.78" width="72.31" height="6.62" transform="translate(99.28 697.64) rotate(-107)"/><rect class="cls-5" x="169.93" y="356.92" width="5.94" height="172.77" transform="translate(345.8 886.61) rotate(180)"/><rect class="cls-6" x="136.52" y="346.51" width="261.17" height="10.41"/><rect class="cls-5" x="361.55" y="356.92" width="5.94" height="172.77"/><path class="cls-7" d="M392.81,333.8a51,51,0,0,1-5.82.85c-1.88.06-10.6-3.89-13.38-3.51s-21,8.1-21.8,8.66.39,1.81.39,1.81l41.74.49Z"/><path class="cls-8" d="M464.23,509.56l2.68,5.79s11.28-4.21,11.34-4.35-3.11-8-3.11-8Z"/><path class="cls-9" d="M367.64,509.44l-3.12,9.12s12.38,2.73,14.18,2.58c.16,0,2.34-10.33,2.34-10.33Z"/><path class="cls-10" d="M380.08,518.48s-8.65-2.35-8.91-2.72-3.43-2.52-5.06-2.24-1.78,2.23-3.42,2.63-14.27,4.44-16,5.47-10.11-2-11.72.16-3.17,7.86,10,9.83,27.2,7.83,30.35,7S380.56,522,380.08,518.48Z"/><path class="cls-10" d="M479.14,509.46s-8,3.42-8.44,3.29-4.13.15-5.22,1.34,0,2.78-1,4.07-6.72,8.85-8.39,10.6c-1.37,1.43-8.87,2.76-11.28,5.28-1.81,1.9.32,9.47,13.08,5.85,12.43-3.53,27.82-9.64,29.74-12.15S481.62,511.85,479.14,509.46Z"/><path class="cls-11" d="M470.92,395.79s-35.26,15.68-42.73,21-23.83,15.23-24.38,17.65-3.78.06,2,12.13,33.23,41.12,35.8,44.28,21.71,23,21.71,23l14.31-10.78s-27.52-40.46-31.5-46.41-5.78-6.83-3.42-9.46,11.76-2.59,60.19-22.65c4.84-2,18.34-6.65,20.12-13.15,3.22-11.74.46-26.62-12.56-33.17S470.92,395.79,470.92,395.79Z"/><path class="cls-7" d="M454.15,282.28a5.14,5.14,0,0,1,1,1.69,41.37,41.37,0,0,1,1.56,4.63c1.6,5.59,3.05,12.77,3.05,12.77s20.18-16.81,17.33-17.87-5-6-5-6S452,280.4,454.15,282.28Z"/><path class="cls-12" d="M455.41,340.37s16.38,31.32,17.09,43.06,34.19-3.69,34.19-3.69Z"/><path class="cls-4" d="M472.43,382.67l-.38,2.92-.58,3.85h0c.5,0,32.7-2.06,35-1.46s-4.43-7.59-4.43-7.59Z"/><path class="cls-13" d="M471.47,389.44S435,398,426,400.89s-24.51,7.94-28.67,10.32c-2.21,1.26-5.59,3.15-9.63,16.32-4.59,14.92-15.05,56.89-17.43,63.43-1.49,4.1-5.78,20.25-5.78,20.25l18.61,3.23s22.17-44.63,24-56.53c3-20,10.79-20.13,13.92-22s18.24,1.6,72-2.69c5.37-.43,20-.7,23.85-6.49,6.86-10.47,13.79-22.36,3.13-32.88S471.47,389.44,471.47,389.44Z"/><path class="cls-7" d="M447,240.13S440.73,251,442.16,254s-6.59,10.14-5.27,11.66,4,3.36,4,3.81,2.33,14.63,5.43,15,24.24-.78,26-7.4,6.91-21.11,8.13-23.8S469.46,229.73,447,240.13Z"/><path class="cls-14" d="M473.11,238a23.43,23.43,0,0,1,4.32,4.1c1.39.65,9.57,4.72,7.87,9.11C483,257.14,473.76,273,473,274.63c-.1.22-.1-.2,0-1.08-.57-5.59-7.45-11.85-7.45-11.85L461.83,260a10.75,10.75,0,0,0,1.16-6.89c-4.16-4.45-18-9.25-18-9.25C447,224.2,463.86,231.16,473.11,238Z"/><path class="cls-7" d="M466.86,257.06c1-1.49,6.13-1.25,5.38,3.15s-7.07,7.92-8.45,6S465.82,258.65,466.86,257.06Z"/><path class="cls-15" d="M477.08,283.51s25.56,14.9,31.33,40.9,16.2,71.68,16.38,77.09c0,0-34.59-16.65-53.33-12.06,0,0-11.8-42.38-18-52.39s3-33.54,3-33.54S465.3,289.38,477.08,283.51Z"/><path class="cls-16" d="M455.14,284a41.37,41.37,0,0,1,1.56,4.63c3-1.26,8.78-6.57,9-6.74C463.26,282.81,455.14,284,455.14,284Z"/><path class="cls-15" d="M467.13,297.06a66.49,66.49,0,0,0-6.46,9.63c-4.27,7.41-7.73,14.72-8.65,16.37-1.88,3.34-8.52,6.79-11.49,8.06-2.73,1.17-49.75,2.17-50.33,2.12s.68,14.28.68,14.28,64.91,1.85,67.75-.73,11-12.37,14.47-17.22c3.28-4.62,8.3-12.21,11-15.48,3-3.65,9.23-16.16,1.28-22.4C475.2,283.7,469.58,293.4,467.13,297.06Z"/><path class="cls-17" d="M483.15,320.23s-7.29,19.77-11.68,26.52a128.79,128.79,0,0,1-9.22,12.35l-2.33-6.82S478.78,326.31,483.15,320.23Z"/><polygon class="cls-18" points="562.62 535.36 561.07 539.73 495.47 519.4 498.61 510.55 562.62 535.36"/><rect class="cls-18" x="493.22" y="444.96" width="7.46" height="71.32" transform="translate(993.89 961.25) rotate(180)"/><rect class="cls-19" x="474.96" y="441.17" width="43.98" height="4.2" transform="translate(993.89 886.55) rotate(180)"/><polygon class="cls-18" points="430.69 535.36 432.25 539.73 497.85 519.4 494.96 510 430.69 535.36"/><polygon class="cls-18" points="476.91 539.26 476.91 544.34 497.85 519.4 494.96 510 476.91 539.26"/><circle class="cls-20" cx="430.69" cy="541.43" r="6.13"/><circle class="cls-20" cx="482.52" cy="541.43" r="6.13"/><circle class="cls-20" cx="562.62" cy="541.43" r="6.13"/><rect class="cls-21" x="444.56" y="425.26" width="104.19" height="15.92" rx="7" ry="7" transform="translate(993.32 866.43) rotate(180)"/><rect class="cls-21" x="514.64" y="314.6" width="58.45" height="99.51" rx="25.7" ry="25.7" transform="translate(1087.73 728.7) rotate(180)"/><path class="cls-21" d="M514,437.21c10.59,0,19.18-3.56,25.54-10.57,14.36-15.86,11.78-43.73,11.67-44.91a4,4,0,0,0-8,.79c0,.32,2.32,25.58-9.65,38.78-4.84,5.34-11.25,7.93-19.6,7.93a4,4,0,1,0,0,8Z"/><rect class="cls-15" x="201.62" y="196.28" width="66.99" height="61.15" rx="9.69" ry="9.69"/><rect class="cls-15" x="372.78" y="102.64" width="66.99" height="61.15" rx="9.69" ry="9.69"/><rect class="cls-15" x="548.75" y="197.82" width="66.99" height="61.15" rx="9.69" ry="9.69"/><path class="cls-22" d="M249.94,213.12c-5.51-6.68-10.28.38-12.75,5.53a2,2,0,0,1-3.66,0c-2.55-5.16-7.48-12.25-13.18-5.56-7.06,8.29,8.62,24.75,13.59,29.6a2,2,0,0,0,2.87,0C241.64,237.82,256.76,221.4,249.94,213.12Z"/><polygon class="cls-22" points="418.43 125.11 406.27 125.11 394.11 125.11 385.73 150.95 406.27 150.95 426.81 150.95 418.43 125.11"/><path class="cls-22" d="M406.27,140c-5.57,0-10.1-5.77-10.1-12.87s4.53-12.87,10.1-12.87,10.1,5.77,10.1,12.87S411.84,140,406.27,140Zm0-24.81c-5.17,0-9.37,5.36-9.37,11.94s4.2,11.94,9.37,11.94,9.37-5.36,9.37-11.94S411.44,115.24,406.27,115.24Z"/><circle class="cls-15" cx="396.67" cy="127.31" r="1.11"/><circle class="cls-15" cx="415.99" cy="127.31" r="1.11"/><text class="cls-23" transform="translate(564.81 252.56)">₹</text></svg>