<svg xmlns="http://www.w3.org/2000/svg" xmlns:xlink="http://www.w3.org/1999/xlink" viewBox="0 0 555 428"><defs><style>.cls-1{fill:#eae6ff;}.cls-2{isolation:isolate;}.cls-3{fill:url(#linear-gradient);}.cls-4{fill:#ff6584;}.cls-5{fill:#a53852;}.cls-6{fill:#fff;}.cls-7{mask:url(#mask);}.cls-8{fill:url(#Áåçûìÿííûé_ãðàäèåíò_139);}.cls-9{fill:url(#Áåçûìÿííûé_ãðàäèåíò_139-2);}.cls-10{fill:#49616e;}.cls-11{fill:url(#Áåçûìÿííûé_ãðàäèåíò_139-3);}.cls-12{fill:url(#Áåçûìÿííûé_ãðàäèåíò_139-4);}.cls-13{fill:url(#Áåçûìÿííûé_ãðàäèåíò_5);}.cls-14{fill:url(#Áåçûìÿííûé_ãðàäèåíò_139-5);}.cls-15{fill:url(#Áåçûìÿííûé_ãðàäèåíò_139-6);}.cls-16{fill:#718b91;}.cls-104,.cls-109,.cls-122,.cls-123,.cls-124,.cls-126,.cls-136,.cls-137,.cls-17,.cls-22,.cls-36,.cls-37,.cls-38,.cls-41,.cls-53,.cls-54,.cls-78,.cls-79,.cls-80,.cls-81,.cls-82,.cls-83,.cls-84,.cls-85,.cls-92,.cls-93,.cls-95{mix-blend-mode:screen;}.cls-17{fill:url(#Áåçûìÿííûé_ãðàäèåíò_11);}.cls-18{fill:url(#Áåçûìÿííûé_ãðàäèåíò_139-7);}.cls-19{fill:url(#Áåçûìÿííûé_ãðàäèåíò_139-8);}.cls-20{fill:url(#Áåçûìÿííûé_ãðàäèåíò_139-9);}.cls-21{fill:url(#Áåçûìÿííûé_ãðàäèåíò_5-2);}.cls-22{fill:url(#Áåçûìÿííûé_ãðàäèåíò_11-2);}.cls-23{fill:url(#Áåçûìÿííûé_ãðàäèåíò_139-10);}.cls-24{fill:url(#Áåçûìÿííûé_ãðàäèåíò_139-11);}.cls-25{fill:url(#Áåçûìÿííûé_ãðàäèåíò_139-12);}.cls-26{fill:#287994;}.cls-27{fill:url(#Áåçûìÿííûé_ãðàäèåíò_139-13);}.cls-28{fill:url(#Áåçûìÿííûé_ãðàäèåíò_139-14);}.cls-29{fill:url(#Áåçûìÿííûé_ãðàäèåíò_139-15);}.cls-30{fill:url(#Áåçûìÿííûé_ãðàäèåíò_139-16);}.cls-31{fill:url(#Áåçûìÿííûé_ãðàäèåíò_139-17);}.cls-32{fill:url(#Áåçûìÿííûé_ãðàäèåíò_139-18);}.cls-33{fill:url(#Áåçûìÿííûé_ãðàäèåíò_5-3);}.cls-34{fill:url(#Áåçûìÿííûé_ãðàäèåíò_5-4);}.cls-35{fill:url(#Áåçûìÿííûé_ãðàäèåíò_5-5);}.cls-36{fill:url(#Áåçûìÿííûé_ãðàäèåíò_11-3);}.cls-37{fill:url(#Áåçûìÿííûé_ãðàäèåíò_11-4);}.cls-38{fill:url(#Áåçûìÿííûé_ãðàäèåíò_11-5);}.cls-39{fill:#131f49;}.cls-40{fill:url(#Áåçûìÿííûé_ãðàäèåíò_4);}.cls-41{fill:url(#Áåçûìÿííûé_ãðàäèåíò_11-6);}.cls-42{fill:#22567d;}.cls-43{fill:url(#Áåçûìÿííûé_ãðàäèåíò_54);}.cls-44{fill:url(#Áåçûìÿííûé_ãðàäèåíò_54-2);}.cls-45{fill:url(#Áåçûìÿííûé_ãðàäèåíò_54-3);}.cls-46{fill:url(#Áåçûìÿííûé_ãðàäèåíò_54-4);}.cls-47{fill:url(#Áåçûìÿííûé_ãðàäèåíò_54-5);}.cls-48{fill:url(#Áåçûìÿííûé_ãðàäèåíò_54-6);}.cls-49{fill:url(#Áåçûìÿííûé_ãðàäèåíò_54-7);}.cls-50{fill:url(#Áåçûìÿííûé_ãðàäèåíò_25);}.cls-51{fill:url(#Áåçûìÿííûé_ãðàäèåíò_139-19);}.cls-52{fill:#72ccb7;}.cls-53{fill:url(#Áåçûìÿííûé_ãðàäèåíò_11-7);}.cls-54{fill:url(#Áåçûìÿííûé_ãðàäèåíò_11-8);}.cls-55{fill:#bd622a;}.cls-56{fill:url(#Áåçûìÿííûé_ãðàäèåíò_187);}.cls-57{fill:url(#Áåçûìÿííûé_ãðàäèåíò_187-2);}.cls-58{fill:url(#Áåçûìÿííûé_ãðàäèåíò_187-3);}.cls-59{fill:url(#Áåçûìÿííûé_ãðàäèåíò_187-4);}.cls-60{fill:#f7a16f;}.cls-61{fill:#700b0b;}.cls-62{fill:url(#Áåçûìÿííûé_ãðàäèåíò_23);}.cls-63{fill:url(#Áåçûìÿííûé_ãðàäèåíò_23-2);}.cls-64{fill:url(#Áåçûìÿííûé_ãðàäèåíò_23-3);}.cls-65{fill:#00ebaa;}.cls-66{fill:url(#Áåçûìÿííûé_ãðàäèåíò_139-20);}.cls-67{fill:url(#Áåçûìÿííûé_ãðàäèåíò_139-21);}.cls-68{fill:url(#Áåçûìÿííûé_ãðàäèåíò_139-22);}.cls-69{fill:url(#Áåçûìÿííûé_ãðàäèåíò_139-23);}.cls-70{fill:url(#Áåçûìÿííûé_ãðàäèåíò_14);}.cls-71{fill:url(#Áåçûìÿííûé_ãðàäèåíò_4-2);}.cls-72{fill:url(#Áåçûìÿííûé_ãðàäèåíò_4-3);}.cls-73{fill:url(#Áåçûìÿííûé_ãðàäèåíò_14-2);}.cls-74{fill:url(#Áåçûìÿííûé_ãðàäèåíò_14-3);}.cls-75{fill:#2796af;}.cls-76{fill:url(#Áåçûìÿííûé_ãðàäèåíò_14-4);}.cls-77{fill:url(#Áåçûìÿííûé_ãðàäèåíò_14-5);}.cls-78{fill:url(#Áåçûìÿííûé_ãðàäèåíò_11-9);}.cls-79{fill:url(#Áåçûìÿííûé_ãðàäèåíò_11-10);}.cls-80{fill:url(#Áåçûìÿííûé_ãðàäèåíò_11-11);}.cls-81{fill:url(#Áåçûìÿííûé_ãðàäèåíò_11-12);}.cls-82{fill:url(#Áåçûìÿííûé_ãðàäèåíò_11-13);}.cls-83{fill:url(#Áåçûìÿííûé_ãðàäèåíò_11-14);}.cls-84{fill:url(#Áåçûìÿííûé_ãðàäèåíò_11-15);}.cls-85{fill:url(#Áåçûìÿííûé_ãðàäèåíò_11-16);}.cls-86{fill:#f9c3c4;}.cls-87{fill:#fc9096;}.cls-88{fill:#e65b77;}.cls-89{fill:#30b7df;}.cls-90{fill:#d3e0f4;}.cls-91{fill:#f5f8fd;}.cls-92{fill:url(#Áåçûìÿííûé_ãðàäèåíò_11-17);}.cls-93{fill:url(#Áåçûìÿííûé_ãðàäèåíò_11-18);}.cls-94{fill:#540f23;}.cls-95{fill:url(#Áåçûìÿííûé_ãðàäèåíò_22);}.cls-96{mask:url(#mask-2);}.cls-97{fill:url(#Áåçûìÿííûé_ãðàäèåíò_139-24);}.cls-98{fill:url(#Áåçûìÿííûé_ãðàäèåíò_139-25);}.cls-99{fill:url(#Áåçûìÿííûé_ãðàäèåíò_139-26);}.cls-100{fill:url(#Áåçûìÿííûé_ãðàäèåíò_139-27);}.cls-101{fill:url(#Áåçûìÿííûé_ãðàäèåíò_5-6);}.cls-102{fill:url(#Áåçûìÿííûé_ãðàäèåíò_139-28);}.cls-103{fill:url(#Áåçûìÿííûé_ãðàäèåíò_139-29);}.cls-104{fill:url(#Áåçûìÿííûé_ãðàäèåíò_11-19);}.cls-105{fill:url(#Áåçûìÿííûé_ãðàäèåíò_139-30);}.cls-106{fill:url(#Áåçûìÿííûé_ãðàäèåíò_139-31);}.cls-107{fill:url(#Áåçûìÿííûé_ãðàäèåíò_139-32);}.cls-108{fill:url(#Áåçûìÿííûé_ãðàäèåíò_5-7);}.cls-109{fill:url(#Áåçûìÿííûé_ãðàäèåíò_11-20);}.cls-110{fill:url(#Áåçûìÿííûé_ãðàäèåíò_139-33);}.cls-111{fill:url(#Áåçûìÿííûé_ãðàäèåíò_139-34);}.cls-112{fill:url(#Áåçûìÿííûé_ãðàäèåíò_139-35);}.cls-113{fill:url(#Áåçûìÿííûé_ãðàäèåíò_139-36);}.cls-114{fill:url(#Áåçûìÿííûé_ãðàäèåíò_139-37);}.cls-115{fill:url(#Áåçûìÿííûé_ãðàäèåíò_139-38);}.cls-116{fill:url(#Áåçûìÿííûé_ãðàäèåíò_139-39);}.cls-117{fill:url(#Áåçûìÿííûé_ãðàäèåíò_139-40);}.cls-118{fill:url(#Áåçûìÿííûé_ãðàäèåíò_139-41);}.cls-119{fill:url(#Áåçûìÿííûé_ãðàäèåíò_5-8);}.cls-120{fill:url(#Áåçûìÿííûé_ãðàäèåíò_5-9);}.cls-121{fill:url(#Áåçûìÿííûé_ãðàäèåíò_5-10);}.cls-122{fill:url(#Áåçûìÿííûé_ãðàäèåíò_11-21);}.cls-123{fill:url(#Áåçûìÿííûé_ãðàäèåíò_11-22);}.cls-124{fill:url(#Áåçûìÿííûé_ãðàäèåíò_11-23);}.cls-125{fill:url(#Áåçûìÿííûé_ãðàäèåíò_4-4);}.cls-126{fill:url(#Áåçûìÿííûé_ãðàäèåíò_11-24);}.cls-127{fill:url(#Áåçûìÿííûé_ãðàäèåíò_54-8);}.cls-128{fill:url(#Áåçûìÿííûé_ãðàäèåíò_54-9);}.cls-129{fill:url(#Áåçûìÿííûé_ãðàäèåíò_54-10);}.cls-130{fill:url(#Áåçûìÿííûé_ãðàäèåíò_54-11);}.cls-131{fill:url(#Áåçûìÿííûé_ãðàäèåíò_54-12);}.cls-132{fill:url(#Áåçûìÿííûé_ãðàäèåíò_54-13);}.cls-133{fill:url(#Áåçûìÿííûé_ãðàäèåíò_54-14);}.cls-134{fill:url(#Áåçûìÿííûé_ãðàäèåíò_25-2);}.cls-135{fill:url(#Áåçûìÿííûé_ãðàäèåíò_139-42);}.cls-136{fill:url(#Áåçûìÿííûé_ãðàäèåíò_11-25);}.cls-137{fill:url(#Áåçûìÿííûé_ãðàäèåíò_11-26);}.cls-138{fill:#109138;}.cls-139{fill:#167f34;}</style><linearGradient id="linear-gradient" y1="214" x2="555" y2="214" gradientUnits="userSpaceOnUse"><stop offset="0" stop-color="#f5f8fd"/><stop offset="0.24" stop-color="#f2f7fd"/><stop offset="0.44" stop-color="#e8f3fc"/><stop offset="0.62" stop-color="#d6edfc"/><stop offset="0.8" stop-color="#bee5fb"/><stop offset="0.96" stop-color="#9fdaf9"/><stop offset="1" stop-color="#98d7f9"/></linearGradient><mask id="mask" x="0.07" y="-0.1" width="555" height="428.2" maskUnits="userSpaceOnUse"><path class="cls-1" d="M550.56,256.12C541,229.35,525.83,221.2,511.45,204c-17.57-21-29.41-36.22-24.85-63.2,7.45-44.08,10.64-154-106.06-139.65-41.83,5.15-74.88,37.21-98.93,69.2-20.46,27.23-57.27,29.63-86.89,36-36.4,7.8-73.48,19.58-107.16,36.84C18.2,178.75-2.51,229.86.32,295.24c.85,19.75,3.65,50.87,37,87.28,45,49.15,110.49,55.73,189.27,33.16,18-5.17,35.08-13.27,52.81-19.37a249.23,249.23,0,0,1,57-12.38c45.24-4.37,92.15,3.54,135.55-10a143,143,0,0,0,60.62-37.6C553.32,314.65,560.69,284.38,550.56,256.12Z"/></mask><linearGradient id="Áåçûìÿííûé_ãðàäèåíò_139" x1="-959.12" y1="303.55" x2="-963.81" y2="322.68" gradientTransform="translate(1290.96)" gradientUnits="userSpaceOnUse"><stop offset="0" stop-color="#f5ebcb"/><stop offset="0.24" stop-color="#d6d6be"/><stop offset="1" stop-color="#759696"/></linearGradient><linearGradient id="Áåçûìÿííûé_ãðàäèåíò_139-2" x1="-882.71" y1="300.62" x2="-883.73" y2="324.33" xlink:href="#Áåçûìÿííûé_ãðàäèåíò_139"/><linearGradient id="Áåçûìÿííûé_ãðàäèåíò_139-3" x1="-884.45" y1="320.41" x2="-882.72" y2="300.77" xlink:href="#Áåçûìÿííûé_ãðàäèåíò_139"/><linearGradient id="Áåçûìÿííûé_ãðàäèåíò_139-4" x1="-882.24" y1="306.62" x2="-882.54" y2="314.15" xlink:href="#Áåçûìÿííûé_ãðàäèåíò_139"/><linearGradient id="Áåçûìÿííûé_ãðàäèåíò_5" x1="-898.77" y1="303.43" x2="-898.77" y2="323.24" gradientTransform="translate(1290.96)" gradientUnits="userSpaceOnUse"><stop offset="0" stop-color="#dad1c0"/><stop offset="0.63" stop-color="#708588"/><stop offset="0.74" stop-color="#73878a"/><stop offset="0.8" stop-color="#7b8f8f"/><stop offset="0.86" stop-color="#8a9d99"/><stop offset="0.9" stop-color="#9eb0a7"/><stop offset="0.95" stop-color="#b9c9b9"/><stop offset="0.99" stop-color="#d9e7cf"/><stop offset="1" stop-color="#e2f0d5"/></linearGradient><linearGradient id="Áåçûìÿííûé_ãðàäèåíò_139-5" x1="-959.75" y1="303.4" x2="-964.43" y2="322.53" xlink:href="#Áåçûìÿííûé_ãðàäèåíò_139"/><linearGradient id="Áåçûìÿííûé_ãðàäèåíò_139-6" x1="-963.82" y1="322.2" x2="-961.38" y2="303.96" xlink:href="#Áåçûìÿííûé_ãðàäèåíò_139"/><linearGradient id="Áåçûìÿííûé_ãðàäèåíò_11" x1="-916.24" y1="306.78" x2="-890.32" y2="317.9" gradientTransform="translate(1290.96)" gradientUnits="userSpaceOnUse"><stop offset="0" stop-color="#8a8677"/><stop offset="0.17" stop-color="#706d61"/><stop offset="0.74" stop-color="#201f1b"/><stop offset="1"/></linearGradient><linearGradient id="Áåçûìÿííûé_ãðàäèåíò_139-7" x1="-921.94" y1="300.62" x2="-922.96" y2="324.33" xlink:href="#Áåçûìÿííûé_ãðàäèåíò_139"/><linearGradient id="Áåçûìÿííûé_ãðàäèåíò_139-8" x1="-923.68" y1="320.41" x2="-921.95" y2="300.77" xlink:href="#Áåçûìÿííûé_ãðàäèåíò_139"/><linearGradient id="Áåçûìÿííûé_ãðàäèåíò_139-9" x1="-921.47" y1="306.62" x2="-921.78" y2="314.15" xlink:href="#Áåçûìÿííûé_ãðàäèåíò_139"/><linearGradient id="Áåçûìÿííûé_ãðàäèåíò_5-2" x1="-938" y1="303.43" x2="-938" y2="323.24" xlink:href="#Áåçûìÿííûé_ãðàäèåíò_5"/><linearGradient id="Áåçûìÿííûé_ãðàäèåíò_11-2" x1="-955.47" y1="306.78" x2="-929.56" y2="317.9" xlink:href="#Áåçûìÿííûé_ãðàäèåíò_11"/><linearGradient id="Áåçûìÿííûé_ãðàäèåíò_139-10" x1="-804.16" y1="308.24" x2="-804.46" y2="315.77" xlink:href="#Áåçûìÿííûé_ãðàäèåíò_139"/><linearGradient id="Áåçûìÿííûé_ãðàäèåíò_139-11" x1="-773.23" y1="303.72" x2="-774.25" y2="327.43" xlink:href="#Áåçûìÿííûé_ãðàäèåíò_139"/><linearGradient id="Áåçûìÿííûé_ãðàäèåíò_139-12" x1="-775.39" y1="326.72" x2="-773.66" y2="307.09" xlink:href="#Áåçûìÿííûé_ãðàäèåíò_139"/><linearGradient id="Áåçûìÿííûé_ãðàäèåíò_139-13" x1="-772.74" y1="309.55" x2="-773.04" y2="317.08" xlink:href="#Áåçûìÿííûé_ãðàäèåíò_139"/><linearGradient id="Áåçûìÿííûé_ãðàäèåíò_139-14" x1="-804.64" y1="302.34" x2="-805.66" y2="326.05" xlink:href="#Áåçûìÿííûé_ãðàäèåíò_139"/><linearGradient id="Áåçûìÿííûé_ãðàäèåíò_139-15" x1="-806.61" y1="323.9" x2="-804.88" y2="304.26" xlink:href="#Áåçûìÿííûé_ãðàäèåíò_139"/><linearGradient id="Áåçûìÿííûé_ãðàäèåíò_139-16" x1="-843.45" y1="300.62" x2="-844.47" y2="324.33" xlink:href="#Áåçûìÿííûé_ãðàäèåíò_139"/><linearGradient id="Áåçûìÿííûé_ãðàäèåíò_139-17" x1="-845.19" y1="320.41" x2="-843.46" y2="300.77" xlink:href="#Áåçûìÿííûé_ãðàäèåíò_139"/><linearGradient id="Áåçûìÿííûé_ãðàäèåíò_139-18" x1="-842.98" y1="306.62" x2="-843.29" y2="314.15" xlink:href="#Áåçûìÿííûé_ãðàäèåíò_139"/><linearGradient id="Áåçûìÿííûé_ãðàäèåíò_5-3" x1="-785.36" y1="303.43" x2="-785.36" y2="323.24" xlink:href="#Áåçûìÿííûé_ãðàäèåíò_5"/><linearGradient id="Áåçûìÿííûé_ãðàäèåíò_5-4" x1="-820.66" y1="303.43" x2="-820.66" y2="323.24" xlink:href="#Áåçûìÿííûé_ãðàäèåíò_5"/><linearGradient id="Áåçûìÿííûé_ãðàäèåíò_5-5" x1="-859.51" y1="303.43" x2="-859.51" y2="323.24" xlink:href="#Áåçûìÿííûé_ãðàäèåíò_5"/><linearGradient id="Áåçûìÿííûé_ãðàäèåíò_11-3" x1="-876.98" y1="306.78" x2="-851.07" y2="317.9" xlink:href="#Áåçûìÿííûé_ãðàäèåíò_11"/><linearGradient id="Áåçûìÿííûé_ãðàäèåíò_11-4" x1="-838.17" y1="306.78" x2="-812.25" y2="317.9" xlink:href="#Áåçûìÿííûé_ãðàäèåíò_11"/><linearGradient id="Áåçûìÿííûé_ãðàäèåíò_11-5" x1="-798.77" y1="308.52" x2="-780.62" y2="316.31" xlink:href="#Áåçûìÿííûé_ãðàäèåíò_11"/><linearGradient id="Áåçûìÿííûé_ãðàäèåíò_4" x1="-981.67" y1="299.17" x2="-982.48" y2="327.76" gradientTransform="translate(1290.96)" gradientUnits="userSpaceOnUse"><stop offset="0.06" stop-color="#22567d"/><stop offset="0.62" stop-color="#14466a"/><stop offset="1" stop-color="#131f49"/></linearGradient><linearGradient id="Áåçûìÿííûé_ãðàäèåíò_11-6" x1="-988.07" y1="294.11" x2="-978.71" y2="318.03" xlink:href="#Áåçûìÿííûé_ãðàäèåíò_11"/><linearGradient id="Áåçûìÿííûé_ãðàäèåíò_54" x1="-771.96" y1="308" x2="-772.09" y2="329.18" gradientTransform="translate(1290.96)" gradientUnits="userSpaceOnUse"><stop offset="0" stop-color="#4da9a3"/><stop offset="1" stop-color="#004d5c"/></linearGradient><linearGradient id="Áåçûìÿííûé_ãðàäèåíò_54-2" x1="-803.48" y1="308" x2="-803.61" y2="329.18" xlink:href="#Áåçûìÿííûé_ãðàäèåíò_54"/><linearGradient id="Áåçûìÿííûé_ãðàäèåíò_54-3" x1="-842.34" y1="308" x2="-842.47" y2="329.18" xlink:href="#Áåçûìÿííûé_ãðàäèåíò_54"/><linearGradient id="Áåçûìÿííûé_ãðàäèåíò_54-4" x1="-881.58" y1="308" x2="-881.71" y2="329.18" xlink:href="#Áåçûìÿííûé_ãðàäèåíò_54"/><linearGradient id="Áåçûìÿííûé_ãðàäèåíò_54-5" x1="-960.64" y1="308" x2="-960.77" y2="329.18" xlink:href="#Áåçûìÿííûé_ãðàäèåíò_54"/><linearGradient id="Áåçûìÿííûé_ãðàäèåíò_54-6" x1="-920.74" y1="308" x2="-920.87" y2="329.18" xlink:href="#Áåçûìÿííûé_ãðàäèåíò_54"/><linearGradient id="Áåçûìÿííûé_ãðàäèåíò_54-7" x1="-969.41" y1="359.27" x2="-764.75" y2="359.27" xlink:href="#Áåçûìÿííûé_ãðàäèåíò_54"/><linearGradient id="Áåçûìÿííûé_ãðàäèåíò_25" x1="-867.61" y1="320.66" x2="-867.61" y2="365.98" gradientTransform="translate(1290.96)" gradientUnits="userSpaceOnUse"><stop offset="0" stop-color="#dad1c0"/><stop offset="0.66" stop-color="#708588"/><stop offset="0.76" stop-color="#73878a"/><stop offset="0.82" stop-color="#7b8f8f"/><stop offset="0.87" stop-color="#8a9d99"/><stop offset="0.91" stop-color="#9eb0a7"/><stop offset="0.95" stop-color="#b9c9b9"/><stop offset="0.99" stop-color="#d9e7cf"/><stop offset="1" stop-color="#e2f0d5"/></linearGradient><linearGradient id="Áåçûìÿííûé_ãðàäèåíò_139-19" x1="-991.43" y1="325.52" x2="-957.65" y2="378.64" xlink:href="#Áåçûìÿííûé_ãðàäèåíò_139"/><linearGradient id="Áåçûìÿííûé_ãðàäèåíò_11-7" x1="-1001.75" y1="312.77" x2="-967.01" y2="357.55" xlink:href="#Áåçûìÿííûé_ãðàäèåíò_11"/><linearGradient id="Áåçûìÿííûé_ãðàäèåíò_11-8" x1="-873.06" y1="308.86" x2="-866.27" y2="357.84" xlink:href="#Áåçûìÿííûé_ãðàäèåíò_11"/><linearGradient id="Áåçûìÿííûé_ãðàäèåíò_187" x1="1123.16" y1="274.89" x2="1123.16" y2="280.65" gradientTransform="translate(-830.41)" gradientUnits="userSpaceOnUse"><stop offset="0" stop-color="#ffcb5d"/><stop offset="0.74" stop-color="#ed8e26"/><stop offset="0.84" stop-color="#eb861f"/></linearGradient><linearGradient id="Áåçûìÿííûé_ãðàäèåíò_187-2" x1="1103.07" y1="274.96" x2="1103" y2="280.37" xlink:href="#Áåçûìÿííûé_ãðàäèåíò_187"/><linearGradient id="Áåçûìÿííûé_ãðàäèåíò_187-3" x1="1103" y1="262.25" x2="1103.07" y2="267.81" xlink:href="#Áåçûìÿííûé_ãðàäèåíò_187"/><linearGradient id="Áåçûìÿííûé_ãðàäèåíò_187-4" x1="1123.16" y1="262.19" x2="1123.16" y2="266.98" xlink:href="#Áåçûìÿííûé_ãðàäèåíò_187"/><linearGradient id="Áåçûìÿííûé_ãðàäèåíò_23" x1="1143.24" y1="287.85" x2="1136.09" y2="299.1" gradientTransform="translate(-830.41)" gradientUnits="userSpaceOnUse"><stop offset="0" stop-color="#ff8759"/><stop offset="0.76" stop-color="#ab1535"/></linearGradient><linearGradient id="Áåçûìÿííûé_ãðàäèåíò_23-2" x1="1143.24" y1="275.1" x2="1136.02" y2="285.79" xlink:href="#Áåçûìÿííûé_ãðàäèåíò_23"/><linearGradient id="Áåçûìÿííûé_ãðàäèåíò_23-3" x1="1143.27" y1="261.44" x2="1135.57" y2="274.42" xlink:href="#Áåçûìÿííûé_ãðàäèåíò_23"/><linearGradient id="Áåçûìÿííûé_ãðàäèåíò_139-20" x1="1125.42" y1="292.03" x2="1122.15" y2="297.68" gradientTransform="translate(-830.41)" xlink:href="#Áåçûìÿííûé_ãðàäèåíò_139"/><linearGradient id="Áåçûìÿííûé_ãðàäèåíò_139-21" x1="1116.67" y1="292.03" x2="1113.41" y2="297.68" gradientTransform="translate(-830.41)" xlink:href="#Áåçûìÿííûé_ãðàäèåíò_139"/><linearGradient id="Áåçûìÿííûé_ãðàäèåíò_139-22" x1="1107.92" y1="292.03" x2="1104.66" y2="297.68" gradientTransform="translate(-830.41)" xlink:href="#Áåçûìÿííûé_ãðàäèåíò_139"/><linearGradient id="Áåçûìÿííûé_ãðàäèåíò_139-23" x1="1099.18" y1="292.03" x2="1095.91" y2="297.68" gradientTransform="translate(-830.41)" xlink:href="#Áåçûìÿííûé_ãðàäèåíò_139"/><linearGradient id="Áåçûìÿííûé_ãðàäèåíò_14" x1="1117.75" y1="146.57" x2="1121.36" y2="376.46" gradientTransform="translate(-830.41)" gradientUnits="userSpaceOnUse"><stop offset="0.01" stop-color="#22567d"/><stop offset="0.25" stop-color="#204e76"/><stop offset="0.63" stop-color="#1a3a62"/><stop offset="1" stop-color="#131f49"/></linearGradient><linearGradient id="Áåçûìÿííûé_ãðàäèåíò_4-2" x1="1100.29" y1="187.9" x2="1151.01" y2="276.75" gradientTransform="translate(-830.41)" xlink:href="#Áåçûìÿííûé_ãðàäèåíò_4"/><linearGradient id="Áåçûìÿííûé_ãðàäèåíò_4-3" x1="1108.75" y1="249.58" x2="1130.96" y2="318.81" gradientTransform="translate(-830.41)" xlink:href="#Áåçûìÿííûé_ãðàäèåíò_4"/><linearGradient id="Áåçûìÿííûé_ãðàäèåíò_14-2" x1="1130.96" y1="146.36" x2="1134.56" y2="376.26" xlink:href="#Áåçûìÿííûé_ãðàäèåíò_14"/><linearGradient id="Áåçûìÿííûé_ãðàäèåíò_14-3" x1="1117.78" y1="246.04" x2="1117.96" y2="196.24" xlink:href="#Áåçûìÿííûé_ãðàäèåíò_14"/><linearGradient id="Áåçûìÿííûé_ãðàäèåíò_14-4" x1="1102.08" y1="146.81" x2="1105.69" y2="376.71" xlink:href="#Áåçûìÿííûé_ãðàäèåíò_14"/><linearGradient id="Áåçûìÿííûé_ãðàäèåíò_14-5" x1="226.55" y1="253.65" x2="250.06" y2="253.65" gradientTransform="matrix(1, 0, 0, 1, 0, 0)" xlink:href="#Áåçûìÿííûé_ãðàäèåíò_14"/><linearGradient id="Áåçûìÿííûé_ãðàäèåíò_11-9" x1="1110.01" y1="260.53" x2="1092.27" y2="269.14" gradientTransform="translate(-830.41)" xlink:href="#Áåçûìÿííûé_ãðàäèåíò_11"/><linearGradient id="Áåçûìÿííûé_ãðàäèåíò_11-10" x1="1130.14" y1="260.53" x2="1112.4" y2="269.14" gradientTransform="translate(-830.41)" xlink:href="#Áåçûìÿííûé_ãðàäèåíò_11"/><linearGradient id="Áåçûìÿííûé_ãðàäèåíò_11-11" x1="1110.01" y1="273.5" x2="1092.27" y2="282.11" gradientTransform="translate(-830.41)" xlink:href="#Áåçûìÿííûé_ãðàäèåíò_11"/><linearGradient id="Áåçûìÿííûé_ãðàäèåíò_11-12" x1="1130.14" y1="273.5" x2="1112.4" y2="282.11" gradientTransform="translate(-830.41)" xlink:href="#Áåçûìÿííûé_ãðàäèåíò_11"/><linearGradient id="Áåçûìÿííûé_ãðàäèåíò_11-13" x1="1122.63" y1="180.08" x2="1109.3" y2="241.72" gradientTransform="translate(-830.41)" xlink:href="#Áåçûìÿííûé_ãðàäèåíò_11"/><linearGradient id="Áåçûìÿííûé_ãðàäèåíò_11-14" x1="1172.86" y1="141.38" x2="1069.29" y2="353.51" gradientTransform="translate(-830.41)" xlink:href="#Áåçûìÿííûé_ãðàäèåíò_11"/><linearGradient id="Áåçûìÿííûé_ãðàäèåíò_11-15" x1="1115.11" y1="308.01" x2="1096.37" y2="354.8" gradientTransform="translate(-830.41)" xlink:href="#Áåçûìÿííûé_ãðàäèåíò_11"/><linearGradient id="Áåçûìÿííûé_ãðàäèåíò_11-16" x1="1144" y1="308.25" x2="1125.32" y2="354.88" gradientTransform="translate(-830.41)" xlink:href="#Áåçûìÿííûé_ãðàäèåíò_11"/><linearGradient id="Áåçûìÿííûé_ãðàäèåíò_11-17" x1="2278.33" y1="149.05" x2="2293.76" y2="239.98" gradientTransform="translate(-1867.55)" xlink:href="#Áåçûìÿííûé_ãðàäèåíò_11"/><linearGradient id="Áåçûìÿííûé_ãðàäèåíò_11-18" x1="2278.79" y1="106.78" x2="2308.02" y2="130.38" gradientTransform="translate(-1867.55)" xlink:href="#Áåçûìÿííûé_ãðàäèåíò_11"/><linearGradient id="Áåçûìÿííûé_ãðàäèåíò_22" x1="2277.2" y1="127.7" x2="2292.74" y2="144.79" gradientTransform="translate(-1867.55)" gradientUnits="userSpaceOnUse"><stop offset="0" stop-color="#d6d0b9"/><stop offset="0.44" stop-color="#716e62"/><stop offset="0.83" stop-color="#201f1c"/><stop offset="1"/></linearGradient><mask id="mask-2" x="0.31" y="-0.1" width="555" height="428.2" maskUnits="userSpaceOnUse"><path class="cls-1" d="M550.81,256.12c-9.6-26.77-24.72-34.92-39.11-52.09-17.57-21-29.41-36.22-24.85-63.2,7.45-44.08,10.64-154-106.06-139.65C339,6.34,305.91,38.39,281.86,70.39,261.4,97.61,224.59,100,195,106.36c-36.4,7.8-73.48,19.58-107.16,36.84C18.45,178.75-2.27,229.86.56,295.24c.85,19.75,3.65,50.87,37,87.28,45,49.15,110.49,55.73,189.27,33.16,18-5.17,35.08-13.27,52.81-19.37a249.23,249.23,0,0,1,57-12.38c45.24-4.37,92.15,3.54,135.55-10a143,143,0,0,0,60.62-37.6C553.57,314.65,560.94,284.38,550.81,256.12Z"/></mask><linearGradient id="Áåçûìÿííûé_ãðàäèåíò_139-24" x1="-1235.3" y1="303.55" x2="-1239.98" y2="322.68" xlink:href="#Áåçûìÿííûé_ãðàäèåíò_139"/><linearGradient id="Áåçûìÿííûé_ãðàäèåíò_139-25" x1="-1158.88" y1="300.62" x2="-1159.9" y2="324.33" xlink:href="#Áåçûìÿííûé_ãðàäèåíò_139"/><linearGradient id="Áåçûìÿííûé_ãðàäèåíò_139-26" x1="-1160.62" y1="320.41" x2="-1158.89" y2="300.77" xlink:href="#Áåçûìÿííûé_ãðàäèåíò_139"/><linearGradient id="Áåçûìÿííûé_ãðàäèåíò_139-27" x1="-1158.41" y1="306.62" x2="-1158.71" y2="314.15" xlink:href="#Áåçûìÿííûé_ãðàäèåíò_139"/><linearGradient id="Áåçûìÿííûé_ãðàäèåíò_5-6" x1="-1174.94" y1="303.43" x2="-1174.94" y2="323.24" xlink:href="#Áåçûìÿííûé_ãðàäèåíò_5"/><linearGradient id="Áåçûìÿííûé_ãðàäèåíò_139-28" x1="-1235.92" y1="303.4" x2="-1240.6" y2="322.53" xlink:href="#Áåçûìÿííûé_ãðàäèåíò_139"/><linearGradient id="Áåçûìÿííûé_ãðàäèåíò_139-29" x1="-1240" y1="322.2" x2="-1237.55" y2="303.96" xlink:href="#Áåçûìÿííûé_ãðàäèåíò_139"/><linearGradient id="Áåçûìÿííûé_ãðàäèåíò_11-19" x1="-1192.41" y1="306.78" x2="-1166.5" y2="317.9" xlink:href="#Áåçûìÿííûé_ãðàäèåíò_11"/><linearGradient id="Áåçûìÿííûé_ãðàäèåíò_139-30" x1="-1198.11" y1="300.62" x2="-1199.13" y2="324.33" xlink:href="#Áåçûìÿííûé_ãðàäèåíò_139"/><linearGradient id="Áåçûìÿííûé_ãðàäèåíò_139-31" x1="-1199.85" y1="320.41" x2="-1198.12" y2="300.77" xlink:href="#Áåçûìÿííûé_ãðàäèåíò_139"/><linearGradient id="Áåçûìÿííûé_ãðàäèåíò_139-32" x1="-1197.64" y1="306.62" x2="-1197.95" y2="314.15" xlink:href="#Áåçûìÿííûé_ãðàäèåíò_139"/><linearGradient id="Áåçûìÿííûé_ãðàäèåíò_5-7" x1="-1214.17" y1="303.43" x2="-1214.17" y2="323.24" xlink:href="#Áåçûìÿííûé_ãðàäèåíò_5"/><linearGradient id="Áåçûìÿííûé_ãðàäèåíò_11-20" x1="-1231.64" y1="306.78" x2="-1205.73" y2="317.9" xlink:href="#Áåçûìÿííûé_ãðàäèåíò_11"/><linearGradient id="Áåçûìÿííûé_ãðàäèåíò_139-33" x1="-1080.33" y1="308.24" x2="-1080.63" y2="315.77" xlink:href="#Áåçûìÿííûé_ãðàäèåíò_139"/><linearGradient id="Áåçûìÿííûé_ãðàäèåíò_139-34" x1="-1049.4" y1="303.72" x2="-1050.42" y2="327.43" xlink:href="#Áåçûìÿííûé_ãðàäèåíò_139"/><linearGradient id="Áåçûìÿííûé_ãðàäèåíò_139-35" x1="-1051.56" y1="326.72" x2="-1049.83" y2="307.09" xlink:href="#Áåçûìÿííûé_ãðàäèåíò_139"/><linearGradient id="Áåçûìÿííûé_ãðàäèåíò_139-36" x1="-1048.91" y1="309.55" x2="-1049.22" y2="317.08" xlink:href="#Áåçûìÿííûé_ãðàäèåíò_139"/><linearGradient id="Áåçûìÿííûé_ãðàäèåíò_139-37" x1="-1080.81" y1="302.34" x2="-1081.83" y2="326.05" xlink:href="#Áåçûìÿííûé_ãðàäèåíò_139"/><linearGradient id="Áåçûìÿííûé_ãðàäèåíò_139-38" x1="-1082.79" y1="323.9" x2="-1081.06" y2="304.26" xlink:href="#Áåçûìÿííûé_ãðàäèåíò_139"/><linearGradient id="Áåçûìÿííûé_ãðàäèåíò_139-39" x1="-1119.63" y1="300.62" x2="-1120.64" y2="324.33" xlink:href="#Áåçûìÿííûé_ãðàäèåíò_139"/><linearGradient id="Áåçûìÿííûé_ãðàäèåíò_139-40" x1="-1121.37" y1="320.41" x2="-1119.64" y2="300.77" xlink:href="#Áåçûìÿííûé_ãðàäèåíò_139"/><linearGradient id="Áåçûìÿííûé_ãðàäèåíò_139-41" x1="-1119.15" y1="306.62" x2="-1119.46" y2="314.15" xlink:href="#Áåçûìÿííûé_ãðàäèåíò_139"/><linearGradient id="Áåçûìÿííûé_ãðàäèåíò_5-8" x1="-1061.53" y1="303.43" x2="-1061.53" y2="323.24" xlink:href="#Áåçûìÿííûé_ãðàäèåíò_5"/><linearGradient id="Áåçûìÿííûé_ãðàäèåíò_5-9" x1="-1096.83" y1="303.43" x2="-1096.83" y2="323.24" xlink:href="#Áåçûìÿííûé_ãðàäèåíò_5"/><linearGradient id="Áåçûìÿííûé_ãðàäèåíò_5-10" x1="-1135.68" y1="303.43" x2="-1135.68" y2="323.24" xlink:href="#Áåçûìÿííûé_ãðàäèåíò_5"/><linearGradient id="Áåçûìÿííûé_ãðàäèåíò_11-21" x1="-1153.15" y1="306.78" x2="-1127.24" y2="317.9" xlink:href="#Áåçûìÿííûé_ãðàäèåíò_11"/><linearGradient id="Áåçûìÿííûé_ãðàäèåíò_11-22" x1="-1114.34" y1="306.78" x2="-1088.42" y2="317.9" xlink:href="#Áåçûìÿííûé_ãðàäèåíò_11"/><linearGradient id="Áåçûìÿííûé_ãðàäèåíò_11-23" x1="-1074.94" y1="308.52" x2="-1056.79" y2="316.31" xlink:href="#Áåçûìÿííûé_ãðàäèåíò_11"/><linearGradient id="Áåçûìÿííûé_ãðàäèåíò_4-4" x1="-1257.84" y1="299.17" x2="-1258.65" y2="327.76" xlink:href="#Áåçûìÿííûé_ãðàäèåíò_4"/><linearGradient id="Áåçûìÿííûé_ãðàäèåíò_11-24" x1="-1264.24" y1="294.11" x2="-1254.88" y2="318.03" xlink:href="#Áåçûìÿííûé_ãðàäèåíò_11"/><linearGradient id="Áåçûìÿííûé_ãðàäèåíò_54-8" x1="-1048.13" y1="308" x2="-1048.26" y2="329.18" xlink:href="#Áåçûìÿííûé_ãðàäèåíò_54"/><linearGradient id="Áåçûìÿííûé_ãðàäèåíò_54-9" x1="-1079.65" y1="308" x2="-1079.78" y2="329.18" xlink:href="#Áåçûìÿííûé_ãðàäèåíò_54"/><linearGradient id="Áåçûìÿííûé_ãðàäèåíò_54-10" x1="-1118.51" y1="308" x2="-1118.64" y2="329.18" xlink:href="#Áåçûìÿííûé_ãðàäèåíò_54"/><linearGradient id="Áåçûìÿííûé_ãðàäèåíò_54-11" x1="-1157.75" y1="308" x2="-1157.88" y2="329.18" xlink:href="#Áåçûìÿííûé_ãðàäèåíò_54"/><linearGradient id="Áåçûìÿííûé_ãðàäèåíò_54-12" x1="-1236.81" y1="308" x2="-1236.94" y2="329.18" xlink:href="#Áåçûìÿííûé_ãðàäèåíò_54"/><linearGradient id="Áåçûìÿííûé_ãðàäèåíò_54-13" x1="-1196.92" y1="308" x2="-1197.05" y2="329.18" xlink:href="#Áåçûìÿííûé_ãðàäèåíò_54"/><linearGradient id="Áåçûìÿííûé_ãðàäèåíò_54-14" x1="-1245.59" y1="359.27" x2="-1040.92" y2="359.27" xlink:href="#Áåçûìÿííûé_ãðàäèåíò_54"/><linearGradient id="Áåçûìÿííûé_ãðàäèåíò_25-2" x1="-1143.78" y1="320.66" x2="-1143.78" y2="365.98" xlink:href="#Áåçûìÿííûé_ãðàäèåíò_25"/><linearGradient id="Áåçûìÿííûé_ãðàäèåíò_139-42" x1="-1267.61" y1="325.52" x2="-1233.82" y2="378.64" xlink:href="#Áåçûìÿííûé_ãðàäèåíò_139"/><linearGradient id="Áåçûìÿííûé_ãðàäèåíò_11-25" x1="-1277.92" y1="312.77" x2="-1243.19" y2="357.55" xlink:href="#Áåçûìÿííûé_ãðàäèåíò_11"/><linearGradient id="Áåçûìÿííûé_ãðàäèåíò_11-26" x1="-1149.23" y1="308.86" x2="-1142.44" y2="357.84" xlink:href="#Áåçûìÿííûé_ãðàäèåíò_11"/></defs><title>main graphic</title><g class="cls-2"><g id="Layer_1" data-name="Layer 1"><path class="cls-3" d="M550.49,256.12c-9.6-26.77-24.72-34.92-39.11-52.09-17.57-21-29.41-36.22-24.85-63.2C494,96.75,497.18-13.18,380.47,1.19c-41.83,5.15-74.88,37.21-98.93,69.2-20.46,27.23-57.27,29.63-86.89,36-36.4,7.8-73.48,19.58-107.16,36.84C18.14,178.75-2.58,229.86.25,295.24c.85,19.75,3.65,50.87,37,87.28,45,49.15,110.49,55.73,189.27,33.16,18-5.17,35.08-13.27,52.81-19.37a249.23,249.23,0,0,1,57-12.38c45.24-4.37,92.15,3.54,135.55-10a143,143,0,0,0,60.62-37.6C553.26,314.65,560.63,284.38,550.49,256.12Z"/><rect class="cls-4" x="400.11" y="273.2" width="29.57" height="29.57"/><rect class="cls-5" x="391.08" y="273.2" width="9.02" height="29.57"/><polygon class="cls-6" points="422.04 279.94 407.74 279.94 407.74 282.06 413.83 282.06 413.83 297.05 415.95 297.05 415.95 282.06 422.04 282.06 422.04 279.94"/><rect class="cls-4" x="469.94" y="273.2" width="29.57" height="29.57"/><rect class="cls-5" x="460.91" y="273.2" width="9.02" height="29.57"/><polygon class="cls-6" points="491.87 279.94 477.57 279.94 477.57 282.06 483.66 282.06 483.66 297.05 485.78 297.05 485.78 282.06 491.87 282.06 491.87 279.94"/><g class="cls-7"><path class="cls-8" d="M329.72,309.62c.87,0,1.58,1.16,1.58,2.58s-.71,2.57-1.58,2.57-1.59-1.16-1.59-2.57S328.84,309.62,329.72,309.62Z"/><path class="cls-9" d="M407.73,304.4c3.82,0,6.92,3.67,6.92,8.21s-3.1,8.21-6.92,8.21h-.06c-3.8,0-6.86-3.7-6.86-8.21S403.9,304.4,407.73,304.4Zm5.84,8.21c0-3.85-2.63-7-5.87-7l-.49,0h0l-.09,0a1.87,1.87,0,0,0-.36.06l-.22,0a3.28,3.28,0,0,0-.45.14,3.38,3.38,0,0,0-.47.18,4.54,4.54,0,0,0-.44.22l-.26.16a3.31,3.31,0,0,0-.36.26,2.37,2.37,0,0,0-.28.22l-.19.18a2.87,2.87,0,0,0-.31.31h0a2.58,2.58,0,0,0-.3.36,1,1,0,0,0-.14.18,2.55,2.55,0,0,0-.25.35.56.56,0,0,0-.08.13,2.51,2.51,0,0,0-.19.31,3.31,3.31,0,0,0-.19.37,1.93,1.93,0,0,0-.09.18,4.71,4.71,0,0,0-.2.5.28.28,0,0,0,0,.07c0,.14-.09.27-.13.41s-.06.19-.08.29-.1.39-.13.59a6.32,6.32,0,0,0-.09.69,7.91,7.91,0,0,0,0,1.42,6.32,6.32,0,0,0,.09.69c0,.2.08.4.13.59s0,.2.08.29.08.27.13.41a.29.29,0,0,0,0,.07,4.72,4.72,0,0,0,.2.5,1.93,1.93,0,0,0,.09.18,3.31,3.31,0,0,0,.19.37c.09.15.18.29.27.44a2.55,2.55,0,0,0,.25.35c0,.06.1.13.14.19a4.35,4.35,0,0,0,.3.35,6,6,0,0,0,.51.49,2.36,2.36,0,0,0,.28.22,4.87,4.87,0,0,0,.61.41l.41.21,0,0a4.85,4.85,0,0,0,1,.34,3.25,3.25,0,0,0,.56.09,3.58,3.58,0,0,0,.51,0C410.94,319.57,413.57,316.46,413.57,312.61Z"/><path class="cls-10" d="M407.7,305.64c3.24,0,5.87,3.12,5.87,7s-2.63,7-5.87,7a3.58,3.58,0,0,1-.51,0c3-.3,5.37-3.29,5.37-6.93s-2.35-6.62-5.35-6.94Z"/><path class="cls-11" d="M407.21,305.66c3,.33,5.35,3.31,5.35,6.94s-2.37,6.63-5.37,6.93a4.27,4.27,0,0,1-.56-.09,5.92,5.92,0,0,1-1-.34l0,0-.41-.21a4.87,4.87,0,0,1-.61-.41,2.36,2.36,0,0,1-.28-.22,6,6,0,0,1-.51-.49l-.3-.35c0-.06-.1-.13-.14-.19a2.55,2.55,0,0,1-.25-.35c-.1-.14-.18-.29-.27-.44a3.31,3.31,0,0,1-.19-.37,1.93,1.93,0,0,1-.09-.18c-.07-.17-.14-.33-.2-.5a.29.29,0,0,1,0-.07c0-.14-.09-.26-.13-.41s-.06-.19-.08-.29-.1-.39-.13-.59a6.32,6.32,0,0,1-.09-.69,7.91,7.91,0,0,1,0-1.42,6.32,6.32,0,0,1,.09-.69c0-.2.08-.4.13-.59s0-.2.08-.29.08-.27.13-.41a.28.28,0,0,1,0-.07c.06-.18.13-.33.2-.5a1.93,1.93,0,0,1,.09-.18,5,5,0,0,1,.38-.69.56.56,0,0,1,.08-.13,2.55,2.55,0,0,1,.25-.35,1,1,0,0,1,.14-.18,3.28,3.28,0,0,1,.3-.36h0a2.87,2.87,0,0,1,.31-.31l.19-.18a2.37,2.37,0,0,1,.28-.22,3.31,3.31,0,0,1,.36-.26l.26-.16a4.54,4.54,0,0,1,.44-.22,3,3,0,0,1,.47-.18,3.28,3.28,0,0,1,.45-.14l.22,0a1.87,1.87,0,0,1,.36-.06Zm2.86,6.54c0-1.43-.71-2.58-1.58-2.58h-1.59c-.88,0-1.59,1.16-1.59,2.58s.71,2.57,1.59,2.57h1.59C409.36,314.77,410.07,313.62,410.07,312.2Z"/><path class="cls-12" d="M408.5,309.62c.87,0,1.58,1.16,1.58,2.58s-.71,2.57-1.58,2.57-1.59-1.16-1.59-2.57S407.62,309.62,408.5,309.62Z"/><path class="cls-10" d="M406.91,309.62h1.59c-.88,0-1.59,1.16-1.59,2.58s.71,2.57,1.59,2.57h-1.59c-.88,0-1.59-1.16-1.59-2.57S406,309.62,406.91,309.62Z"/><path class="cls-13" d="M381.35,320.82h26.32c-3.8,0-6.86-3.7-6.86-8.21s3.09-8.21,6.92-8.21H380.84C374.54,308,375.86,317.12,381.35,320.82Z"/><path class="cls-14" d="M329,304.4c3.82,0,6.92,3.67,6.92,8.21s-3.1,8.21-6.92,8.21-6.92-3.67-6.92-8.21S325.13,304.4,329,304.4Zm5.84,8.21c0-3.85-2.63-7-5.87-7l-.49,0h0l-.1,0a2.81,2.81,0,0,0-.36.06l-.19,0a3.63,3.63,0,0,0-.48.14,2.8,2.8,0,0,0-.49.19c-.17.07-.33.16-.49.25a5.2,5.2,0,0,0-.55.38,2.37,2.37,0,0,0-.28.22l-.19.18a2.86,2.86,0,0,0-.31.31h0a2.89,2.89,0,0,0-.29.33,2.6,2.6,0,0,0-.22.29.85.85,0,0,0-.12.18,1.79,1.79,0,0,0-.2.3l-.14.22a3.31,3.31,0,0,0-.19.37,1.93,1.93,0,0,0-.09.18,4.69,4.69,0,0,0-.2.5.28.28,0,0,0,0,.07c0,.14-.09.27-.13.41s-.06.19-.08.29-.1.39-.13.59a6.32,6.32,0,0,0-.09.69,7.91,7.91,0,0,0,0,1.42,6.32,6.32,0,0,0,.09.69c0,.2.08.4.13.59s0,.2.08.29.08.27.13.41a.28.28,0,0,0,0,.07,4.7,4.7,0,0,0,.2.5,1.93,1.93,0,0,0,.09.18,3.31,3.31,0,0,0,.19.37l.14.22a1.8,1.8,0,0,0,.2.3,1.14,1.14,0,0,0,.12.18,2.6,2.6,0,0,0,.22.29,2.89,2.89,0,0,0,.29.33,6,6,0,0,0,.51.49,2.37,2.37,0,0,0,.28.22,3.65,3.65,0,0,0,.36.26,4.71,4.71,0,0,0,.68.37,4.41,4.41,0,0,0,1.05.35,3.25,3.25,0,0,0,.56.09,3.66,3.66,0,0,0,.51,0C332.17,319.57,334.8,316.46,334.8,312.61Z"/><path class="cls-10" d="M328.92,305.64c3.24,0,5.87,3.12,5.87,7s-2.63,7-5.87,7a3.66,3.66,0,0,1-.51,0c3-.3,5.37-3.29,5.37-6.93s-2.35-6.62-5.35-6.94Z"/><path class="cls-15" d="M328.44,305.66c3,.33,5.35,3.31,5.35,6.94s-2.37,6.63-5.37,6.93a4.27,4.27,0,0,1-.56-.09,5.43,5.43,0,0,1-1.05-.35,5.62,5.62,0,0,1-.68-.37,3.65,3.65,0,0,1-.36-.26c-.1-.06-.19-.14-.28-.22a6,6,0,0,1-.51-.49,2.89,2.89,0,0,1-.29-.33,2.6,2.6,0,0,1-.22-.29,1.14,1.14,0,0,1-.12-.18,2.47,2.47,0,0,1-.2-.3l-.14-.22-.19-.37a1.93,1.93,0,0,1-.09-.18c-.07-.17-.14-.33-.2-.5a.28.28,0,0,1,0-.07c0-.14-.09-.26-.13-.41s-.06-.19-.08-.29-.1-.39-.13-.59a6.32,6.32,0,0,1-.09-.69,7.91,7.91,0,0,1,0-1.42,6.32,6.32,0,0,1,.09-.69c0-.2.08-.4.13-.59s0-.2.08-.29.09-.27.13-.41a.28.28,0,0,1,0-.07c.06-.18.13-.33.2-.5a1.93,1.93,0,0,1,.09-.18l.19-.37.14-.22a2.46,2.46,0,0,1,.2-.3.85.85,0,0,1,.12-.18,2.6,2.6,0,0,1,.22-.29,2.89,2.89,0,0,1,.29-.33h0a2.86,2.86,0,0,1,.31-.31l.19-.18c.09-.07.18-.15.28-.22a5.2,5.2,0,0,1,.55-.38l.49-.25a5.13,5.13,0,0,1,.49-.19,3.63,3.63,0,0,1,.48-.14l.19,0a2.81,2.81,0,0,1,.36-.06Zm2.86,6.54c0-1.43-.71-2.58-1.58-2.58h-1.59c-.88,0-1.59,1.16-1.59,2.58s.71,2.57,1.59,2.57h1.59C330.59,314.77,331.3,313.62,331.3,312.2Z"/><path class="cls-10" d="M328.13,309.62h1.59c-.88,0-1.59,1.16-1.59,2.58s.71,2.57,1.59,2.57h-1.59c-.88,0-1.59-1.16-1.59-2.57S327.26,309.62,328.13,309.62Z"/><path class="cls-16" d="M407.73,304.4H380.84a8,8,0,0,0-3.51,4h24.49A6.77,6.77,0,0,1,407.73,304.4Z"/><path class="cls-17" d="M376.9,309.62H399.2l.61,5.48-22.47.48A10.42,10.42,0,0,1,376.9,309.62Z"/><path class="cls-18" d="M368.5,304.4c3.82,0,6.92,3.67,6.92,8.21s-3.1,8.21-6.92,8.21h-.06c-3.8,0-6.86-3.7-6.86-8.21S364.67,304.4,368.5,304.4Zm5.84,8.21c0-3.85-2.63-7-5.87-7l-.49,0h0l-.09,0a1.87,1.87,0,0,0-.36.06l-.22,0a3.28,3.28,0,0,0-.45.14,3.38,3.38,0,0,0-.47.18,4.54,4.54,0,0,0-.44.22l-.26.16a3.31,3.31,0,0,0-.36.26,2.37,2.37,0,0,0-.28.22l-.19.18a2.87,2.87,0,0,0-.31.31h0a2.58,2.58,0,0,0-.3.36,1,1,0,0,0-.14.18,2.55,2.55,0,0,0-.25.35.56.56,0,0,0-.08.13,2.51,2.51,0,0,0-.19.31,3.31,3.31,0,0,0-.19.37,1.93,1.93,0,0,0-.09.18,4.71,4.71,0,0,0-.2.5.28.28,0,0,0,0,.07c0,.14-.09.27-.13.41s-.06.19-.08.29-.1.39-.13.59a6.32,6.32,0,0,0-.09.69,7.91,7.91,0,0,0,0,1.42,6.32,6.32,0,0,0,.09.69c0,.2.08.4.13.59s0,.2.08.29.08.27.13.41a.29.29,0,0,0,0,.07,4.72,4.72,0,0,0,.2.5,1.93,1.93,0,0,0,.09.18,3.31,3.31,0,0,0,.19.37c.09.15.18.29.27.44a2.55,2.55,0,0,0,.25.35c0,.06.1.13.14.19a4.35,4.35,0,0,0,.3.35,6,6,0,0,0,.51.49,2.36,2.36,0,0,0,.28.22,4.87,4.87,0,0,0,.61.41l.41.21,0,0a4.85,4.85,0,0,0,1,.34,3.25,3.25,0,0,0,.56.09,3.58,3.58,0,0,0,.51,0C371.71,319.57,374.34,316.46,374.34,312.61Z"/><path class="cls-10" d="M368.47,305.64c3.24,0,5.87,3.12,5.87,7s-2.63,7-5.87,7a3.58,3.58,0,0,1-.51,0c3-.3,5.37-3.29,5.37-6.93S371,306,368,305.66Z"/><path class="cls-19" d="M368,305.66c3,.33,5.35,3.31,5.35,6.94s-2.37,6.63-5.37,6.93a4.27,4.27,0,0,1-.56-.09,5.92,5.92,0,0,1-1-.34l0,0-.41-.21a4.87,4.87,0,0,1-.61-.41,2.36,2.36,0,0,1-.28-.22,6,6,0,0,1-.51-.49l-.3-.35c0-.06-.1-.13-.14-.19a2.55,2.55,0,0,1-.25-.35c-.1-.14-.18-.29-.27-.44a3.31,3.31,0,0,1-.19-.37,1.93,1.93,0,0,1-.09-.18c-.07-.17-.14-.33-.2-.5a.29.29,0,0,1,0-.07c0-.14-.09-.26-.13-.41s-.06-.19-.08-.29-.1-.39-.13-.59a6.32,6.32,0,0,1-.09-.69,7.91,7.91,0,0,1,0-1.42,6.32,6.32,0,0,1,.09-.69c0-.2.08-.4.13-.59s0-.2.08-.29.08-.27.13-.41a.28.28,0,0,1,0-.07c.06-.18.13-.33.2-.5a1.93,1.93,0,0,1,.09-.18,5,5,0,0,1,.38-.69.56.56,0,0,1,.08-.13,2.55,2.55,0,0,1,.25-.35,1,1,0,0,1,.14-.18,3.28,3.28,0,0,1,.3-.36h0a2.87,2.87,0,0,1,.31-.31L365,307a2.37,2.37,0,0,1,.28-.22,3.31,3.31,0,0,1,.36-.26l.26-.16a4.54,4.54,0,0,1,.44-.22,3,3,0,0,1,.47-.18,3.28,3.28,0,0,1,.45-.14l.22,0a1.87,1.87,0,0,1,.36-.06Zm2.86,6.54c0-1.43-.71-2.58-1.58-2.58h-1.59c-.88,0-1.59,1.16-1.59,2.58s.71,2.57,1.59,2.57h1.59C370.13,314.77,370.84,313.62,370.84,312.2Z"/><path class="cls-20" d="M369.26,309.62c.87,0,1.58,1.16,1.58,2.58s-.71,2.57-1.58,2.57-1.59-1.16-1.59-2.57S368.39,309.62,369.26,309.62Z"/><path class="cls-10" d="M367.68,309.62h1.59c-.88,0-1.59,1.16-1.59,2.58s.71,2.57,1.59,2.57h-1.59c-.88,0-1.59-1.16-1.59-2.57S366.8,309.62,367.68,309.62Z"/><path class="cls-21" d="M342.12,320.82h26.32c-3.8,0-6.86-3.7-6.86-8.21s3.09-8.21,6.92-8.21H341.61C335.31,308,336.63,317.12,342.12,320.82Z"/><path class="cls-16" d="M368.5,304.4H341.61a8,8,0,0,0-3.51,4h24.49A6.77,6.77,0,0,1,368.5,304.4Z"/><path class="cls-22" d="M337.67,309.62H360l.61,5.48-22.47.48A10.42,10.42,0,0,1,337.67,309.62Z"/><path class="cls-23" d="M486.64,309.62c.88,0,1.59,1.16,1.59,2.58s-.71,2.57-1.59,2.57-1.59-1.16-1.59-2.57S485.76,309.62,486.64,309.62Z"/><path class="cls-24" d="M517.34,304.4c3.83,0,6.92,3.67,6.92,8.21s-3.09,8.21-6.92,8.21h0c-3.79,0-6.87-3.69-6.87-8.21S513.52,304.4,517.34,304.4Zm5.85,8.21c0-3.85-2.63-7-5.87-7l-.49,0h0l-.1,0a2.81,2.81,0,0,0-.36.06l-.19,0a3.62,3.62,0,0,0-.48.14,2.8,2.8,0,0,0-.49.19c-.17.07-.33.16-.49.25a5.2,5.2,0,0,0-.55.38,2.37,2.37,0,0,0-.28.22l-.19.18a2.87,2.87,0,0,0-.31.31h0a2.89,2.89,0,0,0-.29.33,2.59,2.59,0,0,0-.22.29.86.86,0,0,0-.12.18,1.8,1.8,0,0,0-.2.3l-.14.22a3.31,3.31,0,0,0-.19.37,1.93,1.93,0,0,0-.09.18,4.71,4.71,0,0,0-.2.5.28.28,0,0,0,0,.07c0,.14-.09.27-.13.41s-.06.19-.08.29-.1.39-.13.59a6.32,6.32,0,0,0-.09.69,7.91,7.91,0,0,0,0,1.42,6.32,6.32,0,0,0,.09.69c0,.2.08.4.13.59s0,.2.08.29.08.27.13.41a.29.29,0,0,0,0,.07,4.72,4.72,0,0,0,.2.5,1.93,1.93,0,0,0,.09.18,3.31,3.31,0,0,0,.19.37l.14.22a1.81,1.81,0,0,0,.2.3,1.14,1.14,0,0,0,.12.18,2.59,2.59,0,0,0,.22.29,2.89,2.89,0,0,0,.29.33,6,6,0,0,0,.51.49,2.36,2.36,0,0,0,.28.22,3.65,3.65,0,0,0,.36.26,4.7,4.7,0,0,0,.68.37,4.42,4.42,0,0,0,1.05.35,3.25,3.25,0,0,0,.56.09,3.66,3.66,0,0,0,.51,0C520.56,319.57,523.19,316.46,523.19,312.61Z"/><path class="cls-10" d="M517.32,305.64c3.24,0,5.87,3.12,5.87,7s-2.63,7-5.87,7a3.66,3.66,0,0,1-.51,0c3-.3,5.36-3.29,5.36-6.93s-2.34-6.62-5.34-6.94Z"/><path class="cls-25" d="M516.83,305.66c3,.33,5.34,3.31,5.34,6.94s-2.36,6.63-5.36,6.93a4.27,4.27,0,0,1-.56-.09,5.43,5.43,0,0,1-1.05-.35,5.61,5.61,0,0,1-.68-.37,3.65,3.65,0,0,1-.36-.26c-.1-.06-.19-.14-.28-.22a6,6,0,0,1-.51-.49,2.89,2.89,0,0,1-.29-.33,2.59,2.59,0,0,1-.22-.29,1.14,1.14,0,0,1-.12-.18,2.48,2.48,0,0,1-.2-.3l-.14-.22-.19-.37a1.93,1.93,0,0,1-.09-.18c-.07-.17-.14-.33-.2-.5a.29.29,0,0,1,0-.07c0-.14-.09-.26-.13-.41s-.06-.19-.08-.29-.1-.39-.13-.59a6.32,6.32,0,0,1-.09-.69,7.91,7.91,0,0,1,0-1.42,6.32,6.32,0,0,1,.09-.69c0-.2.08-.4.13-.59s0-.2.08-.29.09-.27.13-.41a.28.28,0,0,1,0-.07c.06-.18.13-.33.2-.5a1.93,1.93,0,0,1,.09-.18l.19-.37.14-.22a2.47,2.47,0,0,1,.2-.3.86.86,0,0,1,.12-.18,2.59,2.59,0,0,1,.22-.29,2.89,2.89,0,0,1,.29-.33h0a2.87,2.87,0,0,1,.31-.31l.19-.18c.09-.07.18-.15.28-.22a5.2,5.2,0,0,1,.55-.38l.49-.25a5.12,5.12,0,0,1,.49-.19,3.62,3.62,0,0,1,.48-.14l.19,0a2.81,2.81,0,0,1,.36-.06Zm2.86,6.54c0-1.43-.71-2.58-1.59-2.58h-1.59c-.87,0-1.58,1.16-1.58,2.58s.71,2.57,1.58,2.57h1.59C519,314.77,519.69,313.62,519.69,312.2Z"/><path class="cls-26" d="M519.69,302.77c9,2.57,8.27,16.14.26,19.67h-194a12.84,12.84,0,0,1-3.73-2.87,11.62,11.62,0,0,1-1.87-2.81c-.12-.25-.23-.5-.33-.76a10.78,10.78,0,0,1-.74-3.71c0-.28,0-.55,0-.82a10,10,0,0,1,1.43-4.71,5.77,5.77,0,0,1,.46-.72,11.28,11.28,0,0,1,3.62-3.27Zm4.57,9.84c0-4.54-3.09-8.21-6.92-8.21H329c-3.83,0-6.92,3.67-6.92,8.21s3.09,8.21,6.92,8.21H517.34C521.17,320.82,524.26,317.14,524.26,312.61Z"/><path class="cls-27" d="M518.11,309.62c.88,0,1.59,1.16,1.59,2.58s-.71,2.57-1.59,2.57-1.59-1.16-1.59-2.57S517.23,309.62,518.11,309.62Z"/><path class="cls-10" d="M516.52,309.62h1.59c-.88,0-1.59,1.16-1.59,2.58s.71,2.57,1.59,2.57h-1.59c-.87,0-1.58-1.16-1.58-2.57S515.65,309.62,516.52,309.62Z"/><path class="cls-28" d="M485.87,304.4c3.82,0,6.92,3.67,6.92,8.21s-3.1,8.21-6.92,8.21h-.06c-3.8,0-6.86-3.7-6.86-8.21S482,304.4,485.87,304.4Zm5.84,8.21c0-3.85-2.63-7-5.87-7l-.48,0h0l-.1,0h0l-.34,0-.17,0a5.54,5.54,0,0,0-1.46.59,5.16,5.16,0,0,0-.44.29l0,0a4.43,4.43,0,0,0-.44.35h0a5.72,5.72,0,0,0-.79.85,3.36,3.36,0,0,0-.34.49,4,4,0,0,0-.3.5.29.29,0,0,0,0,.09,2.57,2.57,0,0,0-.2.39,5.12,5.12,0,0,0-.19.49.28.28,0,0,0,0,.07c0,.14-.09.27-.13.41s-.06.19-.08.29-.1.39-.13.59a6.35,6.35,0,0,0-.09.69,7.91,7.91,0,0,0,0,1.42,6.34,6.34,0,0,0,.09.69c0,.2.08.4.13.59s0,.2.08.29.08.27.13.41a.28.28,0,0,0,0,.07,5.13,5.13,0,0,0,.19.49,2.57,2.57,0,0,0,.2.39.29.29,0,0,0,0,.09,4,4,0,0,0,.3.5,3.36,3.36,0,0,0,.34.49,5.72,5.72,0,0,0,.79.85h0a4.43,4.43,0,0,0,.44.35l0,0a5,5,0,0,0,.93.54,4.41,4.41,0,0,0,1.05.35,3.25,3.25,0,0,0,.56.09,3.55,3.55,0,0,0,.5,0C489.09,319.57,491.72,316.46,491.72,312.61Z"/><path class="cls-10" d="M485.84,305.64c3.24,0,5.87,3.12,5.87,7s-2.63,7-5.87,7a3.55,3.55,0,0,1-.5,0c3-.3,5.36-3.29,5.36-6.93s-2.34-6.62-5.34-6.94Z"/><path class="cls-29" d="M485.36,305.66c3,.33,5.34,3.31,5.34,6.94s-2.36,6.63-5.36,6.93a4.27,4.27,0,0,1-.56-.09,5.43,5.43,0,0,1-1.05-.35,6,6,0,0,1-.93-.54l0,0-.44-.35h0a6.72,6.72,0,0,1-.79-.85,5.31,5.31,0,0,1-.34-.49,5.24,5.24,0,0,1-.3-.5.29.29,0,0,1,0-.09c-.07-.13-.14-.26-.2-.39a5.13,5.13,0,0,1-.19-.49.28.28,0,0,1,0-.07c0-.14-.09-.26-.13-.41s-.06-.19-.08-.29-.1-.39-.13-.59a6.34,6.34,0,0,1-.09-.69,7.91,7.91,0,0,1,0-1.42,6.35,6.35,0,0,1,.09-.69c0-.2.08-.4.13-.59s0-.2.08-.29.08-.27.13-.41a.28.28,0,0,1,0-.07,5.12,5.12,0,0,1,.19-.49c.06-.14.13-.26.2-.39a.29.29,0,0,1,0-.09,5.24,5.24,0,0,1,.3-.5,5.31,5.31,0,0,1,.34-.49,6.72,6.72,0,0,1,.79-.85h0l.44-.35,0,0,.44-.29.49-.26c.17-.08.34-.14.52-.21a4.1,4.1,0,0,1,.45-.13l.17,0,.34,0h0Zm2.86,6.54c0-1.43-.71-2.58-1.59-2.58h-1.59c-.88,0-1.59,1.16-1.59,2.58s.71,2.57,1.59,2.57h1.59C487.52,314.77,488.23,313.62,488.23,312.2Z"/><path class="cls-10" d="M485.05,309.62h1.59c-.88,0-1.59,1.16-1.59,2.58s.71,2.57,1.59,2.57h-1.59c-.88,0-1.59-1.16-1.59-2.57S484.18,309.62,485.05,309.62Z"/><path class="cls-30" d="M447,304.4c3.82,0,6.92,3.67,6.92,8.21s-3.1,8.21-6.92,8.21h-.06c-3.8,0-6.86-3.7-6.86-8.21S443.16,304.4,447,304.4Zm5.84,8.21c0-3.85-2.63-7-5.87-7l-.49,0h0l-.09,0a1.87,1.87,0,0,0-.36.06l-.22,0a3.28,3.28,0,0,0-.45.14,3.38,3.38,0,0,0-.47.18,4.54,4.54,0,0,0-.44.22l-.26.16a3.32,3.32,0,0,0-.36.26,2.37,2.37,0,0,0-.28.22l-.19.18a2.87,2.87,0,0,0-.31.31h0a2.58,2.58,0,0,0-.3.36,1,1,0,0,0-.14.18,2.55,2.55,0,0,0-.25.35.56.56,0,0,0-.08.13,2.51,2.51,0,0,0-.19.31,3.31,3.31,0,0,0-.19.37,1.9,1.9,0,0,0-.09.18,4.71,4.71,0,0,0-.2.5.28.28,0,0,0,0,.07c0,.14-.09.27-.13.41s-.06.19-.08.29-.1.39-.13.59a6.35,6.35,0,0,0-.09.69,7.91,7.91,0,0,0,0,1.42,6.34,6.34,0,0,0,.09.69c0,.2.08.4.13.59s0,.2.08.29.08.27.13.41a.29.29,0,0,0,0,.07,4.72,4.72,0,0,0,.2.5,1.9,1.9,0,0,0,.09.18,3.31,3.31,0,0,0,.19.37c.09.15.18.29.27.44a2.55,2.55,0,0,0,.25.35c0,.06.1.13.14.19a4.33,4.33,0,0,0,.3.35,6,6,0,0,0,.51.49,2.37,2.37,0,0,0,.28.22,4.88,4.88,0,0,0,.61.41l.41.21,0,0a4.85,4.85,0,0,0,1,.34,3.25,3.25,0,0,0,.56.09,3.58,3.58,0,0,0,.51,0C450.2,319.57,452.83,316.46,452.83,312.61Z"/><path class="cls-10" d="M447,305.64c3.24,0,5.87,3.12,5.87,7s-2.63,7-5.87,7a3.58,3.58,0,0,1-.51,0c3-.3,5.37-3.29,5.37-6.93s-2.35-6.62-5.35-6.94Z"/><path class="cls-31" d="M446.47,305.66c3,.33,5.35,3.31,5.35,6.94s-2.37,6.63-5.37,6.93a4.27,4.27,0,0,1-.56-.09,5.92,5.92,0,0,1-1-.34l0,0-.41-.21a4.88,4.88,0,0,1-.61-.41,2.37,2.37,0,0,1-.28-.22,6,6,0,0,1-.51-.49l-.3-.35c0-.06-.1-.13-.14-.19a2.55,2.55,0,0,1-.25-.35c-.1-.14-.18-.29-.27-.44a3.31,3.31,0,0,1-.19-.37,1.9,1.9,0,0,1-.09-.18c-.07-.17-.14-.33-.2-.5a.29.29,0,0,1,0-.07c0-.14-.09-.26-.13-.41s-.06-.19-.08-.29-.1-.39-.13-.59a6.34,6.34,0,0,1-.09-.69,7.91,7.91,0,0,1,0-1.42,6.35,6.35,0,0,1,.09-.69c0-.2.08-.4.13-.59s0-.2.08-.29.08-.27.13-.41a.28.28,0,0,1,0-.07c.06-.18.13-.33.2-.5a1.9,1.9,0,0,1,.09-.18,5,5,0,0,1,.38-.69.56.56,0,0,1,.08-.13,2.55,2.55,0,0,1,.25-.35,1,1,0,0,1,.14-.18,3.27,3.27,0,0,1,.3-.36h0a2.87,2.87,0,0,1,.31-.31l.19-.18a2.37,2.37,0,0,1,.28-.22,3.32,3.32,0,0,1,.36-.26l.26-.16a4.54,4.54,0,0,1,.44-.22,3,3,0,0,1,.47-.18,3.28,3.28,0,0,1,.45-.14l.22,0a1.87,1.87,0,0,1,.36-.06Zm2.86,6.54c0-1.43-.71-2.58-1.58-2.58h-1.59c-.88,0-1.59,1.16-1.59,2.58s.71,2.57,1.59,2.57h1.59C448.62,314.77,449.33,313.62,449.33,312.2Z"/><path class="cls-32" d="M447.75,309.62c.87,0,1.58,1.16,1.58,2.58s-.71,2.57-1.58,2.57-1.59-1.16-1.59-2.57S446.87,309.62,447.75,309.62Z"/><path class="cls-10" d="M446.17,309.62h1.59c-.88,0-1.59,1.16-1.59,2.58s.71,2.57,1.59,2.57h-1.59c-.88,0-1.59-1.16-1.59-2.57S445.29,309.62,446.17,309.62Z"/><path class="cls-33" d="M498,304.4h19.3c-3.82,0-6.92,3.67-6.92,8.21s3.08,8.18,6.87,8.21H498.56C493.06,317.12,491.73,308,498,304.4Z"/><path class="cls-34" d="M459.43,320.82h26.39c-3.8,0-6.86-3.7-6.86-8.21s3.09-8.21,6.92-8.21h-27C452.61,308,453.93,317.12,459.43,320.82Z"/><path class="cls-35" d="M420.61,320.82h26.32c-3.8,0-6.86-3.7-6.86-8.21s3.09-8.21,6.92-8.21H420.1C413.79,308,415.12,317.12,420.61,320.82Z"/><path class="cls-16" d="M517.34,304.4H498a8,8,0,0,0-3.52,4h16.91A6.77,6.77,0,0,1,517.34,304.4Z"/><path class="cls-16" d="M485.87,304.4h-27a8,8,0,0,0-3.51,4H480A6.77,6.77,0,0,1,485.87,304.4Z"/><path class="cls-16" d="M447,304.4H420.1a8,8,0,0,0-3.51,4h24.49A6.77,6.77,0,0,1,447,304.4Z"/><path class="cls-36" d="M416.16,309.62h22.29l.61,5.48-22.47.48A10.42,10.42,0,0,1,416.16,309.62Z"/><path class="cls-37" d="M455,309.62h22.29l.61,5.48-22.47.48A10.42,10.42,0,0,1,455,309.62Z"/><path class="cls-38" d="M494.1,309.62h14.73l.61,5.48-14.91.48A10.42,10.42,0,0,1,494.1,309.62Z"/><path class="cls-39" d="M326,322.44H299.1a8.91,8.91,0,0,1-3-2.47,202.1,202.1,0,0,0,26.14-.4A12.84,12.84,0,0,0,326,322.44Z"/><path class="cls-39" d="M321.18,306h0a5.77,5.77,0,0,0-.46.72H294.49a6.38,6.38,0,0,1,.41-.72Z"/><path class="cls-39" d="M320.35,316.76H294.24c-.1-.25-.19-.5-.27-.76H320C320.12,316.26,320.23,316.51,320.35,316.76Z"/><path class="cls-40" d="M298.41,302.77h26.39a11.28,11.28,0,0,0-3.62,3.27H294.9A9.22,9.22,0,0,1,298.41,302.77Zm-3.92,4a11.15,11.15,0,0,0-1.17,4.72h26a10,10,0,0,1,1.43-4.71H294.49Zm-.26,10a11.81,11.81,0,0,0,1.83,3.21h0a202.1,202.1,0,0,0,26.14-.4,11.61,11.61,0,0,1-1.87-2.81Zm25-4.47h-26A13.65,13.65,0,0,0,294,316H320A10.78,10.78,0,0,1,319.28,312.29Z"/><path class="cls-39" d="M319.3,311.47c0,.27,0,.54,0,.82h-26c0-.27,0-.55,0-.82h26Z"/><path class="cls-41" d="M298.41,303.13c-3.37,2.7-4.45,5.56-4.61,9.73l24.59.47c.07-5.29,1.46-7,4.44-10.21Z"/><path class="cls-39" d="M519.62,312.18v13.22h-3.44l.26-13.22C516.9,308.73,519.3,308.76,519.62,312.18Z"/><path class="cls-39" d="M484.93,312.18l-.26,13.22h3.44V312.18C487.78,308.76,485.39,308.73,484.93,312.18Z"/><path class="cls-39" d="M446.08,312.18l-.27,13.22h3.44V312.18C448.92,308.76,446.53,308.73,446.08,312.18Z"/><path class="cls-39" d="M327.77,312.18l-.26,13.22h3.43V312.18C330.62,308.76,328.23,308.73,327.77,312.18Z"/><polygon class="cls-42" points="503.06 322.43 503.06 325.41 499.54 325.41 499.74 322.43 503.06 322.43"/><polygon class="cls-42" points="463.62 322.43 463.62 325.41 460.1 325.41 460.3 322.43 463.62 322.43"/><polygon class="cls-42" points="424.18 322.43 424.18 325.41 420.66 325.41 420.86 322.43 424.18 322.43"/><polygon class="cls-42" points="384.74 322.43 384.74 325.41 381.22 325.41 381.42 322.43 384.74 322.43"/><polygon class="cls-42" points="345.3 322.43 345.3 325.41 341.78 325.41 341.99 322.43 345.3 322.43"/><polygon class="cls-42" points="305.86 322.43 305.86 325.41 302.34 325.41 302.55 322.43 305.86 322.43"/><path class="cls-43" d="M520.61,312.18v13.22h-3.44l.26-13.22C517.89,308.73,520.28,308.76,520.61,312.18Z"/><path class="cls-44" d="M485.92,312.18l-.26,13.22h3.44V312.18C488.76,308.76,486.37,308.73,485.92,312.18Z"/><path class="cls-45" d="M447.06,312.18l-.27,13.22h3.44V312.18C449.91,308.76,447.52,308.73,447.06,312.18Z"/><path class="cls-39" d="M406.84,312.18l-.27,13.22H410V312.18C409.68,308.76,407.29,308.73,406.84,312.18Z"/><path class="cls-46" d="M407.82,312.18l-.27,13.22H411V312.18C410.67,308.76,408.27,308.73,407.82,312.18Z"/><path class="cls-47" d="M328.76,312.18l-.26,13.22h3.43V312.18C331.6,308.76,329.21,308.73,328.76,312.18Z"/><path class="cls-39" d="M367.67,312.18l-.26,13.22h3.43V312.18C370.52,308.76,368.12,308.73,367.67,312.18Z"/><path class="cls-48" d="M368.65,312.18l-.26,13.22h3.43V312.18C371.5,308.76,369.11,308.73,368.65,312.18Z"/><polygon class="cls-49" points="525.28 357.71 526.21 360.82 321.54 360.82 322.02 357.71 323.18 357.71 523.52 357.71 525.28 357.71"/><path class="cls-50" d="M520.86,325.41l2.66,32.31H323.18l1.67-32.31h196Zm-2.46,29.33L518.2,329H480.77l-1.39,25.7Zm-40.85,0,1.15-25.7H443.15l.79,25.7Zm-36,0-.18-25.7H404.82l-1.39,25.7Zm63-25.1-.31,1.94H496l-.32-1.94h-14.3L480,354.14h37.77l-.18-24.5Zm-38.46,0-.32,1.94H457.5l-.31-1.94H443.77l.74,24.5H477l1.09-24.5Zm-38.47,0-.31,1.94H419l-.32-1.94H405.38l-1.32,24.5h36.87l-.18-24.5Z"/><polygon class="cls-51" points="324.84 325.41 323.18 357.71 322.02 357.71 294.61 357.71 297.27 325.41 300.11 325.41 303.63 325.41 324.84 325.41"/><polygon class="cls-52" points="322.02 357.71 321.54 360.82 292.41 360.82 293.32 357.71 294.61 357.71 322.02 357.71"/><polygon class="cls-53" points="298.42 326.77 296.69 353.43 323.18 339.08 324.13 326.77 298.42 326.77"/><polygon class="cls-54" points="325.62 326.23 324.84 356.94 334.17 356.94 337.76 331.38 520.22 329.41 520.02 326.23 325.62 326.23"/><path class="cls-10" d="M518.2,329l.19,25.7h-39l1.39-25.7Zm-.41,25.1-.18-24.5H504.5l-.31,1.94H496l-.32-1.94h-14.3L480,354.14ZM478.69,329l-1.15,25.7H443.94l-.79-25.7ZM477,354.14l1.09-24.5H466l-.32,1.94H457.5l-.31-1.94H443.77l.74,24.5ZM441.36,329l.18,25.7H403.43l1.39-25.7Zm-.42,25.1-.18-24.5H427.57l-.31,1.94H419l-.32-1.94H405.38l-1.32,24.5Z"/><path class="cls-10" d="M403.43,329l-1.6,25.7H363.24l1.39-25.7Zm-2.2,25.1,1.61-24.5H388.36l-.31,1.94h-8.23l-.32-1.94H365.2l-1.33,24.5ZM362.55,329l-1.15,25.7H327.79L327,329Zm-1.72,25.1,1.09-24.5h-12l-.32,1.94h-8.23l-.31-1.94H327.63l.74,24.5Z"/></g><polygon class="cls-55" points="284.9 275.51 284.56 280.23 283.18 280.06 283.18 275.51 284.89 275.51 284.9 275.51"/><polygon class="cls-55" points="264.77 275.51 264.43 280.23 263.04 280.06 263.04 275.51 264.76 275.51 264.77 275.51"/><polygon class="cls-55" points="264.77 262.54 264.43 267.26 263.04 267.08 263.04 262.54 264.76 262.54 264.77 262.54"/><polygon class="cls-55" points="284.9 262.54 284.56 267.26 283.18 267.08 283.18 262.54 284.89 262.54 284.9 262.54"/><polygon class="cls-56" points="300.94 275.51 300.35 280.23 298.92 280.23 297.75 280.23 284.56 280.23 284.9 275.51 300.94 275.51"/><polygon class="cls-57" points="280.81 275.51 280.22 280.23 278.79 280.23 277.62 280.23 264.43 280.23 264.77 275.51 280.81 275.51"/><polygon class="cls-58" points="280.81 262.54 280.22 267.26 278.79 267.26 277.62 267.26 264.43 267.26 264.77 262.54 280.81 262.54"/><polygon class="cls-59" points="300.94 262.54 300.35 267.26 298.92 267.26 297.75 267.26 284.56 267.26 284.9 262.54 300.94 262.54"/><path class="cls-60" d="M312.77,291.05l-5.48,6.46a4,4,0,0,1-1-.85l4.69-7.39.21.11a3.7,3.7,0,0,1,.65.5A4.39,4.39,0,0,1,312.77,291.05Z"/><path class="cls-60" d="M313,282.27h0a4.44,4.44,0,0,1-1.74,2.21l-5.54-6.38a4.23,4.23,0,0,1,.87-1.16Z"/><path class="cls-60" d="M312.77,265.1l-5.48,6.45a4,4,0,0,1-1-.85l4.69-7.38A4.16,4.16,0,0,1,312.77,265.1Z"/><path class="cls-61" d="M309.26,288.81a3.55,3.55,0,0,1,1.59.37,3.7,3.7,0,0,0-1.59-.36,4.39,4.39,0,0,0-4.09,4.63,4.93,4.93,0,0,0,1.14,3.21,4,4,0,0,0,1,.85,3.61,3.61,0,0,0,2,.59c-.14,0-1.49.32-2.08.32a5,5,0,0,1,0-9.92C307.77,288.5,309.12,288.81,309.26,288.81Z"/><path class="cls-61" d="M306.62,276.95a4.23,4.23,0,0,0-.87,1.16,5,5,0,0,0-.58,2.37,4.39,4.39,0,0,0,4.09,4.63,20.8,20.8,0,0,1-2.08.33,4.69,4.69,0,0,1-4.37-5c0-2.74,2-5,4.37-5a20.8,20.8,0,0,1,2.08.33A3.75,3.75,0,0,0,306.62,276.95Z"/><path class="cls-61" d="M307.19,262.54a20.8,20.8,0,0,1,2.08.33,4.39,4.39,0,0,0-4.09,4.63,4.93,4.93,0,0,0,1.14,3.21,4,4,0,0,0,1,.85,3.61,3.61,0,0,0,2,.59,20.8,20.8,0,0,1-2.08.33c-2.41,0-4.37-2.23-4.37-5A4.69,4.69,0,0,1,307.19,262.54Z"/><path class="cls-62" d="M312.77,291.05a5.13,5.13,0,0,1,.59,2.4,4.39,4.39,0,0,1-4.09,4.64,3.61,3.61,0,0,1-2-.59Zm-1.91-1.87a3.7,3.7,0,0,0-1.59-.36,4.39,4.39,0,0,0-4.09,4.63,4.93,4.93,0,0,0,1.14,3.21l4.69-7.39Z"/><path class="cls-63" d="M305.75,278.11l5.54,6.38a3.58,3.58,0,0,1-2,.62,4.39,4.39,0,0,1-4.09-4.63A5,5,0,0,1,305.75,278.11Zm3.51-2.27a3.75,3.75,0,0,0-2.64,1.11l6.41,5.33a4.87,4.87,0,0,0,.33-1.79A4.39,4.39,0,0,0,309.26,275.84Z"/><path class="cls-64" d="M311,263.32l-4.69,7.38a4.93,4.93,0,0,1-1.14-3.21,4.39,4.39,0,0,1,4.09-4.63A3.58,3.58,0,0,1,311,263.32Zm-3.72,8.23a3.61,3.61,0,0,0,2,.59,4.39,4.39,0,0,0,4.09-4.64,5.09,5.09,0,0,0-.59-2.39Z"/><path class="cls-65" d="M293.79,292.55a2.32,2.32,0,1,1-2.09,2.31A2.21,2.21,0,0,1,293.79,292.55Z"/><ellipse class="cls-65" cx="285.05" cy="294.86" rx="2.09" ry="2.31"/><ellipse class="cls-65" cx="276.3" cy="294.86" rx="2.09" ry="2.31"/><ellipse class="cls-65" cx="267.56" cy="294.86" rx="2.09" ry="2.31"/><path class="cls-66" d="M293.38,291.59a3.26,3.26,0,1,1-3.26,3.26A3.26,3.26,0,0,1,293.38,291.59Zm2.51,3.26a2.1,2.1,0,1,0-2.1,2.31A2.21,2.21,0,0,0,295.89,294.86Z"/><path class="cls-67" d="M284.63,291.59a3.26,3.26,0,1,1-3.26,3.26A3.27,3.27,0,0,1,284.63,291.59Zm2.5,3.26a2.1,2.1,0,1,0-2.09,2.31A2.21,2.21,0,0,0,287.13,294.86Z"/><path class="cls-68" d="M275.88,291.59a3.26,3.26,0,1,1-3.26,3.26A3.26,3.26,0,0,1,275.88,291.59Zm2.51,3.26a2.1,2.1,0,1,0-2.09,2.31A2.21,2.21,0,0,0,278.39,294.86Z"/><path class="cls-69" d="M267.13,291.59a3.26,3.26,0,1,1-3.26,3.26A3.26,3.26,0,0,1,267.13,291.59Zm2.51,3.26a2.1,2.1,0,1,0-2.09,2.31A2.21,2.21,0,0,0,269.65,294.86Z"/><rect class="cls-39" x="297.75" y="280.23" width="1.17" height="4.72"/><polygon class="cls-39" points="297.75 280.23 297.75 284.95 283.18 284.95 283.18 280.06 284.56 280.23 297.75 280.23"/><rect class="cls-39" x="277.62" y="280.23" width="1.17" height="4.72"/><polygon class="cls-39" points="277.62 280.23 277.62 284.95 263.04 284.95 263.04 280.06 264.43 280.23 277.62 280.23"/><rect class="cls-39" x="277.62" y="267.26" width="1.17" height="4.72"/><path class="cls-70" d="M257.9,257.63l.64,47.24h60l.7-48.22H257.89ZM328,146.47l-2.65,214.35H250.06V146.47Zm-7.78,38.59.34-32.11H257.12l.35,32.11Zm-.84,63.21.84-57.66H257v1l.77,56.66h61.59Zm-1.53,106.8.61-42.52h-59.8l.57,42.52Z"/><polygon class="cls-39" points="320.21 190.62 319.38 248.28 318.18 248.28 318.74 191.92 257.01 191.62 257 190.62 320.21 190.62"/><polygon class="cls-39" points="319.26 256.65 318.56 304.87 317.35 304.87 318.45 257.63 257.9 257.63 257.89 256.65 319.26 256.65"/><path class="cls-71" d="M318.74,191.92l-.55,56.36h-60.4L257,191.62Zm-4.12,48.23v-44h-53v43.54l51.79.41Zm-45.05,4.67.22-2.69h-7l.22,2.69Z"/><path class="cls-72" d="M311,289.27l-.15-.09a3.55,3.55,0,0,0-1.59-.37c-.14,0-1.49-.32-2.08-.32a5,5,0,0,0,0,9.92c.59,0,1.94-.32,2.08-.32a4.39,4.39,0,0,0,4.09-4.64,5.13,5.13,0,0,0-.59-2.4,4.39,4.39,0,0,0-.9-1.17,3.25,3.25,0,0,0-.65-.5Zm.28-4.77a4.44,4.44,0,0,0,1.74-2.21h0a4.87,4.87,0,0,0,.33-1.79,4.39,4.39,0,0,0-4.09-4.64,20.8,20.8,0,0,0-2.08-.33c-2.41,0-4.37,2.23-4.37,5a4.69,4.69,0,0,0,4.37,5,20.8,20.8,0,0,0,2.08-.33A3.58,3.58,0,0,0,311.29,284.49Zm1.48-19.39a4.16,4.16,0,0,0-1.76-1.78,3.58,3.58,0,0,0-1.74-.46,20.8,20.8,0,0,0-2.08-.33,4.69,4.69,0,0,0-4.37,5c0,2.74,2,5,4.37,5a20.8,20.8,0,0,0,2.08-.33,4.39,4.39,0,0,0,4.09-4.64A5.09,5.09,0,0,0,312.77,265.1Zm5.69-7.47-1.1,47.24H258.54l-.64-47.24Zm-18.11,9.62.6-4.72H283.18V272h15.75v-4.72Zm0,13,.6-4.72H283.18v9.44h15.75v-4.72Zm-3.71,14.63a3.26,3.26,0,1,0-3.26,3.26A3.26,3.26,0,0,0,296.64,294.86Zm-8.74,0a3.26,3.26,0,1,0-3.26,3.26A3.27,3.27,0,0,0,287.89,294.86Zm-7.68-27.6.6-4.72H263V272h15.76v-4.72Zm0,13,.6-4.72H263v9.44h15.76v-4.72Zm-1.08,14.63a3.26,3.26,0,1,0-3.26,3.26A3.26,3.26,0,0,0,279.14,294.86Zm-8.74,0a3.26,3.26,0,1,0-3.26,3.26A3.26,3.26,0,0,0,270.4,294.86Z"/><path class="cls-10" d="M318.45,312.56l-.61,42.52H259.22l-.57-42.52ZM316.77,354l.59-40.36H310l-1.19,4h-9.16l-1.25-4H290L289.62,354Zm-27.84,0V313.65h-9.65l-1.17,4h-9.17l-1.25-4h-7.94l.54,40.36Z"/><polygon class="cls-73" points="317.35 313.65 316.77 354 289.62 354 289.97 313.65 298.44 313.65 299.69 317.65 308.85 317.65 310.04 313.65 317.35 313.65"/><polygon class="cls-39" points="314.61 196.18 314.61 240.15 313.36 240.13 313.36 197.66 261.58 197.1 261.58 196.18 314.61 196.18"/><polygon class="cls-74" points="313.36 197.66 313.36 240.13 261.58 239.72 261.58 197.1 313.36 197.66"/><polygon class="cls-75" points="310.68 161.75 309.94 169.71 283.13 169.71 282.01 161.75 310.68 161.75"/><polygon class="cls-75" points="309.2 173.36 308.97 176.76 285.13 176.52 284.4 173.36 309.2 173.36"/><rect class="cls-39" x="297.75" y="267.26" width="1.17" height="4.72"/><polygon class="cls-39" points="297.75 267.26 297.75 271.98 283.18 271.98 283.18 267.08 284.56 267.26 297.75 267.26"/><polygon class="cls-76" points="288.93 313.65 288.93 354 260.3 354 259.75 313.65 267.69 313.65 268.94 317.65 278.11 317.65 279.28 313.65 288.93 313.65"/><path class="cls-75" d="M275.16,160.2l9.07,18.8H265.51Zm6.5,17.44-6.5-11.91s-7,11.69-7.13,11.91Z"/><path class="cls-75" d="M320.55,153l-.34,32.11H257.47L257.12,153Zm-10.61,16.76.74-8H282l1.12,8Zm-1,7,.23-3.39H284.4l.73,3.15ZM284.23,179l-9.07-18.8L265.51,179Zm-9.07-13.27,6.5,11.91H268C268.17,177.42,275.16,165.73,275.16,165.73Zm.25,8.26.26-5.46h-1.15l.26,5.46Zm.21,1.83c0-.51-.24-.92-.52-.92s-.52.41-.52.92.24.92.52.92S275.62,176.33,275.62,175.82Z"/><polygon class="cls-39" points="277.62 267.26 277.62 271.98 263.04 271.98 263.04 267.08 264.43 267.26 277.62 267.26"/><polygon class="cls-75" points="275.67 168.54 275.41 174 274.78 174 274.52 168.54 275.67 168.54"/><ellipse class="cls-75" cx="275.1" cy="175.82" rx="0.52" ry="0.92"/><polygon class="cls-65" points="269.78 242.13 269.56 244.81 263 244.81 262.79 242.13 269.78 242.13"/><polygon class="cls-77" points="250.06 146.47 250.06 360.82 229.2 360.82 226.55 146.47 250.06 146.47"/><polygon class="cls-78" points="280.22 263.06 279.66 264.9 278.34 264.9 277.25 264.9 265.02 264.9 265.35 263.06 280.22 263.06"/><polygon class="cls-79" points="300.35 263.06 299.79 264.9 298.47 264.9 297.38 264.9 285.15 264.9 285.48 263.06 300.35 263.06"/><polygon class="cls-80" points="280.22 276.03 279.66 277.87 278.34 277.87 277.25 277.87 265.02 277.87 265.35 276.03 280.22 276.03"/><polygon class="cls-81" points="300.35 276.03 299.79 277.87 298.47 277.87 297.38 277.87 285.15 277.87 285.48 276.03 300.35 276.03"/><path class="cls-65" d="M284.36,223.74H264.22v-1.23h20.14Zm11.49-1.23h-9v1.23h9Z"/><rect class="cls-65" x="264.22" y="230.14" width="7.07" height="1.23"/><rect class="cls-65" x="273.73" y="230.14" width="7.05" height="1.23"/><rect class="cls-65" x="282.47" y="230.14" width="9.19" height="1.23"/><path class="cls-65" d="M278.41,226.29H264.22v-1.23h14.19Zm7.29-1.23h-5.47v1.23h5.47Zm8.9,0h-8.9v1.23h8.9Z"/><path class="cls-65" d="M283.26,228.83h-19V227.6h19Zm15.79-1.23H285.7v1.23h13.35Z"/><path class="cls-65" d="M281.44,211.68H264.22v-1.23h17.22Zm11.91-1.23h-9.47v1.23h9.47Zm5.48,0H295v1.23h3.78Z"/><rect class="cls-65" x="264.22" y="218.08" width="6.18" height="1.23"/><rect class="cls-65" x="272.4" y="218.08" width="4.65" height="1.23"/><rect class="cls-65" x="278.74" y="218.08" width="15.46" height="1.23"/><path class="cls-65" d="M276,214.22H264.22V213H276Zm9.24-1.23h-6.83v1.23h6.83Zm9.89,0h-8.47v1.23h8.47Z"/><path class="cls-65" d="M279.39,216.77H264.22v-1.23h15.17Zm8.84-1.23h-6.4v1.23h6.4Z"/><path class="cls-65" d="M270,204.92h-5.74V203.7H270Zm10.11-1.23h-8.13v1.23h8.13Zm8.48,0h-7.11v1.23h7.11Z"/><path class="cls-65" d="M282.08,202.38H264.22v-1.23h17.86Zm12.47-1.23H284.06v1.23h10.49Z"/><path class="cls-65" d="M282.08,207.36H264.22v-1.23h17.86Z"/><path class="cls-65" d="M310.78,223.74h-8.21v-1.23h8.21Z"/><rect class="cls-65" x="302.58" y="230.14" width="2.88" height="1.23"/><rect class="cls-65" x="306.45" y="230.14" width="2.87" height="1.23"/><path class="cls-65" d="M308.36,226.29h-5.79v-1.23h5.79Z"/><path class="cls-65" d="M310.34,228.83h-7.76V227.6h7.76Z"/><path class="cls-65" d="M309.59,211.68h-7v-1.23h7Z"/><rect class="cls-65" x="302.58" y="218.08" width="2.52" height="1.23"/><rect class="cls-65" x="305.91" y="218.08" width="1.89" height="1.23"/><path class="cls-65" d="M307.38,214.22h-4.8V213h4.8Zm3.77-1.23h-2.78v1.23h2.78Z"/><path class="cls-65" d="M308.76,216.77h-6.18v-1.23h6.18Z"/><path class="cls-65" d="M304.91,204.92h-2.34V203.7h2.34ZM309,203.7h-3.31v1.23H309Z"/><rect class="cls-65" x="302.58" y="201.15" width="7.28" height="1.23"/><path class="cls-65" d="M309.86,207.36h-7.28v-1.23h7.28Z"/><path class="cls-82" d="M280.23,198.41l13.13,40.16h-6.88l-21.14-40.16Zm3.83,0,11.55,40.16h6.88L299,198.41Z"/><polygon class="cls-83" points="251.17 147.59 326.24 148.7 324.1 359.71 320.95 359.71 323.55 150.77 251.91 150.77 251.17 147.59"/><polygon class="cls-84" points="260.54 314.32 267.13 314.32 268.38 318.55 278.39 318.55 280.22 314.32 288.18 314.32 288.18 353.33 285.32 353.33 286.62 315.85 281.71 315.8 279.58 320.06 267.6 320.1 265.98 315.43 261.44 315.61 260.54 317.14 260.54 314.32"/><polygon class="cls-85" points="290.37 314.32 298 314.32 299.34 318.44 309.11 318.2 310.54 314.32 316.51 314.32 316.21 353.61 314.68 353.61 314.68 315.98 311.49 315.71 309.82 319.73 298.23 319.66 297.05 315.29 291.08 315.22 290.37 316.68 290.37 314.32"/><polygon class="cls-86" points="335.7 179.46 335.7 182.98 344.31 185.71 345.85 196.83 356.19 200.14 356.5 198.82 358.54 190.49 357.27 182.13 353.71 178.65 347.44 179.29 346.59 181.48 346.59 185.99 348.83 186.28 350.73 182.15 354.31 183.87 354.31 195.64 351.47 195.64 351.75 187.4 345.9 186.5 346.59 181.48 335.7 179.46"/><polygon class="cls-87" points="346.59 181.48 345.9 186.5 351.75 187.4 351.47 195.64 354.31 195.64 354.31 183.87 350.73 182.15 348.83 186.28 346.59 185.99 346.59 181.48"/><path class="cls-88" d="M356.5,198.82l-.32,1.32c1.71,1,3.39,2.09,5.08,3.13l.3-2Z"/><path class="cls-4" d="M358.54,190.49l-2,8.33,5.07,2.46,1.52-9.82C361.59,191.11,360.08,190.79,358.54,190.49Z"/><path class="cls-75" d="M361.57,201.28l-.3,2c6,3.66,12,7.27,18.91,10.67,10.5-4.93,19.65-10.44,26.91-16.72l-1.62-5h0l-25.7,17.88Z"/><path class="cls-89" d="M363.09,191.46l-1.52,9.82,18.18,8.83,25.7-17.88h0L397.88,169a198.38,198.38,0,0,0-18.63,27.51A106.83,106.83,0,0,0,363.09,191.46Z"/><path class="cls-90" d="M432.48,218.75l8.36.16c-.49,2.92-.91,5.86-1.26,8.83l-6.86-.6Z"/><path class="cls-91" d="M432.48,218.75l.24,8.4-22.56-2c.16-2.27.35-4.54.58-6.83Z"/><path class="cls-91" d="M390.78,215.34l18.53,3q-.3,3.39-.49,6.86l-17.28-.77C391.28,221.32,391,218.21,390.78,215.34Z"/><path class="cls-75" d="M438.28,245.46c0,.46,0,.92.08,1.38l-5.07-.57,0-1.28Z"/><path class="cls-75" d="M412.16,243l21.08,2,0,1.28-21.38-2.41-2.29-3.19-1.81,3.19-14.69-.47c0-.38-.07-.76-.09-1.14l13.32.53,2.27-3.34.49-.72.51.72Z"/><path class="cls-75" d="M432.72,227.15l6.86.6q-1,8.72-1.3,17.72l-5-.47Z"/><path class="cls-75" d="M459.56,173.59c-.87,11.2-2.19,21.6-5.22,29.23-5,2.18-9.09,6-12.6,11.09-.32,1.66-.62,3.33-.91,5l-8.36-.16-.15-4.84,14.82-13.28,6.74-29.25C455.79,172.08,457.73,172.82,459.56,173.59Z"/><path class="cls-88" d="M462.34,359l-13.08-7.24a45.44,45.44,0,0,1,4.94-.92,40.32,40.32,0,0,1,14.47,7.34,11.16,11.16,0,0,1,2.54,6.45h-7.72Z"/><path class="cls-88" d="M426.54,364.65h-4.72q-1-5.8-1.88-11.56c1.56.5,3.12,1.05,4.69,1.66h0C425.24,358,425.88,361.34,426.54,364.65Z"/><path class="cls-4" d="M462.34,359l1.15,5.64h-25.9c-.47-2.45-1-4.9-1.43-7.34a43.67,43.67,0,0,1,13.09-5.53h0Z"/><path class="cls-4" d="M421.82,364.65h-27.9c-1.14-2.5-1.91-4.86-1.56-6.79a25.7,25.7,0,0,1,11.92-7.6,55.24,55.24,0,0,1,15.66,2.83Q420.87,358.85,421.82,364.65Z"/><path class="cls-75" d="M424.64,354.75h0c-1.57-.61-3.14-1.16-4.69-1.66-5.34-33.28-9.85-65.11-12.85-94.45l12.09,4.84-6.51-1.37A854.36,854.36,0,0,0,424.64,354.75Z"/><path class="cls-75" d="M449.25,351.78,433.79,263l-.5-16.74,5.07.57a537.32,537.32,0,0,0,15.84,104,45.44,45.44,0,0,0-4.94.92Z"/><path class="cls-89" d="M433.79,263l15.46,88.76a43.67,43.67,0,0,0-13.09,5.53c-6.41-32.27-13.61-63.88-17-93.83l-12.09-4.84c3,29.35,7.51,61.17,12.85,94.45a55.24,55.24,0,0,0-15.66-2.83c-4.63-34.53-8.09-70.26-11.16-106.87l14.69.47,1.81-3.19,2.29,3.19,21.38,2.41Z"/><path class="cls-75" d="M413.08,198.15l.62-.91c-1.26,7.07-2.26,14.11-3,21.1-.23,2.29-.42,4.56-.58,6.83-.34,4.77-.53,9.53-.54,14.27l-.51-.72-.49.72c-.12-4.84,0-9.6.2-14.27q.18-3.47.49-6.86a180.33,180.33,0,0,1,3.34-21.87C412.8,197,412.93,197.59,413.08,198.15Z"/><path class="cls-89" d="M432.72,227.15l.53,17.84-21.08-2-2.54-3.57c0-4.73.2-9.49.54-14.27Zm-39.84,13.36c.05.58.09,1.16.15,1.74l13.32.53,2.27-3.34c-.12-4.84,0-9.6.2-14.27l-17.28-.77C392.06,230.83,392.58,237.08,392.88,240.51Zm14.21-66.7.89-4.67,3.6-2.47a69.94,69.94,0,0,0-13.7,2.31c-5.53,9.17-7.88,20.84-8.11,34.18,0,.27.46,5.54,1,12.19l18.53,3a180.33,180.33,0,0,1,3.34-21.87,100,100,0,0,1-3.19-22.64c0-.6,0-1.19,0-1.79ZM443,167.64l-11.51,9.62-1-1.19c-.51.5-1,1-1.56,1.6a168.93,168.93,0,0,0-15.23,19.58c-1.26,7.07-2.26,14.11-3,21.1l21.73.41-.15-4.84,14.82-13.28,6.74-29.25C449.76,169.85,445.73,168.52,443,167.64Z"/><path class="cls-89" d="M424.56,172.61l4.37,5.06a168.93,168.93,0,0,0-15.23,19.58l-.62.91c-.15-.57-.28-1.14-.43-1.7a100,100,0,0,1-3.19-22.64l5.26-3.54,2.07,9.76Z"/><path class="cls-75" d="M424.56,169.14l5.92,6.92c-.51.5-1,1-1.56,1.6l-4.37-5.06L416.79,180l-2.07-9.76-5.26,3.54c0-.6,0-1.19,0-1.79l6-4.52,1.65,11.14Z"/><polygon class="cls-89" points="415.49 164.49 415.49 167.51 409.48 172.03 407.09 173.81 407.98 169.15 411.58 166.67 415.49 164.49"/><polygon class="cls-89" points="438.81 163.28 443.01 167.64 431.5 177.26 430.49 176.07 424.56 169.15 438.81 163.28"/><path class="cls-87" d="M438.8,163.28l-14.24,5.87-7.42,9.51-1.65-11.14v-3C421.93,163,430,162.9,438.8,163.28Z"/><path class="cls-92" d="M408,169.14l-.89,4.67,2.39-1.79c0,.59,0,1.19,0,1.79a100,100,0,0,0,3.19,22.64,180.32,180.32,0,0,0-3.34,21.87l-18.53-3c-.55-6.64-1-11.92-1-12.19.23-13.34,2.58-25,8.11-34.18a70,70,0,0,1,13.7-2.31Zm-16.45,55.26c.53,6.42,1,12.67,1.34,16.11.05.58.09,1.16.15,1.74l7.08.28q4.34-5.21,8.48-10.37.05-3.53.24-7Zm18.62.77c-.13,1.8-.21,3.6-.3,5.39q2-2.54,4-5.07ZM443,167.64l-11.51,9.62-1-1.19c-.51.5-1,1-1.56,1.6a168.93,168.93,0,0,0-15.23,19.58c-1.26,7.07-2.26,14.11-3,21.1l8.46.16c13-17.4,23.38-34.06,28.57-49.29C446,168.61,444.33,168.07,443,167.64Z"/><path class="cls-75" d="M485.27,211.45c.28.6.57,1.2.84,1.81a128.36,128.36,0,0,1-19.89,17.07c-.6-.69-1.18-1.41-1.72-2.12A237.84,237.84,0,0,0,485.27,211.45Z"/><path class="cls-89" d="M459.56,173.59c10.55,10.18,18.88,23.1,25.71,37.85a237.84,237.84,0,0,1-20.77,16.76,42.85,42.85,0,0,1-6.9-12.51h0q2.31-2.72,4.52-5.79c-6.31-6-8.36-8.3-11.39-15.25C452.57,186.6,454.63,178.65,459.56,173.59Z"/><path class="cls-88" d="M466.22,230.33a71.74,71.74,0,0,1-7.22,4.29c-.5-.62-1-1.26-1.43-1.89,2.26-1.34,4.57-2.85,6.94-4.52C465,228.92,465.62,229.64,466.22,230.33Z"/><path class="cls-4" d="M464.5,228.21c-2.37,1.66-4.68,3.18-6.94,4.52a25.94,25.94,0,0,1-4.86-11.81,67.34,67.34,0,0,0,4.88-5.23h0A42.85,42.85,0,0,0,464.5,228.21Z"/><path class="cls-87" d="M457.56,232.72c.46.64.93,1.27,1.43,1.89a48,48,0,0,1-14.24,4.83l-5.18-.72a73,73,0,0,0,12.05-2.84C453.56,235,455.53,233.91,457.56,232.72Z"/><path class="cls-86" d="M452.71,220.92a25.94,25.94,0,0,0,4.86,11.81c-2,1.19-4,2.26-5.94,3.16a73,73,0,0,1-12.05,2.84q-.28-1.42-.61-2.84l5-1.53-.18-1a27.67,27.67,0,0,0-5.13,1.47c-.2-.87-.42-1.73-.66-2.6h0l5.06-1.43-.26-1.12a20.52,20.52,0,0,0-5.06,1.6h0c-.27-1-.57-2.06-.89-3.1h0l5.91-3-.07-.73-3.65-.93L435,227.92l-1.34-2.23,3.07-5.09,6.41-.54a11.24,11.24,0,0,1,3.31,1.18,88.81,88.81,0,0,1,1.47,10.9l3.27.84a24.69,24.69,0,0,0-1.93-9C450.42,223,451.57,222,452.71,220.92Z"/><path class="cls-87" d="M451.18,233l-3.27-.84a88.81,88.81,0,0,0-1.47-10.9l2.81,2.73A24.69,24.69,0,0,1,451.18,233Z"/><path class="cls-87" d="M443.84,233.35l.18,1-5,1.53c-.08-.37-.16-.72-.26-1.07A27.67,27.67,0,0,1,443.84,233.35Z"/><path class="cls-87" d="M442.86,229.67l.26,1.12-5.06,1.43h0c-.07-.31-.16-.64-.26-1h0A20.52,20.52,0,0,1,442.86,229.67Z"/><path class="cls-87" d="M442.75,224.45l.07.73-5.91,3h0l-.12-.42-1.8.18,4.13-4.41Z"/><path class="cls-4" d="M442.77,113.15a25.14,25.14,0,0,1,2.77,21.76,52.13,52.13,0,0,0-12.13-8.28,51.18,51.18,0,0,0-10.09-5,78.1,78.1,0,0,0-15.77.49c1.88-7,5.87-12.77,14.39-16A35.08,35.08,0,0,1,442.77,113.15Z"/><path class="cls-93" d="M408.24,122.58c2-6.9,6.51-12.19,13.68-15.71,6.94,0,13.69,2.6,20.33,6.73a15.83,15.83,0,0,1,2.68,5.65,22.53,22.53,0,0,0-3.32-5c-6.25-2.48-12.26-4.33-17.57-4.36-2.46,3.5-2.95,7.79-2.55,12.43Z"/><path class="cls-75" d="M445.08,140.55A2.74,2.74,0,0,0,442.6,142l-9-1.65-1.11,3.52-1.79.35a63.39,63.39,0,0,0,1.64-14.12l2.14,1.54-.05,2.53,10.78,4.9Z"/><path class="cls-89" d="M432.33,130.09a63.39,63.39,0,0,1-1.64,14.12H419.25a53.77,53.77,0,0,0-1.11-7.34,7.23,7.23,0,0,0-3.8-.46,28.34,28.34,0,0,0-2.46,7.6H404.1a59.66,59.66,0,0,1-.91-12l3.29-.16Z"/><path class="cls-5" d="M433.41,126.64c-10.51,0-19.58.39-27,2l-4.37,1a12.9,12.9,0,0,1-2.6-4.75,24.89,24.89,0,0,1,8.11-2.7,78.1,78.1,0,0,1,15.77-.49A51.18,51.18,0,0,1,433.41,126.64Z"/><path class="cls-94" d="M433.41,126.64a52.13,52.13,0,0,1,12.13,8.28l-.35,4.14-10.78-4.9.05-2.53-2.14-1.54-25.85,1.72-.08-3.16C413.82,127,422.9,126.61,433.41,126.64Z"/><path class="cls-86" d="M445.08,140.55c4.6.74,4.14,8.17-3.06,10.59l-3.22,12.13a118,118,0,0,1-15.31,3.39,84.05,84.05,0,0,1-16.81-1.85l.41-20.81h4.79c-.14.76-.23,1.53-.3,2.3a4.27,4.27,0,0,0,2.35,1.33,23.7,23.7,0,0,0,5.48-1.27q-.06-1.08-.16-2.15h11.44l1.79-.35,1.11-3.52,9,1.65A2.74,2.74,0,0,1,445.08,140.55Z"/><path class="cls-87" d="M419.25,144.21q.1,1.07.16,2.15a23.7,23.7,0,0,1-5.48,1.27,4.27,4.27,0,0,1-2.35-1.33c.07-.77.16-1.54.3-2.3a28.34,28.34,0,0,1,2.46-7.6,7.23,7.23,0,0,1,3.8.46A53.77,53.77,0,0,1,419.25,144.21Z"/><polygon class="cls-75" points="402.03 129.61 406.46 130.82 406.4 128.64 402.03 129.61"/><path class="cls-94" d="M421,135.71a2,2,0,0,1,1.52-1.75,3,3,0,0,1,2.36.51,6.67,6.67,0,0,1,1.69,1.81,13.88,13.88,0,0,0-1.48-1.1,3.38,3.38,0,0,1,.31.63,4.87,4.87,0,0,1,.12,3c-.28,1-1.37,1.93-2.12.76a4.87,4.87,0,0,1-.63-3.76,2.11,2.11,0,0,1,.57-1.09,1.16,1.16,0,0,1,.12-.08,2.8,2.8,0,0,0-.76,0A2.31,2.31,0,0,0,421,135.71Z"/><path class="cls-94" d="M407,137.15a3.09,3.09,0,0,1,.64-1.53,1.91,1.91,0,0,1,1.46-.72,1.39,1.39,0,0,1,1.29.9.75.75,0,0,0-.49-.29,1.84,1.84,0,0,1,.39.69,5,5,0,0,1,0,3.09c-.1.3-.27.62-.55.69s-.63-.25-.82-.57a4.67,4.67,0,0,1-.65-2.56,2.23,2.23,0,0,1,.32-1.13c-.09,0-.18.08-.26.14A4.83,4.83,0,0,0,407,137.15Z"/><path class="cls-87" d="M410.83,150.63a10.29,10.29,0,0,0,5.61,1.62,27.48,27.48,0,0,0,13.94-3c-.23-.58-.46-1.16-.71-1.66a4.11,4.11,0,0,1,1.53,4.05c-.16-.57-.37-1.19-.6-1.81a33.11,33.11,0,0,1-9.28,2.88,18.88,18.88,0,0,1-9.84-1.15,1.69,1.69,0,0,1-.6-.37A.47.47,0,0,1,410.83,150.63Z"/><path class="cls-87" d="M446.6,144.73a1.23,1.23,0,0,0-.17-1.63,2,2,0,0,0-1.74-.4,2.52,2.52,0,0,0-1.57,1.07,2.36,2.36,0,0,0-.31,1.83c.15-.24.54-.29.83-.27a1.22,1.22,0,0,1,.79.29.88.88,0,0,1,.13,1,1.4,1.4,0,0,1-.86.66,3,3,0,0,1-1.12.07,2.38,2.38,0,0,0,.25,1.5,1.46,1.46,0,0,1,0-1,2.56,2.56,0,0,0,2-.94,1.24,1.24,0,0,0,.23-1.35,1.19,1.19,0,0,0-.84-.53,3.11,3.11,0,0,0-1,0,2.41,2.41,0,0,1,1.43-2,1.47,1.47,0,0,1,1-.1,1.26,1.26,0,0,1,.73.64A3.33,3.33,0,0,1,446.6,144.73Z"/><polygon class="cls-94" points="442.61 141.99 440.76 147.28 437.94 143.54 437.66 141.08 442.61 141.99"/><path class="cls-95" d="M419.87,143.53a54.19,54.19,0,0,0-1.07-6.82l-.07-.33-.31-.14a7,7,0,0,0-3-.59,11.33,11.33,0,0,0-1.2.07l-.37,0-.16.34a29.41,29.41,0,0,0-2.42,7.22h-6.63a61.33,61.33,0,0,1-.84-10.72l2.68-.13,25.13-1.67a63.27,63.27,0,0,1-1.5,12.72Z"/><g class="cls-96"><path class="cls-97" d="M53.55,309.62c.87,0,1.58,1.16,1.58,2.58s-.71,2.57-1.58,2.57S52,313.62,52,312.2,52.67,309.62,53.55,309.62Z"/><path class="cls-98" d="M131.56,304.4c3.82,0,6.92,3.67,6.92,8.21s-3.1,8.21-6.92,8.21h-.06c-3.8,0-6.86-3.7-6.86-8.21S127.73,304.4,131.56,304.4Zm5.84,8.21c0-3.85-2.63-7-5.87-7l-.49,0h0l-.09,0a1.87,1.87,0,0,0-.36.06l-.22,0a3.28,3.28,0,0,0-.45.14,3.38,3.38,0,0,0-.47.18,4.54,4.54,0,0,0-.44.22l-.26.16a3.31,3.31,0,0,0-.36.26,2.37,2.37,0,0,0-.28.22l-.19.18a2.87,2.87,0,0,0-.31.31h0a2.58,2.58,0,0,0-.3.36,1,1,0,0,0-.14.18,2.55,2.55,0,0,0-.25.35.56.56,0,0,0-.08.13,2.51,2.51,0,0,0-.19.31,3.31,3.31,0,0,0-.19.37,1.93,1.93,0,0,0-.09.18,4.71,4.71,0,0,0-.2.5.28.28,0,0,0,0,.07c0,.14-.09.27-.13.41s-.06.19-.08.29-.1.39-.13.59a6.32,6.32,0,0,0-.09.69,7.91,7.91,0,0,0,0,1.42,6.32,6.32,0,0,0,.09.69c0,.2.08.4.13.59s0,.2.08.29.08.27.13.41a.29.29,0,0,0,0,.07,4.72,4.72,0,0,0,.2.5,1.93,1.93,0,0,0,.09.18,3.31,3.31,0,0,0,.19.37c.09.15.18.29.27.44a2.55,2.55,0,0,0,.25.35c0,.06.1.13.14.19a4.35,4.35,0,0,0,.3.35,6,6,0,0,0,.51.49,2.36,2.36,0,0,0,.28.22,4.87,4.87,0,0,0,.61.41l.41.21,0,0a4.85,4.85,0,0,0,1,.34,3.25,3.25,0,0,0,.56.09,3.58,3.58,0,0,0,.51,0C134.77,319.57,137.4,316.46,137.4,312.61Z"/><path class="cls-10" d="M131.53,305.64c3.24,0,5.87,3.12,5.87,7s-2.63,7-5.87,7a3.58,3.58,0,0,1-.51,0c3-.3,5.37-3.29,5.37-6.93S134,306,131,305.66Z"/><path class="cls-99" d="M131,305.66c3,.33,5.35,3.31,5.35,6.94s-2.37,6.63-5.37,6.93a4.27,4.27,0,0,1-.56-.09,5.92,5.92,0,0,1-1-.34l0,0-.41-.21a4.87,4.87,0,0,1-.61-.41,2.36,2.36,0,0,1-.28-.22,6,6,0,0,1-.51-.49l-.3-.35c0-.06-.1-.13-.14-.19a2.55,2.55,0,0,1-.25-.35c-.1-.14-.18-.29-.27-.44a3.31,3.31,0,0,1-.19-.37,1.93,1.93,0,0,1-.09-.18c-.07-.17-.14-.33-.2-.5a.29.29,0,0,1,0-.07c0-.14-.09-.26-.13-.41s-.06-.19-.08-.29-.1-.39-.13-.59a6.32,6.32,0,0,1-.09-.69,7.91,7.91,0,0,1,0-1.42,6.32,6.32,0,0,1,.09-.69c0-.2.08-.4.13-.59s0-.2.08-.29.08-.27.13-.41a.28.28,0,0,1,0-.07c.06-.18.13-.33.2-.5a1.93,1.93,0,0,1,.09-.18,5,5,0,0,1,.38-.69.56.56,0,0,1,.08-.13,2.55,2.55,0,0,1,.25-.35,1,1,0,0,1,.14-.18,3.28,3.28,0,0,1,.3-.36h0a2.87,2.87,0,0,1,.31-.31l.19-.18a2.37,2.37,0,0,1,.28-.22,3.31,3.31,0,0,1,.36-.26l.26-.16a4.54,4.54,0,0,1,.44-.22,3,3,0,0,1,.47-.18,3.28,3.28,0,0,1,.45-.14l.22,0a1.87,1.87,0,0,1,.36-.06Zm2.86,6.54c0-1.43-.71-2.58-1.58-2.58h-1.59c-.88,0-1.59,1.16-1.59,2.58s.71,2.57,1.59,2.57h1.59C133.19,314.77,133.9,313.62,133.9,312.2Z"/><path class="cls-100" d="M132.32,309.62c.87,0,1.58,1.16,1.58,2.58s-.71,2.57-1.58,2.57-1.59-1.16-1.59-2.57S131.45,309.62,132.32,309.62Z"/><path class="cls-10" d="M130.74,309.62h1.59c-.88,0-1.59,1.16-1.59,2.58s.71,2.57,1.59,2.57h-1.59c-.88,0-1.59-1.16-1.59-2.57S129.86,309.62,130.74,309.62Z"/><path class="cls-101" d="M105.18,320.82H131.5c-3.8,0-6.86-3.7-6.86-8.21s3.09-8.21,6.92-8.21H104.67C98.37,308,99.69,317.12,105.18,320.82Z"/><path class="cls-102" d="M52.78,304.4c3.82,0,6.92,3.67,6.92,8.21s-3.1,8.21-6.92,8.21-6.92-3.67-6.92-8.21S49,304.4,52.78,304.4Zm5.84,8.21c0-3.85-2.63-7-5.87-7l-.49,0h0l-.1,0a2.81,2.81,0,0,0-.36.06l-.19,0a3.63,3.63,0,0,0-.48.14,2.8,2.8,0,0,0-.49.19c-.17.07-.33.16-.49.25a5.2,5.2,0,0,0-.55.38,2.37,2.37,0,0,0-.28.22l-.19.18a2.86,2.86,0,0,0-.31.31h0a2.89,2.89,0,0,0-.29.33,2.6,2.6,0,0,0-.22.29.85.85,0,0,0-.12.18,1.79,1.79,0,0,0-.2.3l-.14.22a3.31,3.31,0,0,0-.19.37,1.93,1.93,0,0,0-.09.18,4.69,4.69,0,0,0-.2.5.28.28,0,0,0,0,.07c0,.14-.09.27-.13.41s-.06.19-.08.29-.1.39-.13.59a6.32,6.32,0,0,0-.09.69,7.91,7.91,0,0,0,0,1.42A6.32,6.32,0,0,0,47,314c0,.2.08.4.13.59s0,.2.08.29.08.27.13.41a.28.28,0,0,0,0,.07,4.7,4.7,0,0,0,.2.5,1.93,1.93,0,0,0,.09.18,3.31,3.31,0,0,0,.19.37l.14.22a1.8,1.8,0,0,0,.2.3,1.14,1.14,0,0,0,.12.18,2.6,2.6,0,0,0,.22.29,2.89,2.89,0,0,0,.29.33,6,6,0,0,0,.51.49,2.37,2.37,0,0,0,.28.22,3.65,3.65,0,0,0,.36.26,4.71,4.71,0,0,0,.68.37,4.41,4.41,0,0,0,1.05.35,3.25,3.25,0,0,0,.56.09,3.66,3.66,0,0,0,.51,0C56,319.57,58.62,316.46,58.62,312.61Z"/><path class="cls-10" d="M52.75,305.64c3.24,0,5.87,3.12,5.87,7s-2.63,7-5.87,7a3.66,3.66,0,0,1-.51,0c3-.3,5.37-3.29,5.37-6.93s-2.35-6.62-5.35-6.94Z"/><path class="cls-103" d="M52.26,305.66c3,.33,5.35,3.31,5.35,6.94s-2.37,6.63-5.37,6.93a4.27,4.27,0,0,1-.56-.09,5.43,5.43,0,0,1-1.05-.35,5.62,5.62,0,0,1-.68-.37,3.65,3.65,0,0,1-.36-.26c-.1-.06-.19-.14-.28-.22a6,6,0,0,1-.51-.49,2.89,2.89,0,0,1-.29-.33,2.6,2.6,0,0,1-.22-.29,1.14,1.14,0,0,1-.12-.18,2.47,2.47,0,0,1-.2-.3l-.14-.22-.19-.37a1.93,1.93,0,0,1-.09-.18c-.07-.17-.14-.33-.2-.5a.28.28,0,0,1,0-.07c0-.14-.09-.26-.13-.41s-.06-.19-.08-.29-.1-.39-.13-.59a6.32,6.32,0,0,1-.09-.69,7.91,7.91,0,0,1,0-1.42,6.32,6.32,0,0,1,.09-.69c0-.2.08-.4.13-.59s0-.2.08-.29.09-.27.13-.41a.28.28,0,0,1,0-.07c.06-.18.13-.33.2-.5a1.93,1.93,0,0,1,.09-.18l.19-.37.14-.22a2.46,2.46,0,0,1,.2-.3.85.85,0,0,1,.12-.18,2.6,2.6,0,0,1,.22-.29,2.89,2.89,0,0,1,.29-.33h0a2.86,2.86,0,0,1,.31-.31l.19-.18c.09-.07.18-.15.28-.22a5.2,5.2,0,0,1,.55-.38l.49-.25a5.13,5.13,0,0,1,.49-.19,3.63,3.63,0,0,1,.48-.14l.19,0a2.81,2.81,0,0,1,.36-.06Zm2.86,6.54c0-1.43-.71-2.58-1.58-2.58H52c-.88,0-1.59,1.16-1.59,2.58s.71,2.57,1.59,2.57h1.59C54.42,314.77,55.13,313.62,55.13,312.2Z"/><path class="cls-10" d="M52,309.62h1.59c-.88,0-1.59,1.16-1.59,2.58s.71,2.57,1.59,2.57H52c-.88,0-1.59-1.16-1.59-2.57S51.08,309.62,52,309.62Z"/><path class="cls-16" d="M131.56,304.4H104.67a8,8,0,0,0-3.51,4h24.49A6.77,6.77,0,0,1,131.56,304.4Z"/><path class="cls-104" d="M100.73,309.62H123l.61,5.48-22.47.48A10.42,10.42,0,0,1,100.73,309.62Z"/><path class="cls-105" d="M92.33,304.4c3.82,0,6.92,3.67,6.92,8.21s-3.1,8.21-6.92,8.21h-.06c-3.8,0-6.86-3.7-6.86-8.21S88.5,304.4,92.33,304.4Zm5.84,8.21c0-3.85-2.63-7-5.87-7l-.49,0h0l-.09,0a1.87,1.87,0,0,0-.36.06l-.22,0a3.28,3.28,0,0,0-.45.14,3.38,3.38,0,0,0-.47.18,4.54,4.54,0,0,0-.44.22l-.26.16a3.31,3.31,0,0,0-.36.26,2.37,2.37,0,0,0-.28.22l-.19.18a2.87,2.87,0,0,0-.31.31h0a2.58,2.58,0,0,0-.3.36,1,1,0,0,0-.14.18,2.55,2.55,0,0,0-.25.35.56.56,0,0,0-.08.13,2.51,2.51,0,0,0-.19.31,3.31,3.31,0,0,0-.19.37,1.93,1.93,0,0,0-.09.18,4.71,4.71,0,0,0-.2.5.28.28,0,0,0,0,.07c0,.14-.09.27-.13.41s-.06.19-.08.29-.1.39-.13.59a6.32,6.32,0,0,0-.09.69,7.91,7.91,0,0,0,0,1.42,6.32,6.32,0,0,0,.09.69c0,.2.08.4.13.59s0,.2.08.29.08.27.13.41a.29.29,0,0,0,0,.07,4.72,4.72,0,0,0,.2.5,1.93,1.93,0,0,0,.09.18,3.31,3.31,0,0,0,.19.37c.09.15.18.29.27.44a2.55,2.55,0,0,0,.25.35c0,.06.1.13.14.19a4.35,4.35,0,0,0,.3.35,6,6,0,0,0,.51.49,2.36,2.36,0,0,0,.28.22,4.87,4.87,0,0,0,.61.41l.41.21,0,0a4.85,4.85,0,0,0,1,.34,3.25,3.25,0,0,0,.56.09,3.58,3.58,0,0,0,.51,0C95.54,319.57,98.17,316.46,98.17,312.61Z"/><path class="cls-10" d="M92.29,305.64c3.24,0,5.87,3.12,5.87,7s-2.63,7-5.87,7a3.58,3.58,0,0,1-.51,0c3-.3,5.37-3.29,5.37-6.93s-2.35-6.62-5.35-6.94Z"/><path class="cls-106" d="M91.81,305.66c3,.33,5.35,3.31,5.35,6.94s-2.37,6.63-5.37,6.93a4.27,4.27,0,0,1-.56-.09,5.92,5.92,0,0,1-1-.34l0,0-.41-.21a4.87,4.87,0,0,1-.61-.41,2.36,2.36,0,0,1-.28-.22,6,6,0,0,1-.51-.49l-.3-.35c0-.06-.1-.13-.14-.19a2.55,2.55,0,0,1-.25-.35c-.1-.14-.18-.29-.27-.44a3.31,3.31,0,0,1-.19-.37,1.93,1.93,0,0,1-.09-.18c-.07-.17-.14-.33-.2-.5a.29.29,0,0,1,0-.07c0-.14-.09-.26-.13-.41s-.06-.19-.08-.29-.1-.39-.13-.59a6.32,6.32,0,0,1-.09-.69,7.91,7.91,0,0,1,0-1.42,6.32,6.32,0,0,1,.09-.69c0-.2.08-.4.13-.59s0-.2.08-.29.08-.27.13-.41a.28.28,0,0,1,0-.07c.06-.18.13-.33.2-.5a1.93,1.93,0,0,1,.09-.18,5,5,0,0,1,.38-.69.56.56,0,0,1,.08-.13,2.55,2.55,0,0,1,.25-.35,1,1,0,0,1,.14-.18,3.28,3.28,0,0,1,.3-.36h0a2.87,2.87,0,0,1,.31-.31l.19-.18a2.37,2.37,0,0,1,.28-.22,3.31,3.31,0,0,1,.36-.26l.26-.16a4.54,4.54,0,0,1,.44-.22,3,3,0,0,1,.47-.18,3.28,3.28,0,0,1,.45-.14l.22,0a1.87,1.87,0,0,1,.36-.06Zm2.86,6.54c0-1.43-.71-2.58-1.58-2.58H91.51c-.88,0-1.59,1.16-1.59,2.58s.71,2.57,1.59,2.57h1.59C94,314.77,94.67,313.62,94.67,312.2Z"/><path class="cls-107" d="M93.09,309.62c.87,0,1.58,1.16,1.58,2.58s-.71,2.57-1.58,2.57-1.59-1.16-1.59-2.57S92.21,309.62,93.09,309.62Z"/><path class="cls-10" d="M91.51,309.62h1.59c-.88,0-1.59,1.16-1.59,2.58s.71,2.57,1.59,2.57H91.51c-.88,0-1.59-1.16-1.59-2.57S90.63,309.62,91.51,309.62Z"/><path class="cls-108" d="M66,320.82H92.27c-3.8,0-6.86-3.7-6.86-8.21s3.09-8.21,6.92-8.21H65.44C59.14,308,60.46,317.12,66,320.82Z"/><path class="cls-16" d="M92.33,304.4H65.44a8,8,0,0,0-3.51,4H86.42A6.77,6.77,0,0,1,92.33,304.4Z"/><path class="cls-109" d="M61.5,309.62H83.79l.61,5.48-22.47.48A10.42,10.42,0,0,1,61.5,309.62Z"/><path class="cls-110" d="M210.47,309.62c.88,0,1.59,1.16,1.59,2.58s-.71,2.57-1.59,2.57-1.59-1.16-1.59-2.57S209.59,309.62,210.47,309.62Z"/><path class="cls-111" d="M241.17,304.4c3.83,0,6.92,3.67,6.92,8.21s-3.09,8.21-6.92,8.21h0c-3.79,0-6.87-3.69-6.87-8.21S237.35,304.4,241.17,304.4Zm5.85,8.21c0-3.85-2.63-7-5.87-7l-.49,0h0l-.1,0a2.81,2.81,0,0,0-.36.06l-.19,0a3.62,3.62,0,0,0-.48.14,2.8,2.8,0,0,0-.49.19c-.17.07-.33.16-.49.25a5.2,5.2,0,0,0-.55.38,2.37,2.37,0,0,0-.28.22l-.19.18a2.87,2.87,0,0,0-.31.31h0a2.89,2.89,0,0,0-.29.33,2.59,2.59,0,0,0-.22.29.86.86,0,0,0-.12.18,1.8,1.8,0,0,0-.2.3l-.14.22a3.31,3.31,0,0,0-.19.37,1.93,1.93,0,0,0-.09.18,4.71,4.71,0,0,0-.2.5.28.28,0,0,0,0,.07c0,.14-.09.27-.13.41s-.06.19-.08.29-.1.39-.13.59a6.32,6.32,0,0,0-.09.69,7.91,7.91,0,0,0,0,1.42,6.32,6.32,0,0,0,.09.69c0,.2.08.4.13.59s0,.2.08.29.08.27.13.41a.29.29,0,0,0,0,.07,4.72,4.72,0,0,0,.2.5,1.93,1.93,0,0,0,.09.18,3.31,3.31,0,0,0,.19.37l.14.22a1.81,1.81,0,0,0,.2.3,1.14,1.14,0,0,0,.12.18,2.59,2.59,0,0,0,.22.29,2.89,2.89,0,0,0,.29.33,6,6,0,0,0,.51.49,2.36,2.36,0,0,0,.28.22,3.65,3.65,0,0,0,.36.26,4.7,4.7,0,0,0,.68.37,4.42,4.42,0,0,0,1.05.35,3.25,3.25,0,0,0,.56.09,3.66,3.66,0,0,0,.51,0C244.39,319.57,247,316.46,247,312.61Z"/><path class="cls-10" d="M241.15,305.64c3.24,0,5.87,3.12,5.87,7s-2.63,7-5.87,7a3.66,3.66,0,0,1-.51,0c3-.3,5.36-3.29,5.36-6.93s-2.34-6.62-5.34-6.94Z"/><path class="cls-112" d="M240.66,305.66c3,.33,5.34,3.31,5.34,6.94s-2.36,6.63-5.36,6.93a4.27,4.27,0,0,1-.56-.09,5.43,5.43,0,0,1-1.05-.35,5.61,5.61,0,0,1-.68-.37,3.65,3.65,0,0,1-.36-.26c-.1-.06-.19-.14-.28-.22a6,6,0,0,1-.51-.49,2.89,2.89,0,0,1-.29-.33,2.59,2.59,0,0,1-.22-.29,1.14,1.14,0,0,1-.12-.18,2.48,2.48,0,0,1-.2-.3l-.14-.22-.19-.37a1.93,1.93,0,0,1-.09-.18c-.07-.17-.14-.33-.2-.5a.29.29,0,0,1,0-.07c0-.14-.09-.26-.13-.41s-.06-.19-.08-.29-.1-.39-.13-.59a6.32,6.32,0,0,1-.09-.69,7.91,7.91,0,0,1,0-1.42,6.32,6.32,0,0,1,.09-.69c0-.2.08-.4.13-.59s0-.2.08-.29.09-.27.13-.41a.28.28,0,0,1,0-.07c.06-.18.13-.33.2-.5a1.93,1.93,0,0,1,.09-.18l.19-.37.14-.22a2.47,2.47,0,0,1,.2-.3.86.86,0,0,1,.12-.18,2.59,2.59,0,0,1,.22-.29,2.89,2.89,0,0,1,.29-.33h0a2.87,2.87,0,0,1,.31-.31l.19-.18c.09-.07.18-.15.28-.22a5.2,5.2,0,0,1,.55-.38l.49-.25a5.12,5.12,0,0,1,.49-.19,3.62,3.62,0,0,1,.48-.14l.19,0a2.81,2.81,0,0,1,.36-.06Zm2.86,6.54c0-1.43-.71-2.58-1.59-2.58h-1.59c-.87,0-1.58,1.16-1.58,2.58s.71,2.57,1.58,2.57h1.59C242.81,314.77,243.52,313.62,243.52,312.2Z"/><path class="cls-26" d="M243.52,302.77c9,2.57,8.27,16.14.26,19.67h-194A12.84,12.84,0,0,1,46,319.57a11.62,11.62,0,0,1-1.87-2.81c-.12-.25-.23-.5-.33-.76a10.78,10.78,0,0,1-.74-3.71c0-.28,0-.55,0-.82a10,10,0,0,1,1.43-4.71A5.77,5.77,0,0,1,45,306a11.28,11.28,0,0,1,3.62-3.27Zm4.57,9.84c0-4.54-3.09-8.21-6.92-8.21H52.85c-3.83,0-6.92,3.67-6.92,8.21s3.09,8.21,6.92,8.21H241.17C245,320.82,248.09,317.14,248.09,312.61Z"/><path class="cls-113" d="M241.94,309.62c.88,0,1.59,1.16,1.59,2.58s-.71,2.57-1.59,2.57-1.59-1.16-1.59-2.57S241.06,309.62,241.94,309.62Z"/><path class="cls-10" d="M240.35,309.62h1.59c-.88,0-1.59,1.16-1.59,2.58s.71,2.57,1.59,2.57h-1.59c-.87,0-1.58-1.16-1.58-2.57S239.48,309.62,240.35,309.62Z"/><path class="cls-114" d="M209.7,304.4c3.82,0,6.92,3.67,6.92,8.21s-3.1,8.21-6.92,8.21h-.06c-3.8,0-6.86-3.7-6.86-8.21S205.88,304.4,209.7,304.4Zm5.84,8.21c0-3.85-2.63-7-5.87-7l-.48,0h0l-.1,0h0l-.34,0-.17,0a5.54,5.54,0,0,0-1.46.59,5.16,5.16,0,0,0-.44.29l0,0a4.43,4.43,0,0,0-.44.35h0a5.72,5.72,0,0,0-.79.85,3.36,3.36,0,0,0-.34.49,4,4,0,0,0-.3.5.29.29,0,0,0,0,.09,2.57,2.57,0,0,0-.2.39,5.12,5.12,0,0,0-.19.49.28.28,0,0,0,0,.07c0,.14-.09.27-.13.41s-.06.19-.08.29-.1.39-.13.59a6.35,6.35,0,0,0-.09.69,7.91,7.91,0,0,0,0,1.42,6.34,6.34,0,0,0,.09.69c0,.2.08.4.13.59s0,.2.08.29.08.27.13.41a.28.28,0,0,0,0,.07,5.13,5.13,0,0,0,.19.49,2.57,2.57,0,0,0,.2.39.29.29,0,0,0,0,.09,4,4,0,0,0,.3.5,3.36,3.36,0,0,0,.34.49,5.72,5.72,0,0,0,.79.85h0a4.43,4.43,0,0,0,.44.35l0,0a5,5,0,0,0,.93.54,4.41,4.41,0,0,0,1.05.35,3.25,3.25,0,0,0,.56.09,3.55,3.55,0,0,0,.5,0C212.91,319.57,215.55,316.46,215.55,312.61Z"/><path class="cls-10" d="M209.67,305.64c3.24,0,5.87,3.12,5.87,7s-2.63,7-5.87,7a3.55,3.55,0,0,1-.5,0c3-.3,5.36-3.29,5.36-6.93s-2.34-6.62-5.34-6.94Z"/><path class="cls-115" d="M209.19,305.66c3,.33,5.34,3.31,5.34,6.94s-2.36,6.63-5.36,6.93a4.27,4.27,0,0,1-.56-.09,5.43,5.43,0,0,1-1.05-.35,6,6,0,0,1-.93-.54l0,0-.44-.35h0a6.72,6.72,0,0,1-.79-.85,5.31,5.31,0,0,1-.34-.49,5.24,5.24,0,0,1-.3-.5.29.29,0,0,1,0-.09c-.07-.13-.14-.26-.2-.39a5.13,5.13,0,0,1-.19-.49.28.28,0,0,1,0-.07c0-.14-.09-.26-.13-.41s-.06-.19-.08-.29-.1-.39-.13-.59a6.34,6.34,0,0,1-.09-.69,7.91,7.91,0,0,1,0-1.42,6.35,6.35,0,0,1,.09-.69c0-.2.08-.4.13-.59s0-.2.08-.29.08-.27.13-.41a.28.28,0,0,1,0-.07,5.12,5.12,0,0,1,.19-.49c.06-.14.13-.26.2-.39a.29.29,0,0,1,0-.09,5.24,5.24,0,0,1,.3-.5,5.31,5.31,0,0,1,.34-.49,6.72,6.72,0,0,1,.79-.85h0l.44-.35,0,0,.44-.29.49-.26c.17-.08.34-.14.52-.21a4.1,4.1,0,0,1,.45-.13l.17,0,.34,0h0Zm2.86,6.54c0-1.43-.71-2.58-1.59-2.58h-1.59c-.88,0-1.59,1.16-1.59,2.58s.71,2.57,1.59,2.57h1.59C211.34,314.77,212.05,313.62,212.05,312.2Z"/><path class="cls-10" d="M208.88,309.62h1.59c-.88,0-1.59,1.16-1.59,2.58s.71,2.57,1.59,2.57h-1.59c-.88,0-1.59-1.16-1.59-2.57S208,309.62,208.88,309.62Z"/><path class="cls-116" d="M170.81,304.4c3.82,0,6.92,3.67,6.92,8.21s-3.1,8.21-6.92,8.21h-.06c-3.8,0-6.86-3.7-6.86-8.21S167,304.4,170.81,304.4Zm5.84,8.21c0-3.85-2.63-7-5.87-7l-.49,0h0l-.09,0a1.87,1.87,0,0,0-.36.06l-.22,0a3.28,3.28,0,0,0-.45.14,3.38,3.38,0,0,0-.47.18,4.54,4.54,0,0,0-.44.22l-.26.16a3.32,3.32,0,0,0-.36.26,2.37,2.37,0,0,0-.28.22l-.19.18a2.87,2.87,0,0,0-.31.31h0a2.58,2.58,0,0,0-.3.36,1,1,0,0,0-.14.18,2.55,2.55,0,0,0-.25.35.56.56,0,0,0-.08.13,2.51,2.51,0,0,0-.19.31,3.31,3.31,0,0,0-.19.37,1.9,1.9,0,0,0-.09.18,4.71,4.71,0,0,0-.2.5.28.28,0,0,0,0,.07c0,.14-.09.27-.13.41s-.06.19-.08.29-.1.39-.13.59a6.35,6.35,0,0,0-.09.69,7.91,7.91,0,0,0,0,1.42,6.34,6.34,0,0,0,.09.69c0,.2.08.4.13.59s0,.2.08.29.08.27.13.41a.29.29,0,0,0,0,.07,4.72,4.72,0,0,0,.2.5,1.9,1.9,0,0,0,.09.18,3.31,3.31,0,0,0,.19.37c.09.15.18.29.27.44a2.55,2.55,0,0,0,.25.35c0,.06.1.13.14.19a4.33,4.33,0,0,0,.3.35,6,6,0,0,0,.51.49,2.37,2.37,0,0,0,.28.22,4.88,4.88,0,0,0,.61.41l.41.21,0,0a4.85,4.85,0,0,0,1,.34,3.25,3.25,0,0,0,.56.09,3.58,3.58,0,0,0,.51,0C174,319.57,176.66,316.46,176.66,312.61Z"/><path class="cls-10" d="M170.78,305.64c3.24,0,5.87,3.12,5.87,7s-2.63,7-5.87,7a3.58,3.58,0,0,1-.51,0c3-.3,5.37-3.29,5.37-6.93s-2.35-6.62-5.35-6.94Z"/><path class="cls-117" d="M170.3,305.66c3,.33,5.35,3.31,5.35,6.94s-2.37,6.63-5.37,6.93a4.27,4.27,0,0,1-.56-.09,5.92,5.92,0,0,1-1-.34l0,0-.41-.21a4.88,4.88,0,0,1-.61-.41,2.37,2.37,0,0,1-.28-.22,6,6,0,0,1-.51-.49l-.3-.35c0-.06-.1-.13-.14-.19a2.55,2.55,0,0,1-.25-.35c-.1-.14-.18-.29-.27-.44a3.31,3.31,0,0,1-.19-.37,1.9,1.9,0,0,1-.09-.18c-.07-.17-.14-.33-.2-.5a.29.29,0,0,1,0-.07c0-.14-.09-.26-.13-.41s-.06-.19-.08-.29-.1-.39-.13-.59a6.34,6.34,0,0,1-.09-.69,7.91,7.91,0,0,1,0-1.42,6.35,6.35,0,0,1,.09-.69c0-.2.08-.4.13-.59s0-.2.08-.29.08-.27.13-.41a.28.28,0,0,1,0-.07c.06-.18.13-.33.2-.5a1.9,1.9,0,0,1,.09-.18,5,5,0,0,1,.38-.69.56.56,0,0,1,.08-.13,2.55,2.55,0,0,1,.25-.35,1,1,0,0,1,.14-.18,3.27,3.27,0,0,1,.3-.36h0a2.87,2.87,0,0,1,.31-.31l.19-.18a2.37,2.37,0,0,1,.28-.22,3.32,3.32,0,0,1,.36-.26l.26-.16a4.54,4.54,0,0,1,.44-.22,3,3,0,0,1,.47-.18,3.28,3.28,0,0,1,.45-.14l.22,0a1.87,1.87,0,0,1,.36-.06Zm2.86,6.54c0-1.43-.71-2.58-1.58-2.58H170c-.88,0-1.59,1.16-1.59,2.58s.71,2.57,1.59,2.57h1.59C172.45,314.77,173.16,313.62,173.16,312.2Z"/><path class="cls-118" d="M171.58,309.62c.87,0,1.58,1.16,1.58,2.58s-.71,2.57-1.58,2.57S170,313.62,170,312.2,170.7,309.62,171.58,309.62Z"/><path class="cls-10" d="M170,309.62h1.59c-.88,0-1.59,1.16-1.59,2.58s.71,2.57,1.59,2.57H170c-.88,0-1.59-1.16-1.59-2.57S169.12,309.62,170,309.62Z"/><path class="cls-119" d="M221.87,304.4h19.3c-3.82,0-6.92,3.67-6.92,8.21s3.08,8.18,6.87,8.21H222.38C216.88,317.12,215.56,308,221.87,304.4Z"/><path class="cls-120" d="M183.25,320.82h26.39c-3.8,0-6.86-3.7-6.86-8.21s3.09-8.21,6.92-8.21h-27C176.44,308,177.75,317.12,183.25,320.82Z"/><path class="cls-121" d="M144.44,320.82h26.32c-3.8,0-6.86-3.7-6.86-8.21s3.09-8.21,6.92-8.21H143.93C137.62,308,138.95,317.12,144.44,320.82Z"/><path class="cls-16" d="M241.17,304.4h-19.3a8,8,0,0,0-3.52,4h16.91A6.77,6.77,0,0,1,241.17,304.4Z"/><path class="cls-16" d="M209.7,304.4h-27a8,8,0,0,0-3.51,4h24.56A6.77,6.77,0,0,1,209.7,304.4Z"/><path class="cls-16" d="M170.81,304.4H143.93a8,8,0,0,0-3.51,4H164.9A6.77,6.77,0,0,1,170.81,304.4Z"/><path class="cls-122" d="M140,309.62h22.29l.61,5.48-22.47.48A10.42,10.42,0,0,1,140,309.62Z"/><path class="cls-123" d="M178.8,309.62H201.1l.61,5.48-22.47.48A10.42,10.42,0,0,1,178.8,309.62Z"/><path class="cls-124" d="M217.93,309.62h14.73l.61,5.48-14.91.48A10.42,10.42,0,0,1,217.93,309.62Z"/><path class="cls-39" d="M49.78,322.44H22.93a8.91,8.91,0,0,1-3-2.47,202.1,202.1,0,0,0,26.14-.4A12.84,12.84,0,0,0,49.78,322.44Z"/><path class="cls-39" d="M45,306h0a5.77,5.77,0,0,0-.46.72H18.32a6.38,6.38,0,0,1,.41-.72Z"/><path class="cls-39" d="M44.18,316.76H18.07c-.1-.25-.19-.5-.27-.76H43.85C43.95,316.26,44.06,316.51,44.18,316.76Z"/><path class="cls-125" d="M22.24,302.77H48.63A11.28,11.28,0,0,0,45,306H18.73A9.22,9.22,0,0,1,22.24,302.77Zm-3.92,4a11.15,11.15,0,0,0-1.17,4.72h26a10,10,0,0,1,1.43-4.71H18.32Zm-.26,10A11.81,11.81,0,0,0,19.9,320h0a202.1,202.1,0,0,0,26.14-.4,11.61,11.61,0,0,1-1.87-2.81Zm25-4.47h-26a13.65,13.65,0,0,0,.65,3.71H43.85A10.78,10.78,0,0,1,43.11,312.29Z"/><path class="cls-39" d="M43.13,311.47c0,.27,0,.54,0,.82h-26c0-.27,0-.55,0-.82h26Z"/><path class="cls-126" d="M22.24,303.13c-3.37,2.7-4.45,5.56-4.61,9.73l24.59.47c.07-5.29,1.46-7,4.44-10.21Z"/><path class="cls-39" d="M243.45,312.18v13.22H240l.26-13.22C240.73,308.73,243.12,308.76,243.45,312.18Z"/><path class="cls-39" d="M208.76,312.18l-.26,13.22h3.44V312.18C211.61,308.76,209.21,308.73,208.76,312.18Z"/><path class="cls-39" d="M169.91,312.18l-.27,13.22h3.44V312.18C172.75,308.76,170.36,308.73,169.91,312.18Z"/><path class="cls-39" d="M51.6,312.18l-.26,13.22h3.43V312.18C54.45,308.76,52.05,308.73,51.6,312.18Z"/><polygon class="cls-42" points="226.89 322.43 226.89 325.41 223.36 325.41 223.57 322.43 226.89 322.43"/><polygon class="cls-42" points="187.45 322.43 187.45 325.41 183.93 325.41 184.12 322.43 187.45 322.43"/><polygon class="cls-42" points="148.01 322.43 148.01 325.41 144.49 325.41 144.69 322.43 148.01 322.43"/><polygon class="cls-42" points="108.57 322.43 108.57 325.41 105.05 325.41 105.25 322.43 108.57 322.43"/><polygon class="cls-42" points="69.13 322.43 69.13 325.41 65.61 325.41 65.81 322.43 69.13 322.43"/><polygon class="cls-42" points="29.69 322.43 29.69 325.41 26.17 325.41 26.37 322.43 29.69 322.43"/><path class="cls-127" d="M244.43,312.18v13.22H241l.26-13.22C241.72,308.73,244.11,308.76,244.43,312.18Z"/><path class="cls-128" d="M209.74,312.18l-.26,13.22h3.44V312.18C212.59,308.76,210.2,308.73,209.74,312.18Z"/><path class="cls-129" d="M170.89,312.18l-.27,13.22h3.44V312.18C173.74,308.76,171.34,308.73,170.89,312.18Z"/><path class="cls-39" d="M130.66,312.18l-.27,13.22h3.44V312.18C133.51,308.76,131.12,308.73,130.66,312.18Z"/><path class="cls-130" d="M131.65,312.18l-.27,13.22h3.44V312.18C134.49,308.76,132.1,308.73,131.65,312.18Z"/><path class="cls-131" d="M52.58,312.18l-.26,13.22h3.43V312.18C55.43,308.76,53,308.73,52.58,312.18Z"/><path class="cls-39" d="M91.5,312.18l-.26,13.22h3.43V312.18C94.34,308.76,92,308.73,91.5,312.18Z"/><path class="cls-132" d="M92.48,312.18l-.26,13.22h3.43V312.18C95.33,308.76,92.94,308.73,92.48,312.18Z"/><polygon class="cls-133" points="249.11 357.71 250.03 360.82 45.37 360.82 45.85 357.71 47 357.71 247.35 357.71 249.11 357.71"/><path class="cls-134" d="M244.69,325.41l2.66,32.31H47l1.67-32.31h196Zm-2.46,29.33L242,329H204.6l-1.39,25.7Zm-40.85,0,1.15-25.7H167l.79,25.7Zm-36,0-.18-25.7H128.65l-1.39,25.7Zm63-25.1-.31,1.94h-8.23l-.32-1.94h-14.3l-1.33,24.5h37.77l-.18-24.5Zm-38.46,0-.32,1.94h-8.23l-.31-1.94H167.6l.74,24.5H200.8l1.09-24.5Zm-38.47,0-.31,1.94h-8.23l-.32-1.94H129.21l-1.32,24.5h36.87l-.18-24.5Z"/><polygon class="cls-135" points="48.67 325.41 47 357.71 45.85 357.71 18.44 357.71 21.1 325.41 23.94 325.41 27.46 325.41 48.67 325.41"/><polygon class="cls-52" points="45.85 357.71 45.37 360.82 16.24 360.82 17.15 357.71 18.44 357.71 45.85 357.71"/><polygon class="cls-136" points="22.24 326.77 20.51 353.43 47 339.08 47.95 326.77 22.24 326.77"/><polygon class="cls-137" points="49.45 326.23 48.67 356.94 57.99 356.94 61.59 331.38 244.05 329.41 243.85 326.23 49.45 326.23"/><path class="cls-10" d="M242,329l.19,25.7h-39L204.6,329Zm-.41,25.1-.18-24.5H228.33l-.31,1.94h-8.23l-.32-1.94h-14.3l-1.33,24.5ZM202.52,329l-1.15,25.7H167.77L167,329Zm-1.72,25.1,1.09-24.5h-12l-.32,1.94h-8.23l-.31-1.94H167.6l.74,24.5ZM165.18,329l.18,25.7H127.26l1.39-25.7Zm-.42,25.1-.18-24.5H151.4l-.31,1.94h-8.23l-.32-1.94H129.21l-1.32,24.5Z"/><path class="cls-10" d="M127.26,329l-1.6,25.7H87.07L88.46,329Zm-2.2,25.1,1.61-24.5H112.19l-.31,1.94h-8.23l-.32-1.94H89l-1.33,24.5ZM86.38,329l-1.15,25.7H51.62L50.83,329Zm-1.72,25.1,1.09-24.5h-12l-.32,1.94H65.18l-.31-1.94H51.45l.74,24.5Z"/></g><path d="M228.48,302.13,228,264c-.66-5.72,13.9-21.6,22.06.7v38.1Z"/><rect class="cls-138" x="62.55" y="273.2" width="29.57" height="29.57"/><rect class="cls-139" x="53.53" y="273.2" width="9.02" height="29.57"/><polygon class="cls-6" points="85.29 282.31 83.5 280.52 77.82 286.2 72.15 280.52 70.36 282.31 76.03 287.99 70.36 293.66 72.15 295.45 77.82 289.77 83.5 295.45 85.29 293.66 79.61 287.99 85.29 282.31"/><rect class="cls-138" x="141.29" y="273.2" width="29.57" height="29.57"/><rect class="cls-139" x="132.27" y="273.2" width="9.02" height="29.57"/><polygon class="cls-6" points="164.03 282.31 162.24 280.52 156.56 286.2 150.89 280.52 149.1 282.31 154.77 287.99 149.1 293.66 150.89 295.45 156.56 289.77 162.24 295.45 164.03 293.66 158.35 287.99 164.03 282.31"/><rect class="cls-138" x="214.26" y="273.2" width="29.57" height="29.57"/><rect class="cls-139" x="205.24" y="273.2" width="9.02" height="29.57"/><polygon class="cls-6" points="237 282.31 235.21 280.52 229.53 286.2 223.86 280.52 222.07 282.31 227.75 287.99 222.07 293.66 223.86 295.45 229.53 289.77 235.21 295.45 237 293.66 231.32 287.99 237 282.31"/><rect class="cls-4" x="344.04" y="273.2" width="29.57" height="29.57"/><rect class="cls-5" x="335.02" y="273.2" width="9.02" height="29.57"/><polygon class="cls-6" points="365.98 279.94 351.68 279.94 351.68 282.06 357.77 282.06 357.77 297.05 359.88 297.05 359.88 282.06 365.98 282.06 365.98 279.94"/><path class="cls-6" d="M288.4,164c0-.1,0-.19,0-.29a3.21,3.21,0,0,0-.7-2,3.26,3.26,0,0,0-2.1-1.27,3.31,3.31,0,0,0-2.72.7l-.06,0a.4.4,0,0,1-.41.15s-.05,0-.06,0,0,0,0-.07a4.67,4.67,0,0,1,.73-.85,4.6,4.6,0,0,1,1-.69,4.34,4.34,0,0,1,1.42-.44,4.48,4.48,0,0,1,3.16.75,4.68,4.68,0,0,1,.8.69s0,0,.06,0,0,.07,0,.09a4.31,4.31,0,0,1,.49.71,4.44,4.44,0,0,1,.52,1.53c0,.16,0,.33.05.49s0,.36,0,.54a3.4,3.4,0,0,0,2.77,3,3.3,3.3,0,0,0,2-.23,3.17,3.17,0,0,0,1.08-.76c.1-.1.2-.08.31-.07s0,0,0,.06a3.89,3.89,0,0,1-.4.57,4.51,4.51,0,0,1-2.84,1.58,4.75,4.75,0,0,1-1,0,4.29,4.29,0,0,1-1.42-.34,4.67,4.67,0,0,1-1.48-1,1.16,1.16,0,0,0-.17-.18,1.62,1.62,0,0,0-.2-.26,4.52,4.52,0,0,1-.87-2A2.74,2.74,0,0,0,288.4,164Z"/><path class="cls-6" d="M275.08,176c-.06,0-.09,0-.13-.09-.33-.56-.63-1.13-.93-1.7,0-.05,0-.14-.1-.14s-.06.09-.09.13c-.29.55-.58,1.11-.89,1.65a.21.21,0,0,1-.23.12,5.25,5.25,0,0,1-1.22-.3c-.07,0-.06-.06,0-.12.18-.36.37-.72.56-1.07s.53-1,.82-1.46a.1.1,0,0,0,0-.12c-.38-.68-.76-1.37-1.12-2.07l-.13-.26c0-.07,0-.11.05-.13a5.24,5.24,0,0,1,.78-.27l.36-.09a.14.14,0,0,1,.19.08c.32.57.63,1.14.91,1.73,0,0,0,.08.06.08s.05,0,.07-.08c.31-.57.61-1.15,1-1.7.1-.17.08-.13.23-.1a7.34,7.34,0,0,1,1,.31c.16.06.16.08.09.23-.38.76-.81,1.5-1.23,2.24a.16.16,0,0,0,0,.19c.47.8.92,1.59,1.35,2.41,0,.08,0,.12-.05.15a6.17,6.17,0,0,1-1.19.35Z"/><path class="cls-6" d="M289.85,176H287c-.06,0-.09,0-.11-.08a5.94,5.94,0,0,1-.13-.88.2.2,0,0,1,.06-.15c.46-.52,1-1,1.43-1.5a4.19,4.19,0,0,0,.6-.77,1,1,0,0,0,.15-.64.55.55,0,0,0-.57-.5,1,1,0,0,0-.86.4c-.06.07-.09.06-.15,0a4.47,4.47,0,0,1-.56-.68c-.11-.17-.11-.2,0-.35a1.91,1.91,0,0,1,.91-.58,2.59,2.59,0,0,1,1.61,0,1.56,1.56,0,0,1,1.09,1.49,2.38,2.38,0,0,1-.47,1.43,10.42,10.42,0,0,1-1.14,1.32l-.15.16s0,0,0,.06,0,0,.07,0l.63,0,.94,0c.08,0,.1,0,.11.09a4.46,4.46,0,0,1,0,.93c0,.28,0,.28-.31.28h-.28Z"/><path class="cls-6" d="M294.28,170.15c.39,0,.67,0,.94,0a.11.11,0,0,1,.12.11,4.13,4.13,0,0,1,0,.8c0,.09,0,.18,0,.27s0,.1-.1.1c-.42,0-.84,0-1.27.05-.09,0-.11,0-.11.11q0,1.94,0,3.88c0,.12,0,.24,0,.36s0,.1-.11.11c-.26,0-.51,0-.77,0s-.32,0-.48,0-.1,0-.1-.11c0-.34,0-.69,0-1q0-1.34,0-2.67,0-.31,0-.61c0-.06,0-.08-.08-.08-.39,0-.78,0-1.16,0-.23,0-.19,0-.22-.2a5,5,0,0,1,0-.94c0-.08,0-.1.11-.1.5,0,1,0,1.5-.06Z"/><path class="cls-6" d="M305.63,174.11l.82-2.06c.11-.26.11-.26.39-.21s.59.12.88.2c.08,0,.1.05.07.13-.23.62-.49,1.22-.75,1.82-.52,1.2-1,2.4-1.6,3.58l0,.07c-.09.19-.1.19-.3.14a3.93,3.93,0,0,1-1-.41c-.06,0-.07-.07,0-.14.25-.53.5-1.06.73-1.61a.27.27,0,0,0,0-.24c-.46-1-.89-2.08-1.24-3.15-.07-.21-.07-.22.15-.26s.64-.12,1-.17c.1,0,.13,0,.16.11.15.34.27.69.39,1l.37,1.11Z"/><path class="cls-6" d="M297.54,175.57a1.41,1.41,0,0,1-.74.41,1.6,1.6,0,0,1-.92-.07,1.05,1.05,0,0,1-.67-1,1.22,1.22,0,0,1,1.16-1.36,1.52,1.52,0,0,1,.95.12l.12.07a1.24,1.24,0,0,0,0-.46.56.56,0,0,0-.54-.38,1,1,0,0,0-.83.29c-.12.11-.12.11-.25,0a3.15,3.15,0,0,1-.43-.4c-.09-.11-.1-.13,0-.25A1.54,1.54,0,0,1,296,172a2.07,2.07,0,0,1,2,0,1.52,1.52,0,0,1,.81,1.23,7.89,7.89,0,0,1,0,1.17c0,.43,0,.86,0,1.3,0,0,0,0,0,0,0,.17,0,.17-.18.17l-.83,0c-.05,0-.08,0-.09-.07S297.57,175.68,297.54,175.57Zm-.7-.36a.69.69,0,0,0,.34-.08.44.44,0,0,0,.12-.65.63.63,0,0,0-.84,0,.43.43,0,0,0,.06.67A.53.53,0,0,0,296.84,175.21Z"/><path class="cls-6" d="M282.71,174.29h-.9c-.08,0-.09,0-.08.09a.67.67,0,0,0,.6.58,1.66,1.66,0,0,0,1.15-.22c.06,0,.1,0,.13,0a6,6,0,0,1,.35.72.11.11,0,0,1,0,.15,2.32,2.32,0,0,1-1,.38,2.57,2.57,0,0,1-1.23-.1,1.71,1.71,0,0,1-1.14-1.18,2.44,2.44,0,0,1,.14-1.84,1.81,1.81,0,0,1,1.77-1.06,1.66,1.66,0,0,1,1.69,1.41,2.28,2.28,0,0,1,0,.92.09.09,0,0,1-.09.08C283.6,174.29,283.15,174.29,282.71,174.29Zm-.5-.77v0h.61c.23,0,.18,0,.16-.19a.57.57,0,0,0-.43-.53.7.7,0,0,0-.84.67c0,.06,0,.07.07.07Z"/><path class="cls-6" d="M283.92,161.76l-.28.46-.74,1.22a.15.15,0,0,0,0,.17l.94,2.06,0,.1h-1.4a.17.17,0,0,1-.19-.13c-.05-.15-.12-.29-.18-.43s0,0,0,.06a3.25,3.25,0,0,0-.15.35.19.19,0,0,1-.23.15h-1.28c-.11,0-.11,0-.07-.1l.94-2.06a.16.16,0,0,0,0-.18l-1-1.6,0,0s0,0,.07,0h1.39a.12.12,0,0,1,.12.07l.24.39.24-.4a.09.09,0,0,1,.09-.06Z"/><path class="cls-6" d="M288.4,164a2.74,2.74,0,0,1,.07.47,4.52,4.52,0,0,0,.87,2,1.62,1.62,0,0,1,.2.26,4.59,4.59,0,0,1-1.4,1.06,4.54,4.54,0,0,1-5.22-.89,4.2,4.2,0,0,1-.64-.82s0,0,0-.08.05,0,.08,0a.29.29,0,0,1,.27.1,3.34,3.34,0,0,0,2.33,1,3.4,3.4,0,0,0,3.44-2.82A2.38,2.38,0,0,0,288.4,164Z"/><path class="cls-6" d="M290.66,163.61c0-.16,0-.33-.05-.49a4.44,4.44,0,0,0-.52-1.53,4.31,4.31,0,0,0-.49-.71s-.05-.05,0-.09a4.52,4.52,0,0,1,7.18.56c-.15,0-.29,0-.43-.09a3.29,3.29,0,0,0-2.55-.84,3.39,3.39,0,0,0-3,2.75A3.51,3.51,0,0,0,290.66,163.61Z"/><path class="cls-6" d="M278.69,176.08a2.23,2.23,0,0,1-1.19-.31,1.94,1.94,0,0,1-.88-1.32,2.15,2.15,0,0,1,.26-1.63,2,2,0,0,1,1.65-1,2.6,2.6,0,0,1,1.36.25c.26.13.27.16.21.44a3.33,3.33,0,0,1-.22.71c-.07.14-.09.14-.21.06a1.72,1.72,0,0,0-.76-.3,1.11,1.11,0,0,0-.46.05.82.82,0,0,0-.56.75,1.41,1.41,0,0,0,0,.49.84.84,0,0,0,1,.61,1.8,1.8,0,0,0,.7-.26c.06,0,.1,0,.14,0a4.66,4.66,0,0,1,.41.72s0,.07,0,.1a1.33,1.33,0,0,1-.48.38A2,2,0,0,1,278.69,176.08Z"/><path class="cls-6" d="M297.61,164.63c0,.39,0,.78,0,1.17,0,.07,0,.09-.09.09h-1.17c-.07,0-.09,0-.09-.09,0-.77,0-1.54,0-2.31,0-.09,0-.11-.11-.11h-.64c-.06,0-.08,0-.08-.08,0-.38,0-.76,0-1.13a.57.57,0,0,1,.34-.54,1.07,1.07,0,0,1,.46-.11h2.11c.08,0,.1,0,.1.1q0,.84,0,1.68c0,.07,0,.09-.09.09h-.67c-.07,0-.09,0-.09.09C297.61,163.85,297.61,164.24,297.61,164.63Z"/><path class="cls-6" d="M286.15,170.82c0,.69,0,1.38,0,2.07s0,1.16,0,1.74,0,.9,0,1.34c0,.06,0,.08-.08.08-.33,0-.67,0-1,0-.1,0-.12,0-.12-.13,0-.31,0-.62,0-.93,0-.7,0-1.4,0-2.1q0-.79,0-1.59c0-.43,0-.85,0-1.28v0c0-.15,0-.17.18-.19a5.23,5.23,0,0,1,.95,0c.1,0,.14,0,.13.15,0,.31,0,.62,0,.93Z"/><path class="cls-6" d="M300.9,170.82c0,.69,0,1.38,0,2.07s0,1.17,0,1.75,0,.89,0,1.33c0,.07,0,.08-.09.08-.34,0-.67,0-1,0-.08,0-.1,0-.1-.11,0-.32,0-.64,0-1,0-.7,0-1.39,0-2.09s0-1.53,0-2.3c0-.22,0-.45,0-.67a.13.13,0,0,1,.13-.14,4.28,4.28,0,0,1,.8,0h.22c.09,0,.11,0,.11.12,0,.29,0,.58,0,.87,0,0,0,.05,0,.08Z"/><path class="cls-6" d="M303.05,170.82c0,.69,0,1.38,0,2.07s0,1.16,0,1.74,0,.9,0,1.34c0,.06,0,.08-.08.07-.33,0-.67,0-1,0-.1,0-.12,0-.12-.13,0-.31,0-.62,0-.93,0-.7,0-1.4,0-2.1q0-.79,0-1.59c0-.43,0-.85,0-1.28v0c0-.15,0-.17.18-.19a5.06,5.06,0,0,1,1,0c.1,0,.12,0,.12.14,0,.31,0,.63,0,.94Z"/></g></g></svg>