<svg id="Layer_1" data-name="Layer 1" xmlns="http://www.w3.org/2000/svg" viewBox="0 0 458 411"><defs><style>.cls-1,.cls-6{fill:#88d7ff;}.cls-1{opacity:0.25;}.cls-2,.cls-3{fill:none;stroke-miterlimit:10;stroke-width:3.01px;}.cls-2{stroke:#4745ab;}.cls-3{stroke:#ff6584;}.cls-4{fill:#30b7df;}.cls-5{fill:#b8c3f9;}.cls-7{fill:#4745ab;}.cls-8{fill:#fea03c;}.cls-9{fill:#fecc2d;}.cls-10{fill:#ffc1b6;}.cls-11{fill:#21537a;}.cls-12{fill:#f2b7b0;}.cls-13{fill:#2796af;}.cls-14{fill:#162952;}.cls-15{fill:#ffc9b9;}.cls-16{fill:#540f23;}</style></defs><title>2 copy 2</title><ellipse class="cls-1" cx="229" cy="336.33" rx="220.11" ry="22.86"/><circle class="cls-2" cx="88.24" cy="99.3" r="17.15"/><circle class="cls-3" cx="69.05" cy="196.44" r="12.56"/><circle class="cls-3" cx="386.9" cy="73.68" r="11.15"/><polygon class="cls-4" points="171.22 35.25 175.01 42.92 183.48 44.16 177.35 50.13 178.79 58.57 171.22 54.58 163.64 58.57 165.09 50.13 158.96 44.16 167.43 42.92 171.22 35.25"/><polygon class="cls-4" points="322.18 54.73 325.97 62.41 334.44 63.64 328.31 69.61 329.76 78.05 322.18 74.07 314.61 78.05 316.05 69.61 309.93 63.64 318.4 62.41 322.18 54.73"/><path class="cls-4" d="M372.43,306h44.06v13.34a13.35,13.35,0,0,1-13.34,13.35H385.77a13.35,13.35,0,0,1-13.34-13.35Z"/><rect class="cls-5" x="372.43" y="309.58" width="44.06" height="4.53"/><path class="cls-6" d="M394.46,296.55c-23.83.3-44.67-23.06-41.36-34,2.6-8.57,19.14-6.45,22.47-16.62,2.59-7.88-6-13.24-12.08-26.44-8.35-18.15-4.74-35.57,1.51-65.71,4.56-22,7.32-34.49,16.24-37,7.74-2.19,18.26,3.65,22.28,11.52,4.39,8.57-2.22,13.07.57,25.5,2.44,10.83,10,18.72,17.94,27,9.31,9.71,12.71,9.47,13.6,14.35,1.64,9-9.51,12.47-14.54,29.09a45.82,45.82,0,0,0-1.33,22.47c2.91,13.88,11.25,15.82,11.15,24C430.76,282.71,412.41,296.33,394.46,296.55Z"/><polygon class="cls-7" points="392.95 306 392.95 263.13 381.43 251.99 382.94 250.47 392.95 261.24 392.95 177.77 395.4 177.77 395.4 207.23 405.6 195.33 410.32 195.9 395.88 209.12 395.88 306 392.95 306"/><ellipse class="cls-8" cx="87.7" cy="318.69" rx="50.74" ry="14.07"/><polygon class="cls-8" points="36.97 314.3 36.97 319.86 40.65 320.62 40.65 319.57 36.97 314.3"/><polygon class="cls-8" points="138.41 313.83 138.44 319.53 134.5 321.45 134.5 319.74 138.41 313.83"/><ellipse class="cls-9" cx="87.7" cy="314.3" rx="50.74" ry="14.07"/><ellipse class="cls-8" cx="87.7" cy="310.89" rx="50.74" ry="14.07"/><polygon class="cls-8" points="36.97 306.5 36.97 312.06 40.65 312.81 40.65 311.76 36.97 306.5"/><polygon class="cls-8" points="138.41 306.03 138.44 311.73 134.5 313.65 134.5 311.94 138.41 306.03"/><ellipse class="cls-9" cx="87.7" cy="306.5" rx="50.74" ry="14.07"/><ellipse class="cls-8" cx="87.7" cy="303.09" rx="50.74" ry="14.07"/><polygon class="cls-8" points="36.97 298.7 36.97 304.26 40.65 305.01 40.65 303.96 36.97 298.7"/><polygon class="cls-8" points="138.41 298.23 138.44 303.93 134.5 305.85 134.5 304.14 138.41 298.23"/><ellipse class="cls-9" cx="87.7" cy="298.7" rx="50.74" ry="14.07"/><ellipse class="cls-8" cx="87.7" cy="295.29" rx="50.74" ry="14.07"/><polygon class="cls-8" points="36.97 290.9 36.97 296.46 40.65 297.21 40.65 296.16 36.97 290.9"/><polygon class="cls-8" points="138.41 290.43 138.44 296.13 134.5 298.05 134.5 296.34 138.41 290.43"/><ellipse class="cls-9" cx="87.7" cy="290.9" rx="50.74" ry="14.07"/><ellipse class="cls-8" cx="87.7" cy="287.49" rx="50.74" ry="14.07"/><polygon class="cls-8" points="36.97 283.1 36.97 288.66 40.65 289.41 40.65 288.36 36.97 283.1"/><polygon class="cls-8" points="138.41 282.63 138.44 288.32 134.5 290.25 134.5 288.54 138.41 282.63"/><ellipse class="cls-9" cx="87.7" cy="283.1" rx="50.74" ry="14.07"/><ellipse class="cls-8" cx="87.7" cy="279.69" rx="50.74" ry="14.07"/><polygon class="cls-8" points="36.97 275.3 36.97 280.86 40.65 281.61 40.65 280.56 36.97 275.3"/><polygon class="cls-8" points="138.41 274.82 138.44 280.52 134.5 282.45 134.5 280.74 138.41 274.82"/><ellipse class="cls-9" cx="87.7" cy="275.3" rx="50.74" ry="14.07"/><path class="cls-10" d="M293.36,152.41s17.25-5.48,19.34-2.13-15.07,9.54-18.63,8.87l-1.24-6.74"/><rect class="cls-11" x="148.77" y="221.74" width="56.77" height="40.55"/><path class="cls-11" d="M168.07,221.74a9.06,9.06,0,0,1,7-8.29v2.38s-3.88,2.64-4.76,5.91Z"/><path class="cls-12" d="M214.8,100.75s.94,7.6,0,9.36-1.82,9.23-1.82,9.23,10,11.43,11.24,11.43,13.25-3,13.25-3l-7.39-20.09s-.32-13.21,0-15.28-16-1-16-1Z"/><path class="cls-4" d="M188.74,118.19s5.09-13.85,19.35-13.44l33.82.81s9.17,4.4,18.54,25l8.74,14.81,21.93,6.39v8.58h-32.5L244.4,139.71l-6.7,185H223.85l2.71-128.89-13.17-.54-14.67,130-11.82-1.36,8.83-121.29s.92-38.06,3.31-61.46c0,0-11.39,15.43-11,19.1s-2.29,44.81-2.29,44.81l-11.41-.82-1-47.81s-1.9-4.07,3.26-12.22"/><path class="cls-13" d="M196.52,187.83c-.16,8.44-.59,14-.59,14L187.1,323.16l11.81,1.36,14.67-130,13.18.54L224,324h13.85l5.2-136.15Z"/><path class="cls-14" d="M225.76,325.4l-.55.77s-7.06.28-8.42,4.21S238.12,332,238.12,332l.13-5.84Z"/><path class="cls-14" d="M185.65,325.4l-.54.77s-7.07.28-8.43,4.21S198,332,198,332l.13-5.84Z"/><circle class="cls-8" cx="301.45" cy="121.53" r="26.7"/><circle class="cls-9" cx="295.8" cy="121.53" r="26.7"/><path class="cls-8" d="M306,110.21h-20.3v5.73h4.18a4.83,4.83,0,0,1,3.8,1.88h-8v5.72h8.06a4.82,4.82,0,0,1-3.88,2H287v4.64l11,10,3.85-4.24-6.67-6.06a10.48,10.48,0,0,0,4.85-6.28h6v-5.72h-6a10.53,10.53,0,0,0-.75-1.88h6.75v-5.73Z"/><path class="cls-15" d="M175.11,206.27s-4.22,15.13,7.46,15.13,2.84-15.13,2.84-15.13Z"/><path class="cls-16" d="M203.23,78.39c-.55-1.69-1-3.43-1.41-5.14-1-4.18-1-8.58,2-12a24,24,0,0,1,6.64-5A23.78,23.78,0,0,1,220.93,53a61.14,61.14,0,0,0,10.2-1c3.7-.85,7.5-2.33,11.32-1.17a4.63,4.63,0,0,1,2.45,1.56,4.9,4.9,0,0,1,.73,1.65c.83,3.14,1.83,6.75.14,9.46-1,1.58-2.62,2.23-3.93,3.41-.92.82-1.22-.19-1.08,1.25.1,1-.24,2.63.25,3.46,1.72,2.9.92,5.92.59,9-.16,1.46-1.76,5-3.17,5.94-1.07.72-.89-18.8-2.15-19.34s-24.73.15-25.6-.53C208,64.63,209.18,88.5,207,85.86A22.57,22.57,0,0,1,203.23,78.39Z"/><ellipse class="cls-12" cx="238.02" cy="81.1" rx="2.63" ry="4.06"/><ellipse class="cls-12" cx="207.76" cy="80.29" rx="2.39" ry="4.06"/><path class="cls-10" d="M238.24,86.49h0C236.05,95,230.06,101,223,101c-7.22,0-13.34-6.36-15.4-15.13,1.38-2,.7-21,3.08-19.17.87.68,24.36,0,25.6.53S237.38,84.88,238.24,86.49Z"/></svg>