<svg id="Layer_1" data-name="Layer 1" xmlns="http://www.w3.org/2000/svg" xmlns:xlink="http://www.w3.org/1999/xlink" viewBox="0 0 458 411.09"><defs><style>.cls-1,.cls-16,.cls-17{fill:none;}.cls-2{fill:#88d7ff;opacity:0.25;}.cls-3{fill:#2796af;}.cls-11,.cls-14,.cls-3,.cls-4,.cls-5,.cls-6,.cls-8,.cls-9{fill-rule:evenodd;}.cls-4{fill:#111f3d;}.cls-5{fill:#ffc1b6;}.cls-18,.cls-6{fill:#30b7df;}.cls-7{clip-path:url(#clip-path);}.cls-8{fill:#0061ae;}.cls-10,.cls-11{fill:#aebacb;}.cls-12{fill:#162952;}.cls-13{clip-path:url(#clip-path-2);}.cls-14{fill:#111f3b;}.cls-15{clip-path:url(#clip-path-3);}.cls-16{stroke:#4745ab;}.cls-16,.cls-17{stroke-miterlimit:10;stroke-width:3px;}.cls-17{stroke:#ff6584;}</style><clipPath id="clip-path"><polygon class="cls-1" points="261.58 181.87 208.28 203.53 226.5 284.4 242.34 287.02 271.23 184.49 261.58 181.87"/></clipPath><clipPath id="clip-path-2"><polygon class="cls-1" points="93.89 247.49 39.72 247.33 26.73 323.29 39.6 331.13 101.35 253.15 93.89 247.49"/></clipPath><clipPath id="clip-path-3"><polygon class="cls-1" points="146.95 269.45 107.34 269.97 98.65 333.78 108.14 340.19 152.47 274.1 146.95 269.45"/></clipPath></defs><title>purchase template</title><ellipse class="cls-2" cx="236.98" cy="336.48" rx="219.08" ry="22.76"/><polygon class="cls-3" points="362.51 201.99 362.13 335.5 371.33 337.28 388.17 247.5 399.64 338.4 407.93 338.4 407.47 197.27 362.51 201.99"/><path class="cls-4" d="M367.19,90.82s-8.27-10.33.85-13.14.09,0,.09,0-7.64-3.17-3.6-7.83,11.95,2.86,11.95,2.86a35.76,35.76,0,0,0,21.16,8c13.33.72,6,19,2,20.94s1,1.83-.91,4.92-11.54,8.15-11.54,8.15l-5.62-11.68S375.48,96,375.36,96,367.19,90.82,367.19,90.82Z"/><path class="cls-5" d="M368.44,86.58s-10.69,31.27,5.51,29.7l.36,2.89-2.53,1.66s1.21,10.69,1.3,10.72,15.48.87,15.48.87l5.87-8.28-2.81-5.23-3.3-2.1-1.94-4.34,2.86-2.49s8.23,1.65,5.1-6.34a21.11,21.11,0,0,1-2.7-.83c-.36-.24-1.81,4.07-1.81,4.07s-1.28,2.77-2.53,2.2-3-7.64.33-13.16c0,0,1.94-4.48-.31-5.1,0,0-1.62-.6-5.26.89S370.46,92.75,368.44,86.58Z"/><path class="cls-6" d="M362.51,202l-.61-54.26s1.16-22.54,12.06-28.38c0,0-3.66,8.1,3.89,8.58s10-4.08,10.48-11.12c0,0,13.86.77,23.41,14.74s9.62,15.07,9.62,15.07l-16.61,15.8,4.37,34-1.64.83Z"/><path class="cls-5" d="M406.86,160.21l3.61,4.44s-27.23,13.92-33.9,16.92a51.86,51.86,0,0,0-14,10.13c-.51.75-.53,1,.6.23s7.75-5.07,7.75-5.07-7.93,6.32-8.25,7.46c0,0-.71,1.11-.5,1.25s9.11-6.5,9.11-6.5-6.32,7-6.68,8.07c0,0-.64.87-.23,1s9-7.8,9-7.8-4.76,5.55-5.32,7.28c0,0-.53,1.11-.19,1.14s8.34-6.94,8.34-6.94,3-3.74,15.36-6.26,26.68-6.33,34.33-12.61-5.93-24.25-5.93-24.25Z"/><path class="cls-3" d="M261.59,181.87l-53.3,21.66L226.5,284.4,242.35,287l28.88-102.53Z"/><g class="cls-7"><path class="cls-8" d="M223.36,207.51l-17.9-5.19L261.25,179l21.48,7.56Z"/></g><path class="cls-6" d="M271,184.08l-53.07,21.85L242.35,287l63.42-27.07Z"/><path class="cls-9" d="M238.57,170.66h.86l.12,0,.12,0,.12,0,.12,0,.13,0,.13,0,.13,0,.12,0,.12,0,.13,0,.13,0,.13,0,.13,0,.13,0,.13,0,.13,0,.13,0,.13,0,.13,0,.13.05.13.05.13.05.13.06.13.06.13.06.13.06.13.06.13.07.13.07.14.07.26.14.27.15.27.16.27.17.27.18.17.11.17.12.17.12.16.12.16.12.16.13.16.13.16.13.16.13.15.13.15.14.15.14.15.14.14.14.14.14.14.15.14.14.14.15.13.15.13.15.13.15.13.15.13.16.13.15.12.15.12.16.12.16.12.16.12.16.11.16.12.16.12.16.11.16.11.17.11.17.11.17.11.17.1.17.1.17.1.17.1.17.1.17.1.18.1.17.09.18.1.18.18.35.18.36.18.36.17.36.16.37.16.37.16.37.15.37.15.37.14.37.14.38.14.38.13.38.13.38.13.38.12.38.12.38.12.38.11.38.11.38.11.38.11.38.1.38.1.38.1.38.1.37.09.37.19.74.18.73.18.72.34,1.4.16.68.17.67,0,.13v.39l0,.13,0,.13,0,.12-.06.12-.07.11-.08.1-.09.1-.1.09-.1.08-.11.07-.12.06-.12,0-.13,0-.13,0-.13,0h-.26l-.13,0-.12,0-.12,0-.12-.06-.11-.07-.1-.08-.1-.09-.09-.1-.08-.1-.07-.11-.06-.12-.05-.12,0-.13-.17-.67-.17-.68-.34-1.4-.17-.71-.18-.72-.18-.72-.09-.36-.1-.36-.09-.36-.1-.36-.1-.36-.1-.36-.11-.36-.11-.36-.11-.36-.11-.36-.11-.36-.12-.36-.12-.36-.12-.36-.13-.35-.13-.35-.13-.35-.14-.35-.14-.35-.14-.34L249,183l-.15-.34-.15-.34-.15-.33-.16-.33-.16-.32-.17-.32-.08-.16-.09-.16-.08-.15-.09-.16-.09-.15-.09-.15-.09-.15-.09-.15-.09-.15-.09-.15-.1-.15-.1-.15-.09-.14-.1-.14-.1-.14-.1-.14-.1-.14-.1-.14-.11-.14-.1-.14-.11-.13-.11-.13-.11-.13-.11-.13-.11-.13-.11-.13-.11-.12-.11-.12-.11-.12-.12-.12-.12-.12-.12-.12-.12-.12-.12-.11-.12-.11-.12-.11-.12-.11-.12-.11-.13-.1-.13-.1-.13-.1-.13-.1-.13-.1-.13-.1-.14-.09-.14-.09-.23-.15-.22-.14-.22-.13-.21-.13-.22-.12-.1-.05-.11-.05-.1-.05-.1-.05-.1,0-.1,0-.1,0-.1,0-.1,0-.1,0-.1,0-.1,0-.1,0-.1,0-.1,0-.09,0-.09,0-.09,0-.09,0-.09,0-.09,0-.09,0-.09,0-.09,0-.09,0h-.09l-.08,0H237.4l-.15,0-.14,0-.14,0-.14,0-.14,0-.13.05-.14.06-.13.06-.13.06-.13.07-.13.07-.13.08-.13.08-.13.08-.13.09-.13.09-.12.09-.12.1-.12.1-.12.11-.12.11-.12.11-.12.12-.11.12-.12.12-.11.13-.11.13-.11.13-.11.14-.11.14-.11.14-.1.15-.11.15-.1.15-.1.16-.1.16-.1.16-.1.17-.09.16-.09.17-.09.17-.09.17-.09.17-.08.18-.08.17-.08.18-.08.18-.08.18-.08.18-.07.19-.07.19-.07.19-.07.19-.07.19-.06.19-.06.19-.06.19-.06.2-.05.19-.05.19-.05.2-.05.2,0,.2,0,.2,0,.19,0,.2,0,.2,0,.2,0,.19,0,.19,0,.2,0,.19,0,.19,0,.19,0,.19,0,.19,0,.19V185l0,.19v2.25l0,.16,0,.15,0,.15,0,.15,0,.15.08.48.09.48.09.48.09.48.09.48.09.48.1.48.1.48.1.48.1.48.1.48.11.48.11.48.11.48.11.47.11.48.11.47.11.47.11.47.12.48.12.47.12.47.12.47.12.47.13.47.13.47.13.47.13.47.13.47.13.47.14.46.14.47,0,.13,0,.13v.26l0,.13,0,.13,0,.12-.05.12-.06.11-.07.11-.08.1-.09.09-.1.08-.11.08-.11.07-.12.05-.12,0-.13,0-.13,0h-.26l-.13,0-.13,0-.13,0-.12-.05-.11-.06-.11-.07-.1-.08-.09-.09-.08-.1-.08-.11-.07-.11-.05-.12,0-.12-.14-.47-.14-.48-.14-.48-.14-.48-.13-.48-.13-.48-.13-.48-.13-.48-.13-.48-.12-.48-.12-.48-.12-.48-.12-.48-.12-.48-.11-.48-.12-.49-.11-.49-.11-.49-.11-.49-.11-.49-.11-.49-.1-.49-.1-.49-.1-.49-.1-.49-.1-.49-.1-.49-.09-.49-.09-.49-.09-.49-.09-.49-.09-.5,0-.19,0-.19,0-.19,0-.19,0-.2,0-.2v-2.72l0-.22,0-.22,0-.22,0-.22,0-.22,0-.22,0-.22,0-.22,0-.22,0-.22,0-.22,0-.22,0-.22,0-.23,0-.22.06-.23.05-.22.06-.22.06-.22.06-.22.07-.22.07-.22.07-.22.07-.22.08-.22L229,179l.08-.22.08-.22.08-.22.09-.21.09-.21.09-.21.09-.21.1-.21.1-.21.1-.21.1-.2.11-.2.11-.2.11-.2.11-.2.12-.2.12-.19.12-.19.13-.19.13-.19.13-.18.13-.18.14-.18.14-.18.15-.17.15-.17.15-.17.15-.17.15-.16.16-.16.16-.15.16-.15.17-.15.17-.15.17-.14.18-.14.18-.13.18-.13.19-.12.19-.12.19-.11.19-.11.2-.11.2-.1.2-.09.21-.09.21-.08.21-.08.22-.07.22-.06.22-.06.22-.05.12,0,.11,0,.12,0,.12,0h.11l.12,0h1.07Z"/><path class="cls-9" d="M227.47,171.59h.39l.2,0,.2,0,.2,0,.2,0,.2,0,.2,0,.2,0,.2,0,.2.05.2.06.2.06.2.07.2.07.2.08.2.08.2.09.2.09.2.09.2.1.2.1.2.11.2.11.2.12.2.12.2.13.2.13.2.14.12.09.12.09.12.09.12.09.11.09.12.1.12.09.12.1.22.2.22.2.22.21.22.21.22.22.21.22.21.23.2.23.2.23.2.24.2.24.19.25.19.25.19.25.19.25.18.26.18.26.18.26.17.27.17.27.17.27.16.28.16.28.16.28.16.28.15.28.15.28.15.29.14.29.14.29.14.29.14.29.13.29.13.29.13.29.13.29.12.29.12.29.11.29.12.29.11.29.11.29.1.29.1.29.1.29.1.29.1.29.09.29.09.28.08.29.08.28.08.28.08.28.07.28.07.28.07.27.07.27.06.27.06.26.05.26,0,.12V191l0,.12,0,.12,0,.11-.05.11-.06.11-.07.1-.07.09-.08.09-.09.08-.1.07-.1.06-.11.05-.11,0-.12,0-.12,0-.12,0h-.24l-.12,0-.12,0-.12,0-.11,0-.11-.05-.1-.06-.1-.07-.09-.08-.08-.09-.07-.09-.07-.1-.06-.1,0-.11,0-.11,0-.12-.05-.25-.05-.24-.06-.24-.06-.25-.06-.25-.07-.25-.07-.26-.07-.26-.07-.26-.08-.26-.08-.26-.08-.26-.08-.27-.08-.27-.09-.27-.09-.27-.1-.27-.1-.27-.1-.27-.1-.27-.11-.27-.11-.27-.11-.27-.11-.27-.12-.27-.12-.27-.12-.27-.12-.27-.13-.27-.13-.27L237,183l-.13-.26-.14-.26-.14-.26-.14-.26-.14-.26-.14-.25-.15-.25-.15-.25-.15-.25-.15-.24-.16-.24-.15-.24-.16-.23-.16-.23-.16-.23-.16-.22-.17-.22-.17-.22-.17-.21-.17-.2-.17-.2-.18-.19-.17-.19-.18-.18-.18-.18-.18-.18-.18-.17-.18-.17-.19-.16-.09-.08-.09-.08-.09-.08-.09-.07-.09-.07-.09-.07-.09-.07-.09-.07-.16-.11-.16-.11-.16-.1-.16-.1-.16-.09-.16-.09-.16-.08-.15-.08-.15-.08-.15-.07-.15-.07-.15-.06-.15-.06-.15-.06-.14-.05-.15,0-.15,0-.14,0-.14,0-.14,0-.14,0-.14,0-.14,0-.14,0-.14,0-.14,0h-1.32l-.13,0-.13,0-.13,0-.13,0-.13,0-.13,0-.12,0-.13,0-.12,0-.12,0-.12,0-.12,0-.12.05-.12.05-.12.05-.12.06-.12.06-.12.06-.12.06-.12.06-.12.07-.11.07-.12.07-.11.08-.12.08-.11.08-.11.08-.11.09L223,176l-.11.09-.11.09-.11.09-.11.1-.11.1-.11.1-.1.1-.1.1-.1.11-.1.11-.1.11-.1.11-.1.11-.1.11-.1.12-.1.12-.09.12-.09.12-.09.12-.09.13-.09.13-.09.13-.08.13-.09.13-.08.13-.08.13-.08.13-.08.14-.08.14-.08.14-.07.14-.07.14-.07.14-.07.14-.07.15-.06.14-.07.15-.06.15-.06.15-.06.15-.06.15-.05.15-.05.15-.05.15-.05.15,0,.15,0,.15,0,.15,0,.15,0,.15,0,.15,0,.15,0,.15,0,.15,0,.15,0,.15,0,.15,0,.16,0,.15,0,.15,0,.15,0,.15,0,.15,0,.24,0,.24v2.56l0,.23,0,.23,0,.23,0,.23,0,.23,0,.23,0,.23,0,.23,0,.23,0,.23,0,.23,0,.23,0,.23,0,.23,0,.23,0,.23,0,.23.09.47.1.47.11.47.11.47.11.47.11.47.12.47.24,1,.24,1,.12.48.12.48.12.49.11.49.11.49.1.49,0,.12V200l0,.12,0,.11,0,.12-.05.11-.06.1-.07.1-.08.09-.08.09-.09.08-.1.07-.1.06-.11.05-.11,0-.11,0-.12,0h-.48l-.12,0-.12,0-.11,0-.11-.05-.1-.06-.1-.07-.09-.08-.08-.09-.07-.09-.07-.1-.06-.1,0-.11,0-.11,0-.12-.1-.48-.11-.47-.11-.47-.11-.47-.12-.47-.11-.47-.24-1-.24-1-.12-.48-.12-.48-.11-.49-.11-.49-.11-.49-.1-.49-.1-.49,0-.25,0-.25,0-.25,0-.25,0-.25,0-.25,0-.25,0-.25,0-.26,0-.25,0-.26,0-.26,0-.26,0-.26,0-.26,0-.26,0-.26V185l0-.27,0-.27,0-.27,0-.19,0-.19,0-.19,0-.19,0-.19,0-.19,0-.19,0-.19,0-.19,0-.19,0-.19,0-.19,0-.19.05-.19.05-.19.06-.18.06-.18.06-.18.06-.18.07-.18.06-.18.07-.18.07-.18.07-.18.07-.18.08-.18.08-.18.08-.17.08-.17.08-.17.09-.17.09-.17.09-.17.09-.17.1-.17.09-.16.1-.16.1-.16.1-.16.1-.16.11-.16.11-.16.11-.16.11-.15.11-.15.11-.15.12-.15.12-.15.12-.15.12-.14.12-.14.12-.14.13-.14.13-.14.13-.14.13-.13.13-.13.14-.13.14-.13.14-.12.14-.12.14-.12.15-.12.15-.12.15-.11.15-.11.15-.1.15-.11.15-.1.16-.1.16-.1.16-.09.16-.09.16-.09.17-.09.17-.08.17-.08.17-.08.17-.07.18-.07.17-.07.17-.06.18-.06.18-.05.18-.05.18,0,.18,0,.19,0,.18,0,.19,0,.19,0,.19,0,.19,0,.19,0h1Z"/><path class="cls-10" d="M319.18,289.74h0l-127-.12a2.79,2.79,0,0,1-2.73-2.22l-13.54-65.49a2.79,2.79,0,0,1,2.49-3.34L327,205.79a2.83,2.83,0,0,1,2.23.82,2.78,2.78,0,0,1,.79,2.24l-8.09,78.38A2.79,2.79,0,0,1,319.18,289.74ZM194.45,284l122.21.11,7.49-72.53L182,223.85Z"/><path class="cls-10" d="M327.27,211.11a2.62,2.62,0,0,1-.56-.06,2.54,2.54,0,0,1-1.92-3l1.86-8.27a10.9,10.9,0,0,1,11-8.15l24.76.26a2.54,2.54,0,0,1,0,5.08h0l-24.77-.26h-.12a5.71,5.71,0,0,0-5.88,4.2l-1.86,8.25A2.54,2.54,0,0,1,327.27,211.11Z"/><path class="cls-10" d="M306.46,304.92a36.09,36.09,0,0,1-4.26-.25l-107.05-.33a2.77,2.77,0,0,1,0-5.54h0l107.23.33.36,0c4.23.56,11.18.17,12.63-2.46,1-1.9,1.34-7.07,1.22-10.12a2.77,2.77,0,0,1,2.65-2.88h.12a2.77,2.77,0,0,1,2.77,2.66c0,.91.3,9-1.9,13C317.65,304.06,311,304.92,306.46,304.92Z"/><circle class="cls-10" cx="307.33" cy="314.55" r="11.25"/><circle class="cls-10" cx="204.45" cy="313.46" r="11.25"/><path class="cls-9" d="M307.44,307.9h.21l.21,0,.21,0,.21,0,.22,0,.21.05.22.06.22.07.21.07.21.08.21.09.21.1.21.11.21.12.21.12.14.08.13.09.13.09.13.09.12.09.12.09.12.1.12.1.11.1.11.1.11.1.11.1.1.11.1.11.1.11.09.11.09.11.09.11.09.12.08.12.08.12.08.12.07.12.07.12.07.12.07.12.06.13.06.12.06.13.05.13.05.13,0,.13,0,.13,0,.13,0,.13,0,.13,0,.13,0,.13,0,.13,0,.13,0,.13,0,.13,0,.13,0,.13v1.7l0,.13,0,.13,0,.13,0,.13,0,.13,0,.13,0,.13,0,.13,0,.13,0,.12,0,.12,0,.12,0,.12,0,.12,0,.12-.05.12-.05.12-.06.12-.06.12-.06.12-.06.12-.06.11-.07.11-.07.11-.07.11-.07.11-.07.11-.07.11-.08.1-.08.1-.08.1-.08.1-.09.1-.09.1-.09.09-.09.09-.09.09-.1.09-.1.09-.1.09-.1.09-.1.08-.1.08-.11.08-.11.08-.11.07-.11.07-.12.07-.12.07-.12.07-.12.06-.12.06-.12.06-.13.06-.13.06-.13.05-.13.05-.13,0-.13,0-.13,0-.14,0-.14,0-.14,0-.14,0-.14,0-.14,0-.14,0-.15,0-.15,0h-1.57l-.12,0-.12,0-.12,0-.12,0-.12,0-.12,0-.12,0-.12,0-.22-.06-.22-.07-.22-.07-.21-.08-.21-.09-.2-.09-.2-.1-.19-.11-.19-.11-.18-.12-.18-.12-.17-.13-.16-.13-.16-.14-.15-.14-.15-.15-.14-.15-.14-.15-.13-.15-.12-.16-.12-.16-.11-.16-.11-.16-.1-.17-.1-.17-.09-.17-.09-.17-.08-.17-.07-.17-.07-.17-.07-.18-.06-.17-.06-.18-.05-.18,0-.18,0-.18,0-.18,0-.18,0-.18,0-.18,0-.18,0-.18V314.2l0-.17,0-.17,0-.17,0-.16,0-.16,0-.16,0-.17.05-.17.06-.17.06-.17.06-.17.07-.17L301,312l.08-.16.08-.16.09-.16.09-.16.09-.15.1-.15.1-.15.11-.15.11-.15.11-.14.12-.14.12-.14.13-.14.13-.13.13-.13.14-.13.14-.12.14-.12.15-.12.15-.11.15-.11.16-.11.16-.1.16-.1.17-.09.17-.09.17-.09.18-.08.18-.08.18-.07.19-.07.19-.06.19-.05.19-.05.2,0,.2,0,.2,0,.2,0,.21,0h.63Zm-.32,3.13h-.3l-.1,0-.1,0-.1,0-.1,0-.1,0-.1,0-.1,0-.09,0-.09,0-.09,0-.09,0-.09,0-.09.05-.09.05-.09.06-.09.06-.09.06-.09.06-.08.07-.08.07-.08.07-.08.07-.08.08-.08.08-.07.08-.07.08-.07.08-.07.08-.06.09-.06.09-.06.09-.06.09-.05.09-.05.09,0,.09,0,.09,0,.09,0,.09,0,.09,0,.09,0,.09,0,.09,0,.08,0,.09,0,.07,0,.08v1.23l0,.1,0,.1,0,.1,0,.1,0,.1,0,.1,0,.1,0,.1,0,.1,0,.1,0,.1,0,.1,0,.1,0,.09.05.09.05.09.06.09.06.09.06.08.06.08.06.08.07.08.07.08.07.07.07.07.08.07.08.07.08.07.08.06.09.06.09.06.09.05.09.05.1.05.1,0,.11,0,.11,0,.11,0,.12,0,.13,0H308l.07,0,.07,0,.07,0,.07,0,.07,0,.07,0,.07,0,.07,0,.07,0,.07,0,.06,0,.06,0,.06,0,.06,0,.06,0,.06,0,.06,0,.06,0,.06,0,.06,0,.06,0,.06,0,.05,0,.05,0,.05,0,.05,0,.05,0,.05,0,0,0,0-.05,0-.05,0-.05,0-.05,0-.05,0-.06,0-.06,0-.06,0-.06,0-.06,0-.06,0-.06,0-.06,0-.06,0-.06,0-.06,0-.06,0-.06,0-.07,0-.07,0-.07,0-.07,0-.07,0-.07,0-.07,0-.07,0-.07,0-.07,0-.07,0-.07,0-.07,0-.07V314l0-.07,0-.07,0-.07,0-.07,0-.07,0-.07,0-.07,0-.07,0-.07,0-.07,0-.07,0-.07,0-.07,0-.07,0-.06,0-.06,0-.06,0-.06,0-.06,0-.06,0-.06,0-.06,0-.06,0-.06-.05-.06-.05-.06-.05-.06-.06-.06-.06-.06-.06-.06-.06-.06-.06-.06-.07-.06-.07-.05-.07-.05-.07-.05-.08-.05-.08-.05-.08-.05-.08,0-.13-.08-.12-.07-.12-.06-.12-.06-.12,0-.12,0-.12,0-.11,0-.11,0-.11,0-.11,0-.11,0h-.52Z"/><path class="cls-9" d="M204.63,306.56h.21l.21,0,.21,0,.21,0,.22,0,.21.05.22.06.22.07.21.07.21.08.21.09.21.1.21.11.21.12.21.12.14.09.13.08.13.09.13.09.12.09.12.09.12.1.12.1.11.1.11.1.11.1.11.1.1.11.1.11.1.11.09.11.09.11.09.11.09.12.08.12.08.12.08.12.07.12.07.12.07.12.07.12.06.12.06.12.06.13.05.13.05.13,0,.13,0,.13,0,.13,0,.13,0,.13,0,.13,0,.13,0,.13,0,.13,0,.13,0,.13,0,.13,0,.13v1.57l0,.13,0,.13,0,.13,0,.13,0,.13,0,.13,0,.13,0,.13,0,.13,0,.13,0,.12,0,.12,0,.12,0,.12,0,.12,0,.12-.05.12-.05.12-.06.12-.06.12-.06.12-.06.12-.06.11-.06.11-.07.11-.07.11-.07.11-.07.11-.07.11-.08.1-.08.1-.08.1-.08.1-.09.1-.09.1-.09.09-.09.09-.09.09-.1.09-.1.09-.1.09-.1.09-.1.08-.11.08-.11.08-.11.08-.11.07-.11.07-.12.07-.12.07-.12.07-.12.06-.12.06-.12.06-.13.06-.13.06-.13.05-.13.05-.13,0-.13,0-.13,0-.14,0-.14,0-.14,0-.14,0-.14,0-.14,0-.15,0-.14,0-.15,0h-1.57l-.12,0-.12,0-.12,0-.12,0-.12,0-.12,0-.12,0-.12,0-.22-.06-.22-.07L202,320l-.21-.08-.21-.09-.2-.09-.2-.1-.19-.11-.19-.11-.18-.12-.18-.12-.17-.13-.17-.13-.16-.14-.15-.14-.15-.15-.14-.15-.14-.15-.13-.15-.12-.16-.12-.16-.11-.16-.11-.16-.1-.17-.1-.17-.09-.17-.09-.17-.08-.17-.07-.17-.07-.17-.07-.17-.06-.18-.06-.18-.05-.18,0-.18,0-.18,0-.18,0-.18,0-.18,0-.18,0-.18,0-.17v-1.21l0-.17,0-.17,0-.17,0-.16,0-.16,0-.16,0-.17.05-.17.06-.17.06-.17.06-.17.07-.17.07-.16.08-.16.08-.16.09-.16.09-.16.09-.15.1-.15.1-.15.11-.15.11-.15.12-.14.12-.14.12-.14.13-.14.13-.13.13-.13.14-.13.14-.12.14-.12.15-.12.15-.11.15-.11.16-.11.16-.1.16-.1.17-.1.17-.09.17-.09.18-.08L202,307l.18-.07.19-.07.19-.06.19-.05.2-.05.2,0,.2,0,.2,0,.2,0,.21,0h.63Zm-.32,3.13H204l-.1,0-.1,0-.1,0-.1,0-.1,0-.1,0-.1,0-.09,0-.09,0-.09,0-.09,0-.09,0-.09.05-.09.05-.09.06-.09.06-.09.06-.09.06-.08.07-.08.07-.08.07-.08.07-.08.08-.08.08-.07.08-.07.08-.07.08-.07.08-.06.09-.06.09-.06.09-.06.09-.05.09-.05.09,0,.09,0,.09,0,.09,0,.09,0,.09,0,.09,0,.09,0,.09,0,.08,0,.09,0,.07,0,.08V314l0,.1,0,.1,0,.1,0,.1,0,.1,0,.1,0,.1,0,.1,0,.1,0,.1,0,.1,0,.1,0,.1,0,.09.05.09.05.09.06.09.06.09.06.08.06.08.06.08.07.08.07.08.07.07.07.07.08.07.08.07.08.07.08.06.09.06.09.06.09.05.09.05.1.05.1,0,.11,0,.11,0,.11,0,.12,0,.13,0h1.8l.07,0,.07,0,.07,0,.07,0,.07,0,.07,0,.07,0,.07,0,.07,0,.07,0,.06,0,.06,0,.06,0,.06,0,.06,0,.06,0,.06,0,.06,0,.06,0,.06,0,.06,0,.06,0,.06,0,.05,0,.05,0,.05,0,.05,0,.05,0,0,0,0-.05,0-.05,0-.05,0-.05,0-.05,0-.06,0-.06,0-.06,0-.06,0-.06,0-.06,0-.06,0-.06,0-.06,0-.06,0-.06,0-.07,0-.06,0-.07,0-.07,0-.07,0-.07,0-.07,0-.07,0-.07,0-.07,0-.07,0-.07,0-.07,0-.07,0-.07,0-.07v-1.52l0-.07,0-.07,0-.07,0-.07,0-.07,0-.07,0-.07,0-.07,0-.07,0-.07,0-.07,0-.07,0-.07,0-.07,0-.06,0-.06,0-.06,0-.06,0-.06,0-.06,0-.06,0-.06,0-.06,0-.06-.05-.06-.05-.06-.05-.06-.06-.06-.06-.06-.06-.06-.06-.06-.06-.06-.07-.06-.07-.05-.07-.05-.07-.05-.07-.05-.08-.05-.08-.05-.08,0-.13-.08-.12-.07-.12-.06-.12-.06-.12,0-.12,0-.12,0-.11,0-.11,0-.11,0-.11,0-.11,0h-.52Z"/><path class="cls-11" d="M338.76,195.12a4.2,4.2,0,0,1,4.2-4.19h18a4.19,4.19,0,1,1,0,8.39H343A4.2,4.2,0,0,1,338.76,195.12Z"/><path class="cls-10" d="M300.16,289.45a2.42,2.42,0,0,1-2.3-3.16c2.56-7.92,5.47-52.88,6.65-75.55a2.46,2.46,0,0,1,2.54-2.29,2.42,2.42,0,0,1,2.29,2.54c-.14,2.7-3.49,66.29-6.88,76.79A2.42,2.42,0,0,1,300.16,289.45Z"/><path class="cls-10" d="M278.89,288.77a2.15,2.15,0,0,1-.79-.15,2.12,2.12,0,0,1-1.18-2.76c3.24-8.06,6.18-56.06,7-73.88a2.12,2.12,0,1,1,4.23.21c-.13,2.64-3.16,64.89-7.33,75.26A2.12,2.12,0,0,1,278.89,288.77Z"/><path class="cls-10" d="M259.13,289.92a2.67,2.67,0,0,1-2.59-3.29c1.83-7.63,2.27-50.56,2.25-72.19a2.66,2.66,0,0,1,2.66-2.67h0a2.66,2.66,0,0,1,2.66,2.66c0,2.58,0,63.29-2.39,73.44A2.66,2.66,0,0,1,259.13,289.92Z"/><path class="cls-10" d="M208.66,288.27a2.42,2.42,0,0,1-2.36-1.93c-2.73-13.29-12-64.67-12.06-65.19a2.42,2.42,0,0,1,4.75-.85c.09.52,9.32,51.84,12,65.07a2.42,2.42,0,0,1-1.88,2.85A2.44,2.44,0,0,1,208.66,288.27Z"/><path class="cls-10" d="M224.59,289.17a2.4,2.4,0,0,1-2.36-2c-2.1-13.64-8.88-66.29-9-66.82a2.4,2.4,0,0,1,4.75-.61c.07.53,6.85,53.12,8.93,66.7a2.4,2.4,0,0,1-2,2.73Z"/><path class="cls-10" d="M242.77,289.31a2.39,2.39,0,0,1-2.39-2.24c-.95-14.42-3.37-70.07-3.4-70.63a2.4,2.4,0,1,1,4.79-.21c0,.56,2.44,56.15,3.39,70.52a2.39,2.39,0,0,1-2.23,2.55Z"/><path class="cls-11" d="M325,226.11l.27.1.25.15.21.19.18.23.13.26.08.28,0,.29,0,.29-.08.28-.13.26-.17.23-.21.2-.25.15-.27.11-.28.05-1.11.11-1.12.1-1.12.1-1.12.1-1.12.1-1.12.1-1.12.1-1.12.1-1.12.09-1.12.09-2.23.18-2.23.17-2.23.17-2.24.16-2.23.16-2.23.15-2.24.15-2.24.14-2.24.14-2.24.13-2.24.13-2.24.13-2.24.12-2.24.12-2.24.12-2.24.11-2.24.11-2.24.11-2.24.11-2.24.11-2.24.1-4.47.2-4.47.19-4.47.19-4.47.19-4.47.19-4.47.2-4.47.2-2.23.1-2.23.11-2.23.11-2.23.11-2.23.11-2.23.12-2.23.12-2.23.12-2.23.12-2.23.13-2.23.13-2.23.14-2.23.14-2.23.15-2.23.15-2.23.15-2.23.16-2.23.16-2.23.17-2.23.18-2.22.18-1.11.09-1.11.1-1.11.1-1.11.1-1.11.1-1.11.1h-.29l-.28-.05-.27-.1-.25-.15-.21-.2-.17-.23-.13-.26-.08-.28,0-.29,0-.29.08-.28.13-.26.17-.23.21-.19.25-.15.27-.1.28-.05,1.11-.1,1.12-.1,1.12-.1,1.12-.1,1.12-.1,1.12-.09,2.23-.18,2.23-.18,2.23-.17,2.23-.16,2.23-.16,2.24-.15,2.23-.15,2.24-.14,2.23-.14,2.24-.14,2.24-.13,2.24-.13,2.24-.13,2.24-.12,2.24-.12,2.24-.12,2.24-.11,2.24-.11,2.24-.11,2.24-.11,2.24-.1,4.47-.2,4.47-.2,4.47-.19,4.47-.19,4.47-.19,4.47-.2,4.47-.2,2.23-.1,2.23-.1,2.23-.11,2.23-.11,2.23-.11,2.23-.11,2.23-.12,2.23-.12,2.23-.12,2.23-.13,2.23-.13,2.23-.13,2.23-.14,2.23-.14,2.23-.15,2.23-.15,2.23-.16,2.23-.16,2.23-.17,2.23-.17,2.23-.18,1.11-.09,1.11-.09,1.11-.09,1.11-.1,1.11-.1,1.11-.1,1.11-.1,1.11-.1,1.11-.1,1.11-.11h.29Z"/><path class="cls-11" d="M302.6,247.45H304l.7,0,.7,0,.7,0,.7,0,.69,0,.69,0,1.38.06,1.38.06,1.38.06,1.38.05.69,0,.69,0,.68,0,.68,0h4.76l.68,0h.67l.34,0,.34,0h.29l.28.07.27.12.24.16.21.2.16.24.12.26.07.28,0,.29,0,.29-.09.27-.14.25-.18.22-.22.19-.25.14-.27.09-.29,0-.35,0H322l-.7,0h-4.9l-.7,0-.7,0-.7,0-.7,0-1.39-.05-1.38-.06-1.38-.06-1.38-.06-.69,0-.69,0-.69,0-.68,0-.68,0H297.3l-3.92,0-3.92,0-3.92,0-7.84.07-3.92,0-3.92,0-3.92,0-3.92,0h-32l-1.69,0-1.69,0-1.69,0-1.69,0-1.69,0-3.38.06-3.38.06-1.69,0-1.69,0-1.69,0-1.69,0-1.69,0-1.69,0H192.86l-.85,0-.85,0-.85,0-.85,0-.85,0-.85,0-.85,0-.85,0-.85,0-.85,0-.29,0-.28-.09-.25-.14-.22-.18-.19-.22L183,250l-.09-.27,0-.29v-.29l.07-.28.12-.26.16-.24.2-.2.24-.16.26-.12.28-.07h.29l.84,0,.84,0,.84,0,.84,0,.84,0,.84,0,.84,0,.84,0,.84,0,.84,0H204.7l1.68,0,1.69,0,1.69,0,1.69,0,1.69,0,1.69,0,3.38-.06,3.38-.06,1.69,0,1.69,0,1.69,0,1.69,0,1.69,0h32l3.92,0,3.92,0,3.92,0,3.92,0,7.84-.07,3.92,0,3.92,0,3.92,0h5.32Z"/><path class="cls-11" d="M187.69,265.6l.34,0,.34,0,.34,0,.33,0,.68.06.68.05.68,0,.68,0,.68,0,.68,0,.68,0,.68,0,.68,0,.69,0,.69,0H206.9l.69,0,.7,0,.7,0,.69,0,1.95.08,1.94.08,1.94.08,1.94.07,1.94.07,1.94.07,1.94.07,1.94.07,1.94.06,1.94.06,1.94.06,1.94.06,3.89.12,3.89.11,3.89.1,3.89.1,3.89.09,3.89.09,3.89.08,3.89.08L268,268l3.89.07,1.76,0,1.77,0,3.53.07,3.53.08,3.53.08,3.53.09,3.53.09,3.53.1,3.53.1.62,0,.62,0,.62,0,.62,0,.62,0,.62,0,1.24.08,1.24.08,1.24.08.62,0,.61,0,.61,0,.61,0,.61,0,.61,0,.61,0h3.91l.3,0,.3,0,.3,0,.29,0,.3,0,.29,0,.29,0,.29,0,.29,0,.29,0,.29,0,.29,0,.3,0,.27,0,.27,0,.26.08.24.12.22.16.19.2.15.23.11.25.06.27,0,.27,0,.27-.08.26-.12.25-.16.22-.2.19-.23.15-.25.11-.26.06-.31,0-.32,0-.32,0-.32,0-.32,0-.32,0-.32,0-.32,0-.32,0-.32,0-.32,0-.32,0-.32,0-.32,0h-3.81l-.63,0-.63,0-.63,0-.63,0-.63,0-.63,0-.62,0-1.24-.08-1.24-.08-1.23-.08-.61,0-.61,0-.61,0-.61,0-.6,0-.61,0-3.52-.1-3.52-.1-3.52-.09-3.52-.09-3.52-.09-3.52-.08-3.52-.07-1.76,0-1.76,0-3.89-.07-3.89-.08-3.89-.08-3.89-.09-3.89-.09-3.89-.09-3.89-.1-3.89-.1-3.89-.11-3.89-.12-1.95-.06-1.95-.06-1.94-.06-1.95-.07-1.95-.07-1.95-.07-1.95-.07-1.94-.07-1.95-.07-1.95-.08-1.95-.08-1.94-.08-.68,0-.68,0-.68,0-.68,0H196.45l-.7,0-.7,0-.7,0-.7,0-.7,0-.7,0-.7,0-.7,0-.7,0-.7-.05-.7-.06-.35,0-.35,0-.35,0-.35,0-.27-.05-.26-.1-.23-.14-.21-.18-.17-.21-.13-.24-.09-.26,0-.27V267l.05-.27.1-.25.14-.24.18-.2.21-.17.24-.13.26-.09.27,0Z"/><path class="cls-12" d="M362.13,335.5s-19.83-1-15.15,4.14S372.92,342,372.92,342l-1.59-4.75Z"/><path class="cls-12" d="M398.9,335.5s-19.83-1-15.15,4.14S409.7,342,409.7,342l-1.59-4.75Z"/><g id="BACKGROUND"><path class="cls-3" d="M93.89,247.49l-54.17-.17-13,76,12.88,7.84,61.75-78Z"/><g class="cls-13"><path class="cls-14" d="M51.44,256.07,37.7,245.29l56.91-.36,16,14.07Z"/></g><path class="cls-6" d="M101.32,252.72l-54,.08-7.68,78.33,64.92-.92Z"/><path class="cls-9" d="M75.19,228.82h.22l.23,0,.22,0,.22,0,.22,0,.22,0,.22.05.22.06.22.07.22.07.22.08.22.08.22.09.22.1.21.11.21.11.21.12.21.13.21.13.21.14.21.15.2.16.2.16.2.17.2.17.2.18.19.19.19.19.19.2.19.21.19.22.18.22.18.23.18.24.18.24.17.25.11.16.11.16.1.17.1.17.1.17.1.17.1.17.09.17.09.17.09.17.08.17.08.17.08.17.08.17.08.18.07.18.07.18.07.18.07.18.06.18.06.18.06.18.06.18.05.18.05.18.05.18.05.18,0,.18,0,.18,0,.18,0,.18,0,.19.08.37.07.37.06.37.06.37.05.37,0,.38,0,.38,0,.38,0,.38,0,.38,0,.38v2.64l0,.37,0,.37,0,.37,0,.37,0,.37,0,.37,0,.37,0,.37,0,.37,0,.37,0,.37,0,.36-.09.72-.09.71-.1.7-.1.69-.1.68-.2,1.32-.1.64-.09.63,0,.13,0,.13,0,.12-.05.12-.06.11-.07.11-.08.1-.09.1-.09.09-.1.08-.11.07-.11.06-.12.06-.12,0-.12,0-.13,0-.13,0h-.26l-.13,0-.13,0-.13,0-.12,0-.12-.05-.11-.06-.11-.07-.1-.08-.09-.09-.09-.09-.08-.1-.07-.11L81.1,257l-.06-.12,0-.12,0-.12,0-.13,0-.13V256l.1-.64.1-.65.2-1.32.1-.67.1-.68.1-.68.09-.69.09-.69,0-.35,0-.35,0-.35,0-.35,0-.35,0-.35,0-.35,0-.35,0-.35,0-.35,0-.35v-2.73l0-.33,0-.33,0-.33,0-.33,0-.33,0-.32,0-.32,0-.32-.05-.32-.06-.31-.06-.32,0-.15,0-.15,0-.15,0-.15,0-.15,0-.15,0-.15,0-.15,0-.14,0-.15,0-.14,0-.14-.05-.14-.06-.14-.05-.14-.06-.14-.06-.14-.06-.14-.06-.14-.06-.14-.06-.14-.06-.13-.07-.13-.07-.13-.07-.13-.07-.13-.07-.13-.08-.13-.08-.13-.08-.13-.08-.12-.09-.12-.14-.2-.14-.19-.14-.19-.14-.18-.14-.17-.14-.16-.14-.16-.14-.15-.14-.14-.14-.13-.14-.13-.14-.12-.14-.11-.14-.11-.13-.1-.13-.1-.13-.09-.13-.08-.13-.08-.13-.08-.13-.07-.13-.06-.13-.06-.13-.05-.13,0-.13,0-.13,0-.13,0-.13,0-.13,0-.13,0-.13,0-.13,0H74.3l-.13,0-.13,0-.13,0-.14,0-.13,0-.14,0-.14,0-.14,0-.14,0-.14.05-.14.05-.14.06-.14.06-.14.06-.14.07-.14.07-.14.07-.14.08-.14.08-.14.08-.14.08-.14.09-.14.09-.14.1-.14.1-.14.1-.14.11-.14.11-.14.11-.14.11-.13.11-.13.12-.13.12-.13.12-.13.12-.13.12-.13.13-.13.13-.13.13-.13.13-.13.13-.12.14-.12.14-.12.14-.12.14-.12.14-.12.15-.11.15-.11.15-.11.15-.11.15-.11.15-.11.15-.1.15-.1.15-.1.15-.1.15-.1.15-.1.15-.09.15-.09.15-.09.15-.09.15-.09.15-.08.15-.08.15-.08.15-.07.15-.07.15-.07.15-.07.15-.07.15-.07.15-.06.15-.06.15-.06.15-.05.14-.05.14,0,.14,0,.14,0,.14,0,.14,0,.13,0,.13,0,.13,0,.13-.19.88-.19.88-.18.89-.17.89-.17.89-.16.89-.08.44-.08.44-.07.45-.08.44-.07.45-.07.45-.07.44-.07.45-.07.45-.06.45-.06.45-.06.45-.06.45-.06.45-.05.45-.05.45,0,.45-.05.45,0,.45,0,.45,0,.13,0,.13,0,.13,0,.12-.06.12-.06.11-.07.11-.08.1-.09.09-.1.09-.1.08-.11.07-.12.06-.12.05-.12,0-.13,0-.13,0h-.39l-.13,0-.13,0-.12,0-.12,0-.11-.06-.11-.06-.1-.07-.1-.08-.09-.09-.09-.1-.08-.1-.07-.11-.06-.11-.05-.12,0-.12,0-.13,0-.13v-.39l0-.46,0-.46.05-.46.05-.46.05-.46.06-.46.06-.46.06-.46.06-.46.06-.46.06-.46.07-.46.07-.46.07-.46.07-.46.07-.46.08-.46.08-.46.08-.46.08-.46.17-.91.17-.91.18-.91.18-.91.19-.91.2-.91,0-.18,0-.18,0-.18.05-.18.05-.18.06-.18.06-.18.06-.18.07-.19.07-.18.07-.19.07-.18.08-.19.08-.19.08-.18.09-.18.09-.18.09-.18.09-.18.1-.18.1-.18.1-.18.1-.18.1-.18.11-.18.11-.18.11-.18.11-.18.11-.18.12-.18.12-.18.12-.18.12-.18.13-.18.13-.18.13-.17.13-.18.13-.17.14-.17.14-.17.14-.17.14-.17.14-.17.15-.16.15-.17.15-.16.15-.16.15-.16.16-.16.16-.16.16-.16.16-.15.16-.15.16-.15.17-.14.17-.14.17-.14.17-.14.17-.14.18-.13.18-.13.18-.13.18-.12.18-.12.18-.12.19-.12.19-.11.19-.11.19-.1.19-.1.19-.1.19-.09.2-.09.2-.09.2-.08.2-.08.2-.07.21-.07.21-.07.21-.06.21-.06.21,0,.21,0,.21,0,.21,0,.21,0,.22,0,.22,0h.88Z"/><path class="cls-9" d="M64.54,225.58h.54l.18,0,.18,0,.18,0,.18,0,.18,0,.18,0,.18,0,.18,0,.18,0,.18,0,.18.06.18.06.18.06.18.07.17.07.18.08.17.08.17.08.17.09.17.09.17.1.17.1.17.1.16.11.16.11.16.12.16.12.16.12.16.13.16.13.15.14.15.14.15.15.15.15.15.15.15.16.14.16.14.17.14.17.14.17.14.18.13.18.13.19.13.19.13.2.15.24.15.25.14.25.13.25.13.26.13.26.12.26.12.26.11.27.11.27.1.27.1.28.1.28.09.28.09.28.08.28.08.28.07.29.07.29.06.29.06.29.06.29.06.29.05.3,0,.3,0,.3,0,.3,0,.3,0,.3,0,.3,0,.3,0,.3,0,.3,0,.3,0,.3V244l0,.29,0,.29,0,.29,0,.28,0,.28,0,.28,0,.28,0,.27,0,.27,0,.27,0,.27,0,.26,0,.26,0,.26,0,.25,0,.24,0,.12,0,.11,0,.11,0,.11-.06.11-.07.1-.07.1-.08.09-.09.08-.09.08-.1.07-.1.06-.11.06-.11,0-.11,0-.11,0-.12,0h-.48l-.12,0-.11,0-.12,0-.11,0-.11-.05-.1-.06-.1-.07-.09-.08-.09-.09-.08-.09-.07-.1-.06-.1-.06-.11,0-.11,0-.11,0-.11,0-.12,0-.12v-.36l0-.12,0-.23,0-.23,0-.23,0-.23,0-.24,0-.24,0-.24,0-.25,0-.25,0-.25,0-.25,0-.25,0-.25,0-.26,0-.26,0-.26V240.1l0-.27,0-.27,0-.27,0-.27,0-.27,0-.27,0-.27,0-.26,0-.26,0-.26,0-.26-.05-.26-.05-.26-.05-.25-.06-.25-.06-.25-.06-.24-.07-.24L71,235.2l-.07-.23-.07-.23-.08-.23-.08-.22-.08-.22-.09-.22-.09-.21-.09-.21-.1-.21-.1-.2-.1-.2-.1-.19-.11-.19-.11-.18-.11-.18-.09-.15-.1-.14-.1-.14-.1-.14-.1-.13-.1-.13-.1-.12-.1-.12-.1-.11-.1-.11-.1-.11-.1-.1-.1-.1-.1-.1-.1-.09-.1-.09-.11-.09-.1-.08-.1-.08-.11-.08-.11-.07-.1-.07-.11-.07-.11-.06-.11-.06-.11-.06-.11-.05-.11-.05-.11,0-.11,0-.11,0-.11,0-.11,0-.11,0-.11,0-.11,0-.11,0-.11,0-.11,0-.11,0-.11,0-.11,0H63.53l-.12,0-.12,0-.12,0L63,229l-.12,0-.12,0-.12,0-.12,0-.12,0-.12,0-.12,0-.12,0-.12,0-.12,0-.12,0-.12.05-.12.05-.12.05-.12.05-.12.06-.12.06-.12.06-.12.06-.12.06-.12.07-.12.07-.12.07-.12.07-.12.07-.12.08-.12.08-.12.08-.12.08-.12.08-.12.08-.11.08-.12.09-.11.09-.11.09-.11.09-.11.09-.11.09-.11.1-.11.1-.1.1-.11.1-.1.1-.1.1-.1.1-.1.11-.1.11-.1.11-.1.11-.09.11-.09.11-.09.11L57,233l-.09.11-.09.11-.09.12-.09.11-.08.12-.08.12-.08.12-.08.12-.08.12-.07.12-.07.12-.07.12-.07.12-.07.12-.07.12-.1.19-.1.19-.1.19-.09.19-.09.19-.09.2-.08.19-.08.2-.08.2-.08.2-.08.2-.07.2-.07.2-.07.2-.07.2-.07.2-.06.2-.06.2-.06.2-.06.21-.05.21-.05.21-.05.21-.05.21-.05.21,0,.21-.09.43-.09.43-.08.43-.08.43-.08.44-.08.44-.07.44-.07.44-.07.44-.13.9-.13.91-.07.46-.07.46-.07.46-.08.46-.08.47-.08.46,0,.12,0,.11,0,.11,0,.11-.06.1-.06.1-.07.1-.08.09-.09.09-.09.08-.1.07-.1.06-.11.06-.11,0-.11,0-.11,0-.12,0h-.48l-.12,0-.12,0-.11,0-.11,0-.11-.05-.1-.06-.1-.07-.09-.07-.09-.09-.08-.09-.07-.1-.07-.1-.06-.11-.05-.11,0-.11,0-.12,0-.12,0-.12V248l0-.12.08-.44.08-.44.07-.44.07-.44.07-.44.07-.45.13-.9.13-.91.07-.46.07-.46.07-.46.08-.46.08-.46.08-.47.09-.46.1-.47.1-.47.05-.24.05-.23.06-.24.06-.23L51,238l.06-.23.07-.24.07-.23.07-.24.07-.23.08-.24.08-.23.08-.23.08-.23.09-.23.09-.23.09-.23L52,235l.1-.23.1-.23.11-.23.11-.23.11-.23.11-.23.12-.23.12-.23L53,233l.09-.16.09-.16.09-.16.1-.15.1-.15.1-.15.1-.15.1-.15.1-.15.11-.15.11-.15.11-.15.11-.15.12-.14.12-.14.12-.14.12-.14.12-.14.12-.14.13-.13.13-.13.13-.13.13-.13.13-.13.13-.13.13-.13.13-.12.14-.12.14-.12.14-.12.14-.12.14-.12.14-.11.14-.11.15-.11.15-.11.15-.11.15-.11.15-.11.15-.1.15-.1.15-.1.15-.1.16-.09.15-.09.16-.09L59,227l.16-.09.16-.08.16-.08.16-.08.16-.08.16-.07.17-.07.17-.07.17-.07.17-.07.17-.06.17-.06.17-.06.17-.06.17,0,.17,0,.17,0,.17,0,.17,0,.18,0,.17,0,.18,0,.18,0,.18,0,.18,0,.18,0,.18,0h.9Z"/><path class="cls-3" d="M146.95,269.45l-39.61.52-8.69,63.82,9.5,6.41,44.32-66.1Z"/><g class="cls-15"><path class="cls-8" d="M116,277.15l-10.16-8.86,41.61-1,11.86,11.59Z"/></g><path class="cls-6" d="M152.43,273.73l-39.51.73-4.78,65.73,47.46-1.56Z"/><path class="cls-9" d="M133.09,253.76h.36l.18,0,.18,0,.18,0,.18,0,.18,0,.18.05.18.06.18.06.18.07.18.07.18.08.17.09.17.09.17.1.17.11.17.11.16.12.16.12.16.13.16.13.16.14.16.15.15.15.15.16.15.16.15.17.15.17.14.18.14.18.14.19.14.2.14.2.13.21.13.21.08.14.08.14.08.14.08.14.08.14.07.14.07.14.07.14.07.15.07.15.13.29.12.29.11.3.11.3.1.3.09.3.09.31.08.31.08.31.07.31.07.31.06.31.05.31.05.31,0,.31,0,.31,0,.32,0,.31,0,.32,0,.32,0,.32,0,.32v3.16l0,.31,0,.31,0,.31,0,.31,0,.31,0,.62-.05.61-.06.6-.06.6-.07.59-.07.58-.07.57-.13,1.11-.06.54-.06.53,0,.12,0,.11,0,.11,0,.11,0,.11-.06.1-.07.1-.07.09-.08.09-.08.08-.09.07-.09.07-.1.06-.1.05-.11,0-.11,0-.11,0-.11,0-.12,0h-.35l-.12,0-.11,0-.11,0-.11,0-.11-.05-.1-.06-.1-.06-.09-.07-.09-.08-.08-.09-.08-.09-.07-.09-.06-.1-.06-.1,0-.11,0-.11,0-.11,0-.11,0-.12v-.35l.06-.53.07-.55.13-1.11.07-.56.07-.57.06-.57.06-.58.06-.58.05-.58,0-.58,0-.29,0-.29,0-.29,0-.29v-3.15l0-.28,0-.28,0-.27,0-.27,0-.27,0-.27,0-.27,0-.27,0-.26,0-.26,0-.26-.05-.25-.06-.25-.06-.25-.07-.24-.07-.24-.07-.24-.08-.24-.08-.23-.09-.23-.09-.22-.1-.23,0-.11-.05-.11-.05-.11-.05-.11-.05-.11-.05-.1-.06-.11-.06-.1-.06-.1-.06-.1-.1-.16-.1-.16-.1-.15-.1-.14-.1-.14-.1-.13-.1-.13-.1-.12-.1-.11-.1-.11-.1-.1L135,258l-.09-.09-.09-.08-.09-.08-.09-.07-.09-.07-.09-.06-.09-.06-.08-.05-.08,0-.08,0-.08,0-.08,0-.08,0-.08,0-.07,0-.08,0-.07,0-.07,0-.07,0h-.83l-.08,0-.08,0-.08,0-.08,0-.08,0-.09,0-.09,0-.09,0-.09,0-.09,0-.09,0-.09,0-.09,0-.09.05-.09.05-.09.05-.09.06-.09.06-.09.06-.09.07-.1.07-.09.07-.09.07-.09.08-.1.08-.09.08-.09.08-.09.09-.09.09-.09.09-.09.09-.09.09-.09.1-.09.1-.09.1-.09.1-.09.11-.09.11-.09.11-.09.11-.09.11-.09.11-.09.12-.09.11-.08.12-.08.11-.16.24-.16.24-.15.25-.15.25-.15.25-.14.25-.13.26-.13.25-.12.26-.12.25-.11.25-.1.25-.09.25-.09.25-.08.25,0,.11,0,.12,0,.12,0,.12,0,.11,0,.11,0,.11,0,.11,0,.11,0,.11-.13.74-.13.75-.12.75-.12.75-.11.75-.11.75-.1.75-.1.75-.09.75-.09.75-.08.75-.08.75-.07.75-.07.75-.06.75-.06.76v.12l0,.12,0,.11,0,.11,0,.11-.05.11-.06.1-.07.1-.07.09-.08.09-.09.08-.09.07-.1.07-.1.06-.11.05-.11,0-.11,0-.11,0-.11,0h-.47l-.12,0-.11,0-.11,0-.11,0-.11-.05-.1-.06-.1-.07-.09-.07-.09-.08-.08-.09-.07-.09-.07-.1-.06-.1-.05-.11,0-.11,0-.11,0-.11,0-.11V277l.06-.77.07-.77.07-.77.08-.77.08-.77.09-.77.09-.77.1-.77.1-.77.11-.77.11-.77.12-.77.12-.77.13-.76.13-.76.13-.76,0-.15,0-.15,0-.15,0-.15,0-.16,0-.15,0-.15,0-.16,0-.16.05-.16.1-.31.11-.31.12-.31.13-.32.13-.31.14-.31.15-.31.15-.31.16-.31.17-.31.18-.31.18-.31.19-.3.2-.3.2-.29.11-.15.1-.15.11-.14.11-.14.11-.14.11-.14.11-.14.11-.14.12-.14.11-.13.12-.13.12-.13.12-.13.12-.13.13-.13.12-.13.13-.12.13-.12.13-.12.13-.12.13-.11.13-.11.13-.11.14-.11.14-.11.14-.1.14-.1.14-.1.15-.09.15-.09.15-.09.15-.09.15-.08.15-.08.16-.08.16-.07.16-.07.16-.07.16-.06.16-.06.17-.05.17-.05.17,0,.17,0,.17,0,.17,0,.18,0,.18,0,.18,0h.54Z"/><path class="cls-9" d="M125.4,251.18h.44l.15,0,.15,0,.15,0,.15,0,.15,0,.15,0,.15,0,.15,0,.15,0,.15,0,.14.05.14.05.14.06.14.06.14.07.14.07.14.07.14.08.14.08.13.08.13.09.13.09.13.09.13.1.13.1.13.11.13.11.12.11.12.12.12.12.12.12.12.12.12.13.11.13.11.14.11.14.11.14.11.15.11.15.1.15.1.15.1.16.1.16.1.17.12.2.11.21.11.21.1.22.1.22.1.22.09.22.09.22.09.23.08.23.08.23.07.23.07.24.07.24.07.24.06.24.06.24.06.24.05.24.05.24.05.24,0,.25,0,.25,0,.25,0,.25,0,.25,0,.25,0,.25,0,.25,0,.25,0,.25,0,.25,0,.25,0,.25,0,.25,0,.25v2.5l0,.49,0,.48,0,.47,0,.47,0,.46,0,.45-.05.44-.05.43-.06.41,0,.11,0,.11,0,.1,0,.1,0,.1-.05.09-.06.09-.06.09-.07.08-.07.08-.08.07-.08.07-.09.06-.09.05-.1.05-.1,0-.1,0-.1,0-.11,0-.11,0h-.43l-.11,0-.11,0-.1,0-.1,0-.1,0-.09-.05-.09-.06-.09-.06-.08-.07-.08-.07-.07-.08-.07-.08-.06-.09-.06-.09,0-.1,0-.1,0-.1,0-.1,0-.11,0-.11v-.43l.05-.38,0-.39,0-.4,0-.4,0-.42,0-.42,0-.43,0-.44v-2.91l0-.23,0-.22,0-.23,0-.22,0-.22,0-.22,0-.22,0-.22,0-.22,0-.22,0-.22,0-.21,0-.21,0-.21,0-.21,0-.21,0-.2,0-.2-.05-.2-.05-.2-.05-.2-.06-.19-.06-.19-.06-.19-.06-.18-.06-.18-.07-.17-.07-.17-.07-.17-.07-.16-.07-.16-.07-.15-.08-.15-.08-.15-.08-.15-.07-.12-.07-.12-.07-.11-.07-.11-.07-.11-.07-.1-.07-.1L128,256,128,256l-.07-.09-.07-.08-.07-.08-.07-.08-.07-.07-.07-.07-.07-.07-.07-.07-.07-.06-.07-.06-.07-.05-.07-.05-.07-.05-.07,0-.07,0-.07,0-.07,0-.07,0-.07,0-.07,0-.07,0-.07,0-.07,0-.07,0-.07,0-.07,0-.07,0-.07,0-.07,0-.07,0h-1.31l-.08,0-.08,0-.08,0-.08,0-.08,0-.08,0-.08,0-.08,0-.08,0-.08,0-.08,0-.08,0-.08,0-.08,0-.08,0-.08,0-.08,0-.08,0-.08,0-.08,0-.08,0-.08.05-.08.05-.08.05-.08.05-.08.06-.08.05-.17.13-.16.13-.16.13-.16.14-.16.14-.16.15-.15.15-.15.16-.15.16-.15.17-.14.17-.14.18-.13.18-.13.18-.13.18-.12.19-.12.19-.11.19-.11.2-.11.2-.1.2-.1.21-.07.15-.07.16-.07.16-.06.16-.06.16-.06.16-.06.16-.06.16-.05.16-.05.16-.05.16-.05.17,0,.17,0,.17,0,.17,0,.17-.09.35-.08.34-.08.35-.07.35-.07.35L118,264l-.06.36-.06.36-.05.36-.05.37,0,.37,0,.37-.09.75-.09.76-.09.76-.09.77-.05.39-.05.39-.05.39-.06.38,0,.11,0,.11,0,.1,0,.1,0,.1-.05.09-.06.09-.06.09-.07.08-.07.08-.08.07-.09.07-.09.06-.09.06-.09,0-.1,0-.1,0-.1,0-.11,0-.11,0h-.43l-.11,0-.11,0-.1,0-.1,0-.1,0-.09-.05-.09-.06-.09-.06-.08-.07-.08-.07-.07-.08-.07-.08-.06-.09-.06-.09,0-.09,0-.1,0-.1,0-.1,0-.11,0-.11v-.43l.05-.37.05-.37,0-.37,0-.37.09-.75.09-.76.09-.76.09-.77,0-.39.05-.39.05-.39.06-.39.06-.39.07-.39.07-.39.07-.39.08-.39.09-.4.09-.4.1-.39.05-.2.05-.2.06-.2.06-.2.06-.2.06-.2.07-.2.07-.2.07-.2.07-.2.07-.2.08-.2.08-.2.08-.2.09-.2.09-.2.13-.27.14-.27.14-.26.15-.26.15-.26.16-.25.16-.25.17-.25.17-.24.18-.24.18-.23.19-.23.19-.22.2-.22.2-.22.21-.21.21-.2.22-.2.22-.19.22-.19.23-.18.23-.17.12-.09.12-.08.12-.08.12-.08.12-.08.12-.07.12-.07.13-.07.13-.07.13-.07.13-.07.13-.06.13-.06.13-.06.13-.06.13-.05.13-.05.13-.05.13,0,.14,0,.13,0,.14,0,.14,0,.14,0,.14,0,.14,0,.14,0,.14,0,.14,0,.14,0,.14,0h.87Z"/></g><circle class="cls-16" cx="85.47" cy="91.53" r="17.07"/><circle class="cls-17" cx="52.11" cy="201.99" r="12.5"/><circle class="cls-17" cx="318.58" cy="152.75" r="11.1"/><polygon class="cls-18" points="204.45 43.45 208.22 51.09 216.65 52.32 210.55 58.27 211.99 66.66 204.45 62.7 196.91 66.66 198.35 58.27 192.25 52.32 200.68 51.09 204.45 43.45"/><polygon class="cls-18" points="314.05 62.85 317.82 70.49 326.25 71.72 320.15 77.66 321.59 86.06 314.05 82.09 306.5 86.06 307.95 77.66 301.85 71.72 310.28 70.49 314.05 62.85"/></svg>