<svg id="Layer_1" data-name="Layer 1" xmlns="http://www.w3.org/2000/svg" viewBox="0 0 458 411.09"><defs><style>.cls-1{fill:#30b7df;}.cls-2{fill:#b8c3f9;}.cls-3,.cls-5{fill:#88d7ff;}.cls-4{fill:#4745ab;}.cls-5{opacity:0.25;}.cls-6,.cls-7{fill:none;stroke-miterlimit:10;stroke-width:3px;}.cls-6{stroke:#4745ab;}.cls-7{stroke:#ff6584;}.cls-8{fill:#ffc1b6;}.cls-9{fill:#17263e;}.cls-10{fill:#182540;}.cls-11{fill:#fffffe;}.cls-12{fill:#ff6584;}.cls-13{fill:#2796af;}.cls-14{fill:#eab0a9;}.cls-15{fill:#fea03c;}.cls-16{fill:#fecc2d;}</style></defs><title>friend get discount</title><path class="cls-1" d="M379.69,306.29h43.86v13.28a13.28,13.28,0,0,1-13.28,13.28H393a13.28,13.28,0,0,1-13.28-13.28Z"/><rect class="cls-2" x="379.69" y="309.86" width="43.86" height="4.51"/><path class="cls-3" d="M401.62,296.89c-23.72.29-44.46-23-41.17-33.83,2.59-8.53,19-6.42,22.37-16.54,2.58-7.85-6-13.18-12-26.32-8.31-18.07-4.72-35.41,1.5-65.41,4.54-21.87,7.29-34.32,16.17-36.84,7.7-2.19,18.17,3.63,22.18,11.47,4.37,8.53-2.22,13,.56,25.38,2.42,10.78,10,18.63,17.86,26.88,9.27,9.67,12.65,9.43,13.53,14.29,1.63,9-9.47,12.4-14.47,28.95a45.59,45.59,0,0,0-1.32,22.37C429.7,261.08,438,263,437.9,271.14,437.75,283.11,419.49,296.67,401.62,296.89Z"/><polygon class="cls-4" points="400.12 306.29 400.12 263.62 388.65 252.53 390.16 251.03 400.12 261.74 400.12 178.66 402.56 178.66 402.56 207.98 412.71 196.14 417.41 196.7 403.03 209.86 403.03 306.29 400.12 306.29"/><ellipse class="cls-5" cx="226.03" cy="336.48" rx="219.08" ry="22.76"/><circle class="cls-6" cx="43.47" cy="66.66" r="17.07"/><circle class="cls-7" cx="377.6" cy="66.66" r="11.1"/><circle class="cls-7" cx="157.73" cy="234.44" r="11.1"/><polygon class="cls-1" points="355.9 209.62 359.18 216.25 366.51 217.32 361.2 222.49 362.46 229.78 355.9 226.34 349.35 229.78 350.6 222.49 345.3 217.32 352.63 216.25 355.9 209.62"/><polygon class="cls-1" points="122.23 165.05 126.01 172.69 134.44 173.91 128.34 179.86 129.78 188.26 122.23 184.29 114.69 188.26 116.14 179.86 110.03 173.91 118.47 172.69 122.23 165.05"/><polygon class="cls-1" points="308.71 60.58 312.48 68.22 320.91 69.45 314.81 75.39 316.25 83.79 308.71 79.83 301.17 83.79 302.61 75.39 296.51 69.45 304.94 68.22 308.71 60.58"/><path class="cls-8" d="M192.07,239.56s-5.25,23.31-4.37,27.19c0,0-5.25,30.24-4.87,38.68s-3.37,10.69-3.37,10.69,9.88,2,14.13-3.37c0,0-2.8-5.37,1.66-12.75s6.09-10.25,9-30.75c0,0,7-23.75,7.7-29.12Z"/><path class="cls-9" d="M179.45,316.12s-10.62,15.75-10.62,19.75c0,0,11.88,3.38,16.75-10.75,0,0,1.75,4.5,3.88,4.25s6.13-10.25,4.13-16.62-7.12-2.75-7.12-2.75Z"/><path class="cls-8" d="M241.82,239.56s5.25,23.31,4.38,27.19c0,0,5.25,30.24,4.88,38.68s3.38,10.69,3.38,10.69-9.87,2-14.12-3.37c0,0,2.8-5.37-1.66-12.75s-6.09-10.25-9-30.75c0,0-7-23.75-7.7-29.12Z"/><path class="cls-9" d="M254.44,316.12s10.63,15.75,10.63,19.75c0,0-11.87,3.38-16.75-10.75,0,0-1.75,4.5-3.87,4.25s-6.12-10.25-4.12-16.62,7.13-2.75,7.13-2.75Z"/><path class="cls-10" d="M205.21,136.61s-10.92-3.63-12.59-9.13-4-18.37-2.41-19.75,8.75-11.62,15.5-12.62,10.38-4.75,29.63,6.88,19.88-4.25,28.25-4.87,30.63,3.15,40,23.45c0,0,18.69,5,11.69,16.05,0,0,9.88,14.56-.19,20.87,0,0-3.44,31.5-34.87,13.75,0,0-10.87,2.69-13.37-6.37,0,0-19.44.56-13.81-12.69,0,0-6.72.06-7.17-2.5l-12.32-11.75s-7.06-1.91-9.85-1.1S205.21,136.61,205.21,136.61Z"/><path class="cls-8" d="M208.15,138.92s.94,7.56,0,9.31-1.81,9.19-1.81,9.19,9.94,11.38,11.19,11.38,13.19-2.94,13.19-2.94l-5.89-19.76s-3.05-8.37-2.74-10.43-14.62-6-14.62-6Z"/><path class="cls-11" d="M209.29,151.79l6.61,9.44,7.44-7.06s7.88-3.87,8.19-3.69,14.33,30,14.33,30l-6.64,16-1.62,3.06-14.12,4.13s-18.31,3.19-19.69,2.06-9.25-4.81-9.06-5.87,5.75-15.25,6.56-17.37,5.81-18.49,5.81-18.49l.38-9.51Z"/><path class="cls-12" d="M190.45,210.15s-2.35,29.71-3.6,31.46c0,0,45.13,3,62.75-4.87l-8.75-39.5s-40.5,5.63-50.37,1.88Z"/><path class="cls-1" d="M209,148.23s-7.25-2.25-14.12-30.75L177.09,122s20.38,18.88-1.12,85.38c0,0,16.75,4.38,24.88,3,0,0,1.63-18.75,3.25-22.62S210.59,166.73,209,148.23Z"/><path class="cls-1" d="M242.88,114.31l17.92,8.92S246,146.48,244.88,158.81s4.25,48.08,4.25,48.08l-19.58,3.73S226,177.56,225,174.4s-3.42-24.83-.92-27.58,9.75-8,11.42-11.83S244,116.06,242.88,114.31Z"/><path class="cls-13" d="M182.71,120.55s-1.67-19.07.58-22.16H194v19.28Z"/><path class="cls-13" d="M247.51,98v.24c-.1,2-.86,16.21-2.19,17.3l12.25,6.1.53-25.1L247.5,98.07"/><circle class="cls-14" cx="214.55" cy="128.23" r="12.54"/><ellipse class="cls-8" cx="214.55" cy="122.54" rx="12.54" ry="16.81"/><circle class="cls-15" cx="226.03" cy="67.92" r="31.32"/><circle class="cls-16" cx="219.4" cy="67.92" r="31.32"/><path class="cls-10" d="M209.87,106.94s-.16,2.29,7.26,3.87,9.87,9.74,9.87,9.74l4.88,2.34-.75-13.83L211.3,103Z"/><path class="cls-14" d="M200.15,92.42s-5.75,5.52-6.91,6-2.84-2.23-2.84-2.23l4.88-5.5,3.1-1.9Z"/><path class="cls-8" d="M184.72,98.4s7.75-18.67,15.08-19.25-8.08,19.25-8.08,19.25Z"/><path class="cls-8" d="M249.59,97.23S244.13,80.06,247.47,78s9.5,15,8.83,18.54l-6.71,1.24"/><path class="cls-15" d="M231.3,54.65H207.5v6.72h4.9a5.66,5.66,0,0,1,4.46,2.21H207.5v6.72h9.45a5.65,5.65,0,0,1-4.55,2.32H209V78l12.87,11.68,4.51-5-7.82-7.1a12.35,12.35,0,0,0,5.69-7.37h7V63.57h-7a12.17,12.17,0,0,0-.88-2.21h7.92V54.65Z"/><ellipse class="cls-15" cx="83.94" cy="318.92" rx="50.5" ry="14"/><polygon class="cls-15" points="33.44 314.55 33.44 320.09 37.1 320.84 37.1 319.8 33.44 314.55"/><polygon class="cls-15" points="134.41 314.08 134.44 319.76 130.52 321.67 130.52 319.97 134.41 314.08"/><ellipse class="cls-16" cx="83.94" cy="314.55" rx="50.5" ry="14"/><ellipse class="cls-15" cx="83.94" cy="311.16" rx="50.5" ry="14"/><polygon class="cls-15" points="33.44 306.79 33.44 312.32 37.1 313.07 37.1 312.03 33.44 306.79"/><polygon class="cls-15" points="134.41 306.32 134.44 311.99 130.52 313.91 130.52 312.2 134.41 306.32"/><ellipse class="cls-16" cx="83.94" cy="306.79" rx="50.5" ry="14"/><ellipse class="cls-15" cx="83.94" cy="303.39" rx="50.5" ry="14"/><polygon class="cls-15" points="33.44 299.02 33.44 304.56 37.1 305.31 37.1 304.27 33.44 299.02"/><polygon class="cls-15" points="134.41 298.55 134.44 304.23 130.52 306.14 130.52 304.44 134.41 298.55"/><ellipse class="cls-16" cx="83.94" cy="299.02" rx="50.5" ry="14"/><ellipse class="cls-15" cx="83.94" cy="295.63" rx="50.5" ry="14"/><polygon class="cls-15" points="33.44 291.26 33.44 296.8 37.1 297.55 37.1 296.5 33.44 291.26"/><polygon class="cls-15" points="134.41 290.79 134.44 296.46 130.52 298.38 130.52 296.67 134.41 290.79"/><ellipse class="cls-16" cx="83.94" cy="291.26" rx="50.5" ry="14"/><ellipse class="cls-15" cx="83.94" cy="287.87" rx="50.5" ry="14"/><polygon class="cls-15" points="33.44 283.5 33.44 289.03 37.1 289.78 37.1 288.74 33.44 283.5"/><polygon class="cls-15" points="134.41 283.03 134.44 288.7 130.52 290.62 130.52 288.91 134.41 283.03"/><ellipse class="cls-16" cx="83.94" cy="283.5" rx="50.5" ry="14"/><ellipse class="cls-15" cx="83.94" cy="280.1" rx="50.5" ry="14"/><polygon class="cls-15" points="33.44 275.73 33.44 281.27 37.1 282.02 37.1 280.97 33.44 275.73"/><polygon class="cls-15" points="134.41 275.26 134.44 280.94 130.52 282.85 130.52 281.15 134.41 275.26"/><ellipse class="cls-16" cx="83.94" cy="275.73" rx="50.5" ry="14"/></svg>