<svg id="Layer_1" data-name="Layer 1" xmlns="http://www.w3.org/2000/svg" viewBox="0 0 458 411.09"><defs><style>.cls-1,.cls-12{fill:#88d7ff;}.cls-1{opacity:0.25;}.cls-2{fill:#21537a;}.cls-3{fill:#30b7df;}.cls-4{fill:#ffc9b9;}.cls-5{fill:#540f23;}.cls-6{fill:#ffcfb0;}.cls-7{fill:#cfe9f6;}.cls-8{fill:#fccbbb;}.cls-9{fill:#ff6584;}.cls-10{fill:#162952;}.cls-11{fill:#b8c3f9;}.cls-13{fill:#4745ab;}.cls-14{fill:#2796af;}.cls-15{fill:none;stroke:#4745ab;stroke-miterlimit:10;stroke-width:3px;}</style></defs><title>invite friend</title><ellipse class="cls-1" cx="228.25" cy="336.48" rx="219.08" ry="22.76"/><rect class="cls-2" x="120.4" y="225.91" width="65.29" height="46.64"/><path class="cls-3" d="M154,123.91s5.07-13.79,19.26-13.38l33.66.81s9.12,4.37,18.45,24.9L234,151l21.83,6.36v8.55H223.51l-14.06-13.65-6.76,177.23H188.91l2.7-128.29-13.11-.54L163.9,330l-11.76-1.35,8.79-120.72s2-26.09-1.08-50.29c0,0-4.06,7.71-3.65,11.36s.81,41.37.81,41.37l-11.36-.81-7-47.59s-1.89-4.06,3.24-12.17"/><path class="cls-4" d="M177.08,95.32v15.34h18V100.59s7.91,5.07,9.74-.41,1-24.74,1-24.74H181.33Z"/><path class="cls-5" d="M183.77,59.63S174.64,64.29,173,69s-1,22.71-1,22.71a5.84,5.84,0,0,0,4.26,3.65c3.24.61,16.22,0,16.22,0s2.84-5.88,1.62-8.31c0,0,3,4.06,6.08,2.84S198,82.95,198,82.95s2.9-2.23,3.18-4.46c0,0,11.83-.61,11.63-5.07S209.32,61.86,203,59.63,183.77,59.63,183.77,59.63Z"/><path class="cls-2" d="M142.6,225.91a10.41,10.41,0,0,1,8-9.53v2.74s-4.46,3-5.47,6.79Z"/><path class="cls-4" d="M146.74,209.63s-4.2,15.06,7.42,15.06S157,209.63,157,209.63Z"/><path class="cls-4" d="M255.87,157.34s7.49-.27,10.63,5.3-.51,7.6-.51,7.6-5.35,2.13-10.13-4.36Z"/><path class="cls-6" d="M343.15,108.8h-5L342,125.73l14.9,2,11.86-14.6-5.47-4.36h-4.06l-.51-16.12s-1.54-7.66,0-8c4.88-1.12,2.54-15.76-4.46-5.27,0,0-3-8.31-4.26-10.14-2.11-3-7.05,2.11-7.1,3.14l-7.4-4.06L331.69,73c-1.6,5.83-1.78,11.41,0,16.63l11.25,12.77Z"/><path class="cls-3" d="M338.18,108.8s2,13.69,12.77,13.89,12.37-13.89,12.37-13.89l8.92,1A63,63,0,0,1,395,142L376.81,152.3l.2,31.33H327V151.49l-2,2.74-18.15-14.09s17.34-26.36,20.78-28.69S338.18,108.8,338.18,108.8Z"/><rect class="cls-7" x="327.54" y="136.23" width="49.58" height="14.34"/><path class="cls-8" d="M308.24,141.21s-6.66,9.36-7.27,9.36-37.84,8.66-37.84,8.66l-2.82,4,1.51,6.59s6.1-.2,8.94-4c0,0,37.41,3.35,42.58.3s10.71-12.7,10.71-12.7Z"/><path class="cls-8" d="M376.81,152.3l6.89,8.31s-3,30.32-2.43,41.57c0,0-3,20.78,3.55,19.57s4.66-18.86,4.66-18.86,12.57-37.92,12.27-42.68S395,142,395,142Z"/><polygon class="cls-9" points="329.23 183.63 334.5 329.19 347.61 330 345.86 201.3 358.7 201.71 364.38 328.38 377.12 328.38 374.78 183.63 329.23 183.63"/><path class="cls-10" d="M335.18,329.23l-.55.77s-7,.27-8.38,4.19,21.22,1.62,21.22,1.62l.14-5.81Z"/><path class="cls-10" d="M364.68,327.55l-.55.77s-7,.27-8.38,4.19S377,334.13,377,334.13l.14-5.81Z"/><path class="cls-10" d="M199.72,328.48l.47.77s6,.27,7.18,4.19-18.19,1.62-18.19,1.62l-.12-5.81Z"/><path class="cls-10" d="M162.73,328.57l.38.81s6,.92,6.69,4.94-18.26-.34-18.26-.34l.51-5.79Z"/><path class="cls-5" d="M348,68.86s-.61,6.29-16.32,4.36l-1.17,6.2s-9.38-2.76-5.63-10.56,5.47-9.63,10-10.85,23.42-4.56,28.59,10,1,23.12-4.46,25.75c0,0-1.93-7.91-.81-9.33,0,0,5.88-2.64-.51-6.89,0,0-3.75-.61-3.55,3.75s.3,18.25.3,18.25-11.46,10.44-22.1,3c0,0-2.74-9.83,0-14.19s17.34-1,17.34-1S353.09,70.07,348,68.86Z"/><path class="cls-3" d="M32.3,301.48H84.1v15.69a15.69,15.69,0,0,1-15.69,15.69H48A15.69,15.69,0,0,1,32.3,317.17Z"/><rect class="cls-11" x="32.3" y="305.69" width="51.81" height="5.33"/><path class="cls-12" d="M58.2,290.37c-28,.34-52.52-27.11-48.62-40,3.06-10.08,22.5-7.58,26.42-19.54,3-9.27-7.07-15.57-14.21-31.08C12,178.44,16.21,158,23.56,122.53,28.92,96.69,32.17,82,42.66,79c9.1-2.58,21.46,4.29,26.2,13.54,5.16,10.07-2.62,15.36.67,30,2.86,12.73,11.76,22,21.09,31.75,10.95,11.42,14.94,11.14,16,16.87,1.93,10.6-11.18,14.65-17.1,34.19A53.85,53.85,0,0,0,88,231.76c3.42,16.32,13.22,18.6,13.1,28.2C100.87,274.1,79.3,290.12,58.2,290.37Z"/><polygon class="cls-13" points="56.42 301.48 56.42 251.08 42.88 237.98 44.66 236.2 56.42 248.86 56.42 150.72 59.31 150.72 59.31 185.36 71.3 171.37 76.85 172.04 59.86 187.58 59.86 301.48 56.42 301.48"/><path class="cls-14" d="M161.71,193.22c-.16,8.4-.59,14-.59,14l-8.79,120.72,11.76,1.35,14.6-129.37,13.11.54-2.7,128.29h13.79l5.17-135.51Z"/><circle class="cls-15" cx="114.32" cy="65.16" r="13.3"/><circle class="cls-15" cx="408.27" cy="273.84" r="8.18"/><polygon class="cls-3" points="264.67 55.06 267.39 60.57 273.48 61.45 269.07 65.75 270.11 71.8 264.67 68.94 259.23 71.8 260.27 65.75 255.87 61.45 261.95 60.57 264.67 55.06"/><polygon class="cls-3" points="239.17 263.73 237.9 267.48 240.27 270.65 236.31 270.6 234.02 273.84 232.85 270.06 229.07 268.88 232.3 266.59 232.25 262.63 235.42 265 239.17 263.73"/></svg>