<svg id="Layer_1" data-name="Layer 1" xmlns="http://www.w3.org/2000/svg" xmlns:xlink="http://www.w3.org/1999/xlink" viewBox="0 0 742.2 572.49"><defs><style>.cls-1{fill:url(#linear-gradient);}.cls-2{fill:#1a2e35;}.cls-3{fill:#3a61a7;}.cls-4{fill:#caebf4;}.cls-5{opacity:0.2;}.cls-6{fill:#fff;}.cls-7,.cls-8{fill:none;stroke:#109138;stroke-miterlimit:10;stroke-width:4px;}.cls-8{stroke-dasharray:12.24 12.24;}.cls-9{fill:#109138;}.cls-10{fill:#f2c7b1;}.cls-11{fill:#007cff;}.cls-12{fill:#00cfff;}.cls-13{fill:#1bb1dc;}.cls-14{fill:#403429;}.cls-15{fill:#ff6584;}.cls-16{fill:#53b0f7;}</style><linearGradient id="linear-gradient" x1="9.39" y1="286.25" x2="732.81" y2="286.25" gradientUnits="userSpaceOnUse"><stop offset="0" stop-color="#f5f8fd"/><stop offset="0.24" stop-color="#f2f7fd"/><stop offset="0.44" stop-color="#e8f3fc"/><stop offset="0.62" stop-color="#d6edfc"/><stop offset="0.8" stop-color="#bee5fb"/><stop offset="0.96" stop-color="#9fdaf9"/><stop offset="1" stop-color="#98d7f9"/></linearGradient></defs><title>journal entry</title><path class="cls-1" d="M726.93,341.15c-12.52-34.9-32.23-45.52-51-67.9-22.9-27.34-38.34-47.21-32.4-82.37,9.71-57.46,13.87-200.76-138.24-182-54.52,6.71-97.61,48.5-128.95,90.2-26.67,35.49-74.65,38.62-113.26,46.89-47.45,10.17-95.78,25.52-139.67,48C33,240.3,6,306.92,9.71,392.15,10.83,417.9,14.47,458.46,58,505.92c58.71,64.06,144,72.64,246.7,43.22,23.5-6.73,45.72-17.3,68.84-25.25a324.87,324.87,0,0,1,74.3-16.13c59-5.7,120.11,4.61,176.68-13a186.42,186.42,0,0,0,79-49C730.53,417.45,740.15,378,726.93,341.15Z"/><rect class="cls-2" x="354.24" y="187.39" width="7.35" height="363.28" rx="1.17" ry="1.17"/><path class="cls-2" d="M348.54,543.32H367.3A4.66,4.66,0,0,1,372,548v2.36a.33.33,0,0,1-.33.33H344.21a.33.33,0,0,1-.33-.33V548A4.66,4.66,0,0,1,348.54,543.32Z"/><rect class="cls-3" x="232.47" y="195.73" width="252.78" height="184" rx="4.89" ry="4.89"/><rect class="cls-4" x="273.47" y="167.95" width="170.77" height="239.56" rx="4.22" ry="4.22" transform="translate(646.58 -71.13) rotate(90)"/><path class="cls-5" d="M308.73,285.54a451.58,451.58,0,0,0-46.4-2c.15-21,2-43.76,3.67-66.15l45.48,2.92C309.76,246.44,308,272.63,308.73,285.54Z"/><path class="cls-6" d="M309.65,284.58a451.59,451.59,0,0,0-46.4-2c.15-21,1.11-42.81,2.76-65.19l46.4,2C310.68,245.49,308.94,271.67,309.65,284.58Z"/><polygon class="cls-5" points="370.55 330.32 324.15 332.35 322.23 266.2 367.71 265.13 370.55 330.32"/><rect class="cls-6" x="323.63" y="265.15" width="46.44" height="65.25" transform="translate(-12.63 15.38) rotate(-2.49)"/><polygon class="cls-5" points="473.97 328.75 427.93 322.68 437.53 257.2 482.5 264.06 473.97 328.75"/><rect class="cls-6" x="433.06" y="259.96" width="46.44" height="65.25" transform="translate(42.19 -57.17) rotate(7.52)"/><path class="cls-5" d="M315.68,376.58c-8.42,2.65-30.09,3.05-46.32,2.24-2.31-20.37-2.08-43.17-1.5-66.17l45.49-.76C312.37,327.71,313.15,355.76,315.68,376.58Z"/><path class="cls-6" d="M316.6,375.62c-8.42,2.65-30.09,3.05-46.32,2.24a475.21,475.21,0,0,1-2.41-65.21l46.41-1.72C313.29,326.75,314.07,354.8,316.6,375.62Z"/><path class="cls-5" d="M429.76,278.89l-46.43,1c-1.55-21.72-1.11-44.43-.51-66.2l45.51-.06C427.85,236.88,428.16,258.89,429.76,278.89Z"/><path class="cls-6" d="M430.68,277.93l-46.43,1q-2.33-32.58-1.43-65.24l46.43-1C428.77,235.92,429.07,257.94,430.68,277.93Z"/><path class="cls-7" d="M536.13,231.95s2.26-.18,6-.7"/><path class="cls-8" d="M554.13,229.11c24.59-5.32,63.76-19.85,46.48-57.23C581,129.54,511.47,92.62,484.29,79.48"/><path class="cls-7" d="M478.76,76.86c-3.48-1.62-5.46-2.48-5.46-2.48"/><polygon class="cls-9" points="457.96 63.31 473.3 46.38 352.39 48.5 451.08 113.32 454.25 81.57 469.07 72.84 395.78 54.85 457.96 63.31"/><polygon class="cls-10" points="466.99 536.87 456.52 535.14 457.76 510.42 468.23 512.16 466.99 536.87"/><polygon class="cls-10" points="562.27 536.87 551.7 537.9 541.07 514.24 551.64 513.21 562.27 536.87"/><path class="cls-2" d="M550.17,536.82l12.88-1.26a.93.93,0,0,1,1,.63l3,9.19a1.56,1.56,0,0,1-1.36,2c-4.15.34-7.2.39-12.42.9-3.21.32-12.86,1.6-17.3,2s-5.44-3.89-3.67-4.47c8-2.58,13.86-5.64,16.24-8.24A2.57,2.57,0,0,1,550.17,536.82Z"/><path class="cls-2" d="M456.79,533.94l11.44,1.9a.93.93,0,0,1,.77.86l.52,9.65a1.54,1.54,0,0,1-1.82,1.61c-4.11-.75-10-2-15.22-2.85-6.06-1-11.36-1.54-18.47-2.72-4.3-.71-4.77-5.26-2.91-5.35,8.49-.43,15.21.48,23-2.71A4.91,4.91,0,0,1,456.79,533.94Z"/><path class="cls-10" d="M481.8,226.65c-3.06,4.74-6.21,9.79-9.17,14.76s-5.79,10.05-8.35,15.14c-1.29,2.54-2.43,5.1-3.52,7.64l-2.93,7.5-.25.67c0,.08-.06.14-.07.12s0-.07-.06-.47a5.94,5.94,0,0,0-.25-1.2,6.59,6.59,0,0,0-.24-.64c-.06-.13-.12-.26-.18-.38s-.19-.35-.3-.52a6.44,6.44,0,0,0-1-1.15,6.32,6.32,0,0,0-5.3-1.66,5.76,5.76,0,0,0-1.69.53,4.39,4.39,0,0,0-1,.68c-.3.28-.29.32-.29.36s.07,0,.15-.06a11.38,11.38,0,0,0,1.18-1.19c.45-.48.9-1,1.36-1.55,1.84-2.17,3.73-4.53,5.74-6.76l7.08,3.67a64.9,64.9,0,0,1-3,9,28.57,28.57,0,0,1-2.43,4.76c-.16.24-.34.5-.58.79a8.2,8.2,0,0,1-1.1,1.14,7,7,0,0,1-1.49,1,6.75,6.75,0,0,1-2,.62,6.87,6.87,0,0,1-1.7.05,6.79,6.79,0,0,1-4-1.82,7,7,0,0,1-1-1.26c-.12-.19-.24-.38-.34-.58l-.21-.44a7.16,7.16,0,0,1-.29-.77,8.11,8.11,0,0,1-.34-1.75,12.23,12.23,0,0,1,0-1.59c0-.39,0-.7.07-1,.05-.59.12-1.07.18-1.54.25-1.85.57-3.41.94-5s.92-3.18,1.44-4.71c1-3.07,2.2-6.05,3.46-8.95a176.34,176.34,0,0,1,8.37-16.74q2.28-4,4.73-8c1.64-2.64,3.29-5.16,5.15-7.81Z"/><path class="cls-11" d="M486.78,218.33c3.23,9.62-15.89,36.92-15.89,36.92L450.08,243s5.45-13.76,13.16-24.4C471.15,207.65,483.23,207.77,486.78,218.33Z"/><path class="cls-12" d="M486.78,218.33c3.23,9.62-15.89,36.92-15.89,36.92L450.08,243s5.45-13.76,13.16-24.4C471.15,207.65,483.23,207.77,486.78,218.33Z"/><polygon class="cls-5" points="457.76 510.43 457.12 523.17 467.6 524.9 468.24 512.16 457.76 510.43"/><polygon class="cls-5" points="551.64 513.21 541.07 514.25 546.56 526.45 557.13 525.41 551.64 513.21"/><path class="cls-11" d="M533.9,212.22c-9.89,40.74-6,83.42-6.66,92.12-8.32-.29-39.67-1.42-56.75-2-9.73-60.1,3.95-91.69,3.95-91.69s3.61-.85,8.54-1.54c1.55-.22,3.21-.42,5-.58,1-.09,1.94-.16,2.93-.22,6.4-.35,16.89.27,24.13.88,1.52.13,3.06.3,4.55.48s2.75.38,4,.59C529.4,211.14,533.9,212.22,533.9,212.22Z"/><path class="cls-12" d="M533.9,212.22c-9.89,40.74-6,83.42-6.66,92.12-8.32-.29-39.67-1.42-56.75-2-9.73-60.1,3.95-91.69,3.95-91.69s3.61-.85,8.54-1.54c1.55-.22,3.21-.42,5-.58,1-.09,1.94-.16,2.93-.22,6.4-.35,16.89.27,24.13.88,1.52.13,3.06.3,4.55.48s2.75.38,4,.59C529.4,211.14,533.9,212.22,533.9,212.22Z"/><path class="cls-5" d="M522.81,231.63c-1.64,6.15,1.71,22.43,4.69,27.79.29-6,.75-12.22,1.48-18.67Z"/><path class="cls-10" d="M455.7,257.73l7.59-8.79L470,260.75s-4.48,5.93-11.69,3.14Z"/><polygon class="cls-10" points="469.05 244.29 474.3 254.8 469.96 260.75 463.29 248.94 469.05 244.29"/><path class="cls-10" d="M513.58,181.88c-1.8,7.71-3.84,21.87,1.41,27.25-4.37,4-10.06,8.69-19.29,8.68s-7.39-6.29-4.83-9.55c8.73-1.75,8.74-8.18,7.45-14.27Z"/><path class="cls-13" d="M489.12,206.47c-.2-2.08,8.18-4.68,8.7-2.74s-2.36,2.89-1.18,5.49,9.84,2,12.91-2.1c2-2.71,2.53-5.28,5.6-3.92s6.8,3.32,5.24,7.13-11.58,13.43-21.67,12.21-13.35-6.26-11.66-8.76A11.51,11.51,0,0,0,489.12,206.47Z"/><path class="cls-5" d="M507.36,186.82l-9,7.16a24.86,24.86,0,0,1,.59,4.31c3.32-.36,7.56-3,9-6.57C508.8,189.49,508.2,187.11,507.36,186.82Z"/><path class="cls-10" d="M513.89,168.57c.09,10.54.67,16.7-4.25,22.45-7.41,8.66-20.69,4.75-23.92-5.55-2.91-9.27-2.56-24.94,7.42-29.83A14.37,14.37,0,0,1,513.89,168.57Z"/><path class="cls-14" d="M513.87,160.07c-7.75.18-7.08,13.59-.16,18.71C521.1,175.06,530.44,159.68,513.87,160.07Z"/><path class="cls-14" d="M506.46,162.95c-5.2-6.65-12.77,5.46-17.8-1.89-3-4.42-6.91,1.08-9.86-1.47s.45-10.48,3.18-11.42c-1.4,1.85-1.11,7.95,3.3,4.49s7.47-6.9,13.72-2.43,11.26-6.24,17.3.94C521.59,157.45,512.62,170.82,506.46,162.95Z"/><path class="cls-14" d="M515.06,161a12.22,12.22,0,0,1-3.7-.23.5.5,0,0,1,.2-1c3.48.73,6.69-.15,8-2.2,1-1.59.74-3.6-.78-5.67a.5.5,0,1,1,.8-.59c1.76,2.39,2.06,4.86.82,6.8A7,7,0,0,1,515.06,161Z"/><path class="cls-10" d="M519.43,179.8a10,10,0,0,1-5.92,4.85c-3.37,1-5.1-2-4.2-5.22.81-2.88,3.53-6.88,6.93-6.46S520.94,176.93,519.43,179.8Z"/><path class="cls-15" d="M453,519.78l17.74,2.93s10.47-62.5,12.47-95.52c.61-10,2.79-24.08,5.62-39.12,3.57-18.95,8.16-39.46,11.95-55.52,4-16.92,7.06-28.91,7.06-28.91L470.5,302.3S450.89,391,450.88,423.45C450.86,457.15,453,519.78,453,519.78Z"/><path class="cls-5" d="M488.8,388.08c3.57-18.95,8.16-39.46,11.95-55.52l-4.14-8.19C487.74,335.65,486.39,369.69,488.8,388.08Z"/><path class="cls-15" d="M490.63,303s7.06,90.71,12.57,121.33c6,33.53,38.15,100.14,38.15,100.14l19.35-1.9s-19.12-62-26.3-94.4c-8.18-36.94-7.16-123.84-7.16-123.84Z"/><polygon class="cls-12" points="539.07 525.14 561.86 522.9 561.19 516.09 535.67 518.15 539.07 525.14"/><polygon class="cls-12" points="450.68 519.83 471.81 523.33 472.95 516.5 450.57 512.44 450.68 519.83"/><path class="cls-10" d="M537.46,220.11c2.19,6.71,4.16,13.4,6,20.19s3.49,13.61,5,20.53l.54,2.61.32,1.61a10.93,10.93,0,0,1,0,3.84,9.5,9.5,0,0,1-2.29,4.74,9.8,9.8,0,0,1-3.61,2.49,13.43,13.43,0,0,1-5,.91,29.25,29.25,0,0,1-6.61-.84c-1.95-.46-3.76-1-5.53-1.6a102.54,102.54,0,0,1-10.14-4.09c-3.28-1.52-6.42-3.12-9.58-5l3.06-7.36c6.61,1.58,13.34,3.32,19.75,4.41,1.59.28,3.17.5,4.66.62a16.37,16.37,0,0,0,3.77,0c.37,0,.67-.24.06-.08a3.69,3.69,0,0,0-1.48,1,5.05,5.05,0,0,0-1.22,2.41,5,5,0,0,0-.07,1.25c0,.22,0-.13-.1-.31l-.18-.61-.72-2.46q-2.93-9.84-6-19.74c-2-6.59-4-13.23-6-19.8Z"/><path class="cls-11" d="M537.72,214.47c7.62,6.7,10.47,29.33,10.47,29.33l-19.06,11.37s-7.88-13.77-9.38-26.8C518.07,213.59,530,207.72,537.72,214.47Z"/><path class="cls-12" d="M537.72,214.47c7.62,6.7,10.47,29.33,10.47,29.33l-19.06,11.37s-7.88-13.77-9.38-26.8C518.07,213.59,530,207.72,537.72,214.47Z"/><path class="cls-2" d="M468.81,249.06a.66.66,0,0,1-.67-.93l8.69-19.21a.66.66,0,1,1,1.2.54l-8.69,19.21A.66.66,0,0,1,468.81,249.06Z"/><path class="cls-6" d="M506.45,296.42l-40.36-1.88a3.76,3.76,0,0,1-3.48-3l-8-54.67a2.37,2.37,0,0,1,2.65-2.72L497.66,236a3.76,3.76,0,0,1,3.48,3l8,54.67A2.37,2.37,0,0,1,506.45,296.42Z"/><path class="cls-2" d="M505.6,297.06l-40.36-1.88a3.76,3.76,0,0,1-3.48-3l-8-54.67a2.37,2.37,0,0,1,2.65-2.72l40.36,1.88a3.76,3.76,0,0,1,3.48,3l8,54.67A2.37,2.37,0,0,1,505.6,297.06Z"/><path class="cls-10" d="M510.39,258.29,500.52,254l.22,13.56s9.22,1.82,10.73-3Z"/><polygon class="cls-10" points="490.34 257.36 492.63 267.29 500.75 267.51 500.52 253.95 490.34 257.36"/><rect class="cls-16" x="124.84" y="234.22" width="8.44" height="11.38" rx="1.71" ry="1.71"/><rect class="cls-16" x="102.22" y="243.7" width="8.44" height="11.38" rx="1.71" ry="1.71" transform="translate(-145.17 148.31) rotate(-45)"/><rect class="cls-16" x="92.92" y="266.39" width="8.44" height="11.38" rx="1.71" ry="1.71" transform="translate(-174.94 369.23) rotate(-90)"/><rect class="cls-16" x="102.4" y="289.01" width="8.44" height="11.38" rx="1.71" ry="1.71" transform="translate(-26.38 578.48) rotate(-135)"/><rect class="cls-16" x="125.09" y="298.31" width="8.44" height="11.38" rx="1.71" ry="1.71" transform="translate(258.63 608) rotate(-180)"/><rect class="cls-16" x="147.71" y="288.83" width="8.44" height="11.38" rx="1.71" ry="1.71" transform="translate(467.63 395.35) rotate(135)"/><rect class="cls-16" x="157.01" y="266.14" width="8.44" height="11.38" rx="1.71" ry="1.71" transform="translate(433.06 110.6) rotate(90)"/><rect class="cls-16" x="147.53" y="243.52" width="8.44" height="11.38" rx="1.71" ry="1.71" transform="translate(220.66 -34.31) rotate(45)"/><path class="cls-16" d="M129.31,243.43a28.22,28.22,0,1,0,28.22,28.22A28.22,28.22,0,0,0,129.31,243.43Zm.36,48.12a19.9,19.9,0,1,1,19.9-19.9A19.9,19.9,0,0,1,129.67,291.55Z"/><rect class="cls-16" x="631.02" y="340.99" width="7.17" height="9.67" rx="1.71" ry="1.71"/><rect class="cls-16" x="611.82" y="349.04" width="7.17" height="9.67" rx="1.71" ry="1.71" transform="translate(-69.98 538.8) rotate(-45)"/><rect class="cls-16" x="603.92" y="368.31" width="7.17" height="9.67" rx="1.71" ry="1.71" transform="translate(234.36 980.65) rotate(-90)"/><rect class="cls-16" x="611.97" y="387.52" width="7.17" height="9.67" rx="1.71" ry="1.71" transform="translate(773.38 1105.05) rotate(-135)"/><rect class="cls-16" x="631.24" y="395.41" width="7.17" height="9.67" rx="1.71" ry="1.71" transform="translate(1269.65 800.49) rotate(-180)"/><rect class="cls-16" x="650.45" y="387.37" width="7.17" height="9.67" rx="1.71" ry="1.71" transform="translate(1393.83 207.06) rotate(135)"/><rect class="cls-16" x="658.34" y="368.09" width="7.17" height="9.67" rx="1.71" ry="1.71" transform="translate(1034.85 -289) rotate(90)"/><rect class="cls-16" x="650.3" y="348.89" width="7.17" height="9.67" rx="1.71" ry="1.71" transform="translate(441.64 -358.76) rotate(45)"/><path class="cls-16" d="M634.83,348.81a24,24,0,1,0,24,24A24,24,0,0,0,634.83,348.81Zm.31,40.86a16.9,16.9,0,1,1,16.9-16.9A16.9,16.9,0,0,1,635.13,389.67Z"/><rect class="cls-16" x="279.34" y="420.66" width="4.39" height="5.92" rx="1.71" ry="1.71"/><rect class="cls-16" x="267.57" y="425.59" width="4.39" height="5.92" rx="1.71" ry="1.71" transform="translate(-224.02 316.27) rotate(-45)"/><rect class="cls-16" x="262.74" y="437.39" width="4.39" height="5.92" rx="1.71" ry="1.71" transform="translate(-175.42 705.29) rotate(-90)"/><rect class="cls-16" x="267.67" y="449.16" width="4.39" height="5.92" rx="1.71" ry="1.71" transform="translate(140.99 962.63) rotate(-135)"/><rect class="cls-16" x="279.47" y="453.99" width="4.39" height="5.92" rx="1.71" ry="1.71" transform="translate(563.33 913.9) rotate(-180)"/><rect class="cls-16" x="291.23" y="449.06" width="4.39" height="5.92" rx="1.71" ry="1.71" transform="translate(820.54 564.17) rotate(135)"/><rect class="cls-16" x="296.07" y="437.26" width="4.39" height="5.92" rx="1.71" ry="1.71" transform="translate(738.48 141.96) rotate(90)"/><rect class="cls-16" x="291.14" y="425.5" width="4.39" height="5.92" rx="1.71" ry="1.71" transform="translate(388.88 -81.93) rotate(45)"/><path class="cls-16" d="M281.66,425.45a14.67,14.67,0,1,0,14.67,14.67A14.67,14.67,0,0,0,281.66,425.45Zm.19,25a10.35,10.35,0,1,1,10.35-10.35A10.35,10.35,0,0,1,281.85,450.48Z"/></svg>