<svg xmlns="http://www.w3.org/2000/svg" viewBox="0 0 60 60"><defs><style>.cls-1{fill:#ecebff;}.cls-2,.cls-3{fill:#8660fe;}.cls-2{opacity:0.3;}</style></defs><title>journal</title><g id="Layer_2" data-name="Layer 2"><g id="Layer_1-2" data-name="Layer 1"><rect class="cls-1" width="60" height="60" rx="30"/><polygon class="cls-2" points="14.25 30.45 20.04 30.45 20.04 13.74 45.71 13.74 45.71 43.2 44.71 45.28 43.63 45.95 17.54 46.16 14.88 45.32 14.25 44.24 14.25 30.45"/><path class="cls-3" d="M30.56,22.14H22.7V30h7.86Zm-1.12,6.74H23.82V23.26h5.62Z"/><path class="cls-3" d="M42.35,22.14h-9a.56.56,0,0,0,0,1.12h9a.56.56,0,0,0,0-1.12Z"/><path class="cls-3" d="M42.35,25.51h-9a.56.56,0,0,0,0,1.12h9a.56.56,0,0,0,0-1.12Z"/><path class="cls-3" d="M42.35,28.88h-9a.56.56,0,0,0,0,1.12h9a.56.56,0,1,0,0-1.12Z"/><path class="cls-3" d="M42.35,32.25H23.82a.56.56,0,0,0,0,1.12H42.35a.56.56,0,1,0,0-1.12Z"/><path class="cls-3" d="M32.25,35.61H23.82a.57.57,0,0,0,0,1.13h8.43a.57.57,0,0,0,0-1.13Z"/><path class="cls-3" d="M32.25,39H23.82a.56.56,0,0,0-.56.56.57.57,0,0,0,.56.57h8.43a.57.57,0,0,0,.56-.57A.56.56,0,0,0,32.25,39Z"/><path class="cls-3" d="M32.25,42.35H23.82a.56.56,0,1,0,0,1.12h8.43a.56.56,0,0,0,0-1.12Z"/><path class="cls-3" d="M35.05,43.47h7.86V35.61H35.05Zm1.13-6.73h5.61v5.61H36.18Z"/><path class="cls-3" d="M46.28,20.46a0,0,0,0,0,0,0V13.16H19.33V30H13.72V43.47a3.37,3.37,0,0,0,3.37,3.37H42.91a3.36,3.36,0,0,0,3.36-3.36v-23Zm-1.13-6.18v5.61H20.46V14.28ZM14.84,43.47V31.12h4.49V43.47a2.25,2.25,0,1,1-4.49,0Zm28.07,2.25H19.6l0,0a3.25,3.25,0,0,0,.31-.42L20,45.2a2.65,2.65,0,0,0,.23-.48l0-.07a3.21,3.21,0,0,0,.15-.53.11.11,0,0,0,0,0,3.81,3.81,0,0,0,.06-.6V21H45.15V43.48A2.24,2.24,0,0,1,42.91,45.72Z"/><path class="cls-3" d="M39.54,15.4H26.07v3.37H39.54Zm-1.12,2.25H27.19V16.53H38.42Z"/></g></g></svg>