<svg xmlns="http://www.w3.org/2000/svg" viewBox="0 0 60 60"><defs><style>.cls-1{fill:#eafde7;}.cls-2,.cls-3{fill:#41cf2e;}.cls-2{opacity:0.3;}</style></defs><title>payment voucher</title><g id="Layer_2" data-name="Layer 2"><g id="Layer_1-2" data-name="Layer 1"><rect class="cls-1" width="60" height="60" rx="30"/><polygon class="cls-2" points="15.11 14.45 15.53 42.03 15.86 45.07 19.75 46.41 30.9 46.41 42.98 46.2 44.82 43.57 44.82 29.61 39.36 29.82 38.9 13.7 36.82 15.62 34.15 13.7 31.95 15.66 29.23 13.37 27.31 15.87 24.86 13.37 22.41 15.95 20.09 13.37 17.78 15.7 15.11 14.45"/><path class="cls-3" d="M44.72,29.33h-5V13.47a.67.67,0,0,0-.41-.62.68.68,0,0,0-.74.15l-1.9,1.9L34.79,13a.66.66,0,0,0-.95,0l-1.91,1.9L30,13a.66.66,0,0,0-1,0l-1.9,1.9L25.27,13a.66.66,0,0,0-.95,0l-1.9,1.9L20.52,13a.66.66,0,0,0-.95,0l-1.91,1.9L15.76,13a.67.67,0,0,0-.95,0,.74.74,0,0,0-.2.5V43.71a3.5,3.5,0,0,0,3.5,3.49H41.89a3.5,3.5,0,0,0,3.5-3.49V30A.67.67,0,0,0,44.72,29.33ZM18.11,45.86A2.15,2.15,0,0,1,16,43.71V15.09l1.23,1.23a.66.66,0,0,0,.95,0l1.9-1.9,1.9,1.9a.67.67,0,0,0,1,0l1.9-1.9,1.9,1.9a.66.66,0,0,0,.95,0l1.91-1.9,1.9,1.9a.66.66,0,0,0,.95,0l1.9-1.9,1.91,1.9a.66.66,0,0,0,1,0l1.23-1.23V43.71a3.52,3.52,0,0,0,.74,2.15ZM44,43.71a2.15,2.15,0,0,1-4.3,0v-13H44v13Z"/><path class="cls-3" d="M33.93,23.47H32.62a.68.68,0,0,0,0,1.35h1.31a.68.68,0,0,0,0-1.35Z"/><path class="cls-3" d="M21.74,23.47H20.43a.68.68,0,1,0,0,1.35h1.31a.68.68,0,0,0,0-1.35Z"/><path class="cls-3" d="M34.27,30.94H23.62a.67.67,0,0,0-.67.67.68.68,0,0,0,.67.68H34.27a.68.68,0,0,0,.67-.68A.67.67,0,0,0,34.27,30.94Z"/><path class="cls-3" d="M20.56,31.14a.65.65,0,0,0-.47-.2.67.67,0,0,0-.48.2.69.69,0,0,0-.2.47.68.68,0,0,0,.68.68.69.69,0,0,0,.47-.2.67.67,0,0,0,.2-.48A.65.65,0,0,0,20.56,31.14Z"/><path class="cls-3" d="M34.27,35.38H23.62a.67.67,0,0,0,0,1.34H34.27a.67.67,0,1,0,0-1.34Z"/><path class="cls-3" d="M20.56,35.57a.68.68,0,0,0-.47-.19.71.71,0,0,0-.48.19.72.72,0,0,0-.2.48.69.69,0,0,0,.2.47.67.67,0,0,0,.48.2.68.68,0,0,0,.67-.67A.67.67,0,0,0,20.56,35.57Z"/><path class="cls-3" d="M34.27,39.81H23.62a.67.67,0,0,0,0,1.34H34.27a.67.67,0,0,0,0-1.34Z"/><path class="cls-3" d="M20.56,40a.65.65,0,0,0-.47-.2.67.67,0,0,0-.48.2.69.69,0,0,0-.2.47.72.72,0,0,0,.2.48.71.71,0,0,0,.48.19.68.68,0,0,0,.47-.19.67.67,0,0,0,.2-.48A.65.65,0,0,0,20.56,40Z"/><path class="cls-3" d="M30.43,21.55a.23.23,0,0,0-.16-.06H29.05a2.49,2.49,0,0,0-.45-1h1.65a.24.24,0,0,0,.23-.23v-.72a.24.24,0,0,0-.23-.23H24.36a.22.22,0,0,0-.17.07.21.21,0,0,0-.06.16v.94a.21.21,0,0,0,.07.16.24.24,0,0,0,.16.07h1c1,0,1.62.26,1.89.8H24.36a.25.25,0,0,0-.17.06.23.23,0,0,0-.06.16v.73a.23.23,0,0,0,.06.16.25.25,0,0,0,.17.06h3a1.36,1.36,0,0,1-.72.89,3.27,3.27,0,0,1-1.51.3h-.79a.24.24,0,0,0-.16.07.21.21,0,0,0-.07.16V25a.25.25,0,0,0,.06.16q1.36,1.44,3.53,4a.21.21,0,0,0,.18.09h1.38a.22.22,0,0,0,.21-.13.21.21,0,0,0,0-.24q-2.07-2.53-3.25-3.8a3.51,3.51,0,0,0,1.95-.78,2.66,2.66,0,0,0,.92-1.66h1.19a.21.21,0,0,0,.22-.22v-.73A.23.23,0,0,0,30.43,21.55Z"/></g></g></svg>