<svg id="Layer_1" data-name="Layer 1" xmlns="http://www.w3.org/2000/svg" xmlns:xlink="http://www.w3.org/1999/xlink" viewBox="0 0 742.2 572.49"><defs><style>.cls-1{fill:url(#linear-gradient);}.cls-2,.cls-3{fill:none;stroke:#109138;stroke-miterlimit:10;stroke-width:4px;}.cls-3{stroke-dasharray:12.24 12.24;}.cls-4{fill:#109138;}.cls-5{fill:#53b0f7;}.cls-6{fill:#1bb1dc;}.cls-7{fill:#00cfff;}.cls-8{fill:url(#linear-gradient-2);}.cls-15,.cls-23,.cls-9{fill:#fff;}.cls-9{opacity:0.4;}.cls-10{fill:#ff6584;}.cls-11{fill:#f2c7b1;}.cls-12{fill:#1a2e35;}.cls-13{fill:#a53852;}.cls-14{fill:#009ef3;}.cls-16{fill:#ededed;}.cls-17{fill:#403429;}.cls-18{fill:#d45c48;}.cls-19{fill:#fb876b;}.cls-20{fill:#3a61a7;}.cls-21{fill:#1d3062;}.cls-22{fill:#61b3ff;}.cls-23{opacity:0.2;}</style><linearGradient id="linear-gradient" x1="9.39" y1="286.25" x2="732.81" y2="286.25" gradientUnits="userSpaceOnUse"><stop offset="0" stop-color="#f5f8fd"/><stop offset="0.24" stop-color="#f2f7fd"/><stop offset="0.44" stop-color="#e8f3fc"/><stop offset="0.62" stop-color="#d6edfc"/><stop offset="0.8" stop-color="#bee5fb"/><stop offset="0.96" stop-color="#9fdaf9"/><stop offset="1" stop-color="#98d7f9"/></linearGradient><linearGradient id="linear-gradient-2" x1="228.08" y1="280.84" x2="382.38" y2="280.84" xlink:href="#linear-gradient"/></defs><title>payment voucher</title><path class="cls-1" d="M726.93,341.15c-12.52-34.9-32.23-45.52-51-67.9-22.9-27.34-38.34-47.21-32.4-82.37,9.71-57.46,13.87-200.76-138.24-182-54.52,6.71-97.61,48.5-128.95,90.2-26.67,35.49-74.65,38.62-113.26,46.89-47.45,10.17-95.78,25.52-139.67,48C33,240.3,6,306.92,9.71,392.15,10.83,417.9,14.47,458.46,58,505.92c58.71,64.06,144,72.64,246.7,43.22,23.5-6.73,45.72-17.3,68.84-25.25a324.87,324.87,0,0,1,74.3-16.13c59-5.7,120.11,4.61,176.68-13a186.42,186.42,0,0,0,79-49C730.53,417.45,740.15,378,726.93,341.15Z"/><path class="cls-2" d="M536.13,231.95s2.26-.18,6-.7"/><path class="cls-3" d="M554.13,229.11c24.59-5.32,63.76-19.85,46.48-57.23C581,129.54,511.47,92.62,484.29,79.48"/><path class="cls-2" d="M478.76,76.86c-3.48-1.62-5.46-2.48-5.46-2.48"/><polygon class="cls-4" points="457.96 63.31 473.3 46.38 352.39 48.5 451.08 113.32 454.25 81.57 469.07 72.84 395.78 54.85 457.96 63.31"/><rect class="cls-5" x="124.84" y="234.22" width="8.44" height="11.38" rx="1.71" ry="1.71"/><rect class="cls-5" x="102.22" y="243.7" width="8.44" height="11.38" rx="1.71" ry="1.71" transform="translate(-145.17 148.31) rotate(-45)"/><rect class="cls-5" x="92.92" y="266.39" width="8.44" height="11.38" rx="1.71" ry="1.71" transform="translate(-174.94 369.23) rotate(-90)"/><rect class="cls-5" x="102.4" y="289.01" width="8.44" height="11.38" rx="1.71" ry="1.71" transform="translate(-26.38 578.48) rotate(-135)"/><rect class="cls-5" x="125.09" y="298.31" width="8.44" height="11.38" rx="1.71" ry="1.71" transform="translate(258.63 608) rotate(-180)"/><rect class="cls-5" x="147.71" y="288.83" width="8.44" height="11.38" rx="1.71" ry="1.71" transform="translate(467.63 395.35) rotate(135)"/><rect class="cls-5" x="157.01" y="266.14" width="8.44" height="11.38" rx="1.71" ry="1.71" transform="translate(433.06 110.6) rotate(90)"/><rect class="cls-5" x="147.53" y="243.52" width="8.44" height="11.38" rx="1.71" ry="1.71" transform="translate(220.66 -34.31) rotate(45)"/><path class="cls-5" d="M129.31,243.43a28.22,28.22,0,1,0,28.22,28.22A28.22,28.22,0,0,0,129.31,243.43Zm.36,48.12a19.9,19.9,0,1,1,19.9-19.9A19.9,19.9,0,0,1,129.67,291.55Z"/><rect class="cls-5" x="631.02" y="340.99" width="7.17" height="9.67" rx="1.71" ry="1.71"/><rect class="cls-5" x="611.82" y="349.04" width="7.17" height="9.67" rx="1.71" ry="1.71" transform="translate(-69.98 538.8) rotate(-45)"/><rect class="cls-5" x="603.92" y="368.31" width="7.17" height="9.67" rx="1.71" ry="1.71" transform="translate(234.36 980.65) rotate(-90)"/><rect class="cls-5" x="611.97" y="387.52" width="7.17" height="9.67" rx="1.71" ry="1.71" transform="translate(773.38 1105.05) rotate(-135)"/><rect class="cls-5" x="631.24" y="395.41" width="7.17" height="9.67" rx="1.71" ry="1.71" transform="translate(1269.65 800.49) rotate(-180)"/><rect class="cls-5" x="650.45" y="387.37" width="7.17" height="9.67" rx="1.71" ry="1.71" transform="translate(1393.83 207.06) rotate(135)"/><rect class="cls-5" x="658.34" y="368.09" width="7.17" height="9.67" rx="1.71" ry="1.71" transform="translate(1034.85 -289) rotate(90)"/><rect class="cls-5" x="650.3" y="348.89" width="7.17" height="9.67" rx="1.71" ry="1.71" transform="translate(441.64 -358.76) rotate(45)"/><path class="cls-5" d="M634.83,348.81a24,24,0,1,0,24,24A24,24,0,0,0,634.83,348.81Zm.31,40.86a16.9,16.9,0,1,1,16.9-16.9A16.9,16.9,0,0,1,635.13,389.67Z"/><rect class="cls-5" x="279.34" y="420.66" width="4.39" height="5.92" rx="1.71" ry="1.71"/><rect class="cls-5" x="267.57" y="425.59" width="4.39" height="5.92" rx="1.71" ry="1.71" transform="translate(-224.02 316.27) rotate(-45)"/><rect class="cls-5" x="262.74" y="437.39" width="4.39" height="5.92" rx="1.71" ry="1.71" transform="translate(-175.42 705.29) rotate(-90)"/><rect class="cls-5" x="267.67" y="449.16" width="4.39" height="5.92" rx="1.71" ry="1.71" transform="translate(140.99 962.63) rotate(-135)"/><rect class="cls-5" x="279.47" y="453.99" width="4.39" height="5.92" rx="1.71" ry="1.71" transform="translate(563.33 913.9) rotate(-180)"/><rect class="cls-5" x="291.23" y="449.06" width="4.39" height="5.92" rx="1.71" ry="1.71" transform="translate(820.54 564.17) rotate(135)"/><rect class="cls-5" x="296.07" y="437.26" width="4.39" height="5.92" rx="1.71" ry="1.71" transform="translate(738.48 141.96) rotate(90)"/><rect class="cls-5" x="291.14" y="425.5" width="4.39" height="5.92" rx="1.71" ry="1.71" transform="translate(388.88 -81.93) rotate(45)"/><path class="cls-5" d="M281.66,425.45a14.67,14.67,0,1,0,14.67,14.67A14.67,14.67,0,0,0,281.66,425.45Zm.19,25a10.35,10.35,0,1,1,10.35-10.35A10.35,10.35,0,0,1,281.85,450.48Z"/><rect class="cls-6" x="192.11" y="233.31" width="226.25" height="322.99" rx="6.48" ry="6.48"/><rect class="cls-7" x="208.3" y="205.56" width="193.87" height="332.01" rx="6.48" ry="6.48"/><path class="cls-6" d="M233.34,205.56H377.13a4.78,4.78,0,0,0-4.78-4.78H238.12A4.78,4.78,0,0,0,233.34,205.56Z"/><rect class="cls-7" x="238.67" y="519.66" width="133.12" height="4.66" rx="1.22" ry="1.22"/><path class="cls-8" d="M382.38,239.69V322a6.53,6.53,0,0,1-6.53,6.53H234.61a6.52,6.52,0,0,1-6.53-6.53V239.69a6.53,6.53,0,0,1,6.53-6.53H375.85A6.53,6.53,0,0,1,382.38,239.69Z"/><path class="cls-9" d="M369.08,233.16l-95.34,95.35H234.61a6.51,6.51,0,0,1-2-.32l95-95Z"/><polygon class="cls-9" points="287.93 233.16 228.08 293.01 228.08 279.36 274.28 233.16 287.93 233.16"/><polygon class="cls-9" points="382.38 268.77 382.38 282.42 336.3 328.51 322.65 328.51 382.38 268.77"/><path class="cls-10" d="M264.77,351.13H233.61a6,6,0,0,1-6-6h0a6,6,0,0,1,6-6h31.16a6,6,0,0,1,6,6h0A6,6,0,0,1,264.77,351.13Z"/><path class="cls-10" d="M320.69,351.13H289.53a6,6,0,0,1-6-6h0a6,6,0,0,1,6-6h31.16a6,6,0,0,1,6,6h0A6,6,0,0,1,320.69,351.13Z"/><path class="cls-10" d="M376.6,351.13H345.45a6,6,0,0,1-6-6h0a6,6,0,0,1,6-6H376.6a6,6,0,0,1,6,6h0A6,6,0,0,1,376.6,351.13Z"/><path class="cls-10" d="M267,388.92H229.57a3.53,3.53,0,0,1-3.34-3.7v-18a3.53,3.53,0,0,1,3.34-3.7H267a3.53,3.53,0,0,1,3.34,3.7v18A3.53,3.53,0,0,1,267,388.92Z"/><path class="cls-10" d="M323.83,388.92H286.39a3.53,3.53,0,0,1-3.34-3.7v-18a3.53,3.53,0,0,1,3.34-3.7h37.44a3.53,3.53,0,0,1,3.34,3.7v18A3.53,3.53,0,0,1,323.83,388.92Z"/><path class="cls-10" d="M380.65,388.92H343.2a3.53,3.53,0,0,1-3.34-3.7v-18a3.53,3.53,0,0,1,3.34-3.7h37.44a3.53,3.53,0,0,1,3.34,3.7v18A3.53,3.53,0,0,1,380.65,388.92Z"/><path class="cls-10" d="M267,428.83H229.57a3.53,3.53,0,0,1-3.34-3.7v-18a3.53,3.53,0,0,1,3.34-3.7H267a3.53,3.53,0,0,1,3.34,3.7v18A3.53,3.53,0,0,1,267,428.83Z"/><path class="cls-10" d="M323.83,428.83H286.39a3.53,3.53,0,0,1-3.34-3.7v-18a3.53,3.53,0,0,1,3.34-3.7h37.44a3.53,3.53,0,0,1,3.34,3.7v18A3.53,3.53,0,0,1,323.83,428.83Z"/><path class="cls-10" d="M380.65,428.83H343.2a3.53,3.53,0,0,1-3.34-3.7v-18a3.53,3.53,0,0,1,3.34-3.7h37.44a3.53,3.53,0,0,1,3.34,3.7v18A3.53,3.53,0,0,1,380.65,428.83Z"/><path class="cls-10" d="M267,468.74H229.57a3.53,3.53,0,0,1-3.34-3.7V447a3.53,3.53,0,0,1,3.34-3.7H267a3.53,3.53,0,0,1,3.34,3.7v18A3.53,3.53,0,0,1,267,468.74Z"/><path class="cls-10" d="M323.83,468.74H286.39A3.53,3.53,0,0,1,283,465V447a3.53,3.53,0,0,1,3.34-3.7h37.44a3.53,3.53,0,0,1,3.34,3.7v18A3.53,3.53,0,0,1,323.83,468.74Z"/><path class="cls-10" d="M380.77,468.74H343.33A3.53,3.53,0,0,1,340,465V447a3.53,3.53,0,0,1,3.34-3.7h37.44a3.53,3.53,0,0,1,3.34,3.7v18A3.53,3.53,0,0,1,380.77,468.74Z"/><path class="cls-10" d="M267,507.87H229.57a3.53,3.53,0,0,1-3.34-3.7v-18a3.53,3.53,0,0,1,3.34-3.7H267a3.53,3.53,0,0,1,3.34,3.7v18A3.53,3.53,0,0,1,267,507.87Z"/><path class="cls-10" d="M323.83,507.87H286.39a3.53,3.53,0,0,1-3.34-3.7v-18a3.53,3.53,0,0,1,3.34-3.7h37.44a3.53,3.53,0,0,1,3.34,3.7v18A3.53,3.53,0,0,1,323.83,507.87Z"/><path class="cls-10" d="M380.77,507.87H343.33a3.53,3.53,0,0,1-3.34-3.7v-18a3.53,3.53,0,0,1,3.34-3.7h37.44a3.53,3.53,0,0,1,3.34,3.7v18A3.53,3.53,0,0,1,380.77,507.87Z"/><path class="cls-11" d="M574,477.37l8,10.78s-1.61,4.7-7.8,8.21l-9.57-12.42Z"/><path class="cls-12" d="M575.69,493.11s-3.84-.89-5.18.36-5.06,18.6-8.24,22.35-.11,5.84,1.78,6.66,29.8-24.79,29.8-24.79-6.54-9.12-9.76-10.94S579.19,491.35,575.69,493.11Z"/><path class="cls-13" d="M525.29,332.32l5.82,70.8a175,175,0,0,1,16.3,25c5.72,11,30.26,50.49,30.26,50.49l-12.39,9.67-61.82-72.67-12.1-84.76Z"/><path class="cls-11" d="M509.26,495.37l-1,13.73s-4.36,2.74-11.46,1.63l.83-16Z"/><path class="cls-12" d="M499.29,508.75s-2.48-3.29-4.43-3.13-16.94,12.22-22.09,13.24-4.13,4.81-3.17,6.75,41,0,41,0,1.21-13-.12-16.61S503.33,509.6,499.29,508.75Z"/><path class="cls-10" d="M563.88,335.24s-16,52.43-36,80.45c0,0-3.52,27.63-8.78,42.27-2.31,6.4-8.66,44.72-8.66,44.72l-2.37-.4-1.4-.25-10.5-1.76L503,408.9l24.85-71.72,30-1.62,1.59-.08Z"/><path class="cls-7" d="M484.61,215.41l-16.06,31.71,17-1.48S487.15,226.46,484.61,215.41Z"/><path class="cls-7" d="M565.4,337.06a143.94,143.94,0,0,1-25.58,6.82l-1.17.19-.63.1-1.38.21-1.55.22a139.6,139.6,0,0,1-17.71,1.22c-1.21,0-2.4,0-3.6,0h-.23l-.92,0-.54,0a145.82,145.82,0,0,1-20.93-2.21c-.16-1.55-.36-3.85-.62-6.74,0-.54-.1-1.1-.13-1.68-.36-4.14-.79-9.3-1.25-15.13,0-.5-.07-1-.12-1.51-.3-3.88-.63-8-.94-12.37,0-.51-.08-1-.12-1.51-.33-4.45-.67-9.07-1-13.77-.21-2.87-.4-5.76-.59-8.65s-.39-5.88-.57-8.79c0-.64-.08-1.27-.12-1.91-1.72-27.62-2.76-53-1.09-56,1.16-2.07,4-4.63,7.4-7.26l1.27-1c1.45-1.09,13.56-6.41,15.07-7.49l13.11-2.07c.08,0,13.06,3.21,13.16,3.24.57.27,1.14.52,1.71.8,4.91,2.29,9.76,4.72,12.64,6.94a13,13,0,0,1,1.11.94,7.59,7.59,0,0,1,.69.74,4.35,4.35,0,0,1,.56,1.12c2.1,5.66,4.92,28.38,7.5,53.15.06.59.11,1.19.18,1.78l.18,1.78.18,1.79c.07.79.16,1.57.24,2.37,0,.53.11,1.09.16,1.62,0,.28,0,.54.08.81s0,.4.06.59l.33,3.45c.11,1,.21,2,.3,3,.93,9.74,1.8,19.26,2.54,27.67q.33,3.57.6,6.85c0,.5.08,1,.12,1.49C564.58,326.69,565.15,333.64,565.4,337.06Z"/><path class="cls-7" d="M563.09,309.39a151.08,151.08,0,0,1-24.75,27.22l-3.18-22.77c4.44-9,14.73-28.4,23.85-47.49l.18,1.78.18,1.79c.07.79.16,1.57.24,2.37,0,.53.11,1.09.16,1.62,0,.28,0,.54.08.81s0,.4.06.59l.33,3.45c.11,1,.21,2,.3,3C561.48,291.46,562.35,301,563.09,309.39Z"/><path class="cls-14" d="M506.45,238.64l-15.19.44s1,18.39,9,17.13S506.45,238.64,506.45,238.64Z"/><path class="cls-14" d="M547.73,316.82h0c-14.26,1.18-27-4.25-35.15-9a78.4,78.4,0,0,1-14.45-10.72.69.69,0,0,1,1-1,77,77,0,0,0,14.2,10.52c8,4.65,20.43,10,34.31,8.81a.69.69,0,0,1,.12,1.37Z"/><path class="cls-14" d="M533.3,322.95C520.93,324,508,318,507.4,317.77a.69.69,0,0,1,.58-1.25c.15.07,15.38,7.1,28.13,4.65a.69.69,0,0,1,.26,1.35A30.17,30.17,0,0,1,533.3,322.95Z"/><polygon class="cls-15" points="511.25 302.27 519.48 321.74 526.98 303.02 518.01 224.87 517.67 221.92 514.11 221.73 513.96 225.75 511.25 302.27"/><polygon class="cls-16" points="513.96 225.75 515.84 227.71 518.01 224.87 517.67 221.92 514.11 221.73 513.96 225.75"/><polygon class="cls-15" points="521.83 217.37 515.51 224.72 510.31 216.77 514.12 208.76 521.83 217.37"/><path class="cls-6" d="M523.37,196.73l2.11,1.24a19.17,19.17,0,0,1,1.69,1.1,4.16,4.16,0,0,1,2.06,4.47,5.58,5.58,0,0,1-.15.95h0L526.88,223l-12.76-14.25S522.16,205.08,523.37,196.73Z"/><path class="cls-6" d="M508.35,198.77s-4.81,5.42-2.76,11.2l3.26,9.85,5.26-11.06S509.46,206.46,508.35,198.77Z"/><path class="cls-17" d="M532.23,162.67c1,11.46-5.37,20-16.83,21s-20.18-6.8-21.18-18.26,5-20.73,16.49-21.72C524.46,142.46,531.24,151.22,532.23,162.67Z"/><path class="cls-17" d="M531.52,169.64s2.25-3.23,1.25-10.93S529,149,529,149s2.77-5.82-.38-7.18a5.85,5.85,0,0,0-5.62.49s1.9-3.61-.34-3.91-5.23,2-5.23,2-16.15-4.5-20.73-.66-.44,13.74.95,14.77Z"/><path class="cls-11" d="M530.09,167.83s2.81-4.52,5.49-1.22.23,14-5.79,11.93Z"/><path class="cls-18" d="M530.77,175.23a.49.49,0,0,0,.44-.4,7.6,7.6,0,0,1,3.86-4.88.49.49,0,0,0-.43-.89,8.47,8.47,0,0,0-4.39,5.58.49.49,0,0,0,.39.57Z"/><path class="cls-18" d="M534,173.33a.49.49,0,0,0,.35-.79,4.48,4.48,0,0,0-2-1.32.49.49,0,1,0-.32.93,3.55,3.55,0,0,1,1.51,1A.49.49,0,0,0,534,173.33Z"/><path class="cls-11" d="M497.28,170.68s-3.55-4-5.61-.25,2.19,13.79,7.76,10.76Z"/><path class="cls-18" d="M497.88,178.09a.49.49,0,0,1-.5-.32,7.6,7.6,0,0,0-4.64-4.14.49.49,0,0,1,.27-.95,8.47,8.47,0,0,1,5.29,4.74.49.49,0,0,1-.29.63Z"/><path class="cls-18" d="M494.4,176.77a.49.49,0,0,1-.48-.72,4.48,4.48,0,0,1,1.71-1.64.49.49,0,0,1,.48.86,3.55,3.55,0,0,0-1.32,1.24A.49.49,0,0,1,494.4,176.77Z"/><path class="cls-11" d="M507.53,189.34l.9,10.31s-.55,9.77,7.29,9c4.17-.39,7.88-9.25,7.88-9.25l-.93-10.67Z"/><path class="cls-19" d="M507.53,189.34l.4,4.57c3.06,2.85,8.08,3.2,15.32,1.48l-.58-6.64Z"/><path class="cls-11" d="M494.37,163.81a100.7,100.7,0,0,0,2.47,12.91c.28,1,.57,1.9.89,2.73,2.83,7.41,9.39,20,24.11,13.22,6.5-3,9-10.72,9.69-18.44A73.78,73.78,0,0,0,531.3,160a10.8,10.8,0,0,0-6.26-8.68c-9.41-4.3-18.71-1.59-24.73,1.35A10.77,10.77,0,0,0,494.37,163.81Z"/><path class="cls-17" d="M495.51,170.92l2.22-.19a16.13,16.13,0,0,1,.65-6.82c1.16-4.2-2.22-5.71.21-8s9-2,13.51-2.5,11.85-1.11,13.65-.86,1.09,3.29.64,5.63,2.6,4.62,3.28,6.94a10.46,10.46,0,0,1,.24,2.78l1.85-.16c0-2.9-.23-5.58-.46-7.75a10.8,10.8,0,0,0-6.26-8.68c-9.41-4.3-18.71-1.59-24.73,1.35a10.77,10.77,0,0,0-6,11.12C494.66,166,495,168.48,495.51,170.92Z"/><path class="cls-20" d="M550.7,243.25,544.27,331a7.17,7.17,0,0,1-7.67,6.62L387.51,326.76a7.17,7.17,0,0,1-6.62-7.67l6.42-87.79a7.17,7.17,0,0,1,7.67-6.63l149.09,10.91A7.17,7.17,0,0,1,550.7,243.25Z"/><rect class="cls-21" x="457.74" y="176" width="19.51" height="163.82" transform="translate(176.16 705.34) rotate(-85.82)"/><polygon class="cls-22" points="532.91 324.14 494.48 321.33 495.46 307.87 533.9 310.68 533.9 310.68 532.91 324.14"/><rect class="cls-22" x="395.71" y="275.96" width="7.36" height="12.52" rx="0.86" ry="0.86" transform="translate(88.78 659.96) rotate(-85.82)"/><rect class="cls-22" x="417.7" y="277.57" width="7.36" height="12.52" rx="0.86" ry="0.86" transform="translate(107.56 683.38) rotate(-85.82)"/><rect class="cls-22" x="439.69" y="279.18" width="7.36" height="12.52" rx="0.86" ry="0.86" transform="translate(126.34 706.8) rotate(-85.81)"/><rect class="cls-22" x="461.68" y="280.79" width="7.36" height="12.52" rx="0.86" ry="0.86" transform="translate(145.12 730.22) rotate(-85.82)"/><rect class="cls-22" x="483.67" y="282.4" width="7.36" height="12.52" rx="0.86" ry="0.86" transform="translate(163.9 753.65) rotate(-85.82)"/><rect class="cls-22" x="505.66" y="284.01" width="7.36" height="12.52" rx="0.86" ry="0.86" transform="translate(182.68 777.07) rotate(-85.82)"/><rect class="cls-22" x="527.65" y="285.62" width="7.36" height="12.52" rx="0.86" ry="0.86" transform="translate(201.47 800.5) rotate(-85.82)"/><rect class="cls-22" x="466.95" y="157.83" width="3.74" height="163.82" transform="translate(195.55 689.84) rotate(-85.82)"/><rect class="cls-22" x="391.45" y="294.45" width="22.05" height="22.05" rx="2.31" ry="2.31" transform="translate(23.36 -28.55) rotate(4.18)"/><rect class="cls-22" x="418.44" y="308.57" width="71.38" height="6.07" rx="1.64" ry="1.64" transform="translate(23.94 -32.3) rotate(4.18)"/><path class="cls-23" d="M490.68,231.68,383,324.7a7.15,7.15,0,0,1-2.09-5.6l2.25-30.8L452,228.85Z"/><polygon class="cls-23" points="543.76 235.56 434.21 330.18 415.27 328.79 524.82 234.18 543.76 235.56"/><path class="cls-11" d="M442.83,327.3l-1.93,2.25s-5.54-.4-6.07-2.73a2,2,0,0,1,.7-2.17Z"/><path class="cls-11" d="M444.81,339.77a6.53,6.53,0,0,1-6.68-3.43,6.6,6.6,0,0,1-.32-5c1.87-6.22,5.35-10.6,7.76-9.31.9.49.72,4.16-.51,6.82a25.58,25.58,0,0,0,2.63-6.2c.86-3.33,5-1.71,3.93,2.48s-1.51,4.8-1.51,4.8a18.36,18.36,0,0,0,2.18-5.25c.27-2.07,3.52-1.5,2.81,2.54-.33,1.87-.72,4-.72,4s.94-2.67,1.44-4,2.41-2.24,2.68.79c.22,2.38.36,8.87-2.85,9.93A82,82,0,0,1,444.81,339.77Z"/><path class="cls-11" d="M500.33,335.62c-.14-2.17,4.57-2,6.87-3.31s7.68-5.55,6.67-6.65a19.37,19.37,0,0,0-3.6-2.6c-1-.69-1.81-2.7-.68-2.93s4.76,1.39,6.25,2.53c.53.41,1.5,1.76,2.14,2.46a5.64,5.64,0,0,0,3.58,2c1.25-1.29,2.59-2.74,3.46-3.44,1.93.12,8.48,4.69,7,8.49a57.26,57.26,0,0,1-4.22,4.95c-9.09,8.26-14.42,7.85-16.62,7.81a2.89,2.89,0,0,1-2.63-2.39,2.58,2.58,0,0,1-2-2.42c-3.13-.79-2.68-2.9-2.68-2.9S500.47,337.79,500.33,335.62Z"/><path class="cls-7" d="M567.42,294s-8,24.17-34.08,38.43l-9-8S542.62,310,551,288.51c.06-.16.13-.33.19-.5l-.11-.74L541.84,227s.83-6.92,9-16.69C550.87,210.35,571.06,242.58,567.42,294Z"/><path class="cls-14" d="M558.55,291a.59.59,0,0,1-.52.29.66.66,0,0,1-.3-.07,38.21,38.21,0,0,0-6.71-2.66c.06-.16.13-.33.19-.5l-.11-.74a38.32,38.32,0,0,1,7.23,2.84A.61.61,0,0,1,558.55,291Z"/></svg>