<svg xmlns="http://www.w3.org/2000/svg" viewBox="0 0 60 60"><defs><style>.cls-1{fill:#fff0da;}.cls-2,.cls-3{fill:#e98e06;}.cls-3{opacity:0.3;}</style></defs><title>purchase</title><g id="Layer_2" data-name="Layer 2"><g id="Layer_1-2" data-name="Layer 1"><rect class="cls-1" width="60" height="60" rx="30"/><path class="cls-2" d="M46.68,19A3.45,3.45,0,0,0,44,17.86H18.87L18.62,16c-.28-2.05-1.7-3.65-3.25-3.65H13.52a1,1,0,0,0,0,2.07h1.85c.33,0,1,.7,1.19,1.85l3,22.25A4.16,4.16,0,0,0,21,41.07a4.26,4.26,0,0,0,2,1,3.72,3.72,0,0,0-.46,1.81,3.81,3.81,0,0,0,7.62,0,3.88,3.88,0,0,0-.42-1.73h5.43a3.75,3.75,0,0,0-.43,1.73,3.82,3.82,0,0,0,7.63,0,3.75,3.75,0,0,0-.43-1.73H44.6a1,1,0,0,0,0-2.08H23.7a2.23,2.23,0,0,1-2.12-1.85l-.21-1.62H41.82A4.32,4.32,0,0,0,46,32.94l1.49-11.15A3.45,3.45,0,0,0,46.68,19ZM28,43.87a1.74,1.74,0,1,1-1.73-1.73A1.73,1.73,0,0,1,28,43.87Zm12.21,0a1.74,1.74,0,1,1-1.73-1.73A1.74,1.74,0,0,1,40.23,43.87Zm4.89-23.48a1.44,1.44,0,0,1,.31,1.12l-.63,4.68h-7l.42-6.25H44A1.42,1.42,0,0,1,45.12,20.39ZM30.4,34.51,30,28.26h5.56l-.42,6.25Zm-.55-8.32-.42-6.25h6.66l-.42,6.25Zm-2.5-6.25.42,6.25H20l-.83-6.25Zm-7.09,8.32h7.65l.41,6.25H21.09Zm21.56,6.25H37.2l.41-6.25h6.92l-.59,4.4A2.21,2.21,0,0,1,41.82,34.51Z"/><polygon class="cls-3" points="18.29 18.55 44.03 18.92 46.72 20.23 45.03 31.98 43.19 34.95 37.5 35.45 20.91 34.95 18.29 18.55"/></g></g></svg>