<svg id="Layer_1" data-name="Layer 1" xmlns="http://www.w3.org/2000/svg" xmlns:xlink="http://www.w3.org/1999/xlink" viewBox="0 0 742.2 572.49"><defs><style>.cls-1{fill:url(#linear-gradient);}.cls-2{fill:#3a61a7;}.cls-3{fill:#caebf4;}.cls-4{fill:#fefefe;}.cls-12,.cls-13,.cls-5{fill:none;stroke-miterlimit:10;}.cls-5{stroke:#3a61a7;}.cls-6{fill:#00cfff;}.cls-7{fill:#403429;}.cls-8{fill:#f2c7b1;}.cls-9{fill:#4c5063;}.cls-10{fill:#ff6584;}.cls-11{fill:#192534;}.cls-12,.cls-13{stroke:#109138;stroke-width:4px;}.cls-13{stroke-dasharray:12.24 12.24;}.cls-14{fill:#1bb1dc;}.cls-15{fill:#4264aa;}.cls-16{fill:#109138;}.cls-17{fill:#53b0f7;}</style><linearGradient id="linear-gradient" x1="15.07" y1="284.45" x2="738.49" y2="284.45" gradientUnits="userSpaceOnUse"><stop offset="0" stop-color="#f5f8fd"/><stop offset="0.24" stop-color="#f2f7fd"/><stop offset="0.44" stop-color="#e8f3fc"/><stop offset="0.62" stop-color="#d6edfc"/><stop offset="0.8" stop-color="#bee5fb"/><stop offset="0.96" stop-color="#9fdaf9"/><stop offset="1" stop-color="#98d7f9"/></linearGradient></defs><title>receipt voucher</title><path class="cls-1" d="M732.62,339.36c-12.52-34.9-32.23-45.52-51-67.9-22.9-27.34-38.34-47.21-32.4-82.37C659,131.63,663.12-11.68,511,7.06c-54.52,6.71-97.61,48.5-128.95,90.2-26.67,35.49-74.65,38.62-113.26,46.89-47.45,10.17-95.78,25.52-139.67,48-90.41,46.34-117.41,113-113.72,198.18,1.11,25.75,4.76,66.31,48.26,113.77,58.71,64.06,144,72.64,246.7,43.22,23.5-6.73,45.72-17.3,68.84-25.25A324.87,324.87,0,0,1,453.49,506c59-5.7,120.11,4.61,176.68-13a186.42,186.42,0,0,0,79-49C736.22,415.65,745.83,376.19,732.62,339.36Z"/><rect class="cls-2" x="181.67" y="182.49" width="378.85" height="250.72" rx="15.09" ry="15.09"/><rect class="cls-3" x="190.7" y="190.46" width="360.8" height="234.79" rx="15.09" ry="15.09"/><path class="cls-4" d="M462.77,190.46s-24,1.78-23,28,0,227.09,0,227.09,4.5,35-21,35.08H301.44s27.12-9.55,27.48-32.46,0-226.43,0-226.43,2.85-31.27,22.35-31.27Z"/><path class="cls-2" d="M351.61,210a16.72,16.72,0,0,1,3.08-.26,5.09,5.09,0,0,1,3.6,1,3.1,3.1,0,0,1,1,2.36,3.27,3.27,0,0,1-2.34,3.17v.06a3.1,3.1,0,0,1,1.83,2.51,19.75,19.75,0,0,0,1,3.41H358a16.07,16.07,0,0,1-.83-3c-.37-1.72-1-2.36-2.49-2.42h-1.51v5.39h-1.6Zm1.6,5.66h1.64c1.72,0,2.8-.94,2.8-2.36,0-1.6-1.16-2.31-2.86-2.32a6.61,6.61,0,0,0-1.59.15Z"/><path class="cls-2" d="M362.46,218.13a2.86,2.86,0,0,0,3.06,3.1,5.87,5.87,0,0,0,2.47-.46l.28,1.16a7.23,7.23,0,0,1-3,.55,4.15,4.15,0,0,1-4.39-4.5c0-2.69,1.59-4.81,4.19-4.81,2.92,0,3.69,2.56,3.69,4.21a6.09,6.09,0,0,1-.06.76Zm4.76-1.16a2.31,2.31,0,0,0-2.25-2.64,2.69,2.69,0,0,0-2.49,2.64Z"/><path class="cls-2" d="M377.16,222a6,6,0,0,1-2.56.52,4.24,4.24,0,0,1-4.45-4.56,4.54,4.54,0,0,1,4.8-4.74,5.42,5.42,0,0,1,2.25.46l-.37,1.25a3.76,3.76,0,0,0-1.88-.42,3.37,3.37,0,0,0-.05,6.71,4.61,4.61,0,0,0,2-.44Z"/><path class="cls-2" d="M379.86,218.13a2.86,2.86,0,0,0,3.06,3.1,5.87,5.87,0,0,0,2.47-.46l.28,1.16a7.23,7.23,0,0,1-3,.55,4.15,4.15,0,0,1-4.39-4.5c0-2.69,1.59-4.81,4.19-4.81,2.92,0,3.69,2.56,3.69,4.21a6.09,6.09,0,0,1-.06.76Zm4.76-1.16a2.31,2.31,0,0,0-2.25-2.64,2.69,2.69,0,0,0-2.49,2.64Z"/><path class="cls-2" d="M390,210.87a1,1,0,0,1-2,0,1,1,0,0,1,1-1A1,1,0,0,1,390,210.87ZM388.2,222.3v-8.93h1.62v8.93Z"/><path class="cls-2" d="M392.51,216.29c0-1.14,0-2.07-.07-2.91h1.46l.07,1.53h0a3.51,3.51,0,0,1,3.17-1.73c2.16,0,3.78,1.83,3.78,4.54,0,3.21-2,4.8-4.06,4.8a3.13,3.13,0,0,1-2.75-1.4h0V226h-1.6Zm1.6,2.38a3.63,3.63,0,0,0,.07.66,2.51,2.51,0,0,0,2.44,1.9c1.71,0,2.71-1.4,2.71-3.45,0-1.79-.94-3.32-2.66-3.32a2.59,2.59,0,0,0-2.45,2,2.62,2.62,0,0,0-.11.66Z"/><path class="cls-2" d="M405,210.81v2.56h2.33v1.24H405v4.81c0,1.11.31,1.73,1.22,1.73a3.62,3.62,0,0,0,.94-.11l.07,1.22a4,4,0,0,1-1.44.22,2.25,2.25,0,0,1-1.75-.68,3.31,3.31,0,0,1-.63-2.32v-4.87H402v-1.24h1.38v-2.14Z"/><line class="cls-5" x1="328.95" y1="241.91" x2="440.13" y2="241.91"/><line class="cls-5" x1="328.95" y1="248.91" x2="440.13" y2="248.91"/><line class="cls-5" x1="328.95" y1="255.91" x2="440.13" y2="255.91"/><line class="cls-5" x1="328.95" y1="262.91" x2="440.13" y2="262.91"/><line class="cls-5" x1="328.95" y1="286.25" x2="440.13" y2="286.25"/><line class="cls-5" x1="328.95" y1="293.25" x2="440.13" y2="293.25"/><line class="cls-5" x1="328.95" y1="300.25" x2="440.13" y2="300.25"/><line class="cls-5" x1="328.95" y1="307.25" x2="440.13" y2="307.25"/><line class="cls-5" x1="328.95" y1="330.58" x2="440.13" y2="330.58"/><line class="cls-5" x1="328.95" y1="337.58" x2="440.13" y2="337.58"/><line class="cls-5" x1="328.95" y1="344.58" x2="440.13" y2="344.58"/><line class="cls-5" x1="328.95" y1="351.58" x2="440.13" y2="351.58"/><line class="cls-5" x1="328.95" y1="374.92" x2="440.13" y2="374.92"/><line class="cls-5" x1="328.95" y1="381.92" x2="440.13" y2="381.92"/><line class="cls-5" x1="328.95" y1="388.92" x2="440.13" y2="388.92"/><line class="cls-5" x1="328.95" y1="395.92" x2="440.13" y2="395.92"/><line class="cls-5" x1="328.95" y1="419.26" x2="440.13" y2="419.26"/><line class="cls-5" x1="328.95" y1="426.26" x2="440.13" y2="426.26"/><line class="cls-5" x1="328.95" y1="433.26" x2="440.13" y2="433.26"/><line class="cls-5" x1="328.95" y1="440.26" x2="440.13" y2="440.26"/><path class="cls-6" d="M195.82,346.3s-20,1.59-24.94,7.94-30.15,47.16-26.53,57.59,12.89,16.08,12.89,16.08L263.72,430s18.7-15.43,15.3-24.5S261.79,356,251.59,351.28s-23.13-2.72-23.13-2.72Z"/><path class="cls-7" d="M194.23,327.88s-12.92-18.36-9.52-36c0,0,8.16,4.76,12.92,4.76S248,299.31,231,327.88,194.23,327.88,194.23,327.88Z"/><path class="cls-8" d="M197.29,331.45s2.85-8.16,14.17-8.16,14.74,8.16,14.74,8.16,8.16-6.12,6.8,4.53-5.1,4.65-5.1,4.65-.79,19.72-15.53,19.27-15.53-17.68-15.53-17.68-4.87,1.93-4.42-10.2C192.42,332,194.68,326.91,197.29,331.45Z"/><path class="cls-9" d="M268.58,466.23s13.62,35.37.92,34.92-15-7-15-7H233.15l-6.5-12.47,2-12.7Z"/><path class="cls-9" d="M155.56,466.21s-12.46,35.37-.84,34.92,13.69-7,13.69-7H188l5.95-12.47-1.87-12.7Z"/><path class="cls-10" d="M263.17,436.26s5.19-6.06,12.22-6.3,14.74,2.26,15.87,7.47,3.17,13.15-1.13,17.23-57,28.34-57,28.34v11.11l-46.86,1.36-.91-14.06s-56.45-14.74-58.95-24.26,0-26.73,10-27.2S158,432.22,158,432.22Z"/><polygon class="cls-11" points="153.87 395.04 160 454.67 261.56 454.67 266.78 395.04 153.87 395.04"/><path class="cls-6" d="M192.39,454.67s5.47,10,14.77,11.34,16.1-11.34,16.1-11.34Z"/><path class="cls-12" d="M560.52,221.73s2.26-.18,6-.7"/><path class="cls-13" d="M578.52,218.89c24.59-5.32,63.76-19.85,46.48-57.23-19.57-42.35-89.14-79.27-116.32-92.4"/><path class="cls-12" d="M503.15,66.64c-3.48-1.62-5.46-2.48-5.46-2.48"/><polygon class="cls-6" points="599.17 225.31 619.79 234.26 621.15 333.2 564.14 334.08 561.32 234.94 583.03 228.22 599.17 225.31"/><path class="cls-7" d="M574.15,198.85s-14.63-12.43-6.82-21.41,13,2.41,15.1,2.63,22.18,2.85,22.84,5.84,1.82,19.63,0,25.1-3.14,8.68-5.69,5.62a50,50,0,0,1-4.09-5.62Z"/><path class="cls-8" d="M599.17,225.31s-3.89-9.34,0-12.45,5.06-9.73,2.72-10.51l-2.34-.78s-6.23-17.9-19.46-9.73c-11.25,6.95-6.64,22.68-5,27.24a2.57,2.57,0,0,0,1.7,1.58c2.27.69,6.89,2.63,6.23,6.84C582.14,233,599.12,231.14,599.17,225.31Z"/><path class="cls-14" d="M599.21,245s12.26,23.2,15.47,26.56l-29-1.31s3.06,6.42,0,11.82c0,0,39.26,8.76,43.49,2.34s3.94-14.16.73-22.77-10.07-27.44-10.07-27.44Z"/><path class="cls-14" d="M504.81,240.79l6.86-5.25,25.83,17.22S555.74,236,562,234.8v24.52s-18.24,11.24-20.58,11.53-5.11,3.06-8-1.46S504.81,240.79,504.81,240.79Z"/><polygon class="cls-4" points="552.43 242.43 552.43 296.43 583.27 296.43 583.27 241.94 552.43 242.43"/><path class="cls-8" d="M586.23,270.79s5.25,12.21,0,11.63-5.06-4-7.78-4.38-7.49-2.92-5.93-6.81S581,266.16,586.23,270.79Z"/><path class="cls-8" d="M510.92,236.16s1.56-8.72,0-11.54-3.5,3.41-3.5,3.41a6.47,6.47,0,0,1-5.06-5.35c-.68-4.57-.49-6.91-3.41-5.45s-7.2,4.86-3.89,11.29,7.39,11.38,11.29,12.16Z"/><polygon class="cls-10" points="564.38 334.08 560.59 499.52 576.21 500.25 591.53 390.51 606.56 500.25 620.57 500.25 621.88 334.08 564.38 334.08"/><polygon class="cls-8" points="563.22 499.38 563.22 507.45 574.89 506.96 574.89 499.76 563.22 499.38"/><polygon class="cls-8" points="608.75 499.38 608.75 507.45 620.42 506.96 620.42 499.76 608.75 499.38"/><path class="cls-15" d="M559.12,503.85s-6.32,1-7.3,9H536s-4.86,3.7,0,6.42,37.46,4.57,38.72.78.49-15.08.49-15.08Z"/><path class="cls-15" d="M604.89,505.45s-6.32,1-7.3,9H581.73s-4.86,3.7,0,6.42,37.46,4.57,38.72.78.49-15.08.49-15.08Z"/><polygon class="cls-16" points="482.35 53.09 497.69 36.16 376.78 38.28 475.47 103.1 478.64 71.35 493.46 62.62 420.17 44.63 482.35 53.09"/><rect class="cls-17" x="100.12" y="234.22" width="8.44" height="11.38" rx="1.71" ry="1.71"/><rect class="cls-17" x="77.5" y="243.7" width="8.44" height="11.38" rx="1.71" ry="1.71" transform="translate(-152.41 130.83) rotate(-45)"/><rect class="cls-17" x="68.2" y="266.39" width="8.44" height="11.38" rx="1.71" ry="1.71" transform="translate(-199.66 344.51) rotate(-90)"/><rect class="cls-17" x="77.68" y="289.01" width="8.44" height="11.38" rx="1.71" ry="1.71" transform="translate(-68.58 561) rotate(-135)"/><rect class="cls-17" x="100.37" y="298.31" width="8.44" height="11.38" rx="1.71" ry="1.71" transform="translate(209.19 608) rotate(-180)"/><rect class="cls-17" x="122.99" y="288.83" width="8.44" height="11.38" rx="1.71" ry="1.71" transform="translate(425.43 412.83) rotate(135)"/><rect class="cls-17" x="132.29" y="266.14" width="8.44" height="11.38" rx="1.71" ry="1.71" transform="translate(408.34 135.32) rotate(90)"/><rect class="cls-17" x="122.81" y="243.52" width="8.44" height="11.38" rx="1.71" ry="1.71" transform="translate(213.42 -16.83) rotate(45)"/><path class="cls-17" d="M104.59,243.43a28.22,28.22,0,1,0,28.22,28.22A28.22,28.22,0,0,0,104.59,243.43Zm.36,48.12a19.9,19.9,0,1,1,19.9-19.9A19.9,19.9,0,0,1,105,291.55Z"/><rect class="cls-17" x="409.43" y="125.16" width="3.95" height="5.32" rx="1.71" ry="1.71"/><rect class="cls-17" x="398.86" y="129.59" width="3.95" height="5.32" rx="1.71" ry="1.71" transform="translate(23.89 322.17) rotate(-45)"/><rect class="cls-17" x="394.52" y="140.2" width="3.95" height="5.32" rx="1.71" ry="1.71" transform="translate(253.63 539.35) rotate(-90)"/><rect class="cls-17" x="398.95" y="150.77" width="3.95" height="5.32" rx="1.71" ry="1.71" transform="translate(575.92 545.41) rotate(-135)"/><rect class="cls-17" x="409.55" y="155.11" width="3.95" height="5.32" rx="1.71" ry="1.71" transform="translate(823.05 315.54) rotate(-180)"/><rect class="cls-17" x="420.12" y="150.68" width="3.95" height="5.32" rx="1.71" ry="1.71" transform="translate(828.99 -36.69) rotate(135)"/><rect class="cls-17" x="424.47" y="140.08" width="3.95" height="5.32" rx="1.71" ry="1.71" transform="translate(569.18 -283.7) rotate(90)"/><rect class="cls-17" x="420.04" y="129.5" width="3.95" height="5.32" rx="1.71" ry="1.71" transform="translate(217.06 -259.7) rotate(45)"/><path class="cls-17" d="M411.52,129.46a13.19,13.19,0,1,0,13.19,13.19A13.19,13.19,0,0,0,411.52,129.46Zm.17,22.49a9.3,9.3,0,1,1,9.3-9.3A9.3,9.3,0,0,1,411.69,152Z"/></svg>