<svg xmlns="http://www.w3.org/2000/svg" viewBox="0 0 60 60"><defs><style>.cls-1{fill:#e6fdfc;}.cls-2,.cls-3{fill:#3fcdc7;}.cls-2{opacity:0.3;}</style></defs><title>Recipt voucher</title><g id="Layer_2" data-name="Layer 2"><g id="Layer_1-2" data-name="Layer 1"><rect class="cls-1" width="60" height="60" rx="30"/><polygon class="cls-2" points="16.19 14.21 43.06 14.58 43.06 47.33 38.06 44.27 33.94 47.33 29.54 44.15 25.19 47.33 20.47 44.15 16.19 47.08 16.19 14.21"/><path class="cls-3" d="M45.52,13.55h-32a.89.89,0,1,0,0,1.78h1.92V47.49a.9.9,0,0,0,.47.79.88.88,0,0,0,.91-.05l3.88-2.58,3.89,2.59a.89.89,0,0,0,1,0l3.87-2.58,3.89,2.59a.89.89,0,0,0,1,0l3.88-2.58,3.89,2.59a.93.93,0,0,0,.49.14.88.88,0,0,0,.89-.89l0-32.16h2a.89.89,0,0,0,.9-.89A.91.91,0,0,0,45.52,13.55ZM41.73,45.82l-3-2a.88.88,0,0,0-1,0l-3.88,2.59L30,43.83a.89.89,0,0,0-1,0l-3.87,2.58-3.89-2.58a.89.89,0,0,0-1,0l-3,2V15.32H41.72Z"/><path class="cls-3" d="M21.36,27.8h9.35a.9.9,0,0,0,0-1.79H21.36a.9.9,0,0,0,0,1.79Z"/><path class="cls-3" d="M21.36,30.9h7a.9.9,0,0,0,0-1.79h-7a.9.9,0,0,0,0,1.79Z"/><path class="cls-3" d="M35.38,27.8h2.34a.9.9,0,0,0,0-1.79H35.38a.9.9,0,0,0,0,1.79Z"/><path class="cls-3" d="M35.38,30.9h2.34a.9.9,0,0,0,0-1.79H35.38a.9.9,0,0,0,0,1.79Z"/><path class="cls-3" d="M21.36,20.63h9.35a.89.89,0,0,0,0-1.78H21.36a.89.89,0,1,0,0,1.78Z"/><path class="cls-3" d="M21.36,23.73h7a.9.9,0,0,0,0-1.79h-7a.9.9,0,0,0-.89.9A.89.89,0,0,0,21.36,23.73Z"/><path class="cls-3" d="M35.38,20.63h2.34a.89.89,0,0,0,0-1.78H35.38a.89.89,0,0,0,0,1.78Z"/><path class="cls-3" d="M35.38,23.73h2.34a.9.9,0,0,0,0-1.79H35.38a.9.9,0,0,0-.89.9A.89.89,0,0,0,35.38,23.73Z"/><path class="cls-3" d="M21.36,35.05h9.35a.9.9,0,0,0,0-1.79H21.36a.9.9,0,0,0,0,1.79Z"/><path class="cls-3" d="M21.36,38.14h7a.89.89,0,1,0,0-1.78h-7a.89.89,0,0,0,0,1.78Z"/><path class="cls-3" d="M35.38,35.05h2.34a.9.9,0,0,0,0-1.79H35.38a.9.9,0,0,0,0,1.79Z"/><path class="cls-3" d="M35.38,38.14h2.34a.89.89,0,0,0,0-1.78H35.38a.89.89,0,1,0,0,1.78Z"/></g></g></svg>