<svg xmlns="http://www.w3.org/2000/svg" viewBox="0 0 60 60"><defs><style>.cls-1{fill:#fceef3;}.cls-2,.cls-3{fill:#ff689b;}.cls-2{opacity:0.3;}</style></defs><title>sales</title><g id="Layer_2" data-name="Layer 2"><g id="Layer_1-2" data-name="Layer 1"><rect class="cls-1" width="60" height="60" rx="30"/><polygon class="cls-2" points="15.73 23.19 17.57 20.15 18.94 19.78 18.44 14.86 26.61 13.07 27.31 11.86 30.89 11.49 34.56 14.45 35.31 15.74 40.81 17.34 40.98 19.49 42.56 20.03 44.39 23.57 45.73 48.53 14.56 48.53 15.73 23.19"/><path class="cls-3" d="M35.47,15.55a5.53,5.53,0,0,0-9.94-2.47.65.65,0,1,0,1,.77,4.23,4.23,0,0,1,7.61,1.88.64.64,0,0,0,.64.56h.09A.65.65,0,0,0,35.47,15.55Z"/><path class="cls-3" d="M44.87,22.83l-1.95-3.25a.65.65,0,0,0-.56-.32H40.49a.66.66,0,0,0,0,1.31H42l1.17,1.95H16.83L18,20.57h.69a.66.66,0,0,0,0-1.31H17.64a.65.65,0,0,0-.56.32l-1.95,3.25a.65.65,0,0,0,0,.66.66.66,0,0,0,.57.33H44.31a.66.66,0,0,0,.57-.33A.65.65,0,0,0,44.87,22.83Z"/><path class="cls-3" d="M41.63,16.83a.68.68,0,0,0-.41-.29l-8.87-2.07a.66.66,0,0,0-.49.08.69.69,0,0,0-.29.4l-.67,2.86a.67.67,0,0,0,.49.79.65.65,0,0,0,.78-.49l.52-2.23,7.6,1.78L39.1,22.77a.65.65,0,0,0,.48.78l.15,0a.65.65,0,0,0,.64-.5l1.34-5.74A.67.67,0,0,0,41.63,16.83Z"/><path class="cls-3" d="M30.34,18.37l-.59-5a.64.64,0,0,0-.72-.57L18.15,14.07a.65.65,0,0,0-.57.73l1,8.36a.64.64,0,0,0,.64.57h.08a.66.66,0,0,0,.57-.72L19,15.29l9.59-1.13.51,4.36a.65.65,0,0,0,.72.57A.64.64,0,0,0,30.34,18.37Z"/><path class="cls-3" d="M35.49,22.92,34.2,17.55a.66.66,0,0,0-.29-.4.67.67,0,0,0-.5-.08L22.93,19.59a.66.66,0,0,0-.48.79l.65,2.68a.65.65,0,1,0,1.26-.3l-.49-2.06,9.21-2.21,1.14,4.74a.66.66,0,0,0,.64.49H35A.66.66,0,0,0,35.49,22.92Z"/><path class="cls-3" d="M45,23.14a.64.64,0,0,0-.65-.62H15.69a.64.64,0,0,0-.65.62L13.73,48.51a.7.7,0,0,0,.18.48.67.67,0,0,0,.47.2H45.61a.67.67,0,0,0,.48-.2.7.7,0,0,0,.18-.48ZM15.07,47.89,16.3,23.82H43.7l1.23,24.07Z"/><path class="cls-3" d="M34.88,25.12a1.95,1.95,0,1,0,1.95,1.95A2,2,0,0,0,34.88,25.12Zm0,2.6a.65.65,0,1,1,.65-.65A.65.65,0,0,1,34.88,27.72Z"/><path class="cls-3" d="M25.12,25.12a1.95,1.95,0,1,0,1.95,1.95A2,2,0,0,0,25.12,25.12Zm0,2.6a.65.65,0,1,1,.65-.65A.65.65,0,0,1,25.12,27.72Z"/><path class="cls-3" d="M34.88,27.07h-.05a.65.65,0,0,0-.6.9V31.3a4.23,4.23,0,0,1-8.46,0V27.72a.65.65,0,0,0-1.3,0V31.3a5.53,5.53,0,1,0,11.06,0V27.72A.65.65,0,0,0,34.88,27.07Z"/></g></g></svg>