<svg xmlns="http://www.w3.org/2000/svg" viewBox="0 0 970.46 665.38"><defs><style>.cls-1{fill:#1a2e35;}.cls-2{fill:#192534;}.cls-3{fill:#9c9ca1;}.cls-4{fill:#fff;}.cls-5{fill:none;stroke:#fff;stroke-width:2px;}.cls-5,.cls-6{stroke-miterlimit:10;}.cls-6{fill:#fdfdfd;stroke:#049cbf;}.cls-7{fill:#00cfff;}.cls-8{fill:#ffbf9d;}.cls-9{fill:#ff9a6c;}.cls-10{fill:#3b5998;}.cls-11{fill:#1bb1dc;}</style></defs><title>support_2</title><g id="Layer_2" data-name="Layer 2"><g id="fa5e9963-be56-4fcb-a961-77b5aada95f1"><path class="cls-1" d="M948.23,664.78c0,.33-207.79.6-464.06.6s-464.1-.27-464.1-.6,207.75-.6,464.1-.6S948.23,664.45,948.23,664.78Z"/><polygon class="cls-2" points="539.1 657.59 382.81 657.59 391.79 591.13 530.12 591.13 539.1 657.59"/><rect class="cls-2" x="166.29" y="161.79" width="587.8" height="432.93" rx="5.8" ry="5.8"/><path class="cls-3" d="M166.29,533.64V584.3a10.42,10.42,0,0,0,10.42,10.42h567a10.42,10.42,0,0,0,10.42-10.42V533.64Z"/><rect class="cls-4" x="185.21" y="181.55" width="547.9" height="332.33"/><circle class="cls-4" cx="460.95" cy="568.67" r="13.47"/><path class="cls-2" d="M553.47,664.18H363.05a18,18,0,0,1,18-18H535.5a18,18,0,0,1,18,18Z"/><circle class="cls-5" cx="460.95" cy="172.28" r="4.19"/><polygon class="cls-6" points="668.93 357.77 668.93 365.86 637.9 365.86 668.93 392.68 668.93 470.35 789.88 470.35 789.88 357.77 668.93 357.77"/><path class="cls-7" d="M722,445.34c0-4.08,2.83-7,6.68-7,4.08,0,6.69,2.95,6.69,7s-2.61,7-6.69,7S722,449.31,722,445.34Zm2.83-16.2-1.59-54.38h10.87l-1.59,54.38Z"/><rect class="cls-8" x="420.77" y="254.83" width="59.39" height="67.93"/><rect class="cls-9" x="420.77" y="254.83" width="59.39" height="46.06"/><circle class="cls-1" cx="450.47" cy="66.44" r="50.65"/><path class="cls-1" d="M511.09,251.48c-76.07,2.33-42.95-2.53-119-.19l-25.2-70.66c-21-59,20.82-122.54,83.42-124.55q1.61-.05,3.23-.05h0q3.19,0,6.33.2c61.57,3.88,98.08,70.54,70.22,125.58C518.33,205,507.05,233.5,511.09,251.48Z"/><path class="cls-8" d="M451.67,285.26h0c-15.38,0-29.4-6.55-41.11-15.74-21.91-17.2-34.65-43.55-35.7-71.38l-.47-12.53c-1.74-46.27,33.36-84.78,77.28-84.78h0c43.91,0,79,38.51,77.28,84.78l-.37,9.92c-.93,24.77-10.42,48.65-27.51,66.61C488.52,275.33,472.17,285.26,451.67,285.26Z"/><path class="cls-1" d="M393,166s20.37-8.61,31.14-4.63c2.15.8,4.53-.54,4.53-2.62h0a3,3,0,0,0-2.82-2.86C418.94,155.1,401.05,154.38,393,166Z"/><path class="cls-1" d="M512.84,166s-20.37-8.61-31.14-4.63c-2.15.8-4.53-.54-4.53-2.62h0a3,3,0,0,1,2.82-2.86C486.92,155.1,504.8,154.38,512.84,166Z"/><rect class="cls-10" x="529.01" y="156" width="14.37" height="57.1"/><path class="cls-10" d="M550.68,164.56h12.23a0,0,0,0,1,0,0v40a0,0,0,0,1,0,0H550.68a11.13,11.13,0,0,1-11.13-11.13V175.68a11.13,11.13,0,0,1,11.13-11.13Z" transform="translate(1102.47 369.09) rotate(180)"/><rect class="cls-10" x="360.08" y="156" width="14.37" height="57.1" transform="translate(734.52 369.09) rotate(180)"/><path class="cls-10" d="M351.67,164.56H363.9a0,0,0,0,1,0,0v40a0,0,0,0,1,0,0H351.67a11.13,11.13,0,0,1-11.13-11.13V175.68A11.13,11.13,0,0,1,351.67,164.56Z"/><path class="cls-10" d="M541.59,181.48H530.81V167c0-52.46-32.81-95.15-73.14-95.15H445.79c-40.33,0-73.14,42.68-73.14,95.15H361.87C361.87,108.57,399.52,61,445.79,61h11.87c46.27,0,83.92,47.52,83.92,105.93Z"/><path class="cls-10" d="M428.88,254.83H386.76a22.22,22.22,0,0,1-22.19-22.19V211.18H370v21.45a16.82,16.82,0,0,0,16.8,16.8h42.12Z"/><path class="cls-1" d="M446.33,230.29a25.67,25.67,0,0,1-8.14,0,17.07,17.07,0,0,1-7.84-3.27,8.09,8.09,0,0,1-2.77-3.9,6.83,6.83,0,0,1-.27-2.6A7.65,7.65,0,0,1,428,218c1.63-3,4.35-4.58,7-5.74.67-.27,1.35-.51,2-.72L439,211a13.67,13.67,0,0,0,3.2-1.44,12.76,12.76,0,0,0,4.72-5.15,13.29,13.29,0,0,0,1.14-7.17,28.25,28.25,0,0,0-1.7-7.67,21,21,0,0,1,3.44,7.4,14.17,14.17,0,0,1-.3,8.54A14.72,14.72,0,0,1,444,212.4a15.61,15.61,0,0,1-4,1.94l-1.9.59c-.59.19-1.16.42-1.72.65a10.85,10.85,0,0,0-5.35,4c-1.07,1.68-.49,3.65,1.16,5.31a17.19,17.19,0,0,0,6.42,3.65A38.29,38.29,0,0,0,446.33,230.29Z"/><path class="cls-7" d="M380.49,314.23h0a53.47,53.47,0,0,0-47.89,29.69L285.81,459.74,215.05,363l-38.13,10.25,68,115.32c19.92,28,44.45,45.08,81.23-.34L378,414.06Z"/><path class="cls-7" d="M529,314.23h0a53.47,53.47,0,0,1,47.89,29.69l39.37,170h-56.6l-28.21-99.82Z"/><path class="cls-7" d="M447.48,314.23H369.71a33.11,33.11,0,0,0-30.54,45.91L394.6,513.88H522.39l51.63-156a32.08,32.08,0,0,0-29.9-43.7Z"/><path class="cls-7" d="M543.38,368.13,555,402.24a32.63,32.63,0,0,1-30.89,43.13H388.4a31.3,31.3,0,0,1-28.67-43.84l14.61-33.4Z"/><path class="cls-8" d="M480.16,314.23h0a20.59,20.59,0,0,1-16.63,32.72h-27A20.59,20.59,0,0,1,418,317.34l1.52-3.11S462.14,289.53,480.16,314.23Z"/><polygon class="cls-8" points="195 349.71 176.92 333.1 158.5 331.3 141.55 334.89 165.96 342.03 176.92 357.77 195 349.71"/><polygon class="cls-8" points="215.05 363 185.21 343.22 127.42 339.63 101.96 314.23 101.96 331.19 127.42 363 176.92 373.25 215.05 363"/><path class="cls-1" d="M511.24,184.55a85.25,85.25,0,0,0-8.43-3.45,27.92,27.92,0,0,0-8-1.54,19.9,19.9,0,0,0-7.83,1.25,35.53,35.53,0,0,0-4,1.64c-1.37.63-2.64,1.47-4.21,2.1a22.2,22.2,0,0,1,2.56-4.17,17.51,17.51,0,0,1,3.74-3.34,16.18,16.18,0,0,1,9.93-2.86,18.89,18.89,0,0,1,9.7,3.14A18.47,18.47,0,0,1,511.24,184.55Z"/><path class="cls-1" d="M423.29,184.55a85.29,85.29,0,0,0-8.43-3.45,27.91,27.91,0,0,0-8-1.54,19.9,19.9,0,0,0-7.83,1.25,35.52,35.52,0,0,0-4,1.64c-1.37.63-2.64,1.47-4.21,2.1a22.2,22.2,0,0,1,2.56-4.17,17.51,17.51,0,0,1,3.74-3.34,16.18,16.18,0,0,1,9.93-2.86,18.89,18.89,0,0,1,9.7,3.14A18.47,18.47,0,0,1,423.29,184.55Z"/><path class="cls-1" d="M436.11,258.55A20.77,20.77,0,0,0,447,259.79a32.69,32.69,0,0,0,10.49-3.13,28.79,28.79,0,0,0,8.6-6.45,24.85,24.85,0,0,0,5.15-9.21l1.84,2a108.23,108.23,0,0,1-11,2.13c-3.68.5-7.39.89-11.11,1a89.42,89.42,0,0,1-11.17-.2,59,59,0,0,1-11-1.93c3.72,0,7.37-.1,11-.28s7.28-.49,10.9-.86,7.24-.78,10.85-1.3,7.23-1,10.78-1.65l2.67-.46-.83,2.47A26.39,26.39,0,0,1,468.09,252a29.14,29.14,0,0,1-9.71,6.48A32.12,32.12,0,0,1,447.13,261C443.33,261.07,439.35,260.55,436.11,258.55Z"/><ellipse class="cls-10" cx="424.32" cy="251.07" rx="9.55" ry="5.55"/><path class="cls-11" d="M556,419l-20-58.31,3.24,14.7A72.39,72.39,0,0,1,523,406.62c-18.87,21.11-44.27,23.68-50.48,24.14L427,426.25a58.41,58.41,0,0,1-52.66-58.12h0c-13.87,39.52-13.56,51.57-13.56,51.57a32.63,32.63,0,0,0,30.89,43.13H513.56l9.55,51.06L542.5,459A31.32,31.32,0,0,0,556,419Z"/><path class="cls-1" d="M493.26,106.14S463.45,147.33,387.8,152c-22.72,1.4-20.54-17.32-20.54-17.32a40.06,40.06,0,0,0,7.25-.54c18.47-3.08,24.63-17.69,40.21-29.87,3.54-2.77,26.29-20.56,50.51-15.71C479.09,91.34,488.49,100.56,493.26,106.14Z"/><polygon class="cls-6" points="969.96 0.5 620.87 0.5 620.87 223.17 661.02 223.17 646.88 271.57 700.59 223.17 969.96 223.17 969.96 0.5"/><rect class="cls-7" x="637.9" y="30.08" width="300" height="32.61"/><rect class="cls-7" x="637.9" y="85.33" width="247.9" height="18.21"/><rect class="cls-7" x="637.9" y="121.1" width="287.43" height="18.21"/><rect class="cls-7" x="637.9" y="156.88" width="205.52" height="19.58"/><path class="cls-6" d="M158.51,445.37,118.77,460a67.68,67.68,0,1,0,14.61,26.67Z"/><path class="cls-7" d="M61.11,520.93l-.22-2.84c-.66-5.9,1.31-12.34,6.77-18.89,4.91-5.79,7.64-10,7.64-15,0-5.57-3.49-9.28-10.37-9.39a19.39,19.39,0,0,0-11,3.39l-2.62-6.88c3.6-2.62,9.83-4.37,15.61-4.37,12.56,0,18.23,7.75,18.23,16.05,0,7.42-4.15,12.77-9.39,19-4.8,5.68-6.55,10.48-6.22,16l.11,2.84Zm-2.4,15.29c0-4,2.73-6.88,6.55-6.88s6.44,2.84,6.44,6.88c0,3.82-2.51,6.77-6.55,6.77C61.33,543,58.71,540,58.71,536.22Z"/></g></g></svg>