<svg id="Layer_1" data-name="Layer 1" xmlns="http://www.w3.org/2000/svg" viewBox="0 0 551 95"><defs><style>.cls-1{fill:#1ab1db;}.cls-2{fill:#231f20;}.cls-3{opacity:0.5;}.cls-4{fill:#fff;}.cls-5{opacity:0.2;}.cls-6{fill:#545282;}</style></defs><title>logo2_1</title><path class="cls-1" d="M61.7,2.83A43.76,43.76,0,0,0,18,44.9a32.9,32.9,0,1,1,0,3.39A43.76,43.76,0,1,0,61.7,2.83Z"/><path class="cls-2" d="M17.93,46.59c0-.57,0-1.13,0-1.69Q17.93,45.74,17.93,46.59Z"/><path class="cls-2" d="M18,48.29c0-.56,0-1.13,0-1.69Q17.93,47.45,18,48.29Z"/><path class="cls-1" d="M127.46,2.83a43.75,43.75,0,0,1,43.7,42.07,32.9,32.9,0,1,0,0,3.39,43.74,43.74,0,1,1-43.7-45.46Z"/><path class="cls-1" d="M171.2,46.59c0-.57,0-1.13,0-1.69Q171.2,45.74,171.2,46.59Z"/><path class="cls-1" d="M171.16,48.29c0-.56,0-1.13,0-1.69Q171.2,47.45,171.16,48.29Z"/><g class="cls-3"><path class="cls-4" d="M94.59,75.45a43.58,43.58,0,0,0,10.87-28.51c0-.12,0-.23,0-.35s0-.23,0-.35A43.58,43.58,0,0,0,94.59,17.74,43.59,43.59,0,0,0,83.72,46.39c0,.07,0,.14,0,.21s0,.14,0,.21A43.59,43.59,0,0,0,94.59,75.45Z"/></g><g class="cls-3"><path class="cls-4" d="M50.83,13.7A32.89,32.89,0,0,1,83.72,46.39,43.59,43.59,0,0,1,94.59,17.74,43.75,43.75,0,0,0,18,44.9,32.9,32.9,0,0,1,50.83,13.7Z"/></g><g class="cls-5"><path class="cls-4" d="M83.73,46.94c0-.12,0-.23,0-.35s0-.23,0-.35c0,.12,0,.23,0,.35S83.73,46.82,83.73,46.94Z"/></g><g class="cls-3"><path class="cls-4" d="M138.32,79.49A32.88,32.88,0,0,1,105.45,46.8,43.61,43.61,0,0,1,94.59,75.45a43.71,43.71,0,0,0,76.56-27.17A32.89,32.89,0,0,1,138.32,79.49Z"/></g><rect class="cls-4" x="149.85" y="23.02" width="32.77" height="45.46"/><path class="cls-1" d="M180.95,42.64h-8.17V66.88h-13V42.64h-8V31.42a5.69,5.69,0,0,1,3-5.54,10.16,10.16,0,0,1,4.83-1.25h21.44Z"/><rect class="cls-4" x="1.59" y="23.02" width="41.97" height="45.46"/><path class="cls-1" d="M25,65.71,22.49,60,20,65.71H5.1L15,44,4.75,27h15l2.74,4.43L25.16,27h15L29.93,44l9.89,21.74Z"/><path class="cls-6" d="M213.2,57.18c-3.35,6.7-10,18.95-10.37,18.95-2.78.49-13.88-2.7-14-3.35s10.94-20.91,14.29-26.38C202.59,45.66,190,23,190.09,22s12.25-4.57,13.23-4.25c.41.25,7.1,12.25,10,18.95h.49c3.51-6.53,10.21-18.86,10.78-18.95.9-.08,13,3.18,13.07,4.17s-12.74,23.68-13.31,24.5c3.1,5.15,14.45,25.23,14.37,25.81-.25.65-11.68,4.49-14.37,4.08-.49-.16-7.19-12.41-10.62-19.11Z"/><path class="cls-6" d="M261.63,65.26c3.76,0,7.68-2.45,8.66-2.94.82-.25,3.84,5.63,4.9,7.92-2.12,3.51-7.76,6.45-14,6.45-15.35,0-21.4-11-21.4-21.31S247.67,35,260.9,35c8.66,0,14,3.51,14.21,4.33.25,1-2,10.29-3.51,10.78-.57.08-4.82-3.59-9.55-3.59-5.8,0-9.39,3.27-9.39,9.55C252.65,63.88,258.12,65.26,261.63,65.26Z"/><path class="cls-6" d="M299.61,66a17.43,17.43,0,0,0,9.55-2.86c.82.82,4.17,7.59,4.25,8.82-2.21,2-7.84,4.66-14.45,4.66-14.78,0-20.74-9.88-20.74-20.33,0-11,6.86-21.31,19.68-21.31,10.86,0,17.48,8.17,17.48,17.31a22.53,22.53,0,0,1-.73,6.29c-4.08.57-18.87.57-23.76.41C290.87,63.3,294,66,299.61,66Zm4-14.78c.16-4-1.88-7.1-5.8-7.1-4.25,0-7,3.18-7,7.35Z"/><path class="cls-6" d="M334.57,14.22c.57,1-.57,55.78-1,62.07,0,0-11,.08-11.68-.33s-.65-60.35.57-61.41S334.32,13.65,334.57,14.22Z"/><path class="cls-6" d="M360,63.14,377,62.73c.9.82.49,12.9-.25,12.82-1.63.25-33.81.41-34.3.08s-1.88-8.66-1.55-10.37c10.7-12.09,22.21-21.07,22.21-28.34,0-3.27-1.71-6.21-6.29-6.21-5.14,0-7.68,3.51-8.66,4.66-1.55-1-7.35-7.92-7.19-9.15s5.88-8.74,18.46-8.74c10.78,0,18.38,6,18.38,16.9,0,9.64-7.6,17.72-18,28.42Z"/><path class="cls-6" d="M382.51,19.12c1.06-.57,39.28-1.47,43.12-.9,1.14.33,1.06,12.41.49,12.49-1.71.25-7.59.41-14.46.65.08,15.76.25,40.67-.08,43.94-.49.57-14.21,1.06-14.29.33-.33-4.49-.41-29.73-.24-44.43-5.31.08-12.09.16-14.21-.08C382.1,28.68,382.1,19.61,382.51,19.12Z"/><path class="cls-6" d="M442,34.56c10.13,0,18,6,18,17.88,0,8.74-.41,22.29-.65,22.78s-10.54,0-10.54,0L448,71.71a14.07,14.07,0,0,1-10.45,4.49c-8.9,0-12.66-5.23-12.66-12.33,0-7.35,6.45-12,14.62-12a12.16,12.16,0,0,1,7.6,2.21c.08-3.51.24-8.33-7.11-8.33-5.06,0-7.43,3.59-8.17,3.68s-6.37-4.9-6.29-5.8C425.63,42.23,431,34.56,442,34.56Zm-.82,33.65c3.59,0,5.39-2.12,5.39-4.57,0-2.86-2.37-4.66-5.39-4.66-3.18,0-5.31,2-5.31,4.66S438.12,68.2,441.14,68.2Z"/><path class="cls-6" d="M481.08,14.22c.57,1-.57,55.78-1,62.07,0,0-11,.08-11.68-.33s-.65-60.35.57-61.41S480.83,13.65,481.08,14.22Z"/><path class="cls-6" d="M502.48,14.22c.57,1-.57,55.78-1,62.07,0,0-11,.08-11.68-.33s-.65-60.35.57-61.41S502.23,13.65,502.48,14.22Z"/><path class="cls-6" d="M525.1,94c-3.19.16-11.6-3.92-12.33-4.82.08-.49,7.19-15.27,8.08-18-2.94-5.8-13.39-32.09-13.31-34.22,0-.65,11.27-2.45,12.25-2.45s8.49,23.11,8.49,23.11,8.9-23.11,9.31-23.19,12.33,2.37,12.33,2.86C548.46,42.81,526.24,92.7,525.1,94Z"/></svg>